M48
; DRILL file {KiCad (6.0.1)} date Sun Jan 15 15:55:44 2023
; FORMAT={-:-/ absolute / metric / decimal}
; #@! TF.CreationDate,2023-01-15T15:55:44+01:00
; #@! TF.GenerationSoftware,Kicad,Pcbnew,(6.0.1)
; #@! TF.FileFunction,Plated,1,4,PTH
FMAT,2
METRIC
; #@! TA.AperFunction,Plated,PTH,ViaDrill
T1C0.400
; #@! TA.AperFunction,Plated,PTH,ComponentDrill
T2C0.750
; #@! TA.AperFunction,Plated,PTH,ComponentDrill
T3C0.960
%
G90
G05
T1
X135.775Y-110.05
X135.775Y-110.9
X135.775Y-111.75
X135.975Y-108.75
X136.35Y-103.15
X137.375Y-115.75
X137.4Y-103.15
X138.255Y-108.2
X138.255Y-111.1
X138.275Y-102.1
X138.35Y-99.35
X138.45Y-103.275
X139.175Y-103.9
X139.705Y-109.65
X140.175Y-116.8
X140.175Y-117.7
X140.2Y-103.95
X140.975Y-105.125
X141.155Y-108.2
X141.155Y-111.1
X141.255Y-106.0
X141.925Y-97.05
X142.205Y-106.0
X142.205Y-107.1
X142.65Y-104.0
X142.675Y-97.05
X143.075Y-113.65
X143.075Y-116.25
X143.725Y-109.1
X143.725Y-109.95
X143.875Y-104.95
X144.175Y-113.65
X144.175Y-116.25
X144.375Y-100.2
X144.475Y-99.4
X144.675Y-112.4
X145.175Y-102.0
X145.175Y-113.4
X145.175Y-114.4
X145.175Y-115.4
X145.175Y-116.4
X145.175Y-117.4
X145.175Y-118.4
X145.325Y-103.875
X145.85Y-99.575
X145.875Y-112.4
X145.925Y-109.25
X146.075Y-105.95
X147.375Y-106.0
X147.875Y-109.35
X147.875Y-110.4
X148.575Y-100.2
X148.875Y-110.4
X149.875Y-110.4
X149.975Y-107.55
X150.375Y-99.95
X150.875Y-110.4
X151.125Y-99.25
X151.375Y-102.0
X151.375Y-107.7
X151.475Y-106.8
X151.875Y-110.4
X152.475Y-109.05
X152.875Y-110.4
X153.725Y-101.7
X153.875Y-110.4
X154.675Y-104.5
X154.675Y-107.2
X154.875Y-110.4
T2
X152.075Y-103.2
X152.075Y-105.2
T3
X135.29Y-105.6
T0
M30
