G04 #@! TF.GenerationSoftware,KiCad,Pcbnew,(6.0.1)*
G04 #@! TF.CreationDate,2023-01-15T15:55:40+01:00*
G04 #@! TF.ProjectId,ESP32-IoT-Board-ChipAnt,45535033-322d-4496-9f54-2d426f617264,rev?*
G04 #@! TF.SameCoordinates,Original*
G04 #@! TF.FileFunction,Copper,L4,Bot*
G04 #@! TF.FilePolarity,Positive*
%FSLAX46Y46*%
G04 Gerber Fmt 4.6, Leading zero omitted, Abs format (unit mm)*
G04 Created by KiCad (PCBNEW (6.0.1)) date 2023-01-15 15:55:40*
%MOMM*%
%LPD*%
G01*
G04 APERTURE LIST*
G04 Aperture macros list*
%AMRoundRect*
0 Rectangle with rounded corners*
0 $1 Rounding radius*
0 $2 $3 $4 $5 $6 $7 $8 $9 X,Y pos of 4 corners*
0 Add a 4 corners polygon primitive as box body*
4,1,4,$2,$3,$4,$5,$6,$7,$8,$9,$2,$3,0*
0 Add four circle primitives for the rounded corners*
1,1,$1+$1,$2,$3*
1,1,$1+$1,$4,$5*
1,1,$1+$1,$6,$7*
1,1,$1+$1,$8,$9*
0 Add four rect primitives between the rounded corners*
20,1,$1+$1,$2,$3,$4,$5,0*
20,1,$1+$1,$4,$5,$6,$7,0*
20,1,$1+$1,$6,$7,$8,$9,0*
20,1,$1+$1,$8,$9,$2,$3,0*%
G04 Aperture macros list end*
G04 #@! TA.AperFunction,SMDPad,CuDef*
%ADD10RoundRect,0.140000X-0.140000X-0.170000X0.140000X-0.170000X0.140000X0.170000X-0.140000X0.170000X0*%
G04 #@! TD*
G04 #@! TA.AperFunction,SMDPad,CuDef*
%ADD11RoundRect,0.140000X0.140000X0.170000X-0.140000X0.170000X-0.140000X-0.170000X0.140000X-0.170000X0*%
G04 #@! TD*
G04 #@! TA.AperFunction,SMDPad,CuDef*
%ADD12RoundRect,0.135000X-0.135000X-0.185000X0.135000X-0.185000X0.135000X0.185000X-0.135000X0.185000X0*%
G04 #@! TD*
G04 #@! TA.AperFunction,SMDPad,CuDef*
%ADD13R,0.400000X0.600000*%
G04 #@! TD*
G04 #@! TA.AperFunction,ComponentPad*
%ADD14C,1.560000*%
G04 #@! TD*
G04 #@! TA.AperFunction,SMDPad,CuDef*
%ADD15R,0.350000X1.105000*%
G04 #@! TD*
G04 #@! TA.AperFunction,SMDPad,CuDef*
%ADD16R,1.105000X0.350000*%
G04 #@! TD*
G04 #@! TA.AperFunction,SMDPad,CuDef*
%ADD17R,2.100000X2.100000*%
G04 #@! TD*
G04 #@! TA.AperFunction,SMDPad,CuDef*
%ADD18RoundRect,0.135000X0.135000X0.185000X-0.135000X0.185000X-0.135000X-0.185000X0.135000X-0.185000X0*%
G04 #@! TD*
G04 #@! TA.AperFunction,ComponentPad*
%ADD19RoundRect,0.250000X0.625000X-0.350000X0.625000X0.350000X-0.625000X0.350000X-0.625000X-0.350000X0*%
G04 #@! TD*
G04 #@! TA.AperFunction,ComponentPad*
%ADD20O,1.750000X1.200000*%
G04 #@! TD*
G04 #@! TA.AperFunction,SMDPad,CuDef*
%ADD21RoundRect,0.140000X-0.170000X0.140000X-0.170000X-0.140000X0.170000X-0.140000X0.170000X0.140000X0*%
G04 #@! TD*
G04 #@! TA.AperFunction,ViaPad*
%ADD22C,0.600000*%
G04 #@! TD*
G04 #@! TA.AperFunction,ViaPad*
%ADD23C,0.800000*%
G04 #@! TD*
G04 #@! TA.AperFunction,Conductor*
%ADD24C,0.200000*%
G04 #@! TD*
G04 #@! TA.AperFunction,Conductor*
%ADD25C,0.300000*%
G04 #@! TD*
G04 APERTURE END LIST*
D10*
X143895000Y-103100000D03*
X144855000Y-103100000D03*
D11*
X138255000Y-100300000D03*
X137295000Y-100300000D03*
D12*
X143665000Y-107100000D03*
X144685000Y-107100000D03*
X137265000Y-109200000D03*
X138285000Y-109200000D03*
D13*
X138450000Y-106930000D03*
X137400000Y-106930000D03*
X136350000Y-106930000D03*
X135300000Y-106930000D03*
D14*
X135290000Y-105600000D03*
D13*
X135300000Y-104270000D03*
X136350000Y-104270000D03*
X137400000Y-104270000D03*
X138450000Y-104270000D03*
D10*
X136395000Y-101900000D03*
X137355000Y-101900000D03*
D15*
X140500000Y-98150000D03*
X141150000Y-98150000D03*
X141800000Y-98150000D03*
X142450000Y-98150000D03*
D16*
X143277500Y-98977500D03*
X143277500Y-99627500D03*
X143277500Y-100277500D03*
X143277500Y-100927500D03*
D15*
X142450000Y-101755000D03*
X141800000Y-101755000D03*
X141150000Y-101755000D03*
X140500000Y-101755000D03*
D16*
X139672500Y-100927500D03*
X139672500Y-100277500D03*
X139672500Y-99627500D03*
X139672500Y-98977500D03*
D17*
X141475000Y-99952500D03*
D18*
X144685000Y-108200000D03*
X143665000Y-108200000D03*
D19*
X152075000Y-105200000D03*
D20*
X152075000Y-103200000D03*
D10*
X141995000Y-103100000D03*
X142955000Y-103100000D03*
D21*
X140975000Y-103070000D03*
X140975000Y-104030000D03*
D22*
X135775000Y-110050000D03*
X147875000Y-109350000D03*
X151375000Y-102000000D03*
X154675000Y-107200000D03*
X146075000Y-105950000D03*
X143875000Y-104950000D03*
X135975000Y-108750000D03*
X144175000Y-113650000D03*
X143075000Y-113650000D03*
X137400000Y-103150000D03*
X139175000Y-103900000D03*
X136350000Y-103150000D03*
X140975000Y-105125000D03*
X151375000Y-107700000D03*
X151125000Y-99250000D03*
X141925000Y-97050000D03*
X145175000Y-116400000D03*
X149875000Y-110400000D03*
X138275000Y-102100000D03*
X150875000Y-110400000D03*
D23*
X138255000Y-108200000D03*
D22*
X143075000Y-116250000D03*
X145175000Y-118400000D03*
X138450000Y-103275000D03*
X140175000Y-116800000D03*
X150375000Y-99950000D03*
X148875000Y-110400000D03*
X145325000Y-103875000D03*
X153725000Y-101700000D03*
X154675000Y-104500000D03*
X145875000Y-112400000D03*
X144675000Y-112400000D03*
X147875000Y-110400000D03*
X140200000Y-103950000D03*
X145175000Y-115400000D03*
X144375000Y-100200000D03*
X151875000Y-110400000D03*
X151475000Y-106800000D03*
D23*
X141155000Y-111100000D03*
D22*
X138350000Y-99350000D03*
X144475000Y-99400000D03*
X152875000Y-110400000D03*
X145850000Y-99575000D03*
X137375000Y-115750000D03*
X142675000Y-97050000D03*
X149975000Y-107550000D03*
X145175000Y-114400000D03*
D23*
X138255000Y-111100000D03*
D22*
X145175000Y-117400000D03*
D23*
X141155000Y-108200000D03*
D22*
X147375000Y-106000000D03*
X153875000Y-110400000D03*
D23*
X139705000Y-109650000D03*
D22*
X154875000Y-110400000D03*
X145175000Y-113400000D03*
X142650000Y-104000000D03*
X144175000Y-116250000D03*
X140175000Y-117700000D03*
X145925000Y-109250000D03*
X143725000Y-109950000D03*
X152475000Y-109050000D03*
X135775000Y-110900000D03*
X135775000Y-111750000D03*
D23*
X148575000Y-100200000D03*
D22*
X145175000Y-102000000D03*
X141255000Y-106000000D03*
X142205000Y-106000000D03*
X142205000Y-107100000D03*
X143725000Y-109100000D03*
D24*
X136450000Y-110050000D02*
X135775000Y-110050000D01*
X136675000Y-109825000D02*
X136450000Y-110050000D01*
X136675000Y-107600000D02*
X136675000Y-109825000D01*
X136350000Y-107275000D02*
X136675000Y-107600000D01*
X136350000Y-106930000D02*
X136350000Y-107275000D01*
X136395000Y-101900000D02*
X136395000Y-103105000D01*
X136395000Y-103105000D02*
X136350000Y-103150000D01*
D25*
X136350000Y-104270000D02*
X136350000Y-103150000D01*
X137400000Y-103150000D02*
X137400000Y-104270000D01*
X143277500Y-98977500D02*
X143277500Y-99627500D01*
X144855000Y-103405000D02*
X145325000Y-103875000D01*
X142955000Y-103695000D02*
X142650000Y-104000000D01*
D24*
X137355000Y-101900000D02*
X138075000Y-101900000D01*
X138285000Y-108230000D02*
X138255000Y-108200000D01*
X144685000Y-108200000D02*
X145475000Y-108200000D01*
D25*
X141925000Y-97050000D02*
X142675000Y-97050000D01*
X135300000Y-104270000D02*
X135300000Y-105590000D01*
X143277500Y-99627500D02*
X143277500Y-100277500D01*
X144052500Y-98977500D02*
X144475000Y-99400000D01*
X141800000Y-98150000D02*
X141800000Y-97175000D01*
X140975000Y-104030000D02*
X140280000Y-104030000D01*
D24*
X138285000Y-109200000D02*
X138285000Y-108230000D01*
D25*
X144297500Y-100277500D02*
X144375000Y-100200000D01*
X138450000Y-103275000D02*
X138450000Y-104270000D01*
X142955000Y-103100000D02*
X142955000Y-103695000D01*
X138350000Y-99350000D02*
X137825000Y-99350000D01*
X143277500Y-100277500D02*
X144297500Y-100277500D01*
D24*
X145925000Y-108650000D02*
X145925000Y-109250000D01*
D25*
X135300000Y-105590000D02*
X135290000Y-105600000D01*
X137825000Y-99350000D02*
X137295000Y-99880000D01*
X135300000Y-106930000D02*
X135300000Y-105610000D01*
X144855000Y-103100000D02*
X144855000Y-103405000D01*
D24*
X138075000Y-101900000D02*
X138275000Y-102100000D01*
D25*
X137295000Y-99880000D02*
X137295000Y-100300000D01*
X141800000Y-97175000D02*
X141925000Y-97050000D01*
D24*
X145475000Y-108200000D02*
X145925000Y-108650000D01*
D25*
X140280000Y-104030000D02*
X140200000Y-103950000D01*
X143277500Y-98977500D02*
X144052500Y-98977500D01*
D24*
X146225000Y-109950000D02*
X147475000Y-108700000D01*
X147475000Y-108700000D02*
X151575000Y-108700000D01*
X143725000Y-109950000D02*
X146225000Y-109950000D01*
X151575000Y-108700000D02*
X151925000Y-109050000D01*
X151925000Y-109050000D02*
X152475000Y-109050000D01*
X138450000Y-107325000D02*
X138975000Y-107850000D01*
X135775000Y-110900000D02*
X135275000Y-110900000D01*
X135075000Y-111100000D02*
X135075000Y-112100000D01*
X135075000Y-112100000D02*
X135375000Y-112400000D01*
X138975000Y-111400000D02*
X138975000Y-107850000D01*
X138450000Y-106930000D02*
X138450000Y-107325000D01*
X135375000Y-112400000D02*
X137975000Y-112400000D01*
X137975000Y-112400000D02*
X138975000Y-111400000D01*
X135275000Y-110900000D02*
X135075000Y-111100000D01*
X137265000Y-111110000D02*
X136625000Y-111750000D01*
X137265000Y-109200000D02*
X137265000Y-111110000D01*
X137400000Y-107875000D02*
X137265000Y-108010000D01*
X137265000Y-108010000D02*
X137265000Y-109200000D01*
X137400000Y-107875000D02*
X137400000Y-106930000D01*
X136625000Y-111750000D02*
X135775000Y-111750000D01*
X148875000Y-107100000D02*
X150775000Y-105200000D01*
X144685000Y-107100000D02*
X148875000Y-107100000D01*
X150775000Y-105200000D02*
X152075000Y-105200000D01*
D25*
X138255000Y-100300000D02*
X139650000Y-100300000D01*
X139672500Y-99627500D02*
X139672500Y-100277500D01*
X139650000Y-100300000D02*
X139672500Y-100277500D01*
X140500000Y-101755000D02*
X140500000Y-102595000D01*
D24*
X141625000Y-103700000D02*
X141625000Y-105630000D01*
X141625000Y-105630000D02*
X141255000Y-106000000D01*
D25*
X140500000Y-102595000D02*
X140975000Y-103070000D01*
D24*
X140975000Y-103070000D02*
X140995000Y-103070000D01*
X140995000Y-103070000D02*
X141625000Y-103700000D01*
X141995000Y-103100000D02*
X141995000Y-104870000D01*
X142205000Y-105080000D02*
X142205000Y-106000000D01*
D25*
X141995000Y-102670000D02*
X141995000Y-103100000D01*
D24*
X141995000Y-104870000D02*
X142205000Y-105080000D01*
D25*
X141800000Y-101755000D02*
X141800000Y-102475000D01*
X141800000Y-102475000D02*
X141995000Y-102670000D01*
D24*
X142205000Y-107100000D02*
X142205000Y-106970000D01*
D25*
X143277500Y-100927500D02*
X143277500Y-101802500D01*
D24*
X143025000Y-106150000D02*
X143025000Y-104650000D01*
X143025000Y-104650000D02*
X143895000Y-103780000D01*
X142205000Y-106970000D02*
X143025000Y-106150000D01*
X143895000Y-103780000D02*
X143895000Y-103100000D01*
D25*
X143277500Y-101802500D02*
X143895000Y-102420000D01*
X143895000Y-102420000D02*
X143895000Y-103100000D01*
D24*
X143665000Y-107100000D02*
X143665000Y-108200000D01*
X143665000Y-109040000D02*
X143725000Y-109100000D01*
X143665000Y-108200000D02*
X143665000Y-109040000D01*
G04 #@! TA.AperFunction,NonConductor*
G36*
X155332361Y-110571185D02*
G01*
X155338313Y-110577876D01*
X155338368Y-110585388D01*
X155268418Y-110796868D01*
X155262567Y-110803647D01*
X155257313Y-110804894D01*
X155218680Y-110804902D01*
X155163870Y-110804913D01*
X155155597Y-110801488D01*
X155152168Y-110793215D01*
X155155593Y-110784942D01*
X155157746Y-110783242D01*
X155180507Y-110769267D01*
X155180508Y-110769267D01*
X155181212Y-110768834D01*
X155184272Y-110765454D01*
X155218568Y-110727563D01*
X155272423Y-110668065D01*
X155316732Y-110576612D01*
X155323422Y-110570661D01*
X155332361Y-110571185D01*
G37*
G04 #@! TD.AperFunction*
G04 #@! TA.AperFunction,NonConductor*
G36*
X151233649Y-116463974D02*
G01*
X151235790Y-116472669D01*
X151231585Y-116480000D01*
X151195229Y-116509430D01*
X151194704Y-116509831D01*
X151030625Y-116627820D01*
X151021908Y-116629868D01*
X151014296Y-116625152D01*
X151012248Y-116616434D01*
X151016863Y-116608896D01*
X151217292Y-116461481D01*
X151225987Y-116459340D01*
X151233649Y-116463974D01*
G37*
G04 #@! TD.AperFunction*
G04 #@! TA.AperFunction,NonConductor*
G36*
X150922464Y-116691973D02*
G01*
X150924034Y-116700789D01*
X150919438Y-116707774D01*
X150642771Y-116906726D01*
X150642239Y-116907086D01*
X150088623Y-117259087D01*
X150068561Y-117271843D01*
X150067991Y-117272182D01*
X149821900Y-117409597D01*
X149813007Y-117410639D01*
X149805982Y-117405086D01*
X149804940Y-117396192D01*
X149809894Y-117389525D01*
X150906304Y-116688419D01*
X150915120Y-116686849D01*
X150922464Y-116691973D01*
G37*
G04 #@! TD.AperFunction*
G04 #@! TA.AperFunction,NonConductor*
G36*
X147934681Y-118247846D02*
G01*
X147940049Y-118255014D01*
X147938777Y-118263878D01*
X147932594Y-118268947D01*
X147728372Y-118340730D01*
X147592372Y-118388533D01*
X147591736Y-118388736D01*
X147316842Y-118468058D01*
X146938574Y-118577209D01*
X146937958Y-118577368D01*
X146752774Y-118619526D01*
X146586137Y-118657461D01*
X146577310Y-118655956D01*
X146572132Y-118648650D01*
X146573637Y-118639823D01*
X146580153Y-118634855D01*
X147529444Y-118347860D01*
X147529918Y-118347727D01*
X147632727Y-118321459D01*
X147925817Y-118246574D01*
X147934681Y-118247846D01*
G37*
G04 #@! TD.AperFunction*
G04 #@! TA.AperFunction,NonConductor*
G36*
X145575840Y-118681726D02*
G01*
X145579688Y-118690400D01*
X145579688Y-118833456D01*
X145576261Y-118841729D01*
X145569269Y-118845086D01*
X145343981Y-118869893D01*
X145335382Y-118867392D01*
X145331070Y-118859544D01*
X145333571Y-118850945D01*
X145339622Y-118846976D01*
X145365384Y-118839952D01*
X145376826Y-118832927D01*
X145480507Y-118769267D01*
X145480508Y-118769266D01*
X145481212Y-118768834D01*
X145491592Y-118757366D01*
X145559314Y-118682548D01*
X145567406Y-118678714D01*
X145575840Y-118681726D01*
G37*
G04 #@! TD.AperFunction*
G04 #@! TA.AperFunction,NonConductor*
G36*
X142327313Y-97373927D02*
G01*
X142327996Y-97374672D01*
X142355478Y-97407366D01*
X142355248Y-97407560D01*
X142358659Y-97414650D01*
X142355697Y-97423101D01*
X142346977Y-97427001D01*
X142258210Y-97427001D01*
X142257644Y-97427114D01*
X142257640Y-97427114D01*
X142250964Y-97428442D01*
X142242181Y-97426695D01*
X142237207Y-97419249D01*
X142238954Y-97410466D01*
X142240008Y-97409116D01*
X142241417Y-97407560D01*
X142271477Y-97374349D01*
X142280151Y-97370500D01*
X142319040Y-97370500D01*
X142327313Y-97373927D01*
G37*
G04 #@! TD.AperFunction*
G04 #@! TA.AperFunction,NonConductor*
G36*
X144020472Y-99547236D02*
G01*
X144022908Y-99550797D01*
X144052780Y-99618684D01*
X144068021Y-99653322D01*
X144108412Y-99701373D01*
X144126782Y-99723227D01*
X144155478Y-99757366D01*
X144156173Y-99757828D01*
X144156795Y-99758385D01*
X144156570Y-99758637D01*
X144160898Y-99765092D01*
X144159164Y-99773878D01*
X144155669Y-99777288D01*
X144065011Y-99834489D01*
X144065009Y-99834491D01*
X144064305Y-99834935D01*
X144063757Y-99835556D01*
X144063753Y-99835559D01*
X144032947Y-99870441D01*
X143974332Y-99936810D01*
X143968140Y-99950000D01*
X143968012Y-99950272D01*
X143961394Y-99956305D01*
X143957421Y-99957000D01*
X143944234Y-99957000D01*
X143935961Y-99953573D01*
X143932534Y-99945300D01*
X143935961Y-99937027D01*
X143937734Y-99935572D01*
X143942532Y-99932366D01*
X143952923Y-99925423D01*
X143985809Y-99876207D01*
X143989967Y-99869984D01*
X143989967Y-99869983D01*
X143990607Y-99869026D01*
X143990878Y-99867667D01*
X144000387Y-99819860D01*
X144000387Y-99819858D01*
X144000500Y-99819291D01*
X144000499Y-99555508D01*
X144003926Y-99547236D01*
X144012199Y-99543809D01*
X144020472Y-99547236D01*
G37*
G04 #@! TD.AperFunction*
G04 #@! TA.AperFunction,NonConductor*
G36*
X140840473Y-102413461D02*
G01*
X140841927Y-102415233D01*
X140852077Y-102430423D01*
X140856652Y-102433480D01*
X140899700Y-102462244D01*
X140908474Y-102468107D01*
X140909603Y-102468332D01*
X140909604Y-102468332D01*
X140957640Y-102477887D01*
X140957642Y-102477887D01*
X140958209Y-102478000D01*
X141150000Y-102478000D01*
X141341790Y-102477999D01*
X141342356Y-102477886D01*
X141342360Y-102477886D01*
X141390392Y-102468333D01*
X141390394Y-102468332D01*
X141391526Y-102468107D01*
X141400301Y-102462244D01*
X141443348Y-102433480D01*
X141447923Y-102430423D01*
X141458072Y-102415234D01*
X141465517Y-102410259D01*
X141474300Y-102412006D01*
X141479275Y-102419451D01*
X141479500Y-102421734D01*
X141479500Y-102460500D01*
X141479455Y-102461520D01*
X141475794Y-102503365D01*
X141476060Y-102504357D01*
X141476060Y-102504358D01*
X141486668Y-102543946D01*
X141486889Y-102544942D01*
X141492310Y-102575688D01*
X141494183Y-102586308D01*
X141494695Y-102587196D01*
X141494696Y-102587197D01*
X141500572Y-102597373D01*
X141501740Y-102600193D01*
X141505048Y-102612539D01*
X141505634Y-102613376D01*
X141505635Y-102613378D01*
X141529141Y-102646947D01*
X141529690Y-102647808D01*
X141543895Y-102672412D01*
X141550695Y-102684191D01*
X141551474Y-102684845D01*
X141551476Y-102684847D01*
X141582877Y-102711195D01*
X141583629Y-102711885D01*
X141600545Y-102728801D01*
X141603972Y-102737074D01*
X141600552Y-102745340D01*
X141595127Y-102750775D01*
X141595126Y-102750777D01*
X141594365Y-102751539D01*
X141547594Y-102857332D01*
X141547493Y-102858202D01*
X141547492Y-102858204D01*
X141547272Y-102860098D01*
X141544500Y-102883871D01*
X141544501Y-103047602D01*
X141544501Y-103208710D01*
X141541074Y-103216983D01*
X141532801Y-103220410D01*
X141524528Y-103216983D01*
X141458927Y-103151382D01*
X141455500Y-103143109D01*
X141455499Y-102884211D01*
X141455499Y-102883872D01*
X141452606Y-102859550D01*
X141452382Y-102857667D01*
X141452381Y-102857665D01*
X141452278Y-102856796D01*
X141405323Y-102751085D01*
X141388833Y-102734623D01*
X141330378Y-102676270D01*
X141323461Y-102669365D01*
X141217668Y-102622594D01*
X141216798Y-102622493D01*
X141216796Y-102622492D01*
X141191467Y-102619539D01*
X141191460Y-102619539D01*
X141191129Y-102619500D01*
X140982602Y-102619500D01*
X140974329Y-102616073D01*
X140823927Y-102465671D01*
X140820500Y-102457398D01*
X140820500Y-102421734D01*
X140823927Y-102413461D01*
X140832200Y-102410034D01*
X140840473Y-102413461D01*
G37*
G04 #@! TD.AperFunction*
G04 #@! TA.AperFunction,NonConductor*
G36*
X142953573Y-101276427D02*
G01*
X142957000Y-101284700D01*
X142957000Y-101788000D01*
X142956955Y-101789020D01*
X142953294Y-101830865D01*
X142953560Y-101831857D01*
X142953560Y-101831858D01*
X142964168Y-101871446D01*
X142964389Y-101872442D01*
X142971683Y-101913808D01*
X142972195Y-101914696D01*
X142972196Y-101914697D01*
X142978072Y-101924873D01*
X142979240Y-101927693D01*
X142982548Y-101940039D01*
X142983134Y-101940876D01*
X142983135Y-101940878D01*
X142991849Y-101953322D01*
X143000922Y-101966279D01*
X143006641Y-101974447D01*
X143007189Y-101975306D01*
X143028195Y-102011691D01*
X143028974Y-102012345D01*
X143028976Y-102012347D01*
X143060377Y-102038695D01*
X143061129Y-102039385D01*
X143571073Y-102549329D01*
X143574500Y-102557602D01*
X143574500Y-102666425D01*
X143571080Y-102674691D01*
X143494365Y-102751539D01*
X143447594Y-102857332D01*
X143447493Y-102858202D01*
X143447492Y-102858204D01*
X143447272Y-102860098D01*
X143444500Y-102883871D01*
X143444501Y-103316128D01*
X143444541Y-103316463D01*
X143444541Y-103316465D01*
X143447555Y-103341796D01*
X143447722Y-103343204D01*
X143494677Y-103448915D01*
X143495440Y-103449677D01*
X143495441Y-103449678D01*
X143511074Y-103465284D01*
X143576539Y-103530635D01*
X143604557Y-103543022D01*
X143617531Y-103548758D01*
X143623712Y-103555238D01*
X143624500Y-103559459D01*
X143624500Y-103663109D01*
X143621073Y-103671382D01*
X143118114Y-104174341D01*
X143109841Y-104177768D01*
X143101568Y-104174341D01*
X143098141Y-104166068D01*
X143099312Y-104160967D01*
X143099918Y-104159715D01*
X143106686Y-104145747D01*
X143109747Y-104127556D01*
X143129162Y-104012152D01*
X143129236Y-104011712D01*
X143129331Y-104003915D01*
X143129374Y-104000447D01*
X143129374Y-104000441D01*
X143129379Y-104000000D01*
X143126936Y-103982941D01*
X143129156Y-103974266D01*
X143130239Y-103973017D01*
X143171365Y-103931890D01*
X143172117Y-103931200D01*
X143203522Y-103904848D01*
X143204305Y-103904191D01*
X143220900Y-103875447D01*
X143225308Y-103867813D01*
X143225856Y-103866952D01*
X143249365Y-103833378D01*
X143249366Y-103833376D01*
X143249952Y-103832539D01*
X143253260Y-103820193D01*
X143254428Y-103817373D01*
X143260304Y-103807197D01*
X143260305Y-103807196D01*
X143260817Y-103806308D01*
X143267875Y-103766279D01*
X143268111Y-103764942D01*
X143268332Y-103763946D01*
X143278940Y-103724358D01*
X143278940Y-103724357D01*
X143279206Y-103723365D01*
X143275545Y-103681520D01*
X143275500Y-103680500D01*
X143275500Y-103533575D01*
X143278920Y-103525309D01*
X143283760Y-103520461D01*
X143355635Y-103448461D01*
X143402406Y-103342668D01*
X143405500Y-103316129D01*
X143405499Y-102883872D01*
X143402606Y-102859550D01*
X143402382Y-102857667D01*
X143402381Y-102857665D01*
X143402278Y-102856796D01*
X143355323Y-102751085D01*
X143338833Y-102734623D01*
X143280378Y-102676270D01*
X143273461Y-102669365D01*
X143167668Y-102622594D01*
X143166798Y-102622493D01*
X143166796Y-102622492D01*
X143141467Y-102619539D01*
X143141460Y-102619539D01*
X143141129Y-102619500D01*
X142955275Y-102619500D01*
X142768872Y-102619501D01*
X142768537Y-102619541D01*
X142768535Y-102619541D01*
X142742667Y-102622618D01*
X142742665Y-102622619D01*
X142741796Y-102622722D01*
X142636085Y-102669677D01*
X142635323Y-102670440D01*
X142635322Y-102670441D01*
X142621596Y-102684191D01*
X142554365Y-102751539D01*
X142507594Y-102857332D01*
X142507493Y-102858202D01*
X142507492Y-102858204D01*
X142507272Y-102860098D01*
X142504500Y-102883871D01*
X142504501Y-103316128D01*
X142504541Y-103316463D01*
X142504541Y-103316465D01*
X142507555Y-103341796D01*
X142507722Y-103343204D01*
X142554677Y-103448915D01*
X142555440Y-103449677D01*
X142555441Y-103449678D01*
X142611045Y-103505185D01*
X142614479Y-103513455D01*
X142611059Y-103521731D01*
X142602708Y-103525165D01*
X142589000Y-103525081D01*
X142585774Y-103525061D01*
X142585773Y-103525061D01*
X142584941Y-103525056D01*
X142503676Y-103548282D01*
X142455052Y-103562178D01*
X142455051Y-103562179D01*
X142454255Y-103562406D01*
X142453553Y-103562849D01*
X142340011Y-103634489D01*
X142340009Y-103634491D01*
X142339305Y-103634935D01*
X142338757Y-103635556D01*
X142338753Y-103635559D01*
X142285970Y-103695325D01*
X142277924Y-103699258D01*
X142269455Y-103696350D01*
X142265500Y-103687580D01*
X142265500Y-103559434D01*
X142268927Y-103551161D01*
X142272450Y-103548741D01*
X142285325Y-103543022D01*
X142313915Y-103530323D01*
X142315501Y-103528735D01*
X142368018Y-103476126D01*
X142395635Y-103448461D01*
X142442406Y-103342668D01*
X142445500Y-103316129D01*
X142445499Y-102883872D01*
X142442606Y-102859550D01*
X142442382Y-102857667D01*
X142442381Y-102857665D01*
X142442278Y-102856796D01*
X142395323Y-102751085D01*
X142378833Y-102734623D01*
X142320378Y-102676270D01*
X142316944Y-102668000D01*
X142316989Y-102666970D01*
X142317037Y-102666425D01*
X142319206Y-102641635D01*
X142314138Y-102622722D01*
X142308333Y-102601055D01*
X142308112Y-102600059D01*
X142300995Y-102559700D01*
X142300995Y-102559699D01*
X142300817Y-102558692D01*
X142297390Y-102552756D01*
X142294427Y-102547623D01*
X142293258Y-102544801D01*
X142290217Y-102533452D01*
X142289952Y-102532462D01*
X142265859Y-102498053D01*
X142265313Y-102497196D01*
X142264363Y-102495551D01*
X142263193Y-102486673D01*
X142268644Y-102479568D01*
X142274495Y-102478000D01*
X142628599Y-102477999D01*
X142641790Y-102477999D01*
X142642356Y-102477886D01*
X142642360Y-102477886D01*
X142690392Y-102468333D01*
X142690394Y-102468332D01*
X142691526Y-102468107D01*
X142700301Y-102462244D01*
X142743348Y-102433480D01*
X142747923Y-102430423D01*
X142785607Y-102374026D01*
X142789049Y-102356725D01*
X142795387Y-102324860D01*
X142795387Y-102324858D01*
X142795500Y-102324291D01*
X142795499Y-101284699D01*
X142798926Y-101276427D01*
X142807199Y-101273000D01*
X142945300Y-101273000D01*
X142953573Y-101276427D01*
G37*
G04 #@! TD.AperFunction*
G04 #@! TA.AperFunction,NonConductor*
G36*
X141350652Y-105434553D02*
G01*
X141354500Y-105443227D01*
X141354500Y-105513109D01*
X141351073Y-105521382D01*
X141346736Y-105525719D01*
X141338463Y-105529146D01*
X141335115Y-105528656D01*
X141325857Y-105525887D01*
X141305678Y-105525764D01*
X141270900Y-105525551D01*
X141262648Y-105522073D01*
X141259272Y-105513779D01*
X141262750Y-105505527D01*
X141264850Y-105503880D01*
X141280507Y-105494267D01*
X141280508Y-105494267D01*
X141281212Y-105493834D01*
X141291743Y-105482200D01*
X141334126Y-105435375D01*
X141342218Y-105431541D01*
X141350652Y-105434553D01*
G37*
G04 #@! TD.AperFunction*
G04 #@! TA.AperFunction,NonConductor*
G36*
X141915473Y-105173018D02*
G01*
X141931073Y-105188618D01*
X141934500Y-105196891D01*
X141934500Y-105603122D01*
X141931073Y-105611395D01*
X141929043Y-105613017D01*
X141915344Y-105621660D01*
X141906519Y-105623176D01*
X141899206Y-105618008D01*
X141897626Y-105614048D01*
X141895725Y-105604491D01*
X141895500Y-105602208D01*
X141895500Y-105181291D01*
X141898927Y-105173018D01*
X141907200Y-105169591D01*
X141915473Y-105173018D01*
G37*
G04 #@! TD.AperFunction*
G04 #@! TA.AperFunction,NonConductor*
G36*
X142285473Y-104303893D02*
G01*
X142286156Y-104304638D01*
X142324877Y-104350703D01*
X142330478Y-104357366D01*
X142331171Y-104357828D01*
X142331173Y-104357829D01*
X142418963Y-104416266D01*
X142443622Y-104432680D01*
X142573356Y-104473212D01*
X142650451Y-104474625D01*
X142708421Y-104475688D01*
X142708423Y-104475688D01*
X142709252Y-104475703D01*
X142809752Y-104448303D01*
X142818635Y-104449433D01*
X142824117Y-104456513D01*
X142822558Y-104466090D01*
X142814892Y-104477563D01*
X142814890Y-104477565D01*
X142803813Y-104494143D01*
X142770195Y-104544456D01*
X142770195Y-104544457D01*
X142749201Y-104650000D01*
X142749426Y-104651131D01*
X142754275Y-104675509D01*
X142754500Y-104677792D01*
X142754500Y-106033109D01*
X142751073Y-106041382D01*
X142690600Y-106101855D01*
X142682327Y-106105282D01*
X142674054Y-106101855D01*
X142670627Y-106093582D01*
X142670789Y-106091641D01*
X142684162Y-106012152D01*
X142684236Y-106011712D01*
X142684379Y-106000000D01*
X142682729Y-105988474D01*
X142665229Y-105866279D01*
X142665111Y-105865454D01*
X142664766Y-105864695D01*
X142609197Y-105742479D01*
X142609196Y-105742478D01*
X142608854Y-105741725D01*
X142608313Y-105741097D01*
X142520675Y-105639388D01*
X142520674Y-105639387D01*
X142520132Y-105638758D01*
X142480836Y-105613287D01*
X142475758Y-105605913D01*
X142475500Y-105603470D01*
X142475500Y-105107792D01*
X142475725Y-105105509D01*
X142480574Y-105081131D01*
X142480799Y-105080000D01*
X142465877Y-105004981D01*
X142459805Y-104974456D01*
X142458808Y-104972963D01*
X142427293Y-104925799D01*
X142415113Y-104907570D01*
X142415110Y-104907565D01*
X142415108Y-104907563D01*
X142400019Y-104884981D01*
X142378395Y-104870532D01*
X142376622Y-104869077D01*
X142268927Y-104761382D01*
X142265500Y-104753109D01*
X142265500Y-104312166D01*
X142268927Y-104303893D01*
X142277200Y-104300466D01*
X142285473Y-104303893D01*
G37*
G04 #@! TD.AperFunction*
G04 #@! TA.AperFunction,NonConductor*
G36*
X138699922Y-108576534D02*
G01*
X138704400Y-108584289D01*
X138704500Y-108585816D01*
X138704500Y-108847668D01*
X138701073Y-108855941D01*
X138692800Y-108859368D01*
X138684527Y-108855941D01*
X138682107Y-108852417D01*
X138676570Y-108839951D01*
X138676132Y-108838965D01*
X138673974Y-108836810D01*
X138612601Y-108775545D01*
X138595587Y-108758561D01*
X138562469Y-108743920D01*
X138556288Y-108737441D01*
X138555500Y-108733219D01*
X138555500Y-108694287D01*
X138558927Y-108686014D01*
X138560078Y-108685005D01*
X138560170Y-108684935D01*
X138661886Y-108606886D01*
X138683519Y-108578694D01*
X138691273Y-108574216D01*
X138699922Y-108576534D01*
G37*
G04 #@! TD.AperFunction*
G04 #@! TA.AperFunction,NonConductor*
G36*
X136961931Y-109644763D02*
G01*
X136973778Y-109650000D01*
X136986138Y-109655464D01*
X136987531Y-109656080D01*
X136993712Y-109662559D01*
X136994500Y-109666781D01*
X136994500Y-110993109D01*
X136991073Y-111001382D01*
X136516382Y-111476073D01*
X136508109Y-111479500D01*
X136173683Y-111479500D01*
X136164819Y-111475437D01*
X136090675Y-111389388D01*
X136090674Y-111389387D01*
X136090132Y-111388758D01*
X136089437Y-111388307D01*
X136089434Y-111388305D01*
X136006339Y-111334446D01*
X136001261Y-111327071D01*
X136002885Y-111318264D01*
X136006581Y-111314657D01*
X136080507Y-111269267D01*
X136080508Y-111269266D01*
X136081212Y-111268834D01*
X136092173Y-111256725D01*
X136130470Y-111214414D01*
X136172423Y-111168065D01*
X136231686Y-111045747D01*
X136233993Y-111032038D01*
X136254162Y-110912152D01*
X136254236Y-110911712D01*
X136254379Y-110900000D01*
X136252932Y-110889892D01*
X136244509Y-110831078D01*
X136235111Y-110765454D01*
X136188257Y-110662406D01*
X136179197Y-110642479D01*
X136179196Y-110642478D01*
X136178854Y-110641725D01*
X136168320Y-110629500D01*
X136090675Y-110539388D01*
X136090674Y-110539387D01*
X136090132Y-110538758D01*
X136089437Y-110538307D01*
X136089434Y-110538305D01*
X136006339Y-110484446D01*
X136001261Y-110477071D01*
X136002885Y-110468264D01*
X136006581Y-110464657D01*
X136080507Y-110419267D01*
X136080508Y-110419266D01*
X136081212Y-110418834D01*
X136087659Y-110411712D01*
X136166736Y-110324348D01*
X136175410Y-110320500D01*
X136422208Y-110320500D01*
X136424491Y-110320725D01*
X136450000Y-110325799D01*
X136451131Y-110325574D01*
X136476640Y-110320500D01*
X136554414Y-110305030D01*
X136554415Y-110305030D01*
X136555544Y-110304805D01*
X136557764Y-110303322D01*
X136588873Y-110282535D01*
X136622435Y-110260110D01*
X136622437Y-110260108D01*
X136644061Y-110245659D01*
X136645019Y-110245019D01*
X136659468Y-110223395D01*
X136660923Y-110221622D01*
X136846622Y-110035923D01*
X136848395Y-110034468D01*
X136869061Y-110020659D01*
X136870019Y-110020019D01*
X136885108Y-109997437D01*
X136885112Y-109997433D01*
X136929165Y-109931502D01*
X136929805Y-109930544D01*
X136932581Y-109916588D01*
X136945500Y-109851640D01*
X136945500Y-109851636D01*
X136950798Y-109825000D01*
X136945725Y-109799495D01*
X136945500Y-109797213D01*
X136945500Y-109655464D01*
X136948927Y-109647191D01*
X136957200Y-109643764D01*
X136961931Y-109644763D01*
G37*
G04 #@! TD.AperFunction*
G04 #@! TA.AperFunction,NonConductor*
G36*
X135392080Y-111182011D02*
G01*
X135392754Y-111182746D01*
X135455478Y-111257366D01*
X135456171Y-111257828D01*
X135456173Y-111257829D01*
X135543133Y-111315714D01*
X135548121Y-111323151D01*
X135546390Y-111331937D01*
X135542893Y-111335349D01*
X135465011Y-111384489D01*
X135465009Y-111384491D01*
X135464305Y-111384935D01*
X135463757Y-111385556D01*
X135463753Y-111385559D01*
X135450001Y-111401131D01*
X135374332Y-111486810D01*
X135373978Y-111487564D01*
X135367791Y-111500742D01*
X135361173Y-111506775D01*
X135352228Y-111506361D01*
X135346195Y-111499743D01*
X135345500Y-111495770D01*
X135345500Y-111216891D01*
X135348927Y-111208618D01*
X135375534Y-111182011D01*
X135383807Y-111178584D01*
X135392080Y-111182011D01*
G37*
G04 #@! TD.AperFunction*
G04 #@! TA.AperFunction,NonConductor*
G36*
X148736573Y-91813427D02*
G01*
X148740000Y-91821700D01*
X148740000Y-94493594D01*
X148739107Y-94498078D01*
X148738386Y-94499814D01*
X148737354Y-94499798D01*
X148742408Y-94847036D01*
X148742420Y-94847193D01*
X148742420Y-94847196D01*
X148748086Y-94922033D01*
X148768623Y-95193319D01*
X148815904Y-95537360D01*
X148815936Y-95537519D01*
X148815938Y-95537532D01*
X148884038Y-95877705D01*
X148884073Y-95877878D01*
X148972878Y-96213606D01*
X148973791Y-96213334D01*
X148975076Y-96215020D01*
X148976875Y-96215939D01*
X148977173Y-96216262D01*
X148977648Y-96216810D01*
X148979846Y-96219518D01*
X148980201Y-96219555D01*
X148980443Y-96219818D01*
X148982420Y-96219901D01*
X148983730Y-96220610D01*
X148984071Y-96220709D01*
X149589289Y-96522924D01*
X149589878Y-96523240D01*
X150179746Y-96861141D01*
X150180315Y-96861489D01*
X150720822Y-97213525D01*
X150749946Y-97232494D01*
X150750495Y-97232874D01*
X151298033Y-97635777D01*
X151298560Y-97636188D01*
X151822234Y-98069685D01*
X151822734Y-98070125D01*
X152320813Y-98532784D01*
X152321271Y-98533235D01*
X152591697Y-98814831D01*
X152792159Y-99023574D01*
X152792607Y-99024069D01*
X152889646Y-99137406D01*
X153214920Y-99517312D01*
X153234721Y-99540439D01*
X153235133Y-99540948D01*
X153427227Y-99793114D01*
X153647098Y-100081744D01*
X153647487Y-100082287D01*
X153855382Y-100390172D01*
X154019094Y-100632623D01*
X154027898Y-100645662D01*
X154028254Y-100646221D01*
X154373369Y-101226126D01*
X154375923Y-101230418D01*
X154376242Y-101230991D01*
X154500264Y-101469365D01*
X154690010Y-101834063D01*
X154690301Y-101834664D01*
X154815105Y-102112152D01*
X154969147Y-102454648D01*
X154969390Y-102455230D01*
X155186949Y-103023594D01*
X155212422Y-103090141D01*
X155212643Y-103090772D01*
X155419045Y-103738487D01*
X155419229Y-103739128D01*
X155492668Y-104025061D01*
X155586443Y-104390172D01*
X155588338Y-104397552D01*
X155588484Y-104398196D01*
X155712158Y-105026605D01*
X155719757Y-105065218D01*
X155719866Y-105065871D01*
X155721974Y-105081131D01*
X155812868Y-105739294D01*
X155812940Y-105739958D01*
X155867367Y-106417560D01*
X155867402Y-106418227D01*
X155883082Y-107097865D01*
X155883078Y-107098533D01*
X155859958Y-107777941D01*
X155859916Y-107778607D01*
X155798072Y-108455574D01*
X155797993Y-108456237D01*
X155697621Y-109128611D01*
X155697503Y-109129269D01*
X155696188Y-109135584D01*
X155574755Y-109718834D01*
X155558942Y-109794782D01*
X155558788Y-109795429D01*
X155389591Y-110425484D01*
X155382473Y-110451988D01*
X155382283Y-110452623D01*
X155372587Y-110481937D01*
X155359207Y-110522388D01*
X155353356Y-110529167D01*
X155344425Y-110529822D01*
X155337646Y-110523971D01*
X155336561Y-110516773D01*
X155354162Y-110412152D01*
X155354236Y-110411712D01*
X155354379Y-110400000D01*
X155352878Y-110389515D01*
X155335229Y-110266279D01*
X155335111Y-110265454D01*
X155334766Y-110264695D01*
X155279197Y-110142479D01*
X155279196Y-110142478D01*
X155278854Y-110141725D01*
X155263060Y-110123395D01*
X155190675Y-110039388D01*
X155190674Y-110039387D01*
X155190132Y-110038758D01*
X155189437Y-110038307D01*
X155189434Y-110038305D01*
X155076776Y-109965284D01*
X155076077Y-109964831D01*
X154983003Y-109936996D01*
X154946657Y-109926126D01*
X154946655Y-109926126D01*
X154945857Y-109925887D01*
X154880180Y-109925485D01*
X154810774Y-109925061D01*
X154810773Y-109925061D01*
X154809941Y-109925056D01*
X154740266Y-109944969D01*
X154680052Y-109962178D01*
X154680051Y-109962179D01*
X154679255Y-109962406D01*
X154675412Y-109964831D01*
X154565011Y-110034489D01*
X154565009Y-110034491D01*
X154564305Y-110034935D01*
X154563757Y-110035556D01*
X154563753Y-110035559D01*
X154525463Y-110078915D01*
X154474332Y-110136810D01*
X154416568Y-110259843D01*
X154395657Y-110394143D01*
X154413280Y-110528915D01*
X154413616Y-110529678D01*
X154413616Y-110529679D01*
X154420128Y-110544479D01*
X154468021Y-110653322D01*
X154468560Y-110653963D01*
X154548152Y-110748650D01*
X154555478Y-110757366D01*
X154556171Y-110757828D01*
X154556173Y-110757829D01*
X154594877Y-110783592D01*
X154599865Y-110791029D01*
X154598134Y-110799815D01*
X154590697Y-110804803D01*
X154588397Y-110805032D01*
X154163534Y-110805119D01*
X154155262Y-110801694D01*
X154151833Y-110793421D01*
X154155258Y-110785148D01*
X154157411Y-110783448D01*
X154180507Y-110769267D01*
X154180508Y-110769266D01*
X154181212Y-110768834D01*
X154184272Y-110765454D01*
X154218568Y-110727563D01*
X154272423Y-110668065D01*
X154331686Y-110545747D01*
X154331900Y-110544479D01*
X154354162Y-110412152D01*
X154354236Y-110411712D01*
X154354379Y-110400000D01*
X154352878Y-110389515D01*
X154335229Y-110266279D01*
X154335111Y-110265454D01*
X154334766Y-110264695D01*
X154279197Y-110142479D01*
X154279196Y-110142478D01*
X154278854Y-110141725D01*
X154263060Y-110123395D01*
X154190675Y-110039388D01*
X154190674Y-110039387D01*
X154190132Y-110038758D01*
X154189437Y-110038307D01*
X154189434Y-110038305D01*
X154076776Y-109965284D01*
X154076077Y-109964831D01*
X153983003Y-109936996D01*
X153946657Y-109926126D01*
X153946655Y-109926126D01*
X153945857Y-109925887D01*
X153880180Y-109925485D01*
X153810774Y-109925061D01*
X153810773Y-109925061D01*
X153809941Y-109925056D01*
X153740266Y-109944969D01*
X153680052Y-109962178D01*
X153680051Y-109962179D01*
X153679255Y-109962406D01*
X153675412Y-109964831D01*
X153565011Y-110034489D01*
X153565009Y-110034491D01*
X153564305Y-110034935D01*
X153563757Y-110035556D01*
X153563753Y-110035559D01*
X153525463Y-110078915D01*
X153474332Y-110136810D01*
X153416568Y-110259843D01*
X153395657Y-110394143D01*
X153413280Y-110528915D01*
X153413616Y-110529678D01*
X153413616Y-110529679D01*
X153420128Y-110544479D01*
X153468021Y-110653322D01*
X153468560Y-110653963D01*
X153548152Y-110748650D01*
X153555478Y-110757366D01*
X153556171Y-110757828D01*
X153556173Y-110757829D01*
X153595185Y-110783797D01*
X153600173Y-110791234D01*
X153598442Y-110800020D01*
X153591005Y-110805008D01*
X153588704Y-110805237D01*
X153552576Y-110805244D01*
X153163200Y-110805324D01*
X153154927Y-110801899D01*
X153151498Y-110793626D01*
X153154923Y-110785353D01*
X153157074Y-110783655D01*
X153181212Y-110768834D01*
X153184272Y-110765454D01*
X153218568Y-110727563D01*
X153272423Y-110668065D01*
X153331686Y-110545747D01*
X153331900Y-110544479D01*
X153354162Y-110412152D01*
X153354236Y-110411712D01*
X153354379Y-110400000D01*
X153352878Y-110389515D01*
X153335229Y-110266279D01*
X153335111Y-110265454D01*
X153334766Y-110264695D01*
X153279197Y-110142479D01*
X153279196Y-110142478D01*
X153278854Y-110141725D01*
X153263060Y-110123395D01*
X153190675Y-110039388D01*
X153190674Y-110039387D01*
X153190132Y-110038758D01*
X153189437Y-110038307D01*
X153189434Y-110038305D01*
X153076776Y-109965284D01*
X153076077Y-109964831D01*
X152983003Y-109936996D01*
X152946657Y-109926126D01*
X152946655Y-109926126D01*
X152945857Y-109925887D01*
X152880180Y-109925485D01*
X152810774Y-109925061D01*
X152810773Y-109925061D01*
X152809941Y-109925056D01*
X152740266Y-109944969D01*
X152680052Y-109962178D01*
X152680051Y-109962179D01*
X152679255Y-109962406D01*
X152675412Y-109964831D01*
X152565011Y-110034489D01*
X152565009Y-110034491D01*
X152564305Y-110034935D01*
X152563757Y-110035556D01*
X152563753Y-110035559D01*
X152525463Y-110078915D01*
X152474332Y-110136810D01*
X152416568Y-110259843D01*
X152395657Y-110394143D01*
X152413280Y-110528915D01*
X152413616Y-110529678D01*
X152413616Y-110529679D01*
X152420128Y-110544479D01*
X152468021Y-110653322D01*
X152468560Y-110653963D01*
X152548152Y-110748650D01*
X152555478Y-110757366D01*
X152556171Y-110757828D01*
X152556173Y-110757829D01*
X152595493Y-110784002D01*
X152600481Y-110791439D01*
X152598750Y-110800225D01*
X152591313Y-110805213D01*
X152589013Y-110805442D01*
X152546437Y-110805451D01*
X152162866Y-110805529D01*
X152154593Y-110802104D01*
X152151164Y-110793831D01*
X152154589Y-110785558D01*
X152156739Y-110783860D01*
X152181212Y-110768834D01*
X152184272Y-110765454D01*
X152218568Y-110727563D01*
X152272423Y-110668065D01*
X152331686Y-110545747D01*
X152331900Y-110544479D01*
X152354162Y-110412152D01*
X152354236Y-110411712D01*
X152354379Y-110400000D01*
X152352878Y-110389515D01*
X152335229Y-110266279D01*
X152335111Y-110265454D01*
X152334766Y-110264695D01*
X152279197Y-110142479D01*
X152279196Y-110142478D01*
X152278854Y-110141725D01*
X152263060Y-110123395D01*
X152190675Y-110039388D01*
X152190674Y-110039387D01*
X152190132Y-110038758D01*
X152189437Y-110038307D01*
X152189434Y-110038305D01*
X152076776Y-109965284D01*
X152076077Y-109964831D01*
X151983003Y-109936996D01*
X151946657Y-109926126D01*
X151946655Y-109926126D01*
X151945857Y-109925887D01*
X151880180Y-109925485D01*
X151810774Y-109925061D01*
X151810773Y-109925061D01*
X151809941Y-109925056D01*
X151740266Y-109944969D01*
X151680052Y-109962178D01*
X151680051Y-109962179D01*
X151679255Y-109962406D01*
X151675412Y-109964831D01*
X151565011Y-110034489D01*
X151565009Y-110034491D01*
X151564305Y-110034935D01*
X151563757Y-110035556D01*
X151563753Y-110035559D01*
X151525463Y-110078915D01*
X151474332Y-110136810D01*
X151416568Y-110259843D01*
X151395657Y-110394143D01*
X151413280Y-110528915D01*
X151413616Y-110529678D01*
X151413616Y-110529679D01*
X151420128Y-110544479D01*
X151468021Y-110653322D01*
X151468560Y-110653963D01*
X151548152Y-110748650D01*
X151555478Y-110757366D01*
X151556171Y-110757828D01*
X151556173Y-110757829D01*
X151568868Y-110766279D01*
X151595802Y-110784208D01*
X151600790Y-110791644D01*
X151599059Y-110800430D01*
X151591622Y-110805418D01*
X151589321Y-110805647D01*
X151162531Y-110805735D01*
X151154258Y-110802310D01*
X151150829Y-110794037D01*
X151154254Y-110785764D01*
X151156407Y-110784064D01*
X151157077Y-110783653D01*
X151181212Y-110768834D01*
X151184272Y-110765454D01*
X151218568Y-110727563D01*
X151272423Y-110668065D01*
X151331686Y-110545747D01*
X151331900Y-110544479D01*
X151354162Y-110412152D01*
X151354236Y-110411712D01*
X151354379Y-110400000D01*
X151352878Y-110389515D01*
X151335229Y-110266279D01*
X151335111Y-110265454D01*
X151334766Y-110264695D01*
X151279197Y-110142479D01*
X151279196Y-110142478D01*
X151278854Y-110141725D01*
X151263060Y-110123395D01*
X151190675Y-110039388D01*
X151190674Y-110039387D01*
X151190132Y-110038758D01*
X151189437Y-110038307D01*
X151189434Y-110038305D01*
X151076776Y-109965284D01*
X151076077Y-109964831D01*
X150983003Y-109936996D01*
X150946657Y-109926126D01*
X150946655Y-109926126D01*
X150945857Y-109925887D01*
X150880180Y-109925485D01*
X150810774Y-109925061D01*
X150810773Y-109925061D01*
X150809941Y-109925056D01*
X150740266Y-109944969D01*
X150680052Y-109962178D01*
X150680051Y-109962179D01*
X150679255Y-109962406D01*
X150675412Y-109964831D01*
X150565011Y-110034489D01*
X150565009Y-110034491D01*
X150564305Y-110034935D01*
X150563757Y-110035556D01*
X150563753Y-110035559D01*
X150525463Y-110078915D01*
X150474332Y-110136810D01*
X150416568Y-110259843D01*
X150395657Y-110394143D01*
X150413280Y-110528915D01*
X150413616Y-110529678D01*
X150413616Y-110529679D01*
X150420128Y-110544479D01*
X150468021Y-110653322D01*
X150468560Y-110653963D01*
X150548152Y-110748650D01*
X150555478Y-110757366D01*
X150556171Y-110757828D01*
X150556173Y-110757829D01*
X150596110Y-110784413D01*
X150601098Y-110791850D01*
X150599367Y-110800636D01*
X150591930Y-110805624D01*
X150589630Y-110805853D01*
X150162196Y-110805941D01*
X150153924Y-110802516D01*
X150150495Y-110794243D01*
X150153920Y-110785970D01*
X150156073Y-110784271D01*
X150180502Y-110769271D01*
X150180507Y-110769267D01*
X150181212Y-110768834D01*
X150184272Y-110765454D01*
X150218568Y-110727563D01*
X150272423Y-110668065D01*
X150331686Y-110545747D01*
X150331900Y-110544479D01*
X150354162Y-110412152D01*
X150354236Y-110411712D01*
X150354379Y-110400000D01*
X150352878Y-110389515D01*
X150335229Y-110266279D01*
X150335111Y-110265454D01*
X150334766Y-110264695D01*
X150279197Y-110142479D01*
X150279196Y-110142478D01*
X150278854Y-110141725D01*
X150263060Y-110123395D01*
X150190675Y-110039388D01*
X150190674Y-110039387D01*
X150190132Y-110038758D01*
X150189437Y-110038307D01*
X150189434Y-110038305D01*
X150076776Y-109965284D01*
X150076077Y-109964831D01*
X149983003Y-109936996D01*
X149946657Y-109926126D01*
X149946655Y-109926126D01*
X149945857Y-109925887D01*
X149880180Y-109925485D01*
X149810774Y-109925061D01*
X149810773Y-109925061D01*
X149809941Y-109925056D01*
X149740266Y-109944969D01*
X149680052Y-109962178D01*
X149680051Y-109962179D01*
X149679255Y-109962406D01*
X149675412Y-109964831D01*
X149565011Y-110034489D01*
X149565009Y-110034491D01*
X149564305Y-110034935D01*
X149563757Y-110035556D01*
X149563753Y-110035559D01*
X149525463Y-110078915D01*
X149474332Y-110136810D01*
X149416568Y-110259843D01*
X149395657Y-110394143D01*
X149413280Y-110528915D01*
X149413616Y-110529678D01*
X149413616Y-110529679D01*
X149420128Y-110544479D01*
X149468021Y-110653322D01*
X149468560Y-110653963D01*
X149548152Y-110748650D01*
X149555478Y-110757366D01*
X149556171Y-110757828D01*
X149556173Y-110757829D01*
X149568868Y-110766279D01*
X149595898Y-110784271D01*
X149596419Y-110784618D01*
X149601407Y-110792055D01*
X149599676Y-110800841D01*
X149592239Y-110805829D01*
X149589939Y-110806058D01*
X149161861Y-110806146D01*
X149153589Y-110802721D01*
X149150160Y-110794448D01*
X149153585Y-110786175D01*
X149155738Y-110784475D01*
X149180507Y-110769267D01*
X149180508Y-110769266D01*
X149181212Y-110768834D01*
X149184272Y-110765454D01*
X149218568Y-110727563D01*
X149272423Y-110668065D01*
X149331686Y-110545747D01*
X149331900Y-110544479D01*
X149354162Y-110412152D01*
X149354236Y-110411712D01*
X149354379Y-110400000D01*
X149352878Y-110389515D01*
X149335229Y-110266279D01*
X149335111Y-110265454D01*
X149334766Y-110264695D01*
X149279197Y-110142479D01*
X149279196Y-110142478D01*
X149278854Y-110141725D01*
X149263060Y-110123395D01*
X149190675Y-110039388D01*
X149190674Y-110039387D01*
X149190132Y-110038758D01*
X149189437Y-110038307D01*
X149189434Y-110038305D01*
X149076776Y-109965284D01*
X149076077Y-109964831D01*
X148983003Y-109936996D01*
X148946657Y-109926126D01*
X148946655Y-109926126D01*
X148945857Y-109925887D01*
X148880180Y-109925485D01*
X148810774Y-109925061D01*
X148810773Y-109925061D01*
X148809941Y-109925056D01*
X148740266Y-109944969D01*
X148680052Y-109962178D01*
X148680051Y-109962179D01*
X148679255Y-109962406D01*
X148675412Y-109964831D01*
X148565011Y-110034489D01*
X148565009Y-110034491D01*
X148564305Y-110034935D01*
X148563757Y-110035556D01*
X148563753Y-110035559D01*
X148525463Y-110078915D01*
X148474332Y-110136810D01*
X148416568Y-110259843D01*
X148395657Y-110394143D01*
X148413280Y-110528915D01*
X148413616Y-110529678D01*
X148413616Y-110529679D01*
X148420128Y-110544479D01*
X148468021Y-110653322D01*
X148468560Y-110653963D01*
X148548152Y-110748650D01*
X148555478Y-110757366D01*
X148556171Y-110757828D01*
X148556173Y-110757829D01*
X148568868Y-110766279D01*
X148595898Y-110784271D01*
X148596727Y-110784823D01*
X148601715Y-110792260D01*
X148599984Y-110801046D01*
X148592547Y-110806034D01*
X148590246Y-110806263D01*
X148573269Y-110806266D01*
X148161528Y-110806351D01*
X148153255Y-110802926D01*
X148149826Y-110794653D01*
X148153251Y-110786380D01*
X148155404Y-110784680D01*
X148156175Y-110784207D01*
X148181212Y-110768834D01*
X148184272Y-110765454D01*
X148218568Y-110727563D01*
X148272423Y-110668065D01*
X148331686Y-110545747D01*
X148331900Y-110544479D01*
X148354162Y-110412152D01*
X148354236Y-110411712D01*
X148354379Y-110400000D01*
X148352878Y-110389515D01*
X148335229Y-110266279D01*
X148335111Y-110265454D01*
X148334766Y-110264695D01*
X148279197Y-110142479D01*
X148279196Y-110142478D01*
X148278854Y-110141725D01*
X148263060Y-110123395D01*
X148190675Y-110039388D01*
X148190674Y-110039387D01*
X148190132Y-110038758D01*
X148189437Y-110038307D01*
X148189434Y-110038305D01*
X148076776Y-109965284D01*
X148076077Y-109964831D01*
X147983003Y-109936996D01*
X147946657Y-109926126D01*
X147946655Y-109926126D01*
X147945857Y-109925887D01*
X147880180Y-109925485D01*
X147810774Y-109925061D01*
X147810773Y-109925061D01*
X147809941Y-109925056D01*
X147740266Y-109944969D01*
X147680052Y-109962178D01*
X147680051Y-109962179D01*
X147679255Y-109962406D01*
X147675412Y-109964831D01*
X147565011Y-110034489D01*
X147565009Y-110034491D01*
X147564305Y-110034935D01*
X147563757Y-110035556D01*
X147563753Y-110035559D01*
X147525463Y-110078915D01*
X147474332Y-110136810D01*
X147416568Y-110259843D01*
X147395657Y-110394143D01*
X147413280Y-110528915D01*
X147413616Y-110529678D01*
X147413616Y-110529679D01*
X147420128Y-110544479D01*
X147468021Y-110653322D01*
X147468560Y-110653963D01*
X147548152Y-110748650D01*
X147555478Y-110757366D01*
X147556171Y-110757828D01*
X147556173Y-110757829D01*
X147573363Y-110769271D01*
X147596727Y-110784823D01*
X147597036Y-110785029D01*
X147602024Y-110792466D01*
X147600293Y-110801252D01*
X147592856Y-110806240D01*
X147590557Y-110806469D01*
X147524971Y-110806482D01*
X147524971Y-113194729D01*
X147521544Y-113203002D01*
X147513219Y-113206429D01*
X146589121Y-113202298D01*
X145611889Y-113197930D01*
X145603632Y-113194466D01*
X145601293Y-113191076D01*
X145578854Y-113141725D01*
X145490132Y-113038758D01*
X145489437Y-113038307D01*
X145489434Y-113038305D01*
X145376776Y-112965284D01*
X145376077Y-112964831D01*
X145310967Y-112945359D01*
X145246657Y-112926126D01*
X145246655Y-112926126D01*
X145245857Y-112925887D01*
X145180180Y-112925485D01*
X145110774Y-112925061D01*
X145110773Y-112925061D01*
X145109941Y-112925056D01*
X145028676Y-112948282D01*
X144980052Y-112962178D01*
X144980051Y-112962179D01*
X144979255Y-112962406D01*
X144975412Y-112964831D01*
X144865011Y-113034489D01*
X144865009Y-113034491D01*
X144864305Y-113034935D01*
X144863757Y-113035556D01*
X144863753Y-113035559D01*
X144816240Y-113089359D01*
X144774332Y-113136810D01*
X144716568Y-113259843D01*
X144695657Y-113394143D01*
X144713280Y-113528915D01*
X144713616Y-113529678D01*
X144713616Y-113529679D01*
X144755154Y-113624079D01*
X144768021Y-113653322D01*
X144855478Y-113757366D01*
X144856171Y-113757828D01*
X144856173Y-113757829D01*
X144914270Y-113796501D01*
X144968622Y-113832680D01*
X145098356Y-113873212D01*
X145175451Y-113874625D01*
X145233421Y-113875688D01*
X145233423Y-113875688D01*
X145234252Y-113875703D01*
X145365384Y-113839952D01*
X145376826Y-113832927D01*
X145480507Y-113769267D01*
X145480508Y-113769266D01*
X145481212Y-113768834D01*
X145491592Y-113757366D01*
X145559314Y-113682548D01*
X145567406Y-113678714D01*
X145575840Y-113681726D01*
X145579688Y-113690400D01*
X145579688Y-114111190D01*
X145576261Y-114119463D01*
X145567988Y-114122890D01*
X145559124Y-114118827D01*
X145490675Y-114039388D01*
X145490674Y-114039387D01*
X145490132Y-114038758D01*
X145489437Y-114038307D01*
X145489434Y-114038305D01*
X145376776Y-113965284D01*
X145376077Y-113964831D01*
X145310967Y-113945359D01*
X145246657Y-113926126D01*
X145246655Y-113926126D01*
X145245857Y-113925887D01*
X145180180Y-113925485D01*
X145110774Y-113925061D01*
X145110773Y-113925061D01*
X145109941Y-113925056D01*
X145028676Y-113948282D01*
X144980052Y-113962178D01*
X144980051Y-113962179D01*
X144979255Y-113962406D01*
X144975412Y-113964831D01*
X144865011Y-114034489D01*
X144865009Y-114034491D01*
X144864305Y-114034935D01*
X144863757Y-114035556D01*
X144863753Y-114035559D01*
X144822544Y-114082220D01*
X144774332Y-114136810D01*
X144716568Y-114259843D01*
X144695657Y-114394143D01*
X144713280Y-114528915D01*
X144713616Y-114529678D01*
X144713616Y-114529679D01*
X144719457Y-114542954D01*
X144768021Y-114653322D01*
X144855478Y-114757366D01*
X144856171Y-114757828D01*
X144856173Y-114757829D01*
X144957724Y-114825426D01*
X144968622Y-114832680D01*
X145098356Y-114873212D01*
X145175451Y-114874625D01*
X145233421Y-114875688D01*
X145233423Y-114875688D01*
X145234252Y-114875703D01*
X145365384Y-114839952D01*
X145376826Y-114832927D01*
X145480507Y-114769267D01*
X145480508Y-114769266D01*
X145481212Y-114768834D01*
X145491592Y-114757366D01*
X145559314Y-114682548D01*
X145567406Y-114678714D01*
X145575840Y-114681726D01*
X145579688Y-114690400D01*
X145579688Y-115111190D01*
X145576261Y-115119463D01*
X145567988Y-115122890D01*
X145559124Y-115118827D01*
X145490675Y-115039388D01*
X145490674Y-115039387D01*
X145490132Y-115038758D01*
X145489437Y-115038307D01*
X145489434Y-115038305D01*
X145376776Y-114965284D01*
X145376077Y-114964831D01*
X145310967Y-114945359D01*
X145246657Y-114926126D01*
X145246655Y-114926126D01*
X145245857Y-114925887D01*
X145180180Y-114925485D01*
X145110774Y-114925061D01*
X145110773Y-114925061D01*
X145109941Y-114925056D01*
X145028676Y-114948282D01*
X144980052Y-114962178D01*
X144980051Y-114962179D01*
X144979255Y-114962406D01*
X144975412Y-114964831D01*
X144865011Y-115034489D01*
X144865009Y-115034491D01*
X144864305Y-115034935D01*
X144863757Y-115035556D01*
X144863753Y-115035559D01*
X144842607Y-115059503D01*
X144774332Y-115136810D01*
X144716568Y-115259843D01*
X144695657Y-115394143D01*
X144713280Y-115528915D01*
X144713616Y-115529678D01*
X144713616Y-115529679D01*
X144755154Y-115624079D01*
X144768021Y-115653322D01*
X144768560Y-115653963D01*
X144848916Y-115749559D01*
X144855478Y-115757366D01*
X144856171Y-115757828D01*
X144856173Y-115757829D01*
X144883302Y-115775887D01*
X144968622Y-115832680D01*
X145098356Y-115873212D01*
X145175451Y-115874625D01*
X145233421Y-115875688D01*
X145233423Y-115875688D01*
X145234252Y-115875703D01*
X145365384Y-115839952D01*
X145376826Y-115832927D01*
X145480507Y-115769267D01*
X145480508Y-115769266D01*
X145481212Y-115768834D01*
X145487260Y-115762152D01*
X145559314Y-115682548D01*
X145567406Y-115678714D01*
X145575840Y-115681726D01*
X145579688Y-115690400D01*
X145579688Y-116111190D01*
X145576261Y-116119463D01*
X145567988Y-116122890D01*
X145559124Y-116118827D01*
X145490675Y-116039388D01*
X145490674Y-116039387D01*
X145490132Y-116038758D01*
X145489437Y-116038307D01*
X145489434Y-116038305D01*
X145376776Y-115965284D01*
X145376077Y-115964831D01*
X145310967Y-115945359D01*
X145246657Y-115926126D01*
X145246655Y-115926126D01*
X145245857Y-115925887D01*
X145180180Y-115925485D01*
X145110774Y-115925061D01*
X145110773Y-115925061D01*
X145109941Y-115925056D01*
X145028676Y-115948282D01*
X144980052Y-115962178D01*
X144980051Y-115962179D01*
X144979255Y-115962406D01*
X144975412Y-115964831D01*
X144865011Y-116034489D01*
X144865009Y-116034491D01*
X144864305Y-116034935D01*
X144863757Y-116035556D01*
X144863753Y-116035559D01*
X144816240Y-116089359D01*
X144774332Y-116136810D01*
X144716568Y-116259843D01*
X144695657Y-116394143D01*
X144713280Y-116528915D01*
X144713616Y-116529678D01*
X144713616Y-116529679D01*
X144719248Y-116542479D01*
X144768021Y-116653322D01*
X144780414Y-116668065D01*
X144826782Y-116723227D01*
X144855478Y-116757366D01*
X144856171Y-116757828D01*
X144856173Y-116757829D01*
X144910728Y-116794143D01*
X144968622Y-116832680D01*
X145098356Y-116873212D01*
X145175451Y-116874625D01*
X145233421Y-116875688D01*
X145233423Y-116875688D01*
X145234252Y-116875703D01*
X145365384Y-116839952D01*
X145376826Y-116832927D01*
X145480507Y-116769267D01*
X145480508Y-116769266D01*
X145481212Y-116768834D01*
X145491592Y-116757366D01*
X145559314Y-116682548D01*
X145567406Y-116678714D01*
X145575840Y-116681726D01*
X145579688Y-116690400D01*
X145579688Y-117111190D01*
X145576261Y-117119463D01*
X145567988Y-117122890D01*
X145559124Y-117118827D01*
X145490675Y-117039388D01*
X145490674Y-117039387D01*
X145490132Y-117038758D01*
X145489437Y-117038307D01*
X145489434Y-117038305D01*
X145376776Y-116965284D01*
X145376077Y-116964831D01*
X145258537Y-116929679D01*
X145246657Y-116926126D01*
X145246655Y-116926126D01*
X145245857Y-116925887D01*
X145180180Y-116925485D01*
X145110774Y-116925061D01*
X145110773Y-116925061D01*
X145109941Y-116925056D01*
X145040431Y-116944922D01*
X144980052Y-116962178D01*
X144980051Y-116962179D01*
X144979255Y-116962406D01*
X144975412Y-116964831D01*
X144865011Y-117034489D01*
X144865009Y-117034491D01*
X144864305Y-117034935D01*
X144863757Y-117035556D01*
X144863753Y-117035559D01*
X144834499Y-117068684D01*
X144774332Y-117136810D01*
X144716568Y-117259843D01*
X144695657Y-117394143D01*
X144713280Y-117528915D01*
X144768021Y-117653322D01*
X144855478Y-117757366D01*
X144856171Y-117757828D01*
X144856173Y-117757829D01*
X144957724Y-117825426D01*
X144968622Y-117832680D01*
X145098356Y-117873212D01*
X145175451Y-117874625D01*
X145233421Y-117875688D01*
X145233423Y-117875688D01*
X145234252Y-117875703D01*
X145365384Y-117839952D01*
X145376826Y-117832927D01*
X145480507Y-117769267D01*
X145480508Y-117769266D01*
X145481212Y-117768834D01*
X145491592Y-117757366D01*
X145559314Y-117682548D01*
X145567406Y-117678714D01*
X145575840Y-117681726D01*
X145579688Y-117690400D01*
X145579688Y-118111190D01*
X145576261Y-118119463D01*
X145567988Y-118122890D01*
X145559124Y-118118827D01*
X145490675Y-118039388D01*
X145490674Y-118039387D01*
X145490132Y-118038758D01*
X145489437Y-118038307D01*
X145489434Y-118038305D01*
X145376776Y-117965284D01*
X145376077Y-117964831D01*
X145310967Y-117945359D01*
X145246657Y-117926126D01*
X145246655Y-117926126D01*
X145245857Y-117925887D01*
X145180180Y-117925485D01*
X145110774Y-117925061D01*
X145110773Y-117925061D01*
X145109941Y-117925056D01*
X145028676Y-117948282D01*
X144980052Y-117962178D01*
X144980051Y-117962179D01*
X144979255Y-117962406D01*
X144975412Y-117964831D01*
X144865011Y-118034489D01*
X144865009Y-118034491D01*
X144864305Y-118034935D01*
X144863757Y-118035556D01*
X144863753Y-118035559D01*
X144834366Y-118068834D01*
X144774332Y-118136810D01*
X144716568Y-118259843D01*
X144695657Y-118394143D01*
X144713280Y-118528915D01*
X144768021Y-118653322D01*
X144855478Y-118757366D01*
X144856171Y-118757828D01*
X144856173Y-118757829D01*
X144957724Y-118825426D01*
X144968622Y-118832680D01*
X145098356Y-118873212D01*
X145100554Y-118873252D01*
X145108762Y-118876829D01*
X145112038Y-118885163D01*
X145108461Y-118893372D01*
X145101621Y-118896580D01*
X145019571Y-118905615D01*
X144927675Y-118915734D01*
X144927032Y-118915786D01*
X144655581Y-118930073D01*
X144248159Y-118951517D01*
X144247491Y-118951533D01*
X143907594Y-118950004D01*
X143567680Y-118948475D01*
X143567046Y-118948455D01*
X142888504Y-118906615D01*
X142887863Y-118906557D01*
X142212814Y-118826072D01*
X142212181Y-118825978D01*
X141542828Y-118707112D01*
X141542174Y-118706976D01*
X140880732Y-118550123D01*
X140880087Y-118549951D01*
X140690054Y-118493259D01*
X140228629Y-118355604D01*
X140228029Y-118355407D01*
X139588709Y-118124204D01*
X139588121Y-118123972D01*
X139124898Y-117925887D01*
X138963053Y-117856678D01*
X138962447Y-117856398D01*
X138635919Y-117694143D01*
X139695657Y-117694143D01*
X139713280Y-117828915D01*
X139713616Y-117829678D01*
X139713616Y-117829679D01*
X139715045Y-117832927D01*
X139768021Y-117953322D01*
X139768560Y-117953963D01*
X139839837Y-118038758D01*
X139855478Y-118057366D01*
X139856171Y-118057828D01*
X139856173Y-118057829D01*
X139955529Y-118123965D01*
X139968622Y-118132680D01*
X140098356Y-118173212D01*
X140175451Y-118174625D01*
X140233421Y-118175688D01*
X140233423Y-118175688D01*
X140234252Y-118175703D01*
X140365384Y-118139952D01*
X140369274Y-118137564D01*
X140480507Y-118069267D01*
X140480508Y-118069266D01*
X140481212Y-118068834D01*
X140492173Y-118056725D01*
X140512299Y-118034489D01*
X140572423Y-117968065D01*
X140573771Y-117965284D01*
X140617172Y-117875703D01*
X140631686Y-117845747D01*
X140632735Y-117839515D01*
X140654162Y-117712152D01*
X140654236Y-117711712D01*
X140654379Y-117700000D01*
X140635111Y-117565454D01*
X140634766Y-117564695D01*
X140579197Y-117442479D01*
X140579196Y-117442478D01*
X140578854Y-117441725D01*
X140539620Y-117396192D01*
X140490675Y-117339388D01*
X140490674Y-117339387D01*
X140490132Y-117338758D01*
X140489437Y-117338307D01*
X140489434Y-117338305D01*
X140376776Y-117265284D01*
X140376077Y-117264831D01*
X140366337Y-117261918D01*
X140359392Y-117256265D01*
X140358480Y-117247357D01*
X140364133Y-117240412D01*
X140364696Y-117240140D01*
X140365384Y-117239952D01*
X140366087Y-117239520D01*
X140366090Y-117239519D01*
X140480507Y-117169267D01*
X140480508Y-117169266D01*
X140481212Y-117168834D01*
X140492173Y-117156725D01*
X140509516Y-117137564D01*
X140572423Y-117068065D01*
X140631686Y-116945747D01*
X140644957Y-116866869D01*
X140654162Y-116812152D01*
X140654236Y-116811712D01*
X140654379Y-116800000D01*
X140648274Y-116757366D01*
X140635229Y-116666279D01*
X140635111Y-116665454D01*
X140634766Y-116664695D01*
X140579197Y-116542479D01*
X140579196Y-116542478D01*
X140578854Y-116541725D01*
X140558467Y-116518065D01*
X140490675Y-116439388D01*
X140490674Y-116439387D01*
X140490132Y-116438758D01*
X140489437Y-116438307D01*
X140489434Y-116438305D01*
X140376776Y-116365284D01*
X140376077Y-116364831D01*
X140310967Y-116345359D01*
X140246657Y-116326126D01*
X140246655Y-116326126D01*
X140245857Y-116325887D01*
X140180180Y-116325485D01*
X140110774Y-116325061D01*
X140110773Y-116325061D01*
X140109941Y-116325056D01*
X140028676Y-116348282D01*
X139980052Y-116362178D01*
X139980051Y-116362179D01*
X139979255Y-116362406D01*
X139975412Y-116364831D01*
X139865011Y-116434489D01*
X139865009Y-116434491D01*
X139864305Y-116434935D01*
X139863757Y-116435556D01*
X139863753Y-116435559D01*
X139830979Y-116472669D01*
X139774332Y-116536810D01*
X139716568Y-116659843D01*
X139695657Y-116794143D01*
X139713280Y-116928915D01*
X139713616Y-116929678D01*
X139713616Y-116929679D01*
X139729283Y-116965284D01*
X139768021Y-117053322D01*
X139768560Y-117053963D01*
X139842331Y-117141725D01*
X139855478Y-117157366D01*
X139856171Y-117157828D01*
X139856173Y-117157829D01*
X139957724Y-117225426D01*
X139968622Y-117232680D01*
X139969411Y-117232926D01*
X139969414Y-117232928D01*
X139986049Y-117238125D01*
X139992924Y-117243864D01*
X139993728Y-117252782D01*
X139987989Y-117259657D01*
X139985775Y-117260543D01*
X139979255Y-117262406D01*
X139975412Y-117264831D01*
X139865011Y-117334489D01*
X139865009Y-117334491D01*
X139864305Y-117334935D01*
X139863757Y-117335556D01*
X139863753Y-117335559D01*
X139816240Y-117389359D01*
X139774332Y-117436810D01*
X139716568Y-117559843D01*
X139695657Y-117694143D01*
X138635919Y-117694143D01*
X138353671Y-117553891D01*
X138353081Y-117553577D01*
X137896795Y-117293380D01*
X137762527Y-117216813D01*
X137761958Y-117216466D01*
X137688512Y-117168834D01*
X137191613Y-116846578D01*
X137191067Y-116846202D01*
X137181942Y-116839515D01*
X136642727Y-116444357D01*
X136642207Y-116443953D01*
X136636671Y-116439388D01*
X136399871Y-116244143D01*
X142595657Y-116244143D01*
X142613280Y-116378915D01*
X142613616Y-116379678D01*
X142613616Y-116379679D01*
X142639612Y-116438758D01*
X142668021Y-116503322D01*
X142755478Y-116607366D01*
X142756171Y-116607828D01*
X142756173Y-116607829D01*
X142833178Y-116659087D01*
X142868622Y-116682680D01*
X142998356Y-116723212D01*
X143075451Y-116724625D01*
X143133421Y-116725688D01*
X143133423Y-116725688D01*
X143134252Y-116725703D01*
X143265384Y-116689952D01*
X143276826Y-116682927D01*
X143380507Y-116619267D01*
X143380508Y-116619266D01*
X143381212Y-116618834D01*
X143383385Y-116616434D01*
X143404346Y-116593276D01*
X143472423Y-116518065D01*
X143476411Y-116509835D01*
X143500875Y-116459340D01*
X143531686Y-116395747D01*
X143554236Y-116261712D01*
X143554379Y-116250000D01*
X143553540Y-116244143D01*
X143695657Y-116244143D01*
X143713280Y-116378915D01*
X143713616Y-116379678D01*
X143713616Y-116379679D01*
X143739612Y-116438758D01*
X143768021Y-116503322D01*
X143855478Y-116607366D01*
X143856171Y-116607828D01*
X143856173Y-116607829D01*
X143933178Y-116659087D01*
X143968622Y-116682680D01*
X144098356Y-116723212D01*
X144175451Y-116724625D01*
X144233421Y-116725688D01*
X144233423Y-116725688D01*
X144234252Y-116725703D01*
X144365384Y-116689952D01*
X144376826Y-116682927D01*
X144480507Y-116619267D01*
X144480508Y-116619266D01*
X144481212Y-116618834D01*
X144483385Y-116616434D01*
X144504346Y-116593276D01*
X144572423Y-116518065D01*
X144576411Y-116509835D01*
X144600875Y-116459340D01*
X144631686Y-116395747D01*
X144654236Y-116261712D01*
X144654379Y-116250000D01*
X144650900Y-116225703D01*
X144635229Y-116116279D01*
X144635111Y-116115454D01*
X144633172Y-116111190D01*
X144579197Y-115992479D01*
X144579196Y-115992478D01*
X144578854Y-115991725D01*
X144574082Y-115986187D01*
X144490675Y-115889388D01*
X144490674Y-115889387D01*
X144490132Y-115888758D01*
X144489437Y-115888307D01*
X144489434Y-115888305D01*
X144376776Y-115815284D01*
X144376077Y-115814831D01*
X144310967Y-115795359D01*
X144246657Y-115776126D01*
X144246655Y-115776126D01*
X144245857Y-115775887D01*
X144180180Y-115775485D01*
X144110774Y-115775061D01*
X144110773Y-115775061D01*
X144109941Y-115775056D01*
X144028676Y-115798282D01*
X143980052Y-115812178D01*
X143980051Y-115812179D01*
X143979255Y-115812406D01*
X143975412Y-115814831D01*
X143865011Y-115884489D01*
X143865009Y-115884491D01*
X143864305Y-115884935D01*
X143863757Y-115885556D01*
X143863753Y-115885559D01*
X143854090Y-115896501D01*
X143774332Y-115986810D01*
X143716568Y-116109843D01*
X143695657Y-116244143D01*
X143553540Y-116244143D01*
X143550900Y-116225703D01*
X143535229Y-116116279D01*
X143535111Y-116115454D01*
X143533172Y-116111190D01*
X143479197Y-115992479D01*
X143479196Y-115992478D01*
X143478854Y-115991725D01*
X143474082Y-115986187D01*
X143390675Y-115889388D01*
X143390674Y-115889387D01*
X143390132Y-115888758D01*
X143389437Y-115888307D01*
X143389434Y-115888305D01*
X143276776Y-115815284D01*
X143276077Y-115814831D01*
X143210967Y-115795359D01*
X143146657Y-115776126D01*
X143146655Y-115776126D01*
X143145857Y-115775887D01*
X143080180Y-115775485D01*
X143010774Y-115775061D01*
X143010773Y-115775061D01*
X143009941Y-115775056D01*
X142928676Y-115798282D01*
X142880052Y-115812178D01*
X142880051Y-115812179D01*
X142879255Y-115812406D01*
X142875412Y-115814831D01*
X142765011Y-115884489D01*
X142765009Y-115884491D01*
X142764305Y-115884935D01*
X142763757Y-115885556D01*
X142763753Y-115885559D01*
X142754090Y-115896501D01*
X142674332Y-115986810D01*
X142616568Y-116109843D01*
X142595657Y-116244143D01*
X136399871Y-116244143D01*
X136117707Y-116011495D01*
X136117204Y-116011056D01*
X135828730Y-115744143D01*
X136895657Y-115744143D01*
X136913280Y-115878915D01*
X136913616Y-115879678D01*
X136913616Y-115879679D01*
X136949917Y-115962178D01*
X136968021Y-116003322D01*
X136994219Y-116034489D01*
X137049596Y-116100368D01*
X137055478Y-116107366D01*
X137056171Y-116107828D01*
X137056173Y-116107829D01*
X137138250Y-116162463D01*
X137168622Y-116182680D01*
X137298356Y-116223212D01*
X137375451Y-116224625D01*
X137433421Y-116225688D01*
X137433423Y-116225688D01*
X137434252Y-116225703D01*
X137565384Y-116189952D01*
X137576826Y-116182927D01*
X137680507Y-116119267D01*
X137680508Y-116119266D01*
X137681212Y-116118834D01*
X137684272Y-116115454D01*
X137753122Y-116039388D01*
X137772423Y-116018065D01*
X137831686Y-115895747D01*
X137841147Y-115839515D01*
X137854162Y-115762152D01*
X137854236Y-115761712D01*
X137854379Y-115750000D01*
X137850543Y-115723210D01*
X137835229Y-115616279D01*
X137835111Y-115615454D01*
X137834766Y-115614695D01*
X137779197Y-115492479D01*
X137779196Y-115492478D01*
X137778854Y-115491725D01*
X137690132Y-115388758D01*
X137689437Y-115388307D01*
X137689434Y-115388305D01*
X137576776Y-115315284D01*
X137576077Y-115314831D01*
X137510967Y-115295359D01*
X137446657Y-115276126D01*
X137446655Y-115276126D01*
X137445857Y-115275887D01*
X137380180Y-115275485D01*
X137310774Y-115275061D01*
X137310773Y-115275061D01*
X137309941Y-115275056D01*
X137228676Y-115298282D01*
X137180052Y-115312178D01*
X137180051Y-115312179D01*
X137179255Y-115312406D01*
X137175412Y-115314831D01*
X137065011Y-115384489D01*
X137065009Y-115384491D01*
X137064305Y-115384935D01*
X137063757Y-115385556D01*
X137063753Y-115385559D01*
X137055443Y-115394969D01*
X136974332Y-115486810D01*
X136916568Y-115609843D01*
X136895657Y-115744143D01*
X135828730Y-115744143D01*
X135618224Y-115549370D01*
X135617747Y-115548903D01*
X135226959Y-115143559D01*
X135145916Y-115059498D01*
X135145471Y-115059009D01*
X135124778Y-115034935D01*
X134796750Y-114653322D01*
X134702326Y-114543473D01*
X134701906Y-114542954D01*
X134485994Y-114260667D01*
X134288912Y-114003000D01*
X134288526Y-114002464D01*
X134261364Y-113962406D01*
X134045556Y-113644143D01*
X142595657Y-113644143D01*
X142613280Y-113778915D01*
X142668021Y-113903322D01*
X142755478Y-114007366D01*
X142756171Y-114007828D01*
X142756173Y-114007829D01*
X142857724Y-114075426D01*
X142868622Y-114082680D01*
X142998356Y-114123212D01*
X143075451Y-114124625D01*
X143133421Y-114125688D01*
X143133423Y-114125688D01*
X143134252Y-114125703D01*
X143265384Y-114089952D01*
X143266150Y-114089482D01*
X143380507Y-114019267D01*
X143380508Y-114019266D01*
X143381212Y-114018834D01*
X143392173Y-114006725D01*
X143404346Y-113993276D01*
X143472423Y-113918065D01*
X143531686Y-113795747D01*
X143554236Y-113661712D01*
X143554331Y-113653963D01*
X143554374Y-113650447D01*
X143554374Y-113650441D01*
X143554379Y-113650000D01*
X143553540Y-113644143D01*
X143695657Y-113644143D01*
X143713280Y-113778915D01*
X143768021Y-113903322D01*
X143855478Y-114007366D01*
X143856171Y-114007828D01*
X143856173Y-114007829D01*
X143957724Y-114075426D01*
X143968622Y-114082680D01*
X144098356Y-114123212D01*
X144175451Y-114124625D01*
X144233421Y-114125688D01*
X144233423Y-114125688D01*
X144234252Y-114125703D01*
X144365384Y-114089952D01*
X144366150Y-114089482D01*
X144480507Y-114019267D01*
X144480508Y-114019266D01*
X144481212Y-114018834D01*
X144492173Y-114006725D01*
X144504346Y-113993276D01*
X144572423Y-113918065D01*
X144631686Y-113795747D01*
X144654236Y-113661712D01*
X144654331Y-113653963D01*
X144654374Y-113650447D01*
X144654374Y-113650441D01*
X144654379Y-113650000D01*
X144635111Y-113515454D01*
X144634766Y-113514695D01*
X144579197Y-113392479D01*
X144579196Y-113392478D01*
X144578854Y-113391725D01*
X144490132Y-113288758D01*
X144489437Y-113288307D01*
X144489434Y-113288305D01*
X144376776Y-113215284D01*
X144376077Y-113214831D01*
X144296636Y-113191073D01*
X144246657Y-113176126D01*
X144246655Y-113176126D01*
X144245857Y-113175887D01*
X144180180Y-113175485D01*
X144110774Y-113175061D01*
X144110773Y-113175061D01*
X144109941Y-113175056D01*
X144042026Y-113194466D01*
X143980052Y-113212178D01*
X143980051Y-113212179D01*
X143979255Y-113212406D01*
X143975412Y-113214831D01*
X143865011Y-113284489D01*
X143865009Y-113284491D01*
X143864305Y-113284935D01*
X143863757Y-113285556D01*
X143863753Y-113285559D01*
X143816240Y-113339359D01*
X143774332Y-113386810D01*
X143716568Y-113509843D01*
X143695657Y-113644143D01*
X143553540Y-113644143D01*
X143535111Y-113515454D01*
X143534766Y-113514695D01*
X143479197Y-113392479D01*
X143479196Y-113392478D01*
X143478854Y-113391725D01*
X143390132Y-113288758D01*
X143389437Y-113288307D01*
X143389434Y-113288305D01*
X143276776Y-113215284D01*
X143276077Y-113214831D01*
X143196636Y-113191073D01*
X143146657Y-113176126D01*
X143146655Y-113176126D01*
X143145857Y-113175887D01*
X143080180Y-113175485D01*
X143010774Y-113175061D01*
X143010773Y-113175061D01*
X143009941Y-113175056D01*
X142942026Y-113194466D01*
X142880052Y-113212178D01*
X142880051Y-113212179D01*
X142879255Y-113212406D01*
X142875412Y-113214831D01*
X142765011Y-113284489D01*
X142765009Y-113284491D01*
X142764305Y-113284935D01*
X142763757Y-113285556D01*
X142763753Y-113285559D01*
X142716240Y-113339359D01*
X142674332Y-113386810D01*
X142616568Y-113509843D01*
X142595657Y-113644143D01*
X134045556Y-113644143D01*
X133907004Y-113439813D01*
X133906645Y-113439250D01*
X133622907Y-112964592D01*
X133557839Y-112855740D01*
X133557515Y-112855161D01*
X133545522Y-112832220D01*
X133242573Y-112252708D01*
X133242283Y-112252113D01*
X133189872Y-112136187D01*
X133173511Y-112100000D01*
X134799201Y-112100000D01*
X134804500Y-112126640D01*
X134820195Y-112205544D01*
X134820835Y-112206501D01*
X134820835Y-112206502D01*
X134830986Y-112221693D01*
X134864888Y-112272433D01*
X134864892Y-112272437D01*
X134879981Y-112295019D01*
X134880939Y-112295659D01*
X134901605Y-112309468D01*
X134903378Y-112310923D01*
X135164077Y-112571622D01*
X135165532Y-112573395D01*
X135179981Y-112595019D01*
X135180939Y-112595659D01*
X135202563Y-112610108D01*
X135202565Y-112610110D01*
X135264041Y-112651187D01*
X135268497Y-112654165D01*
X135268500Y-112654166D01*
X135269456Y-112654805D01*
X135270585Y-112655030D01*
X135270586Y-112655030D01*
X135348353Y-112670499D01*
X135348358Y-112670500D01*
X135348361Y-112670500D01*
X135348369Y-112670501D01*
X135375000Y-112675798D01*
X135376131Y-112675573D01*
X135400505Y-112670725D01*
X135402787Y-112670500D01*
X137947208Y-112670500D01*
X137949491Y-112670725D01*
X137975000Y-112675799D01*
X137976131Y-112675574D01*
X138001640Y-112670500D01*
X138079414Y-112655030D01*
X138079415Y-112655030D01*
X138080544Y-112654805D01*
X138082764Y-112653322D01*
X138113873Y-112632535D01*
X138147435Y-112610110D01*
X138147437Y-112610108D01*
X138169061Y-112595659D01*
X138170019Y-112595019D01*
X138184468Y-112573395D01*
X138185923Y-112571622D01*
X138363402Y-112394143D01*
X144195657Y-112394143D01*
X144213280Y-112528915D01*
X144268021Y-112653322D01*
X144355478Y-112757366D01*
X144356171Y-112757828D01*
X144356173Y-112757829D01*
X144457724Y-112825426D01*
X144468622Y-112832680D01*
X144598356Y-112873212D01*
X144675451Y-112874625D01*
X144733421Y-112875688D01*
X144733423Y-112875688D01*
X144734252Y-112875703D01*
X144865384Y-112839952D01*
X144876826Y-112832927D01*
X144980507Y-112769267D01*
X144980508Y-112769266D01*
X144981212Y-112768834D01*
X144992173Y-112756725D01*
X145004346Y-112743276D01*
X145072423Y-112668065D01*
X145078739Y-112655030D01*
X145100503Y-112610108D01*
X145131686Y-112545747D01*
X145154236Y-112411712D01*
X145154379Y-112400000D01*
X145153540Y-112394143D01*
X145395657Y-112394143D01*
X145413280Y-112528915D01*
X145468021Y-112653322D01*
X145555478Y-112757366D01*
X145556171Y-112757828D01*
X145556173Y-112757829D01*
X145657724Y-112825426D01*
X145668622Y-112832680D01*
X145798356Y-112873212D01*
X145875451Y-112874625D01*
X145933421Y-112875688D01*
X145933423Y-112875688D01*
X145934252Y-112875703D01*
X146065384Y-112839952D01*
X146076826Y-112832927D01*
X146180507Y-112769267D01*
X146180508Y-112769266D01*
X146181212Y-112768834D01*
X146192173Y-112756725D01*
X146204346Y-112743276D01*
X146272423Y-112668065D01*
X146278739Y-112655030D01*
X146300503Y-112610108D01*
X146331686Y-112545747D01*
X146354236Y-112411712D01*
X146354379Y-112400000D01*
X146335111Y-112265454D01*
X146334136Y-112263309D01*
X146279197Y-112142479D01*
X146279196Y-112142478D01*
X146278854Y-112141725D01*
X146265430Y-112126146D01*
X146190675Y-112039388D01*
X146190674Y-112039387D01*
X146190132Y-112038758D01*
X146189437Y-112038307D01*
X146189434Y-112038305D01*
X146076776Y-111965284D01*
X146076077Y-111964831D01*
X146006627Y-111944061D01*
X145946657Y-111926126D01*
X145946655Y-111926126D01*
X145945857Y-111925887D01*
X145880180Y-111925485D01*
X145810774Y-111925061D01*
X145810773Y-111925061D01*
X145809941Y-111925056D01*
X145737852Y-111945659D01*
X145680052Y-111962178D01*
X145680051Y-111962179D01*
X145679255Y-111962406D01*
X145675412Y-111964831D01*
X145565011Y-112034489D01*
X145565009Y-112034491D01*
X145564305Y-112034935D01*
X145563757Y-112035556D01*
X145563753Y-112035559D01*
X145530369Y-112073360D01*
X145474332Y-112136810D01*
X145416568Y-112259843D01*
X145395657Y-112394143D01*
X145153540Y-112394143D01*
X145135111Y-112265454D01*
X145134136Y-112263309D01*
X145079197Y-112142479D01*
X145079196Y-112142478D01*
X145078854Y-112141725D01*
X145065430Y-112126146D01*
X144990675Y-112039388D01*
X144990674Y-112039387D01*
X144990132Y-112038758D01*
X144989437Y-112038307D01*
X144989434Y-112038305D01*
X144876776Y-111965284D01*
X144876077Y-111964831D01*
X144806627Y-111944061D01*
X144746657Y-111926126D01*
X144746655Y-111926126D01*
X144745857Y-111925887D01*
X144680180Y-111925485D01*
X144610774Y-111925061D01*
X144610773Y-111925061D01*
X144609941Y-111925056D01*
X144537852Y-111945659D01*
X144480052Y-111962178D01*
X144480051Y-111962179D01*
X144479255Y-111962406D01*
X144475412Y-111964831D01*
X144365011Y-112034489D01*
X144365009Y-112034491D01*
X144364305Y-112034935D01*
X144363757Y-112035556D01*
X144363753Y-112035559D01*
X144330369Y-112073360D01*
X144274332Y-112136810D01*
X144216568Y-112259843D01*
X144195657Y-112394143D01*
X138363402Y-112394143D01*
X139146622Y-111610923D01*
X139148395Y-111609468D01*
X139169061Y-111595659D01*
X139170019Y-111595019D01*
X139185108Y-111572437D01*
X139185112Y-111572433D01*
X139229164Y-111506504D01*
X139229806Y-111505543D01*
X139235795Y-111475437D01*
X139250574Y-111401131D01*
X139250799Y-111400000D01*
X139245725Y-111374490D01*
X139245500Y-111372208D01*
X139245500Y-111100000D01*
X140579577Y-111100000D01*
X140579677Y-111100760D01*
X140581042Y-111111131D01*
X140599184Y-111248930D01*
X140656669Y-111387711D01*
X140657140Y-111388324D01*
X140657140Y-111388325D01*
X140666966Y-111401131D01*
X140748114Y-111506886D01*
X140748724Y-111507354D01*
X140833540Y-111572435D01*
X140867288Y-111598331D01*
X141006070Y-111655816D01*
X141155000Y-111675423D01*
X141303930Y-111655816D01*
X141442712Y-111598331D01*
X141476461Y-111572435D01*
X141561276Y-111507354D01*
X141561886Y-111506886D01*
X141643034Y-111401131D01*
X141652860Y-111388325D01*
X141652860Y-111388324D01*
X141653331Y-111387711D01*
X141710816Y-111248930D01*
X141728958Y-111111131D01*
X141730323Y-111100760D01*
X141730423Y-111100000D01*
X141710816Y-110951070D01*
X141653331Y-110812289D01*
X141648690Y-110806240D01*
X141562354Y-110693724D01*
X141561886Y-110693114D01*
X141500271Y-110645835D01*
X141443326Y-110602140D01*
X141443325Y-110602140D01*
X141442712Y-110601669D01*
X141303930Y-110544184D01*
X141155000Y-110524577D01*
X141006070Y-110544184D01*
X140867289Y-110601669D01*
X140748114Y-110693114D01*
X140747646Y-110693724D01*
X140661311Y-110806240D01*
X140656669Y-110812289D01*
X140599184Y-110951070D01*
X140579577Y-111100000D01*
X139245500Y-111100000D01*
X139245500Y-110022784D01*
X139248927Y-110014511D01*
X139257200Y-110011084D01*
X139265473Y-110014511D01*
X139266482Y-110015662D01*
X139287706Y-110043322D01*
X139298114Y-110056886D01*
X139298724Y-110057354D01*
X139401462Y-110136187D01*
X139417288Y-110148331D01*
X139556070Y-110205816D01*
X139667606Y-110220500D01*
X139696835Y-110224348D01*
X139705000Y-110225423D01*
X139713166Y-110224348D01*
X139742394Y-110220500D01*
X139853930Y-110205816D01*
X139992712Y-110148331D01*
X140008539Y-110136187D01*
X140111276Y-110057354D01*
X140111886Y-110056886D01*
X140203331Y-109937711D01*
X140260816Y-109798930D01*
X140280423Y-109650000D01*
X140279196Y-109640676D01*
X140270665Y-109575882D01*
X140260816Y-109501070D01*
X140203331Y-109362289D01*
X140196451Y-109353322D01*
X140112354Y-109243724D01*
X140111886Y-109243114D01*
X140067541Y-109209087D01*
X139993326Y-109152140D01*
X139993325Y-109152140D01*
X139992712Y-109151669D01*
X139853930Y-109094184D01*
X139705000Y-109074577D01*
X139556070Y-109094184D01*
X139417289Y-109151669D01*
X139298114Y-109243114D01*
X139297646Y-109243724D01*
X139266482Y-109284338D01*
X139258727Y-109288816D01*
X139250078Y-109286498D01*
X139245600Y-109278743D01*
X139245500Y-109277216D01*
X139245500Y-108200000D01*
X140579577Y-108200000D01*
X140599184Y-108348930D01*
X140656669Y-108487711D01*
X140657140Y-108488324D01*
X140657140Y-108488325D01*
X140705500Y-108551350D01*
X140748114Y-108606886D01*
X140748724Y-108607354D01*
X140857032Y-108690461D01*
X140867288Y-108698331D01*
X141006070Y-108755816D01*
X141155000Y-108775423D01*
X141303930Y-108755816D01*
X141442712Y-108698331D01*
X141452969Y-108690461D01*
X141561276Y-108607354D01*
X141561886Y-108606886D01*
X141604500Y-108551350D01*
X141652860Y-108488325D01*
X141652860Y-108488324D01*
X141653331Y-108487711D01*
X141677074Y-108430390D01*
X143224500Y-108430390D01*
X143224540Y-108430725D01*
X143224540Y-108430727D01*
X143227540Y-108455939D01*
X143227669Y-108457025D01*
X143273868Y-108561035D01*
X143274631Y-108561797D01*
X143274632Y-108561798D01*
X143288143Y-108575285D01*
X143354413Y-108641439D01*
X143387531Y-108656080D01*
X143393712Y-108662559D01*
X143394500Y-108666781D01*
X143394500Y-108752933D01*
X143391570Y-108760677D01*
X143324332Y-108836810D01*
X143266568Y-108959843D01*
X143245657Y-109094143D01*
X143263280Y-109228915D01*
X143263616Y-109229678D01*
X143263616Y-109229679D01*
X143270686Y-109245747D01*
X143318021Y-109353322D01*
X143405478Y-109457366D01*
X143406171Y-109457828D01*
X143406173Y-109457829D01*
X143493133Y-109515714D01*
X143498121Y-109523151D01*
X143496390Y-109531937D01*
X143492893Y-109535349D01*
X143415011Y-109584489D01*
X143415009Y-109584491D01*
X143414305Y-109584935D01*
X143413757Y-109585556D01*
X143413753Y-109585559D01*
X143384499Y-109618684D01*
X143324332Y-109686810D01*
X143266568Y-109809843D01*
X143245657Y-109944143D01*
X143263280Y-110078915D01*
X143263616Y-110079678D01*
X143263616Y-110079679D01*
X143288755Y-110136810D01*
X143318021Y-110203322D01*
X143332650Y-110220725D01*
X143402618Y-110303963D01*
X143405478Y-110307366D01*
X143406171Y-110307828D01*
X143406173Y-110307829D01*
X143468128Y-110349069D01*
X143518622Y-110382680D01*
X143648356Y-110423212D01*
X143725451Y-110424625D01*
X143783421Y-110425688D01*
X143783423Y-110425688D01*
X143784252Y-110425703D01*
X143915384Y-110389952D01*
X143926826Y-110382927D01*
X144030507Y-110319267D01*
X144030508Y-110319266D01*
X144031212Y-110318834D01*
X144042173Y-110306725D01*
X144116736Y-110224348D01*
X144125410Y-110220500D01*
X146197208Y-110220500D01*
X146199491Y-110220725D01*
X146225000Y-110225799D01*
X146226131Y-110225574D01*
X146251640Y-110220500D01*
X146329414Y-110205030D01*
X146329415Y-110205030D01*
X146330544Y-110204805D01*
X146332764Y-110203322D01*
X146369291Y-110178915D01*
X146397435Y-110160110D01*
X146397437Y-110160108D01*
X146419061Y-110145659D01*
X146420019Y-110145019D01*
X146434468Y-110123395D01*
X146435923Y-110121622D01*
X147430234Y-109127311D01*
X147438507Y-109123884D01*
X147446780Y-109127311D01*
X147450207Y-109135584D01*
X147449098Y-109140556D01*
X147429537Y-109182220D01*
X147416568Y-109209843D01*
X147395657Y-109344143D01*
X147413280Y-109478915D01*
X147413616Y-109479678D01*
X147413616Y-109479679D01*
X147443583Y-109547784D01*
X147468021Y-109603322D01*
X147475465Y-109612178D01*
X147539837Y-109688758D01*
X147555478Y-109707366D01*
X147556171Y-109707828D01*
X147556173Y-109707829D01*
X147657724Y-109775426D01*
X147668622Y-109782680D01*
X147798356Y-109823212D01*
X147875451Y-109824625D01*
X147933421Y-109825688D01*
X147933423Y-109825688D01*
X147934252Y-109825703D01*
X148065384Y-109789952D01*
X148069274Y-109787564D01*
X148180507Y-109719267D01*
X148180508Y-109719266D01*
X148181212Y-109718834D01*
X148183432Y-109716382D01*
X148206718Y-109690655D01*
X148272423Y-109618065D01*
X148273771Y-109615284D01*
X148288474Y-109584935D01*
X148331686Y-109495747D01*
X148332735Y-109489515D01*
X148354162Y-109362152D01*
X148354236Y-109361712D01*
X148354331Y-109353963D01*
X148354374Y-109350447D01*
X148354374Y-109350441D01*
X148354379Y-109350000D01*
X148335111Y-109215454D01*
X148334766Y-109214695D01*
X148279197Y-109092479D01*
X148279196Y-109092478D01*
X148278854Y-109091725D01*
X148252608Y-109061265D01*
X148191062Y-108989837D01*
X148188258Y-108981333D01*
X148192289Y-108973336D01*
X148199926Y-108970500D01*
X151458109Y-108970500D01*
X151466382Y-108973927D01*
X151714077Y-109221622D01*
X151715532Y-109223395D01*
X151719731Y-109229679D01*
X151729981Y-109245019D01*
X151752563Y-109260108D01*
X151752565Y-109260110D01*
X151786127Y-109282535D01*
X151819456Y-109304805D01*
X151820585Y-109305030D01*
X151820586Y-109305030D01*
X151882333Y-109317312D01*
X151898360Y-109320500D01*
X151925000Y-109325799D01*
X151926131Y-109325574D01*
X151950509Y-109320725D01*
X151952792Y-109320500D01*
X152077011Y-109320500D01*
X152085284Y-109323927D01*
X152085967Y-109324672D01*
X152139135Y-109387923D01*
X152155478Y-109407366D01*
X152156171Y-109407828D01*
X152156173Y-109407829D01*
X152230494Y-109457300D01*
X152268622Y-109482680D01*
X152398356Y-109523212D01*
X152475451Y-109524625D01*
X152533421Y-109525688D01*
X152533423Y-109525688D01*
X152534252Y-109525703D01*
X152665384Y-109489952D01*
X152676826Y-109482927D01*
X152780507Y-109419267D01*
X152780508Y-109419266D01*
X152781212Y-109418834D01*
X152792173Y-109406725D01*
X152826605Y-109368684D01*
X152872423Y-109318065D01*
X152878739Y-109305030D01*
X152899726Y-109261712D01*
X152931686Y-109195747D01*
X152932735Y-109189515D01*
X152954162Y-109062152D01*
X152954236Y-109061712D01*
X152954379Y-109050000D01*
X152945241Y-108986187D01*
X152942818Y-108969272D01*
X152935111Y-108915454D01*
X152918845Y-108879679D01*
X152879197Y-108792479D01*
X152879196Y-108792478D01*
X152878854Y-108791725D01*
X152868320Y-108779500D01*
X152790675Y-108689388D01*
X152790674Y-108689387D01*
X152790132Y-108688758D01*
X152789437Y-108688307D01*
X152789434Y-108688305D01*
X152676776Y-108615284D01*
X152676077Y-108614831D01*
X152610967Y-108595359D01*
X152546657Y-108576126D01*
X152546655Y-108576126D01*
X152545857Y-108575887D01*
X152480180Y-108575485D01*
X152410774Y-108575061D01*
X152410773Y-108575061D01*
X152409941Y-108575056D01*
X152328676Y-108598282D01*
X152280052Y-108612178D01*
X152280051Y-108612179D01*
X152279255Y-108612406D01*
X152275412Y-108614831D01*
X152165011Y-108684489D01*
X152165009Y-108684491D01*
X152164305Y-108684935D01*
X152163757Y-108685556D01*
X152163753Y-108685559D01*
X152084281Y-108775545D01*
X152075511Y-108779500D01*
X152041891Y-108779500D01*
X152033618Y-108776073D01*
X151785923Y-108528378D01*
X151784468Y-108526605D01*
X151770659Y-108505939D01*
X151770019Y-108504981D01*
X151747437Y-108489892D01*
X151747435Y-108489890D01*
X151713873Y-108467465D01*
X151696623Y-108455939D01*
X151681502Y-108445835D01*
X151680544Y-108445195D01*
X151679415Y-108444970D01*
X151679414Y-108444970D01*
X151601640Y-108429500D01*
X151576131Y-108424426D01*
X151575000Y-108424201D01*
X151573869Y-108424426D01*
X151549491Y-108429275D01*
X151547208Y-108429500D01*
X147502792Y-108429500D01*
X147500509Y-108429275D01*
X147476131Y-108424426D01*
X147475000Y-108424201D01*
X147473869Y-108424426D01*
X147448360Y-108429500D01*
X147370586Y-108444970D01*
X147370585Y-108444970D01*
X147369456Y-108445195D01*
X147368498Y-108445835D01*
X147353377Y-108455939D01*
X147336127Y-108467465D01*
X147302565Y-108489890D01*
X147302563Y-108489892D01*
X147279981Y-108504981D01*
X147279341Y-108505939D01*
X147265532Y-108526605D01*
X147264077Y-108528378D01*
X146404532Y-109387923D01*
X146396259Y-109391350D01*
X146387986Y-109387923D01*
X146384559Y-109379650D01*
X146384721Y-109377709D01*
X146404162Y-109262152D01*
X146404236Y-109261712D01*
X146404379Y-109250000D01*
X146403529Y-109244061D01*
X146387994Y-109135584D01*
X146385111Y-109115454D01*
X146383206Y-109111265D01*
X146329197Y-108992479D01*
X146329196Y-108992478D01*
X146328854Y-108991725D01*
X146327227Y-108989837D01*
X146240675Y-108889388D01*
X146240674Y-108889387D01*
X146240132Y-108888758D01*
X146200836Y-108863287D01*
X146195758Y-108855913D01*
X146195500Y-108853470D01*
X146195500Y-108677787D01*
X146195725Y-108675505D01*
X146200573Y-108651131D01*
X146200798Y-108650000D01*
X146195500Y-108623364D01*
X146195500Y-108623360D01*
X146187728Y-108584289D01*
X146180030Y-108545586D01*
X146180030Y-108545585D01*
X146179805Y-108544456D01*
X146135110Y-108477565D01*
X146135108Y-108477563D01*
X146120019Y-108454981D01*
X146098395Y-108440532D01*
X146096622Y-108439077D01*
X145685923Y-108028378D01*
X145684468Y-108026605D01*
X145670659Y-108005939D01*
X145670019Y-108004981D01*
X145647437Y-107989892D01*
X145647435Y-107989890D01*
X145611390Y-107965806D01*
X145580544Y-107945195D01*
X145579415Y-107944970D01*
X145579414Y-107944970D01*
X145501640Y-107929500D01*
X145476131Y-107924426D01*
X145475000Y-107924201D01*
X145473869Y-107924426D01*
X145449491Y-107929275D01*
X145447208Y-107929500D01*
X145123951Y-107929500D01*
X145115678Y-107926073D01*
X145113258Y-107922549D01*
X145111801Y-107919267D01*
X145076132Y-107838965D01*
X145066065Y-107828915D01*
X145015668Y-107778607D01*
X144995587Y-107758561D01*
X144891498Y-107712544D01*
X144890628Y-107712443D01*
X144890626Y-107712442D01*
X144865728Y-107709539D01*
X144865721Y-107709539D01*
X144865390Y-107709500D01*
X144504610Y-107709500D01*
X144504275Y-107709540D01*
X144504273Y-107709540D01*
X144478846Y-107712565D01*
X144478844Y-107712566D01*
X144477975Y-107712669D01*
X144373965Y-107758868D01*
X144373203Y-107759631D01*
X144373202Y-107759632D01*
X144353045Y-107779825D01*
X144293561Y-107839413D01*
X144247544Y-107943502D01*
X144247443Y-107944372D01*
X144247442Y-107944374D01*
X144244944Y-107965806D01*
X144244500Y-107969610D01*
X144244500Y-108430390D01*
X144244540Y-108430725D01*
X144244540Y-108430727D01*
X144247540Y-108455939D01*
X144247669Y-108457025D01*
X144293868Y-108561035D01*
X144294631Y-108561797D01*
X144294632Y-108561798D01*
X144308143Y-108575285D01*
X144374413Y-108641439D01*
X144478502Y-108687456D01*
X144479372Y-108687557D01*
X144479374Y-108687558D01*
X144504272Y-108690461D01*
X144504279Y-108690461D01*
X144504610Y-108690500D01*
X144865390Y-108690500D01*
X144865725Y-108690460D01*
X144865727Y-108690460D01*
X144891154Y-108687435D01*
X144891156Y-108687434D01*
X144892025Y-108687331D01*
X144996035Y-108641132D01*
X145024269Y-108612849D01*
X145075676Y-108561351D01*
X145076439Y-108560587D01*
X145113185Y-108477469D01*
X145119665Y-108471288D01*
X145123886Y-108470500D01*
X145358109Y-108470500D01*
X145366382Y-108473927D01*
X145651073Y-108758618D01*
X145654500Y-108766891D01*
X145654500Y-108853122D01*
X145651073Y-108861395D01*
X145649043Y-108863017D01*
X145643405Y-108866574D01*
X145614305Y-108884935D01*
X145613757Y-108885556D01*
X145613753Y-108885559D01*
X145586623Y-108916279D01*
X145524332Y-108986810D01*
X145466568Y-109109843D01*
X145445657Y-109244143D01*
X145463280Y-109378915D01*
X145463616Y-109379678D01*
X145463616Y-109379679D01*
X145497034Y-109455626D01*
X145518021Y-109503322D01*
X145555395Y-109547784D01*
X145602618Y-109603963D01*
X145605478Y-109607366D01*
X145606171Y-109607828D01*
X145606173Y-109607829D01*
X145621551Y-109618065D01*
X145668386Y-109649240D01*
X145681636Y-109658060D01*
X145686624Y-109665497D01*
X145684893Y-109674283D01*
X145677456Y-109679271D01*
X145675153Y-109679500D01*
X144123683Y-109679500D01*
X144114819Y-109675437D01*
X144040675Y-109589388D01*
X144040674Y-109589387D01*
X144040132Y-109588758D01*
X144039437Y-109588307D01*
X144039434Y-109588305D01*
X143956339Y-109534446D01*
X143951261Y-109527071D01*
X143952885Y-109518264D01*
X143956581Y-109514657D01*
X144030507Y-109469267D01*
X144030508Y-109469266D01*
X144031212Y-109468834D01*
X144042173Y-109456725D01*
X144065704Y-109430728D01*
X144122423Y-109368065D01*
X144125222Y-109362289D01*
X144153072Y-109304805D01*
X144181686Y-109245747D01*
X144182027Y-109243724D01*
X144204162Y-109112152D01*
X144204236Y-109111712D01*
X144204379Y-109100000D01*
X144197156Y-109049559D01*
X144185867Y-108970736D01*
X144185111Y-108965454D01*
X144184766Y-108964695D01*
X144129197Y-108842479D01*
X144129196Y-108842478D01*
X144128854Y-108841725D01*
X144127712Y-108840400D01*
X144040675Y-108739388D01*
X144040674Y-108739387D01*
X144040132Y-108738758D01*
X144039437Y-108738307D01*
X144039434Y-108738305D01*
X143942816Y-108675681D01*
X143937738Y-108668306D01*
X143939362Y-108659499D01*
X143944431Y-108655170D01*
X143975049Y-108641570D01*
X143976035Y-108641132D01*
X144004269Y-108612849D01*
X144055676Y-108561351D01*
X144056439Y-108560587D01*
X144102456Y-108456498D01*
X144102633Y-108454981D01*
X144105461Y-108430728D01*
X144105461Y-108430721D01*
X144105500Y-108430390D01*
X144105500Y-107969610D01*
X144105227Y-107967312D01*
X144102435Y-107943846D01*
X144102434Y-107943844D01*
X144102331Y-107942975D01*
X144056132Y-107838965D01*
X144046065Y-107828915D01*
X143995668Y-107778607D01*
X143975587Y-107758561D01*
X143942469Y-107743920D01*
X143936288Y-107737441D01*
X143935500Y-107733219D01*
X143935500Y-107566742D01*
X143938927Y-107558469D01*
X143942449Y-107556050D01*
X143976035Y-107541132D01*
X143976994Y-107540172D01*
X144016237Y-107500860D01*
X144056439Y-107460587D01*
X144102456Y-107356498D01*
X144102627Y-107355030D01*
X144105461Y-107330728D01*
X144105461Y-107330721D01*
X144105500Y-107330390D01*
X144244500Y-107330390D01*
X144244540Y-107330725D01*
X144244540Y-107330727D01*
X144247503Y-107355626D01*
X144247669Y-107357025D01*
X144293868Y-107461035D01*
X144294631Y-107461797D01*
X144294632Y-107461798D01*
X144303509Y-107470659D01*
X144374413Y-107541439D01*
X144478502Y-107587456D01*
X144479372Y-107587557D01*
X144479374Y-107587558D01*
X144504272Y-107590461D01*
X144504279Y-107590461D01*
X144504610Y-107590500D01*
X144865390Y-107590500D01*
X144865725Y-107590460D01*
X144865727Y-107590460D01*
X144891154Y-107587435D01*
X144891156Y-107587434D01*
X144892025Y-107587331D01*
X144989256Y-107544143D01*
X149495657Y-107544143D01*
X149513280Y-107678915D01*
X149513616Y-107679678D01*
X149513616Y-107679679D01*
X149541883Y-107743920D01*
X149568021Y-107803322D01*
X149604316Y-107846501D01*
X149630615Y-107877787D01*
X149655478Y-107907366D01*
X149656171Y-107907828D01*
X149656173Y-107907829D01*
X149743272Y-107965806D01*
X149768622Y-107982680D01*
X149898356Y-108023212D01*
X149975451Y-108024625D01*
X150033421Y-108025688D01*
X150033423Y-108025688D01*
X150034252Y-108025703D01*
X150165384Y-107989952D01*
X150176826Y-107982927D01*
X150280507Y-107919267D01*
X150280508Y-107919266D01*
X150281212Y-107918834D01*
X150292173Y-107906725D01*
X150319407Y-107876636D01*
X150372423Y-107818065D01*
X150431686Y-107695747D01*
X150431956Y-107694143D01*
X150895657Y-107694143D01*
X150913280Y-107828915D01*
X150913616Y-107829678D01*
X150913616Y-107829679D01*
X150920323Y-107844922D01*
X150968021Y-107953322D01*
X150992312Y-107982220D01*
X151047129Y-108047433D01*
X151055478Y-108057366D01*
X151056171Y-108057828D01*
X151056173Y-108057829D01*
X151098379Y-108085923D01*
X151168622Y-108132680D01*
X151298356Y-108173212D01*
X151375451Y-108174625D01*
X151433421Y-108175688D01*
X151433423Y-108175688D01*
X151434252Y-108175703D01*
X151565384Y-108139952D01*
X151576826Y-108132927D01*
X151680507Y-108069267D01*
X151680508Y-108069266D01*
X151681212Y-108068834D01*
X151692173Y-108056725D01*
X151718568Y-108027563D01*
X151772423Y-107968065D01*
X151773518Y-107965806D01*
X151794475Y-107922549D01*
X151831686Y-107845747D01*
X151832956Y-107838202D01*
X151854162Y-107712152D01*
X151854236Y-107711712D01*
X151854359Y-107701669D01*
X151854374Y-107700447D01*
X151854374Y-107700441D01*
X151854379Y-107700000D01*
X151851360Y-107678915D01*
X151836579Y-107575703D01*
X151835111Y-107565454D01*
X151833206Y-107561265D01*
X151779197Y-107442479D01*
X151779196Y-107442478D01*
X151778854Y-107441725D01*
X151756928Y-107416279D01*
X151690675Y-107339388D01*
X151690674Y-107339387D01*
X151690132Y-107338758D01*
X151689437Y-107338307D01*
X151689434Y-107338305D01*
X151597448Y-107278683D01*
X151592370Y-107271308D01*
X151593994Y-107262501D01*
X151600735Y-107257577D01*
X151665384Y-107239952D01*
X151673668Y-107234866D01*
X151739992Y-107194143D01*
X154195657Y-107194143D01*
X154213280Y-107328915D01*
X154213616Y-107329678D01*
X154213616Y-107329679D01*
X154255154Y-107424079D01*
X154268021Y-107453322D01*
X154274770Y-107461351D01*
X154348916Y-107549559D01*
X154355478Y-107557366D01*
X154356171Y-107557828D01*
X154356173Y-107557829D01*
X154405255Y-107590500D01*
X154468622Y-107632680D01*
X154598356Y-107673212D01*
X154675451Y-107674625D01*
X154733421Y-107675688D01*
X154733423Y-107675688D01*
X154734252Y-107675703D01*
X154865384Y-107639952D01*
X154869927Y-107637163D01*
X154980507Y-107569267D01*
X154980508Y-107569266D01*
X154981212Y-107568834D01*
X154984272Y-107565454D01*
X155007155Y-107540172D01*
X155072423Y-107468065D01*
X155131686Y-107345747D01*
X155140221Y-107295019D01*
X155154162Y-107212152D01*
X155154236Y-107211712D01*
X155154379Y-107200000D01*
X155148274Y-107157366D01*
X155141802Y-107112178D01*
X155135111Y-107065454D01*
X155134766Y-107064695D01*
X155079197Y-106942479D01*
X155079196Y-106942478D01*
X155078854Y-106941725D01*
X155067104Y-106928088D01*
X154990675Y-106839388D01*
X154990674Y-106839387D01*
X154990132Y-106838758D01*
X154989437Y-106838307D01*
X154989434Y-106838305D01*
X154876776Y-106765284D01*
X154876077Y-106764831D01*
X154789587Y-106738965D01*
X154746657Y-106726126D01*
X154746655Y-106726126D01*
X154745857Y-106725887D01*
X154680180Y-106725485D01*
X154610774Y-106725061D01*
X154610773Y-106725061D01*
X154609941Y-106725056D01*
X154556253Y-106740400D01*
X154480052Y-106762178D01*
X154480051Y-106762179D01*
X154479255Y-106762406D01*
X154475412Y-106764831D01*
X154365011Y-106834489D01*
X154365009Y-106834491D01*
X154364305Y-106834935D01*
X154363757Y-106835556D01*
X154363753Y-106835559D01*
X154316240Y-106889359D01*
X154274332Y-106936810D01*
X154216568Y-107059843D01*
X154195657Y-107194143D01*
X151739992Y-107194143D01*
X151780507Y-107169267D01*
X151780508Y-107169266D01*
X151781212Y-107168834D01*
X151792173Y-107156725D01*
X151804346Y-107143276D01*
X151872423Y-107068065D01*
X151931686Y-106945747D01*
X151932469Y-106941097D01*
X151954162Y-106812152D01*
X151954236Y-106811712D01*
X151954379Y-106800000D01*
X151945703Y-106739413D01*
X151935229Y-106666279D01*
X151935111Y-106665454D01*
X151933725Y-106662406D01*
X151879197Y-106542479D01*
X151879196Y-106542478D01*
X151878854Y-106541725D01*
X151853493Y-106512292D01*
X151790675Y-106439388D01*
X151790674Y-106439387D01*
X151790132Y-106438758D01*
X151789437Y-106438307D01*
X151789434Y-106438305D01*
X151676776Y-106365284D01*
X151676077Y-106364831D01*
X151606627Y-106344061D01*
X151546657Y-106326126D01*
X151546655Y-106326126D01*
X151545857Y-106325887D01*
X151480180Y-106325485D01*
X151410774Y-106325061D01*
X151410773Y-106325061D01*
X151409941Y-106325056D01*
X151337852Y-106345659D01*
X151280052Y-106362178D01*
X151280051Y-106362179D01*
X151279255Y-106362406D01*
X151269067Y-106368834D01*
X151165011Y-106434489D01*
X151165009Y-106434491D01*
X151164305Y-106434935D01*
X151163757Y-106435556D01*
X151163753Y-106435559D01*
X151128493Y-106475484D01*
X151074332Y-106536810D01*
X151016568Y-106659843D01*
X150995657Y-106794143D01*
X151013280Y-106928915D01*
X151013616Y-106929678D01*
X151013616Y-106929679D01*
X151019248Y-106942479D01*
X151068021Y-107053322D01*
X151155478Y-107157366D01*
X151156171Y-107157828D01*
X151156173Y-107157829D01*
X151251941Y-107221577D01*
X151256929Y-107229014D01*
X151255198Y-107237800D01*
X151248674Y-107242567D01*
X151210914Y-107253358D01*
X151180052Y-107262178D01*
X151180051Y-107262179D01*
X151179255Y-107262406D01*
X151178553Y-107262849D01*
X151065011Y-107334489D01*
X151065009Y-107334491D01*
X151064305Y-107334935D01*
X151063757Y-107335556D01*
X151063753Y-107335559D01*
X151034499Y-107368684D01*
X150974332Y-107436810D01*
X150916568Y-107559843D01*
X150895657Y-107694143D01*
X150431956Y-107694143D01*
X150438545Y-107654981D01*
X150454162Y-107562152D01*
X150454236Y-107561712D01*
X150454379Y-107550000D01*
X150453216Y-107541875D01*
X150441684Y-107461351D01*
X150435111Y-107415454D01*
X150434766Y-107414695D01*
X150379197Y-107292479D01*
X150379196Y-107292478D01*
X150378854Y-107291725D01*
X150363060Y-107273395D01*
X150290675Y-107189388D01*
X150290674Y-107189387D01*
X150290132Y-107188758D01*
X150289437Y-107188307D01*
X150289434Y-107188305D01*
X150176776Y-107115284D01*
X150176077Y-107114831D01*
X150104156Y-107093322D01*
X150046657Y-107076126D01*
X150046655Y-107076126D01*
X150045857Y-107075887D01*
X149980180Y-107075485D01*
X149910774Y-107075061D01*
X149910773Y-107075061D01*
X149909941Y-107075056D01*
X149840266Y-107094969D01*
X149780052Y-107112178D01*
X149780051Y-107112179D01*
X149779255Y-107112406D01*
X149775412Y-107114831D01*
X149665011Y-107184489D01*
X149665009Y-107184491D01*
X149664305Y-107184935D01*
X149663757Y-107185556D01*
X149663753Y-107185559D01*
X149625463Y-107228915D01*
X149574332Y-107286810D01*
X149516568Y-107409843D01*
X149495657Y-107544143D01*
X144989256Y-107544143D01*
X144996035Y-107541132D01*
X144996994Y-107540172D01*
X145036237Y-107500860D01*
X145076439Y-107460587D01*
X145113185Y-107377469D01*
X145119665Y-107371288D01*
X145123886Y-107370500D01*
X148847208Y-107370500D01*
X148849491Y-107370725D01*
X148861680Y-107373149D01*
X148875000Y-107375799D01*
X148876131Y-107375574D01*
X148901640Y-107370500D01*
X148979414Y-107355030D01*
X148979415Y-107355030D01*
X148980544Y-107354805D01*
X148982764Y-107353322D01*
X149019291Y-107328915D01*
X149047435Y-107310110D01*
X149047437Y-107310108D01*
X149061900Y-107300444D01*
X149070019Y-107295019D01*
X149084468Y-107273395D01*
X149085923Y-107271622D01*
X150883618Y-105473927D01*
X150891891Y-105470500D01*
X151017801Y-105470500D01*
X151026074Y-105473927D01*
X151029501Y-105482200D01*
X151029501Y-105583096D01*
X151029573Y-105583550D01*
X151029573Y-105583551D01*
X151033694Y-105609574D01*
X151045095Y-105681562D01*
X151105567Y-105800245D01*
X151199755Y-105894433D01*
X151318438Y-105954905D01*
X151416903Y-105970500D01*
X152074285Y-105970500D01*
X152733096Y-105970499D01*
X152831562Y-105954905D01*
X152950245Y-105894433D01*
X153044433Y-105800245D01*
X153104905Y-105681562D01*
X153120500Y-105583097D01*
X153120499Y-104816904D01*
X153119119Y-104808187D01*
X153106731Y-104729967D01*
X153104905Y-104718438D01*
X153044433Y-104599755D01*
X152950245Y-104505567D01*
X152927824Y-104494143D01*
X154195657Y-104494143D01*
X154213280Y-104628915D01*
X154213616Y-104629678D01*
X154213616Y-104629679D01*
X154253072Y-104719348D01*
X154268021Y-104753322D01*
X154355478Y-104857366D01*
X154356171Y-104857828D01*
X154356173Y-104857829D01*
X154445979Y-104917608D01*
X154468622Y-104932680D01*
X154598356Y-104973212D01*
X154675451Y-104974625D01*
X154733421Y-104975688D01*
X154733423Y-104975688D01*
X154734252Y-104975703D01*
X154865384Y-104939952D01*
X154876826Y-104932927D01*
X154980507Y-104869267D01*
X154980508Y-104869266D01*
X154981212Y-104868834D01*
X154992173Y-104856725D01*
X155029529Y-104815454D01*
X155072423Y-104768065D01*
X155131686Y-104645747D01*
X155133238Y-104636526D01*
X155154162Y-104512152D01*
X155154236Y-104511712D01*
X155154379Y-104500000D01*
X155151587Y-104480500D01*
X155136579Y-104375703D01*
X155135111Y-104365454D01*
X155134766Y-104364695D01*
X155079197Y-104242479D01*
X155079196Y-104242478D01*
X155078854Y-104241725D01*
X155077649Y-104240326D01*
X154990675Y-104139388D01*
X154990674Y-104139387D01*
X154990132Y-104138758D01*
X154989437Y-104138307D01*
X154989434Y-104138305D01*
X154876776Y-104065284D01*
X154876077Y-104064831D01*
X154809506Y-104044922D01*
X154746657Y-104026126D01*
X154746655Y-104026126D01*
X154745857Y-104025887D01*
X154680180Y-104025485D01*
X154610774Y-104025061D01*
X154610773Y-104025061D01*
X154609941Y-104025056D01*
X154540431Y-104044922D01*
X154480052Y-104062178D01*
X154480051Y-104062179D01*
X154479255Y-104062406D01*
X154475412Y-104064831D01*
X154365011Y-104134489D01*
X154365009Y-104134491D01*
X154364305Y-104134935D01*
X154363757Y-104135556D01*
X154363753Y-104135559D01*
X154334499Y-104168684D01*
X154274332Y-104236810D01*
X154216568Y-104359843D01*
X154195657Y-104494143D01*
X152927824Y-104494143D01*
X152831562Y-104445095D01*
X152741059Y-104430761D01*
X152733552Y-104429572D01*
X152733551Y-104429572D01*
X152733097Y-104429500D01*
X152075715Y-104429500D01*
X151416904Y-104429501D01*
X151416450Y-104429573D01*
X151416449Y-104429573D01*
X151408948Y-104430761D01*
X151318438Y-104445095D01*
X151199755Y-104505567D01*
X151105567Y-104599755D01*
X151045095Y-104718438D01*
X151037989Y-104763305D01*
X151029866Y-104814595D01*
X151029500Y-104816903D01*
X151029500Y-104917800D01*
X151026073Y-104926073D01*
X151017800Y-104929500D01*
X150802792Y-104929500D01*
X150800509Y-104929275D01*
X150776131Y-104924426D01*
X150775000Y-104924201D01*
X150773869Y-104924426D01*
X150748360Y-104929500D01*
X150670586Y-104944970D01*
X150670585Y-104944970D01*
X150669456Y-104945195D01*
X150644884Y-104961614D01*
X150602565Y-104989890D01*
X150602563Y-104989892D01*
X150579981Y-105004981D01*
X150579341Y-105005939D01*
X150565532Y-105026605D01*
X150564077Y-105028378D01*
X148766382Y-106826073D01*
X148758109Y-106829500D01*
X145123951Y-106829500D01*
X145115678Y-106826073D01*
X145113258Y-106822549D01*
X145108445Y-106811712D01*
X145076132Y-106738965D01*
X145063271Y-106726126D01*
X145035860Y-106698763D01*
X144995587Y-106658561D01*
X144891498Y-106612544D01*
X144890628Y-106612443D01*
X144890626Y-106612442D01*
X144865728Y-106609539D01*
X144865721Y-106609539D01*
X144865390Y-106609500D01*
X144504610Y-106609500D01*
X144504275Y-106609540D01*
X144504273Y-106609540D01*
X144478846Y-106612565D01*
X144478844Y-106612566D01*
X144477975Y-106612669D01*
X144373965Y-106658868D01*
X144373203Y-106659631D01*
X144373202Y-106659632D01*
X144366567Y-106666279D01*
X144293561Y-106739413D01*
X144247544Y-106843502D01*
X144244500Y-106869610D01*
X144244500Y-107330390D01*
X144105500Y-107330390D01*
X144105500Y-106869610D01*
X144105460Y-106869272D01*
X144102435Y-106843846D01*
X144102434Y-106843844D01*
X144102331Y-106842975D01*
X144056132Y-106738965D01*
X144043271Y-106726126D01*
X144015860Y-106698763D01*
X143975587Y-106658561D01*
X143871498Y-106612544D01*
X143870628Y-106612443D01*
X143870626Y-106612442D01*
X143845728Y-106609539D01*
X143845721Y-106609539D01*
X143845390Y-106609500D01*
X143484610Y-106609500D01*
X143484275Y-106609540D01*
X143484273Y-106609540D01*
X143458846Y-106612565D01*
X143458844Y-106612566D01*
X143457975Y-106612669D01*
X143353965Y-106658868D01*
X143353203Y-106659631D01*
X143353202Y-106659632D01*
X143346567Y-106666279D01*
X143273561Y-106739413D01*
X143227544Y-106843502D01*
X143224500Y-106869610D01*
X143224500Y-107330390D01*
X143224540Y-107330725D01*
X143224540Y-107330727D01*
X143227503Y-107355626D01*
X143227669Y-107357025D01*
X143273868Y-107461035D01*
X143274631Y-107461797D01*
X143274632Y-107461798D01*
X143283509Y-107470659D01*
X143354413Y-107541439D01*
X143373778Y-107550000D01*
X143387531Y-107556080D01*
X143393712Y-107562559D01*
X143394500Y-107566781D01*
X143394500Y-107733258D01*
X143391073Y-107741531D01*
X143387551Y-107743950D01*
X143353965Y-107758868D01*
X143353203Y-107759631D01*
X143353202Y-107759632D01*
X143333045Y-107779825D01*
X143273561Y-107839413D01*
X143227544Y-107943502D01*
X143227443Y-107944372D01*
X143227442Y-107944374D01*
X143224944Y-107965806D01*
X143224500Y-107969610D01*
X143224500Y-108430390D01*
X141677074Y-108430390D01*
X141710816Y-108348930D01*
X141730423Y-108200000D01*
X141710816Y-108051070D01*
X141653331Y-107912289D01*
X141649554Y-107907366D01*
X141567087Y-107799892D01*
X141561886Y-107793114D01*
X141483829Y-107733219D01*
X141443326Y-107702140D01*
X141443325Y-107702140D01*
X141442712Y-107701669D01*
X141303930Y-107644184D01*
X141155000Y-107624577D01*
X141006070Y-107644184D01*
X140867289Y-107701669D01*
X140866676Y-107702140D01*
X140866675Y-107702140D01*
X140793734Y-107758109D01*
X140748114Y-107793114D01*
X140742913Y-107799892D01*
X140660447Y-107907366D01*
X140656669Y-107912289D01*
X140599184Y-108051070D01*
X140579577Y-108200000D01*
X139245500Y-108200000D01*
X139245500Y-107877787D01*
X139245725Y-107875505D01*
X139250573Y-107851131D01*
X139250798Y-107850000D01*
X139245500Y-107823364D01*
X139245500Y-107823360D01*
X139236466Y-107777941D01*
X139230030Y-107745586D01*
X139230030Y-107745585D01*
X139229805Y-107744456D01*
X139222953Y-107734201D01*
X139185110Y-107677565D01*
X139185108Y-107677563D01*
X139170019Y-107654981D01*
X139148395Y-107640532D01*
X139146622Y-107639077D01*
X138813945Y-107306400D01*
X138810518Y-107298127D01*
X138810743Y-107295844D01*
X138820387Y-107247360D01*
X138820387Y-107247358D01*
X138820500Y-107246791D01*
X138820499Y-106613210D01*
X138820367Y-106612544D01*
X138810833Y-106564608D01*
X138810832Y-106564606D01*
X138810607Y-106563474D01*
X138772923Y-106507077D01*
X138739442Y-106484705D01*
X138717484Y-106470033D01*
X138717483Y-106470033D01*
X138716526Y-106469393D01*
X138715397Y-106469168D01*
X138715396Y-106469168D01*
X138667360Y-106459613D01*
X138667358Y-106459613D01*
X138666791Y-106459500D01*
X138666211Y-106459500D01*
X138450001Y-106459501D01*
X138233210Y-106459501D01*
X138232644Y-106459614D01*
X138232640Y-106459614D01*
X138184608Y-106469167D01*
X138184606Y-106469168D01*
X138183474Y-106469393D01*
X138182514Y-106470035D01*
X138182513Y-106470035D01*
X138160558Y-106484705D01*
X138127077Y-106507077D01*
X138089393Y-106563474D01*
X138089168Y-106564603D01*
X138089168Y-106564604D01*
X138079632Y-106612544D01*
X138079500Y-106613209D01*
X138079501Y-107246790D01*
X138079614Y-107247356D01*
X138079614Y-107247360D01*
X138088903Y-107294061D01*
X138089393Y-107296526D01*
X138127077Y-107352923D01*
X138132427Y-107356498D01*
X138183474Y-107390607D01*
X138183169Y-107391063D01*
X138188092Y-107395986D01*
X138188758Y-107398181D01*
X138192358Y-107416279D01*
X138195195Y-107430544D01*
X138195837Y-107431504D01*
X138195837Y-107431505D01*
X138210415Y-107453322D01*
X138239888Y-107497433D01*
X138239892Y-107497437D01*
X138254981Y-107520019D01*
X138255939Y-107520659D01*
X138276605Y-107534468D01*
X138278378Y-107535923D01*
X138359645Y-107617190D01*
X138363072Y-107625463D01*
X138359645Y-107633736D01*
X138351372Y-107637163D01*
X138349845Y-107637063D01*
X138255760Y-107624677D01*
X138255000Y-107624577D01*
X138106070Y-107644184D01*
X137967289Y-107701669D01*
X137966676Y-107702140D01*
X137966675Y-107702140D01*
X137893734Y-107758109D01*
X137848114Y-107793114D01*
X137842913Y-107799892D01*
X137760447Y-107907366D01*
X137756669Y-107912289D01*
X137699184Y-108051070D01*
X137679577Y-108200000D01*
X137699184Y-108348930D01*
X137756669Y-108487711D01*
X137757140Y-108488324D01*
X137757140Y-108488325D01*
X137805500Y-108551350D01*
X137848114Y-108606886D01*
X137848724Y-108607354D01*
X137957032Y-108690461D01*
X137967288Y-108698331D01*
X137968003Y-108698627D01*
X138007277Y-108714895D01*
X138013609Y-108721227D01*
X138014500Y-108725704D01*
X138014500Y-108733258D01*
X138011073Y-108741531D01*
X138007551Y-108743950D01*
X137973965Y-108758868D01*
X137973203Y-108759631D01*
X137973202Y-108759632D01*
X137940413Y-108792479D01*
X137893561Y-108839413D01*
X137847544Y-108943502D01*
X137847443Y-108944372D01*
X137847442Y-108944374D01*
X137844985Y-108965454D01*
X137844500Y-108969610D01*
X137844500Y-109430390D01*
X137844540Y-109430725D01*
X137844540Y-109430727D01*
X137847503Y-109455626D01*
X137847669Y-109457025D01*
X137893868Y-109561035D01*
X137894631Y-109561797D01*
X137894632Y-109561798D01*
X137908143Y-109575285D01*
X137974413Y-109641439D01*
X138078502Y-109687456D01*
X138079372Y-109687557D01*
X138079374Y-109687558D01*
X138104272Y-109690461D01*
X138104279Y-109690461D01*
X138104610Y-109690500D01*
X138465390Y-109690500D01*
X138465725Y-109690460D01*
X138465727Y-109690460D01*
X138491154Y-109687435D01*
X138491156Y-109687434D01*
X138492025Y-109687331D01*
X138587860Y-109644763D01*
X138595049Y-109641570D01*
X138596035Y-109641132D01*
X138624269Y-109612849D01*
X138648317Y-109588758D01*
X138676439Y-109560587D01*
X138682099Y-109547784D01*
X138688578Y-109541603D01*
X138697531Y-109541814D01*
X138703712Y-109548293D01*
X138704500Y-109552515D01*
X138704500Y-110714184D01*
X138701073Y-110722457D01*
X138692800Y-110725884D01*
X138684527Y-110722457D01*
X138683518Y-110721306D01*
X138662354Y-110693724D01*
X138661886Y-110693114D01*
X138600271Y-110645835D01*
X138543326Y-110602140D01*
X138543325Y-110602140D01*
X138542712Y-110601669D01*
X138403930Y-110544184D01*
X138255000Y-110524577D01*
X138106070Y-110544184D01*
X137967289Y-110601669D01*
X137848114Y-110693114D01*
X137847646Y-110693724D01*
X137761311Y-110806240D01*
X137756669Y-110812289D01*
X137699184Y-110951070D01*
X137679577Y-111100000D01*
X137679677Y-111100760D01*
X137681042Y-111111131D01*
X137699184Y-111248930D01*
X137756669Y-111387711D01*
X137757140Y-111388324D01*
X137757140Y-111388325D01*
X137766966Y-111401131D01*
X137848114Y-111506886D01*
X137848724Y-111507354D01*
X137933540Y-111572435D01*
X137967288Y-111598331D01*
X138106070Y-111655816D01*
X138255000Y-111675423D01*
X138255760Y-111675323D01*
X138292265Y-111670517D01*
X138300915Y-111672835D01*
X138305392Y-111680590D01*
X138303074Y-111689240D01*
X138302065Y-111690390D01*
X137866382Y-112126073D01*
X137858109Y-112129500D01*
X136097929Y-112129500D01*
X136089656Y-112126073D01*
X136086229Y-112117800D01*
X136089255Y-112109948D01*
X136098260Y-112100000D01*
X136166736Y-112024348D01*
X136175410Y-112020500D01*
X136597208Y-112020500D01*
X136599491Y-112020725D01*
X136625000Y-112025799D01*
X136626131Y-112025574D01*
X136651640Y-112020500D01*
X136729414Y-112005030D01*
X136729415Y-112005030D01*
X136730544Y-112004805D01*
X136732764Y-112003322D01*
X136763873Y-111982535D01*
X136797435Y-111960110D01*
X136797437Y-111960108D01*
X136819061Y-111945659D01*
X136820019Y-111945019D01*
X136834468Y-111923395D01*
X136835923Y-111921622D01*
X137436622Y-111320923D01*
X137438395Y-111319468D01*
X137459061Y-111305659D01*
X137460019Y-111305019D01*
X137475108Y-111282437D01*
X137475112Y-111282433D01*
X137499624Y-111245747D01*
X137519165Y-111216502D01*
X137519805Y-111215544D01*
X137535500Y-111136640D01*
X137540799Y-111110000D01*
X137535725Y-111084491D01*
X137535500Y-111082208D01*
X137535500Y-109666742D01*
X137538927Y-109658469D01*
X137542449Y-109656050D01*
X137576035Y-109641132D01*
X137604269Y-109612849D01*
X137628317Y-109588758D01*
X137656439Y-109560587D01*
X137702456Y-109456498D01*
X137705500Y-109430390D01*
X137705500Y-108969610D01*
X137703388Y-108951859D01*
X137702435Y-108943846D01*
X137702434Y-108943844D01*
X137702331Y-108942975D01*
X137656132Y-108838965D01*
X137653974Y-108836810D01*
X137592601Y-108775545D01*
X137575587Y-108758561D01*
X137542469Y-108743920D01*
X137536288Y-108737441D01*
X137535500Y-108733219D01*
X137535500Y-108126891D01*
X137538927Y-108118618D01*
X137571622Y-108085923D01*
X137573395Y-108084468D01*
X137594061Y-108070659D01*
X137595019Y-108070019D01*
X137610108Y-108047437D01*
X137610112Y-108047433D01*
X137635123Y-108010000D01*
X137654165Y-107981502D01*
X137654805Y-107980544D01*
X137656913Y-107969949D01*
X137670500Y-107901640D01*
X137675574Y-107876131D01*
X137675799Y-107875000D01*
X137670725Y-107849491D01*
X137670500Y-107847208D01*
X137670500Y-107394205D01*
X137673927Y-107385932D01*
X137675698Y-107384479D01*
X137722923Y-107352923D01*
X137760607Y-107296526D01*
X137761098Y-107294061D01*
X137770387Y-107247360D01*
X137770387Y-107247358D01*
X137770500Y-107246791D01*
X137770499Y-106613210D01*
X137770367Y-106612544D01*
X137760833Y-106564608D01*
X137760832Y-106564606D01*
X137760607Y-106563474D01*
X137722923Y-106507077D01*
X137689442Y-106484705D01*
X137667484Y-106470033D01*
X137667483Y-106470033D01*
X137666526Y-106469393D01*
X137665397Y-106469168D01*
X137665396Y-106469168D01*
X137617360Y-106459613D01*
X137617358Y-106459613D01*
X137616791Y-106459500D01*
X137616211Y-106459500D01*
X137400001Y-106459501D01*
X137183210Y-106459501D01*
X137182644Y-106459614D01*
X137182640Y-106459614D01*
X137134608Y-106469167D01*
X137134606Y-106469168D01*
X137133474Y-106469393D01*
X137132514Y-106470035D01*
X137132513Y-106470035D01*
X137110558Y-106484705D01*
X137077077Y-106507077D01*
X137039393Y-106563474D01*
X137039168Y-106564603D01*
X137039168Y-106564604D01*
X137029632Y-106612544D01*
X137029500Y-106613209D01*
X137029501Y-107246790D01*
X137029614Y-107247356D01*
X137029614Y-107247360D01*
X137038903Y-107294061D01*
X137039393Y-107296526D01*
X137077077Y-107352923D01*
X137124300Y-107384478D01*
X137129275Y-107391923D01*
X137129500Y-107394205D01*
X137129500Y-107758109D01*
X137126073Y-107766382D01*
X137093378Y-107799077D01*
X137091605Y-107800532D01*
X137069981Y-107814981D01*
X137054892Y-107837563D01*
X137054890Y-107837565D01*
X137045826Y-107851131D01*
X137043371Y-107854805D01*
X137012077Y-107901640D01*
X137010195Y-107904456D01*
X137009970Y-107905588D01*
X137009969Y-107905590D01*
X137000900Y-107951187D01*
X136989201Y-108010000D01*
X136989426Y-108011131D01*
X136994275Y-108035509D01*
X136994500Y-108037792D01*
X136994500Y-108733258D01*
X136991073Y-108741531D01*
X136987551Y-108743950D01*
X136961948Y-108755322D01*
X136952998Y-108755548D01*
X136946507Y-108749378D01*
X136945500Y-108744629D01*
X136945500Y-107627787D01*
X136945725Y-107625505D01*
X136950573Y-107601131D01*
X136950798Y-107600000D01*
X136945500Y-107573364D01*
X136945500Y-107573360D01*
X136944184Y-107566742D01*
X136930030Y-107495586D01*
X136930030Y-107495585D01*
X136929805Y-107494456D01*
X136912585Y-107468684D01*
X136894151Y-107441097D01*
X136870019Y-107404981D01*
X136850477Y-107391923D01*
X136848392Y-107390530D01*
X136846619Y-107389075D01*
X136722240Y-107264696D01*
X136718813Y-107256423D01*
X136719038Y-107254140D01*
X136720387Y-107247360D01*
X136720387Y-107247358D01*
X136720500Y-107246791D01*
X136720499Y-106613210D01*
X136720367Y-106612544D01*
X136710833Y-106564608D01*
X136710832Y-106564606D01*
X136710607Y-106563474D01*
X136672923Y-106507077D01*
X136639442Y-106484705D01*
X136617484Y-106470033D01*
X136617483Y-106470033D01*
X136616526Y-106469393D01*
X136615397Y-106469168D01*
X136615396Y-106469168D01*
X136567360Y-106459613D01*
X136567358Y-106459613D01*
X136566791Y-106459500D01*
X136566211Y-106459500D01*
X136350001Y-106459501D01*
X136133210Y-106459501D01*
X136132644Y-106459614D01*
X136132640Y-106459614D01*
X136084608Y-106469167D01*
X136084606Y-106469168D01*
X136083474Y-106469393D01*
X136082514Y-106470035D01*
X136082513Y-106470035D01*
X136060558Y-106484705D01*
X136027077Y-106507077D01*
X135989393Y-106563474D01*
X135989168Y-106564603D01*
X135989168Y-106564604D01*
X135979632Y-106612544D01*
X135979500Y-106613209D01*
X135979501Y-107246790D01*
X135979614Y-107247356D01*
X135979614Y-107247360D01*
X135988903Y-107294061D01*
X135989393Y-107296526D01*
X136027077Y-107352923D01*
X136032427Y-107356498D01*
X136079501Y-107387952D01*
X136083474Y-107390607D01*
X136092110Y-107392325D01*
X136099993Y-107393893D01*
X136107438Y-107398867D01*
X136114772Y-107409843D01*
X136139890Y-107447435D01*
X136139892Y-107447437D01*
X136154981Y-107470019D01*
X136155939Y-107470659D01*
X136176605Y-107484468D01*
X136178378Y-107485923D01*
X136401073Y-107708617D01*
X136404500Y-107716890D01*
X136404500Y-108494129D01*
X136401073Y-108502402D01*
X136392800Y-108505829D01*
X136384527Y-108502402D01*
X136382149Y-108498972D01*
X136379197Y-108492479D01*
X136379196Y-108492478D01*
X136378854Y-108491725D01*
X136361244Y-108471288D01*
X136290675Y-108389388D01*
X136290674Y-108389387D01*
X136290132Y-108388758D01*
X136289437Y-108388307D01*
X136289434Y-108388305D01*
X136176776Y-108315284D01*
X136176077Y-108314831D01*
X136110967Y-108295359D01*
X136046657Y-108276126D01*
X136046655Y-108276126D01*
X136045857Y-108275887D01*
X135980180Y-108275485D01*
X135910774Y-108275061D01*
X135910773Y-108275061D01*
X135909941Y-108275056D01*
X135828676Y-108298282D01*
X135780052Y-108312178D01*
X135780051Y-108312179D01*
X135779255Y-108312406D01*
X135775412Y-108314831D01*
X135665011Y-108384489D01*
X135665009Y-108384491D01*
X135664305Y-108384935D01*
X135663757Y-108385556D01*
X135663753Y-108385559D01*
X135624460Y-108430051D01*
X135574332Y-108486810D01*
X135516568Y-108609843D01*
X135495657Y-108744143D01*
X135513280Y-108878915D01*
X135513616Y-108879678D01*
X135513616Y-108879679D01*
X135553038Y-108969272D01*
X135568021Y-109003322D01*
X135568560Y-109003963D01*
X135648916Y-109099559D01*
X135655478Y-109107366D01*
X135656171Y-109107828D01*
X135656173Y-109107829D01*
X135722034Y-109151669D01*
X135768622Y-109182680D01*
X135898356Y-109223212D01*
X135975451Y-109224625D01*
X136033421Y-109225688D01*
X136033423Y-109225688D01*
X136034252Y-109225703D01*
X136165384Y-109189952D01*
X136176826Y-109182927D01*
X136280507Y-109119267D01*
X136280508Y-109119266D01*
X136281212Y-109118834D01*
X136284272Y-109115454D01*
X136306318Y-109091097D01*
X136372423Y-109018065D01*
X136379256Y-109003963D01*
X136382271Y-108997739D01*
X136388962Y-108991787D01*
X136397901Y-108992311D01*
X136403853Y-108999002D01*
X136404500Y-109002840D01*
X136404500Y-109708109D01*
X136401073Y-109716382D01*
X136341382Y-109776073D01*
X136333109Y-109779500D01*
X136173683Y-109779500D01*
X136164819Y-109775437D01*
X136090675Y-109689388D01*
X136090674Y-109689387D01*
X136090132Y-109688758D01*
X136089437Y-109688307D01*
X136089434Y-109688305D01*
X135976776Y-109615284D01*
X135976077Y-109614831D01*
X135910967Y-109595359D01*
X135846657Y-109576126D01*
X135846655Y-109576126D01*
X135845857Y-109575887D01*
X135780180Y-109575485D01*
X135710774Y-109575061D01*
X135710773Y-109575061D01*
X135709941Y-109575056D01*
X135659794Y-109589388D01*
X135580052Y-109612178D01*
X135580051Y-109612179D01*
X135579255Y-109612406D01*
X135575412Y-109614831D01*
X135465011Y-109684489D01*
X135465009Y-109684491D01*
X135464305Y-109684935D01*
X135463757Y-109685556D01*
X135463753Y-109685559D01*
X135434366Y-109718834D01*
X135374332Y-109786810D01*
X135316568Y-109909843D01*
X135295657Y-110044143D01*
X135313280Y-110178915D01*
X135313616Y-110179678D01*
X135313616Y-110179679D01*
X135355154Y-110274079D01*
X135368021Y-110303322D01*
X135382650Y-110320725D01*
X135448916Y-110399559D01*
X135455478Y-110407366D01*
X135456171Y-110407828D01*
X135456173Y-110407829D01*
X135543133Y-110465714D01*
X135548121Y-110473151D01*
X135546390Y-110481937D01*
X135542893Y-110485349D01*
X135465011Y-110534489D01*
X135465009Y-110534491D01*
X135464305Y-110534935D01*
X135463757Y-110535556D01*
X135463753Y-110535559D01*
X135384281Y-110625545D01*
X135375511Y-110629500D01*
X135302792Y-110629500D01*
X135300509Y-110629275D01*
X135276131Y-110624426D01*
X135275000Y-110624201D01*
X135273869Y-110624426D01*
X135248360Y-110629500D01*
X135170586Y-110644970D01*
X135170585Y-110644970D01*
X135169456Y-110645195D01*
X135168498Y-110645835D01*
X135157293Y-110653322D01*
X135143698Y-110662406D01*
X135102565Y-110689890D01*
X135102563Y-110689892D01*
X135079981Y-110704981D01*
X135079341Y-110705939D01*
X135065532Y-110726605D01*
X135064077Y-110728378D01*
X134903378Y-110889077D01*
X134901605Y-110890532D01*
X134879981Y-110904981D01*
X134864892Y-110927563D01*
X134864890Y-110927565D01*
X134849185Y-110951070D01*
X134820195Y-110994456D01*
X134819970Y-110995588D01*
X134819969Y-110995590D01*
X134819620Y-110997346D01*
X134817975Y-111005617D01*
X134799201Y-111100000D01*
X134799426Y-111101131D01*
X134804275Y-111125509D01*
X134804500Y-111127792D01*
X134804500Y-112072208D01*
X134804275Y-112074491D01*
X134799201Y-112100000D01*
X133173511Y-112100000D01*
X132962230Y-111632680D01*
X132961974Y-111632069D01*
X132717709Y-110997645D01*
X132717491Y-110997026D01*
X132717031Y-110995590D01*
X132631305Y-110728378D01*
X132509823Y-110349710D01*
X132509638Y-110349069D01*
X132404794Y-109944143D01*
X132339242Y-109690967D01*
X132339096Y-109690330D01*
X132338784Y-109688758D01*
X132262486Y-109305030D01*
X132206526Y-109023584D01*
X132206414Y-109022925D01*
X132117507Y-108388305D01*
X132112098Y-108349691D01*
X132112024Y-108349031D01*
X132106005Y-108275882D01*
X132056269Y-107671489D01*
X132056235Y-107670833D01*
X132055863Y-107655939D01*
X132048389Y-107357300D01*
X132039230Y-106991262D01*
X132039232Y-106990594D01*
X132061025Y-106311143D01*
X132061065Y-106310476D01*
X132069393Y-106217312D01*
X132121592Y-105633347D01*
X132121670Y-105632691D01*
X132122067Y-105630000D01*
X132128450Y-105586665D01*
X134334994Y-105586665D01*
X134335042Y-105587237D01*
X134347867Y-105739958D01*
X134350592Y-105772414D01*
X134350749Y-105772961D01*
X134350749Y-105772962D01*
X134361561Y-105810667D01*
X134401971Y-105951595D01*
X134426621Y-105999559D01*
X134479195Y-106101855D01*
X134487176Y-106117385D01*
X134602959Y-106263468D01*
X134603396Y-106263840D01*
X134603397Y-106263841D01*
X134608360Y-106268065D01*
X134744912Y-106384279D01*
X134907627Y-106475217D01*
X134908166Y-106475392D01*
X134908168Y-106475393D01*
X134967481Y-106494665D01*
X134974290Y-106500480D01*
X134974992Y-106509408D01*
X134973595Y-106512289D01*
X134939393Y-106563474D01*
X134939168Y-106564603D01*
X134939168Y-106564604D01*
X134929632Y-106612544D01*
X134929500Y-106613209D01*
X134929501Y-107246790D01*
X134929614Y-107247356D01*
X134929614Y-107247360D01*
X134938903Y-107294061D01*
X134939393Y-107296526D01*
X134977077Y-107352923D01*
X134982427Y-107356498D01*
X135029501Y-107387952D01*
X135033474Y-107390607D01*
X135034603Y-107390832D01*
X135034604Y-107390832D01*
X135082640Y-107400387D01*
X135082642Y-107400387D01*
X135083209Y-107400500D01*
X135300000Y-107400500D01*
X135516790Y-107400499D01*
X135517356Y-107400386D01*
X135517360Y-107400386D01*
X135565392Y-107390833D01*
X135565394Y-107390832D01*
X135566526Y-107390607D01*
X135570500Y-107387952D01*
X135617573Y-107356498D01*
X135622923Y-107352923D01*
X135660607Y-107296526D01*
X135661098Y-107294061D01*
X135670387Y-107247360D01*
X135670387Y-107247358D01*
X135670500Y-107246791D01*
X135670499Y-106613210D01*
X135670367Y-106612544D01*
X135660833Y-106564608D01*
X135660832Y-106564606D01*
X135660607Y-106563474D01*
X135659965Y-106562513D01*
X135624498Y-106509433D01*
X135622751Y-106500650D01*
X135627726Y-106493205D01*
X135631081Y-106491664D01*
X135634830Y-106490618D01*
X135634835Y-106490616D01*
X135635387Y-106490462D01*
X135665039Y-106475484D01*
X135768490Y-106423227D01*
X135801768Y-106406417D01*
X135948655Y-106291656D01*
X136047937Y-106176636D01*
X136070083Y-106150980D01*
X136070084Y-106150979D01*
X136070454Y-106150550D01*
X136149579Y-106011265D01*
X136162243Y-105988973D01*
X136162245Y-105988969D01*
X136162526Y-105988474D01*
X136168506Y-105970500D01*
X136221185Y-105812140D01*
X136221186Y-105812137D01*
X136221364Y-105811601D01*
X136243739Y-105634489D01*
X136244686Y-105626996D01*
X136244727Y-105626668D01*
X136244828Y-105619471D01*
X136244965Y-105609574D01*
X136245099Y-105600000D01*
X136226909Y-105414487D01*
X136219502Y-105389952D01*
X136178660Y-105254679D01*
X136173033Y-105236040D01*
X136172761Y-105235528D01*
X136085792Y-105071963D01*
X136085790Y-105071960D01*
X136085522Y-105071456D01*
X136080701Y-105065544D01*
X135968069Y-104927445D01*
X135968068Y-104927444D01*
X135967710Y-104927005D01*
X135824085Y-104808187D01*
X135738748Y-104762045D01*
X135660623Y-104719803D01*
X135660622Y-104719803D01*
X135660116Y-104719529D01*
X135629546Y-104710066D01*
X135622658Y-104704347D01*
X135621830Y-104695430D01*
X135623279Y-104692390D01*
X135659967Y-104637484D01*
X135659967Y-104637483D01*
X135660607Y-104636526D01*
X135662286Y-104628088D01*
X135670387Y-104587360D01*
X135670387Y-104587358D01*
X135670500Y-104586791D01*
X135670499Y-103953210D01*
X135670386Y-103952640D01*
X135660833Y-103904608D01*
X135660832Y-103904606D01*
X135660607Y-103903474D01*
X135658585Y-103900447D01*
X135623563Y-103848035D01*
X135622923Y-103847077D01*
X135566526Y-103809393D01*
X135565397Y-103809168D01*
X135565396Y-103809168D01*
X135517360Y-103799613D01*
X135517358Y-103799613D01*
X135516791Y-103799500D01*
X135516211Y-103799500D01*
X135300001Y-103799501D01*
X135083210Y-103799501D01*
X135082644Y-103799614D01*
X135082640Y-103799614D01*
X135034608Y-103809167D01*
X135034606Y-103809168D01*
X135033474Y-103809393D01*
X134977077Y-103847077D01*
X134976437Y-103848035D01*
X134941416Y-103900447D01*
X134939393Y-103903474D01*
X134939168Y-103904603D01*
X134939168Y-103904604D01*
X134929613Y-103952640D01*
X134929500Y-103953209D01*
X134929501Y-104586790D01*
X134929614Y-104587356D01*
X134929614Y-104587360D01*
X134937715Y-104628088D01*
X134939393Y-104636526D01*
X134940035Y-104637486D01*
X134940035Y-104637487D01*
X134972883Y-104686646D01*
X134974630Y-104695428D01*
X134969655Y-104702874D01*
X134966461Y-104704369D01*
X134944921Y-104710708D01*
X134932760Y-104714287D01*
X134932757Y-104714288D01*
X134932214Y-104714448D01*
X134931716Y-104714709D01*
X134931712Y-104714710D01*
X134767525Y-104800544D01*
X134767521Y-104800547D01*
X134767023Y-104800807D01*
X134766581Y-104801162D01*
X134766577Y-104801165D01*
X134622197Y-104917250D01*
X134621752Y-104917608D01*
X134621392Y-104918037D01*
X134621387Y-104918042D01*
X134547634Y-105005939D01*
X134501935Y-105060401D01*
X134501662Y-105060897D01*
X134501661Y-105060899D01*
X134426899Y-105196891D01*
X134412135Y-105223746D01*
X134411964Y-105224286D01*
X134411962Y-105224290D01*
X134402322Y-105254679D01*
X134355772Y-105401424D01*
X134355709Y-105401989D01*
X134355708Y-105401992D01*
X134341501Y-105528655D01*
X134334994Y-105586665D01*
X132128450Y-105586665D01*
X132220725Y-104960150D01*
X132220841Y-104959493D01*
X132221665Y-104955499D01*
X132336255Y-104399685D01*
X132358105Y-104293704D01*
X132358258Y-104293054D01*
X132533290Y-103636155D01*
X132533481Y-103635514D01*
X132694947Y-103144143D01*
X135870657Y-103144143D01*
X135888280Y-103278915D01*
X135888616Y-103279678D01*
X135888616Y-103279679D01*
X135904803Y-103316467D01*
X135943021Y-103403322D01*
X135943560Y-103403963D01*
X136026756Y-103502939D01*
X136029500Y-103510467D01*
X136029500Y-103840126D01*
X136026720Y-103846838D01*
X136027077Y-103847077D01*
X135991416Y-103900447D01*
X135989393Y-103903474D01*
X135989168Y-103904603D01*
X135989168Y-103904604D01*
X135979613Y-103952640D01*
X135979500Y-103953209D01*
X135979501Y-104586790D01*
X135979614Y-104587356D01*
X135979614Y-104587360D01*
X135987715Y-104628088D01*
X135989393Y-104636526D01*
X135990035Y-104637486D01*
X135990035Y-104637487D01*
X135998989Y-104650887D01*
X136027077Y-104692923D01*
X136044174Y-104704347D01*
X136066641Y-104719359D01*
X136083474Y-104730607D01*
X136084603Y-104730832D01*
X136084604Y-104730832D01*
X136132640Y-104740387D01*
X136132642Y-104740387D01*
X136133209Y-104740500D01*
X136350000Y-104740500D01*
X136566790Y-104740499D01*
X136567356Y-104740386D01*
X136567360Y-104740386D01*
X136615392Y-104730833D01*
X136615394Y-104730832D01*
X136616526Y-104730607D01*
X136633360Y-104719359D01*
X136655826Y-104704347D01*
X136672923Y-104692923D01*
X136701011Y-104650887D01*
X136709967Y-104637484D01*
X136709967Y-104637483D01*
X136710607Y-104636526D01*
X136712286Y-104628088D01*
X136720387Y-104587360D01*
X136720387Y-104587358D01*
X136720500Y-104586791D01*
X136720499Y-103953210D01*
X136720386Y-103952640D01*
X136710833Y-103904608D01*
X136710832Y-103904606D01*
X136710607Y-103903474D01*
X136708585Y-103900447D01*
X136672923Y-103847077D01*
X136673280Y-103846838D01*
X136670500Y-103840126D01*
X136670500Y-103507558D01*
X136673526Y-103499706D01*
X136694869Y-103476126D01*
X136747423Y-103418065D01*
X136806686Y-103295747D01*
X136808662Y-103284005D01*
X136829162Y-103162152D01*
X136829236Y-103161712D01*
X136829308Y-103155856D01*
X136829374Y-103150447D01*
X136829374Y-103150441D01*
X136829379Y-103150000D01*
X136828540Y-103144143D01*
X136920657Y-103144143D01*
X136938280Y-103278915D01*
X136938616Y-103279678D01*
X136938616Y-103279679D01*
X136954803Y-103316467D01*
X136993021Y-103403322D01*
X136993560Y-103403963D01*
X137076756Y-103502939D01*
X137079500Y-103510467D01*
X137079500Y-103840126D01*
X137076720Y-103846838D01*
X137077077Y-103847077D01*
X137041416Y-103900447D01*
X137039393Y-103903474D01*
X137039168Y-103904603D01*
X137039168Y-103904604D01*
X137029613Y-103952640D01*
X137029500Y-103953209D01*
X137029501Y-104586790D01*
X137029614Y-104587356D01*
X137029614Y-104587360D01*
X137037715Y-104628088D01*
X137039393Y-104636526D01*
X137040035Y-104637486D01*
X137040035Y-104637487D01*
X137048989Y-104650887D01*
X137077077Y-104692923D01*
X137094174Y-104704347D01*
X137116641Y-104719359D01*
X137133474Y-104730607D01*
X137134603Y-104730832D01*
X137134604Y-104730832D01*
X137182640Y-104740387D01*
X137182642Y-104740387D01*
X137183209Y-104740500D01*
X137400000Y-104740500D01*
X137616790Y-104740499D01*
X137617356Y-104740386D01*
X137617360Y-104740386D01*
X137665392Y-104730833D01*
X137665394Y-104730832D01*
X137666526Y-104730607D01*
X137683360Y-104719359D01*
X137705826Y-104704347D01*
X137722923Y-104692923D01*
X137751011Y-104650887D01*
X137759967Y-104637484D01*
X137759967Y-104637483D01*
X137760607Y-104636526D01*
X137762286Y-104628088D01*
X137770387Y-104587360D01*
X137770387Y-104587358D01*
X137770500Y-104586791D01*
X137770499Y-103953210D01*
X137770386Y-103952640D01*
X137760833Y-103904608D01*
X137760832Y-103904606D01*
X137760607Y-103903474D01*
X137758585Y-103900447D01*
X137722923Y-103847077D01*
X137723280Y-103846838D01*
X137720500Y-103840126D01*
X137720500Y-103507558D01*
X137723526Y-103499706D01*
X137744869Y-103476126D01*
X137797423Y-103418065D01*
X137856686Y-103295747D01*
X137858662Y-103284005D01*
X137861162Y-103269143D01*
X137970657Y-103269143D01*
X137988280Y-103403915D01*
X137988616Y-103404678D01*
X137988616Y-103404679D01*
X138004283Y-103440284D01*
X138043021Y-103528322D01*
X138055414Y-103543065D01*
X138126756Y-103627939D01*
X138129500Y-103635467D01*
X138129500Y-103840126D01*
X138126720Y-103846838D01*
X138127077Y-103847077D01*
X138091416Y-103900447D01*
X138089393Y-103903474D01*
X138089168Y-103904603D01*
X138089168Y-103904604D01*
X138079613Y-103952640D01*
X138079500Y-103953209D01*
X138079501Y-104586790D01*
X138079614Y-104587356D01*
X138079614Y-104587360D01*
X138087715Y-104628088D01*
X138089393Y-104636526D01*
X138090035Y-104637486D01*
X138090035Y-104637487D01*
X138098989Y-104650887D01*
X138127077Y-104692923D01*
X138144174Y-104704347D01*
X138166641Y-104719359D01*
X138183474Y-104730607D01*
X138184603Y-104730832D01*
X138184604Y-104730832D01*
X138232640Y-104740387D01*
X138232642Y-104740387D01*
X138233209Y-104740500D01*
X138450000Y-104740500D01*
X138666790Y-104740499D01*
X138667356Y-104740386D01*
X138667360Y-104740386D01*
X138715392Y-104730833D01*
X138715394Y-104730832D01*
X138716526Y-104730607D01*
X138733360Y-104719359D01*
X138755826Y-104704347D01*
X138772923Y-104692923D01*
X138801011Y-104650887D01*
X138809967Y-104637484D01*
X138809967Y-104637483D01*
X138810607Y-104636526D01*
X138812286Y-104628088D01*
X138820387Y-104587360D01*
X138820387Y-104587358D01*
X138820500Y-104586791D01*
X138820499Y-104247855D01*
X138823926Y-104239582D01*
X138832199Y-104236155D01*
X138840472Y-104239582D01*
X138841150Y-104240320D01*
X138855478Y-104257366D01*
X138856171Y-104257828D01*
X138856173Y-104257829D01*
X138937804Y-104312166D01*
X138968622Y-104332680D01*
X139098356Y-104373212D01*
X139175451Y-104374625D01*
X139233421Y-104375688D01*
X139233423Y-104375688D01*
X139234252Y-104375703D01*
X139365384Y-104339952D01*
X139376826Y-104332927D01*
X139480507Y-104269267D01*
X139480508Y-104269266D01*
X139481212Y-104268834D01*
X139572423Y-104168065D01*
X139631686Y-104045747D01*
X139639383Y-104000000D01*
X139654162Y-103912152D01*
X139654236Y-103911712D01*
X139654339Y-103903304D01*
X139654374Y-103900447D01*
X139654374Y-103900441D01*
X139654379Y-103900000D01*
X139635111Y-103765454D01*
X139634766Y-103764695D01*
X139579197Y-103642479D01*
X139579196Y-103642478D01*
X139578854Y-103641725D01*
X139568473Y-103629677D01*
X139490675Y-103539388D01*
X139490674Y-103539387D01*
X139490132Y-103538758D01*
X139489437Y-103538307D01*
X139489434Y-103538305D01*
X139376776Y-103465284D01*
X139376077Y-103464831D01*
X139310967Y-103445359D01*
X139246657Y-103426126D01*
X139246655Y-103426126D01*
X139245857Y-103425887D01*
X139180180Y-103425485D01*
X139110774Y-103425061D01*
X139110773Y-103425061D01*
X139109941Y-103425056D01*
X139058244Y-103439831D01*
X138980052Y-103462178D01*
X138980051Y-103462179D01*
X138979255Y-103462406D01*
X138887185Y-103520499D01*
X138880284Y-103524853D01*
X138871459Y-103526370D01*
X138864146Y-103521201D01*
X138862629Y-103512376D01*
X138863512Y-103509857D01*
X138864626Y-103507558D01*
X138906686Y-103420747D01*
X138909747Y-103402556D01*
X138929162Y-103287152D01*
X138929236Y-103286712D01*
X138929331Y-103278915D01*
X138929374Y-103275447D01*
X138929374Y-103275441D01*
X138929379Y-103275000D01*
X138926677Y-103256128D01*
X138911185Y-103147955D01*
X138910111Y-103140454D01*
X138909766Y-103139695D01*
X138854197Y-103017479D01*
X138854196Y-103017478D01*
X138853854Y-103016725D01*
X138765132Y-102913758D01*
X138764437Y-102913307D01*
X138764434Y-102913305D01*
X138651776Y-102840284D01*
X138651077Y-102839831D01*
X138585967Y-102820359D01*
X138521657Y-102801126D01*
X138521655Y-102801126D01*
X138520857Y-102800887D01*
X138455180Y-102800485D01*
X138385774Y-102800061D01*
X138385773Y-102800061D01*
X138384941Y-102800056D01*
X138303676Y-102823282D01*
X138255052Y-102837178D01*
X138255051Y-102837179D01*
X138254255Y-102837406D01*
X138250412Y-102839831D01*
X138140011Y-102909489D01*
X138140009Y-102909491D01*
X138139305Y-102909935D01*
X138138757Y-102910556D01*
X138138753Y-102910559D01*
X138091240Y-102964359D01*
X138049332Y-103011810D01*
X137991568Y-103134843D01*
X137970657Y-103269143D01*
X137861162Y-103269143D01*
X137879162Y-103162152D01*
X137879236Y-103161712D01*
X137879308Y-103155856D01*
X137879374Y-103150447D01*
X137879374Y-103150441D01*
X137879379Y-103150000D01*
X137877327Y-103135667D01*
X137860229Y-103016279D01*
X137860111Y-103015454D01*
X137858171Y-103011187D01*
X137804197Y-102892479D01*
X137804196Y-102892478D01*
X137803854Y-102891725D01*
X137797378Y-102884209D01*
X137715675Y-102789388D01*
X137715674Y-102789387D01*
X137715132Y-102788758D01*
X137714437Y-102788307D01*
X137714434Y-102788305D01*
X137601776Y-102715284D01*
X137601077Y-102714831D01*
X137535967Y-102695359D01*
X137471657Y-102676126D01*
X137471655Y-102676126D01*
X137470857Y-102675887D01*
X137405180Y-102675485D01*
X137335774Y-102675061D01*
X137335773Y-102675061D01*
X137334941Y-102675056D01*
X137300683Y-102684847D01*
X137205052Y-102712178D01*
X137205051Y-102712179D01*
X137204255Y-102712406D01*
X137200627Y-102714695D01*
X137090011Y-102784489D01*
X137090009Y-102784491D01*
X137089305Y-102784935D01*
X137088757Y-102785556D01*
X137088753Y-102785559D01*
X137042964Y-102837406D01*
X136999332Y-102886810D01*
X136941568Y-103009843D01*
X136920657Y-103144143D01*
X136828540Y-103144143D01*
X136827327Y-103135667D01*
X136810229Y-103016279D01*
X136810111Y-103015454D01*
X136808171Y-103011187D01*
X136754197Y-102892479D01*
X136754196Y-102892478D01*
X136753854Y-102891725D01*
X136747378Y-102884209D01*
X136668336Y-102792476D01*
X136665500Y-102784839D01*
X136665500Y-102359434D01*
X136668927Y-102351161D01*
X136672450Y-102348741D01*
X136677880Y-102346329D01*
X136713915Y-102330323D01*
X136735509Y-102308692D01*
X136761694Y-102282461D01*
X136795635Y-102248461D01*
X136842406Y-102142668D01*
X136843542Y-102132927D01*
X136845461Y-102116467D01*
X136845461Y-102116460D01*
X136845500Y-102116129D01*
X136845499Y-101683872D01*
X136845499Y-101683871D01*
X136904500Y-101683871D01*
X136904501Y-102116128D01*
X136904541Y-102116463D01*
X136904541Y-102116465D01*
X136907555Y-102141796D01*
X136907722Y-102143204D01*
X136954677Y-102248915D01*
X136955440Y-102249677D01*
X136955441Y-102249678D01*
X136973106Y-102267312D01*
X137036539Y-102330635D01*
X137142332Y-102377406D01*
X137143202Y-102377507D01*
X137143204Y-102377508D01*
X137168533Y-102380461D01*
X137168540Y-102380461D01*
X137168871Y-102380500D01*
X137354725Y-102380500D01*
X137541128Y-102380499D01*
X137541463Y-102380459D01*
X137541465Y-102380459D01*
X137567333Y-102377382D01*
X137567335Y-102377381D01*
X137568204Y-102377278D01*
X137673915Y-102330323D01*
X137695509Y-102308692D01*
X137721694Y-102282461D01*
X137755635Y-102248461D01*
X137784362Y-102183482D01*
X137785208Y-102181569D01*
X137791688Y-102175388D01*
X137800640Y-102175599D01*
X137806821Y-102182079D01*
X137807509Y-102184779D01*
X137813280Y-102228915D01*
X137813616Y-102229678D01*
X137813616Y-102229679D01*
X137830175Y-102267312D01*
X137868021Y-102353322D01*
X137890865Y-102380499D01*
X137953445Y-102454947D01*
X137955478Y-102457366D01*
X137956171Y-102457828D01*
X137956173Y-102457829D01*
X138027770Y-102505487D01*
X138068622Y-102532680D01*
X138198356Y-102573212D01*
X138275451Y-102574625D01*
X138333421Y-102575688D01*
X138333423Y-102575688D01*
X138334252Y-102575703D01*
X138465384Y-102539952D01*
X138475971Y-102533452D01*
X138580507Y-102469267D01*
X138580508Y-102469266D01*
X138581212Y-102468834D01*
X138582450Y-102467467D01*
X138607155Y-102440172D01*
X138672423Y-102368065D01*
X138680285Y-102351839D01*
X138684499Y-102343141D01*
X138731686Y-102245747D01*
X138737416Y-102211692D01*
X138754162Y-102112152D01*
X138754236Y-102111712D01*
X138754379Y-102100000D01*
X138748274Y-102057366D01*
X138741826Y-102012347D01*
X138735111Y-101965454D01*
X138711629Y-101913808D01*
X138679197Y-101842479D01*
X138679196Y-101842478D01*
X138678854Y-101841725D01*
X138672770Y-101834664D01*
X138590675Y-101739388D01*
X138590674Y-101739387D01*
X138590132Y-101738758D01*
X138589437Y-101738307D01*
X138589434Y-101738305D01*
X138476776Y-101665284D01*
X138476077Y-101664831D01*
X138391714Y-101639601D01*
X138346657Y-101626126D01*
X138346655Y-101626126D01*
X138345857Y-101625887D01*
X138280180Y-101625485D01*
X138210774Y-101625061D01*
X138210773Y-101625061D01*
X138209941Y-101625056D01*
X138159048Y-101639601D01*
X138153553Y-101639826D01*
X138101640Y-101629500D01*
X138075000Y-101624201D01*
X138069550Y-101625285D01*
X138049491Y-101629275D01*
X138047208Y-101629500D01*
X137797760Y-101629500D01*
X137789487Y-101626073D01*
X137787067Y-101622550D01*
X137755761Y-101552071D01*
X137755323Y-101551085D01*
X137673461Y-101469365D01*
X137567668Y-101422594D01*
X137566798Y-101422493D01*
X137566796Y-101422492D01*
X137541467Y-101419539D01*
X137541460Y-101419539D01*
X137541129Y-101419500D01*
X137355275Y-101419500D01*
X137168872Y-101419501D01*
X137168537Y-101419541D01*
X137168535Y-101419541D01*
X137142667Y-101422618D01*
X137142665Y-101422619D01*
X137141796Y-101422722D01*
X137036085Y-101469677D01*
X136954365Y-101551539D01*
X136907594Y-101657332D01*
X136907493Y-101658202D01*
X136907492Y-101658204D01*
X136906720Y-101664831D01*
X136904500Y-101683871D01*
X136845499Y-101683871D01*
X136844226Y-101673171D01*
X136842382Y-101657667D01*
X136842381Y-101657665D01*
X136842278Y-101656796D01*
X136795323Y-101551085D01*
X136713461Y-101469365D01*
X136607668Y-101422594D01*
X136606798Y-101422493D01*
X136606796Y-101422492D01*
X136581467Y-101419539D01*
X136581460Y-101419539D01*
X136581129Y-101419500D01*
X136395275Y-101419500D01*
X136208872Y-101419501D01*
X136208537Y-101419541D01*
X136208535Y-101419541D01*
X136182667Y-101422618D01*
X136182665Y-101422619D01*
X136181796Y-101422722D01*
X136076085Y-101469677D01*
X135994365Y-101551539D01*
X135947594Y-101657332D01*
X135947493Y-101658202D01*
X135947492Y-101658204D01*
X135946720Y-101664831D01*
X135944500Y-101683871D01*
X135944501Y-102116128D01*
X135944541Y-102116463D01*
X135944541Y-102116465D01*
X135947555Y-102141796D01*
X135947722Y-102143204D01*
X135994677Y-102248915D01*
X135995440Y-102249677D01*
X135995441Y-102249678D01*
X136013106Y-102267312D01*
X136076539Y-102330635D01*
X136111913Y-102346274D01*
X136117531Y-102348758D01*
X136123712Y-102355238D01*
X136124500Y-102359459D01*
X136124500Y-102724728D01*
X136121073Y-102733001D01*
X136119043Y-102734623D01*
X136040011Y-102784489D01*
X136040009Y-102784491D01*
X136039305Y-102784935D01*
X136038757Y-102785556D01*
X136038753Y-102785559D01*
X135992964Y-102837406D01*
X135949332Y-102886810D01*
X135891568Y-103009843D01*
X135870657Y-103144143D01*
X132694947Y-103144143D01*
X132745698Y-102989700D01*
X132745924Y-102989072D01*
X132994649Y-102356395D01*
X132994911Y-102355781D01*
X133256445Y-101788000D01*
X133279328Y-101738324D01*
X133279623Y-101737729D01*
X133299449Y-101700447D01*
X133552247Y-101225056D01*
X133598791Y-101137530D01*
X133599121Y-101136949D01*
X133842823Y-100735710D01*
X133952033Y-100555902D01*
X133952394Y-100555346D01*
X133961352Y-100542333D01*
X134276965Y-100083871D01*
X136844500Y-100083871D01*
X136844501Y-100516128D01*
X136844541Y-100516463D01*
X136844541Y-100516465D01*
X136847555Y-100541796D01*
X136847722Y-100543204D01*
X136876216Y-100607354D01*
X136890794Y-100640172D01*
X136894677Y-100648915D01*
X136895440Y-100649677D01*
X136895441Y-100649678D01*
X136930838Y-100685013D01*
X136976539Y-100730635D01*
X137082332Y-100777406D01*
X137083202Y-100777507D01*
X137083204Y-100777508D01*
X137108533Y-100780461D01*
X137108540Y-100780461D01*
X137108871Y-100780500D01*
X137294725Y-100780500D01*
X137481128Y-100780499D01*
X137481463Y-100780459D01*
X137481465Y-100780459D01*
X137507333Y-100777382D01*
X137507335Y-100777381D01*
X137508204Y-100777278D01*
X137613915Y-100730323D01*
X137695635Y-100648461D01*
X137742406Y-100542668D01*
X137745500Y-100516129D01*
X137745499Y-100083872D01*
X137745459Y-100083533D01*
X137742382Y-100057667D01*
X137742381Y-100057665D01*
X137742278Y-100056796D01*
X137695323Y-99951085D01*
X137694528Y-99950291D01*
X137694513Y-99950255D01*
X137693947Y-99949432D01*
X137694121Y-99949312D01*
X137691092Y-99942025D01*
X137694519Y-99933737D01*
X137954328Y-99673927D01*
X137962601Y-99670500D01*
X137994040Y-99670500D01*
X138002313Y-99673927D01*
X138002996Y-99674672D01*
X138016803Y-99691097D01*
X138030478Y-99707366D01*
X138031171Y-99707828D01*
X138031173Y-99707829D01*
X138083201Y-99742461D01*
X138143622Y-99782680D01*
X138188282Y-99796633D01*
X138195156Y-99802370D01*
X138195960Y-99811289D01*
X138190222Y-99818164D01*
X138184792Y-99819500D01*
X138069720Y-99819501D01*
X138068872Y-99819501D01*
X138068537Y-99819541D01*
X138068535Y-99819541D01*
X138042667Y-99822618D01*
X138042665Y-99822619D01*
X138041796Y-99822722D01*
X137936085Y-99869677D01*
X137935323Y-99870440D01*
X137935322Y-99870441D01*
X137895225Y-99910608D01*
X137854365Y-99951539D01*
X137807594Y-100057332D01*
X137807493Y-100058202D01*
X137807492Y-100058204D01*
X137804685Y-100082287D01*
X137804500Y-100083871D01*
X137804501Y-100516128D01*
X137804541Y-100516463D01*
X137804541Y-100516465D01*
X137807555Y-100541796D01*
X137807722Y-100543204D01*
X137836216Y-100607354D01*
X137850794Y-100640172D01*
X137854677Y-100648915D01*
X137855440Y-100649677D01*
X137855441Y-100649678D01*
X137890838Y-100685013D01*
X137936539Y-100730635D01*
X138042332Y-100777406D01*
X138043202Y-100777507D01*
X138043204Y-100777508D01*
X138068533Y-100780461D01*
X138068540Y-100780461D01*
X138068871Y-100780500D01*
X138254725Y-100780500D01*
X138441128Y-100780499D01*
X138441463Y-100780459D01*
X138441465Y-100780459D01*
X138467333Y-100777382D01*
X138467335Y-100777381D01*
X138468204Y-100777278D01*
X138573915Y-100730323D01*
X138655635Y-100648461D01*
X138664916Y-100627469D01*
X138671396Y-100621288D01*
X138675617Y-100620500D01*
X138981253Y-100620500D01*
X138989526Y-100623927D01*
X138992953Y-100632200D01*
X138990981Y-100638700D01*
X138984156Y-100648915D01*
X138959393Y-100685974D01*
X138959168Y-100687103D01*
X138959168Y-100687104D01*
X138949613Y-100735140D01*
X138949500Y-100735709D01*
X138949501Y-101119290D01*
X138949614Y-101119856D01*
X138949614Y-101119860D01*
X138953129Y-101137530D01*
X138959393Y-101169026D01*
X138997077Y-101225423D01*
X139025276Y-101244265D01*
X139052084Y-101262178D01*
X139053474Y-101263107D01*
X139054603Y-101263332D01*
X139054604Y-101263332D01*
X139102640Y-101272887D01*
X139102642Y-101272887D01*
X139103209Y-101273000D01*
X139152863Y-101273000D01*
X140142800Y-101272999D01*
X140151073Y-101276426D01*
X140154500Y-101284699D01*
X140154501Y-102324290D01*
X140154614Y-102324856D01*
X140154614Y-102324860D01*
X140163331Y-102368684D01*
X140164393Y-102374026D01*
X140165035Y-102374987D01*
X140177528Y-102393684D01*
X140179500Y-102400184D01*
X140179500Y-102580500D01*
X140179455Y-102581520D01*
X140175794Y-102623365D01*
X140176060Y-102624357D01*
X140176060Y-102624358D01*
X140186668Y-102663946D01*
X140186889Y-102664942D01*
X140190283Y-102684191D01*
X140194183Y-102706308D01*
X140194695Y-102707196D01*
X140194696Y-102707197D01*
X140200572Y-102717373D01*
X140201740Y-102720193D01*
X140205048Y-102732539D01*
X140205634Y-102733376D01*
X140205635Y-102733378D01*
X140229141Y-102766947D01*
X140229690Y-102767808D01*
X140248785Y-102800882D01*
X140250695Y-102804191D01*
X140251474Y-102804845D01*
X140251476Y-102804847D01*
X140282878Y-102831196D01*
X140283630Y-102831886D01*
X140491073Y-103039329D01*
X140494500Y-103047602D01*
X140494501Y-103161265D01*
X140494501Y-103256128D01*
X140494541Y-103256463D01*
X140494541Y-103256465D01*
X140497303Y-103279679D01*
X140497722Y-103283204D01*
X140544677Y-103388915D01*
X140545440Y-103389677D01*
X140545441Y-103389678D01*
X140559109Y-103403322D01*
X140626539Y-103470635D01*
X140732332Y-103517406D01*
X140733202Y-103517507D01*
X140733204Y-103517508D01*
X140758533Y-103520461D01*
X140758540Y-103520461D01*
X140758871Y-103520500D01*
X140778697Y-103520500D01*
X141058108Y-103520499D01*
X141066381Y-103523926D01*
X141101982Y-103559527D01*
X141105409Y-103567800D01*
X141101982Y-103576073D01*
X141093709Y-103579500D01*
X140763178Y-103579501D01*
X140758872Y-103579501D01*
X140758537Y-103579541D01*
X140758535Y-103579541D01*
X140732667Y-103582618D01*
X140732665Y-103582619D01*
X140731796Y-103582722D01*
X140626085Y-103629677D01*
X140625323Y-103630440D01*
X140625322Y-103630441D01*
X140594368Y-103661449D01*
X140586098Y-103664883D01*
X140577225Y-103660820D01*
X140554921Y-103634935D01*
X140515132Y-103588758D01*
X140424282Y-103529872D01*
X140401776Y-103515284D01*
X140401077Y-103514831D01*
X140335967Y-103495359D01*
X140271657Y-103476126D01*
X140271655Y-103476126D01*
X140270857Y-103475887D01*
X140205180Y-103475485D01*
X140135774Y-103475061D01*
X140135773Y-103475061D01*
X140134941Y-103475056D01*
X140053676Y-103498282D01*
X140005052Y-103512178D01*
X140005051Y-103512179D01*
X140004255Y-103512406D01*
X140000412Y-103514831D01*
X139890011Y-103584489D01*
X139890009Y-103584491D01*
X139889305Y-103584935D01*
X139888757Y-103585556D01*
X139888753Y-103585559D01*
X139841240Y-103639359D01*
X139799332Y-103686810D01*
X139741568Y-103809843D01*
X139720657Y-103944143D01*
X139738280Y-104078915D01*
X139738616Y-104079678D01*
X139738616Y-104079679D01*
X139764612Y-104138758D01*
X139793021Y-104203322D01*
X139827438Y-104244267D01*
X139877559Y-104303893D01*
X139880478Y-104307366D01*
X139881171Y-104307828D01*
X139881173Y-104307829D01*
X139950416Y-104353920D01*
X139993622Y-104382680D01*
X140123356Y-104423212D01*
X140200451Y-104424625D01*
X140258421Y-104425688D01*
X140258423Y-104425688D01*
X140259252Y-104425703D01*
X140390384Y-104389952D01*
X140401826Y-104382927D01*
X140451822Y-104352229D01*
X140457944Y-104350500D01*
X140541425Y-104350500D01*
X140549691Y-104353920D01*
X140626539Y-104430635D01*
X140732332Y-104477406D01*
X140733202Y-104477507D01*
X140733204Y-104477508D01*
X140758533Y-104480461D01*
X140758540Y-104480461D01*
X140758871Y-104480500D01*
X140974680Y-104480500D01*
X141191128Y-104480499D01*
X141191463Y-104480459D01*
X141191465Y-104480459D01*
X141217333Y-104477382D01*
X141217335Y-104477381D01*
X141218204Y-104477278D01*
X141323915Y-104430323D01*
X141331014Y-104423212D01*
X141334520Y-104419700D01*
X141342790Y-104416266D01*
X141351066Y-104419686D01*
X141354500Y-104427966D01*
X141354500Y-104806958D01*
X141351073Y-104815231D01*
X141342800Y-104818658D01*
X141333936Y-104814595D01*
X141290675Y-104764388D01*
X141290674Y-104764387D01*
X141290132Y-104763758D01*
X141289437Y-104763307D01*
X141289434Y-104763305D01*
X141176776Y-104690284D01*
X141176077Y-104689831D01*
X141110967Y-104670359D01*
X141046657Y-104651126D01*
X141046655Y-104651126D01*
X141045857Y-104650887D01*
X140980180Y-104650485D01*
X140910774Y-104650061D01*
X140910773Y-104650061D01*
X140909941Y-104650056D01*
X140828676Y-104673282D01*
X140780052Y-104687178D01*
X140780051Y-104687179D01*
X140779255Y-104687406D01*
X140775412Y-104689831D01*
X140665011Y-104759489D01*
X140665009Y-104759491D01*
X140664305Y-104759935D01*
X140663757Y-104760556D01*
X140663753Y-104760559D01*
X140620895Y-104809087D01*
X140574332Y-104861810D01*
X140516568Y-104984843D01*
X140495657Y-105119143D01*
X140513280Y-105253915D01*
X140568021Y-105378322D01*
X140598901Y-105415059D01*
X140649338Y-105475061D01*
X140655478Y-105482366D01*
X140656171Y-105482828D01*
X140656173Y-105482829D01*
X140725018Y-105528655D01*
X140768622Y-105557680D01*
X140898356Y-105598212D01*
X140960451Y-105599350D01*
X140968660Y-105602928D01*
X140971935Y-105611262D01*
X140968357Y-105619471D01*
X140966480Y-105620943D01*
X140945011Y-105634489D01*
X140945009Y-105634491D01*
X140944305Y-105634935D01*
X140943757Y-105635556D01*
X140943753Y-105635559D01*
X140897825Y-105687564D01*
X140854332Y-105736810D01*
X140796568Y-105859843D01*
X140775657Y-105994143D01*
X140793280Y-106128915D01*
X140848021Y-106253322D01*
X140935478Y-106357366D01*
X140936171Y-106357828D01*
X140936173Y-106357829D01*
X141026909Y-106418227D01*
X141048622Y-106432680D01*
X141178356Y-106473212D01*
X141255451Y-106474625D01*
X141313421Y-106475688D01*
X141313423Y-106475688D01*
X141314252Y-106475703D01*
X141445384Y-106439952D01*
X141448067Y-106438305D01*
X141560507Y-106369267D01*
X141560508Y-106369266D01*
X141561212Y-106368834D01*
X141564836Y-106364831D01*
X141600833Y-106325061D01*
X141652423Y-106268065D01*
X141658490Y-106255544D01*
X141709077Y-106151131D01*
X141711686Y-106145747D01*
X141715262Y-106124495D01*
X141717713Y-106109923D01*
X141722465Y-106102333D01*
X141731192Y-106100326D01*
X141738782Y-106105078D01*
X141740852Y-106110347D01*
X141743280Y-106128915D01*
X141798021Y-106253322D01*
X141885478Y-106357366D01*
X141886171Y-106357828D01*
X141886173Y-106357829D01*
X141976909Y-106418227D01*
X141998622Y-106432680D01*
X142128356Y-106473212D01*
X142205451Y-106474625D01*
X142263421Y-106475688D01*
X142263423Y-106475688D01*
X142264252Y-106475703D01*
X142293933Y-106467611D01*
X142302816Y-106468741D01*
X142308298Y-106475822D01*
X142307168Y-106484705D01*
X142305283Y-106487172D01*
X142170689Y-106621766D01*
X142162344Y-106625193D01*
X142140774Y-106625061D01*
X142140773Y-106625061D01*
X142139941Y-106625056D01*
X142058676Y-106648282D01*
X142010052Y-106662178D01*
X142010051Y-106662179D01*
X142009255Y-106662406D01*
X142008553Y-106662849D01*
X141895011Y-106734489D01*
X141895009Y-106734491D01*
X141894305Y-106734935D01*
X141893757Y-106735556D01*
X141893753Y-106735559D01*
X141846240Y-106789359D01*
X141804332Y-106836810D01*
X141746568Y-106959843D01*
X141725657Y-107094143D01*
X141743280Y-107228915D01*
X141743616Y-107229678D01*
X141743616Y-107229679D01*
X141768755Y-107286810D01*
X141798021Y-107353322D01*
X141824209Y-107384477D01*
X141882618Y-107453963D01*
X141885478Y-107457366D01*
X141886171Y-107457828D01*
X141886173Y-107457829D01*
X141978162Y-107519061D01*
X141998622Y-107532680D01*
X142128356Y-107573212D01*
X142205451Y-107574625D01*
X142263421Y-107575688D01*
X142263423Y-107575688D01*
X142264252Y-107575703D01*
X142395384Y-107539952D01*
X142403274Y-107535108D01*
X142510507Y-107469267D01*
X142510508Y-107469266D01*
X142511212Y-107468834D01*
X142522173Y-107456725D01*
X142539516Y-107437564D01*
X142602423Y-107368065D01*
X142608739Y-107355030D01*
X142618474Y-107334935D01*
X142661686Y-107245747D01*
X142662735Y-107239515D01*
X142684162Y-107112152D01*
X142684236Y-107111712D01*
X142684379Y-107100000D01*
X142665111Y-106965454D01*
X142645644Y-106922638D01*
X142645340Y-106913689D01*
X142648022Y-106909523D01*
X143196622Y-106360923D01*
X143198395Y-106359468D01*
X143219061Y-106345659D01*
X143220019Y-106345019D01*
X143235108Y-106322437D01*
X143235112Y-106322433D01*
X143279163Y-106256505D01*
X143279805Y-106255544D01*
X143280120Y-106253963D01*
X143288842Y-106210110D01*
X143295500Y-106176640D01*
X143295500Y-106176636D01*
X143300573Y-106151131D01*
X143300798Y-106150000D01*
X143295725Y-106124495D01*
X143295500Y-106122213D01*
X143295500Y-105944143D01*
X145595657Y-105944143D01*
X145613280Y-106078915D01*
X145613616Y-106079678D01*
X145613616Y-106079679D01*
X145644990Y-106150980D01*
X145668021Y-106203322D01*
X145668560Y-106203963D01*
X145742273Y-106291656D01*
X145755478Y-106307366D01*
X145756171Y-106307828D01*
X145756173Y-106307829D01*
X145837822Y-106362178D01*
X145868622Y-106382680D01*
X145998356Y-106423212D01*
X146075451Y-106424625D01*
X146133421Y-106425688D01*
X146133423Y-106425688D01*
X146134252Y-106425703D01*
X146265384Y-106389952D01*
X146274624Y-106384279D01*
X146380507Y-106319267D01*
X146380508Y-106319266D01*
X146381212Y-106318834D01*
X146392173Y-106306725D01*
X146426605Y-106268684D01*
X146472423Y-106218065D01*
X146531686Y-106095747D01*
X146542290Y-106032721D01*
X146548780Y-105994143D01*
X146895657Y-105994143D01*
X146913280Y-106128915D01*
X146968021Y-106253322D01*
X147055478Y-106357366D01*
X147056171Y-106357828D01*
X147056173Y-106357829D01*
X147146909Y-106418227D01*
X147168622Y-106432680D01*
X147298356Y-106473212D01*
X147375451Y-106474625D01*
X147433421Y-106475688D01*
X147433423Y-106475688D01*
X147434252Y-106475703D01*
X147565384Y-106439952D01*
X147568067Y-106438305D01*
X147680507Y-106369267D01*
X147680508Y-106369266D01*
X147681212Y-106368834D01*
X147684836Y-106364831D01*
X147720833Y-106325061D01*
X147772423Y-106268065D01*
X147778490Y-106255544D01*
X147829077Y-106151131D01*
X147831686Y-106145747D01*
X147835262Y-106124495D01*
X147854162Y-106012152D01*
X147854236Y-106011712D01*
X147854379Y-106000000D01*
X147852729Y-105988474D01*
X147835229Y-105866279D01*
X147835111Y-105865454D01*
X147834766Y-105864695D01*
X147779197Y-105742479D01*
X147779196Y-105742478D01*
X147778854Y-105741725D01*
X147778313Y-105741097D01*
X147690675Y-105639388D01*
X147690674Y-105639387D01*
X147690132Y-105638758D01*
X147689435Y-105638306D01*
X147689434Y-105638305D01*
X147576776Y-105565284D01*
X147576077Y-105564831D01*
X147510967Y-105545359D01*
X147446657Y-105526126D01*
X147446655Y-105526126D01*
X147445857Y-105525887D01*
X147380180Y-105525485D01*
X147310774Y-105525061D01*
X147310773Y-105525061D01*
X147309941Y-105525056D01*
X147228676Y-105548282D01*
X147180052Y-105562178D01*
X147180051Y-105562179D01*
X147179255Y-105562406D01*
X147175412Y-105564831D01*
X147065011Y-105634489D01*
X147065009Y-105634491D01*
X147064305Y-105634935D01*
X147063757Y-105635556D01*
X147063753Y-105635559D01*
X147017825Y-105687564D01*
X146974332Y-105736810D01*
X146916568Y-105859843D01*
X146895657Y-105994143D01*
X146548780Y-105994143D01*
X146554162Y-105962152D01*
X146554236Y-105961712D01*
X146554324Y-105954487D01*
X146554374Y-105950447D01*
X146554374Y-105950441D01*
X146554379Y-105950000D01*
X146535111Y-105815454D01*
X146533103Y-105811038D01*
X146479197Y-105692479D01*
X146479196Y-105692478D01*
X146478854Y-105691725D01*
X146432825Y-105638306D01*
X146390675Y-105589388D01*
X146390674Y-105589387D01*
X146390132Y-105588758D01*
X146389437Y-105588307D01*
X146389434Y-105588305D01*
X146276776Y-105515284D01*
X146276077Y-105514831D01*
X146203815Y-105493220D01*
X146146657Y-105476126D01*
X146146655Y-105476126D01*
X146145857Y-105475887D01*
X146080180Y-105475485D01*
X146010774Y-105475061D01*
X146010773Y-105475061D01*
X146009941Y-105475056D01*
X145982744Y-105482829D01*
X145880052Y-105512178D01*
X145880051Y-105512179D01*
X145879255Y-105512406D01*
X145866352Y-105520548D01*
X145765011Y-105584489D01*
X145765009Y-105584491D01*
X145764305Y-105584935D01*
X145763757Y-105585556D01*
X145763753Y-105585559D01*
X145727158Y-105626996D01*
X145674332Y-105686810D01*
X145616568Y-105809843D01*
X145595657Y-105944143D01*
X143295500Y-105944143D01*
X143295500Y-104944143D01*
X143395657Y-104944143D01*
X143413280Y-105078915D01*
X143468021Y-105203322D01*
X143555478Y-105307366D01*
X143556171Y-105307828D01*
X143556173Y-105307829D01*
X143657724Y-105375426D01*
X143668622Y-105382680D01*
X143798356Y-105423212D01*
X143875451Y-105424625D01*
X143933421Y-105425688D01*
X143933423Y-105425688D01*
X143934252Y-105425703D01*
X144065384Y-105389952D01*
X144076826Y-105382927D01*
X144180507Y-105319267D01*
X144180508Y-105319266D01*
X144181212Y-105318834D01*
X144192173Y-105306725D01*
X144204346Y-105293276D01*
X144272423Y-105218065D01*
X144331686Y-105095747D01*
X144335688Y-105071963D01*
X144354162Y-104962152D01*
X144354236Y-104961712D01*
X144354379Y-104950000D01*
X144352878Y-104939515D01*
X144342667Y-104868220D01*
X144335111Y-104815454D01*
X144334766Y-104814695D01*
X144279197Y-104692479D01*
X144279196Y-104692478D01*
X144278854Y-104691725D01*
X144265856Y-104676640D01*
X144190675Y-104589388D01*
X144190674Y-104589387D01*
X144190132Y-104588758D01*
X144189437Y-104588307D01*
X144189434Y-104588305D01*
X144076776Y-104515284D01*
X144076077Y-104514831D01*
X143961282Y-104480500D01*
X143946657Y-104476126D01*
X143946655Y-104476126D01*
X143945857Y-104475887D01*
X143880180Y-104475485D01*
X143810774Y-104475061D01*
X143810773Y-104475061D01*
X143809941Y-104475056D01*
X143740266Y-104494969D01*
X143680052Y-104512178D01*
X143680051Y-104512179D01*
X143679255Y-104512406D01*
X143675412Y-104514831D01*
X143565011Y-104584489D01*
X143565009Y-104584491D01*
X143564305Y-104584935D01*
X143563757Y-104585556D01*
X143563753Y-104585559D01*
X143525463Y-104628915D01*
X143474332Y-104686810D01*
X143416568Y-104809843D01*
X143395657Y-104944143D01*
X143295500Y-104944143D01*
X143295500Y-104766891D01*
X143298927Y-104758618D01*
X144066622Y-103990923D01*
X144068395Y-103989468D01*
X144089061Y-103975659D01*
X144090019Y-103975019D01*
X144105108Y-103952437D01*
X144105112Y-103952433D01*
X144137824Y-103903474D01*
X144149165Y-103886502D01*
X144149165Y-103886501D01*
X144149805Y-103885544D01*
X144151814Y-103875447D01*
X144165500Y-103806640D01*
X144170574Y-103781131D01*
X144170799Y-103780000D01*
X144165725Y-103754491D01*
X144165500Y-103752208D01*
X144165500Y-103559434D01*
X144168927Y-103551161D01*
X144172450Y-103548741D01*
X144185325Y-103543022D01*
X144213915Y-103530323D01*
X144215501Y-103528735D01*
X144268018Y-103476126D01*
X144295635Y-103448461D01*
X144342406Y-103342668D01*
X144345500Y-103316129D01*
X144345499Y-102883872D01*
X144345499Y-102883871D01*
X144404500Y-102883871D01*
X144404501Y-103316128D01*
X144404541Y-103316463D01*
X144404541Y-103316465D01*
X144407555Y-103341796D01*
X144407722Y-103343204D01*
X144454677Y-103448915D01*
X144455440Y-103449677D01*
X144455441Y-103449678D01*
X144471074Y-103465284D01*
X144536539Y-103530635D01*
X144546266Y-103534935D01*
X144555533Y-103539032D01*
X144560386Y-103543022D01*
X144584141Y-103576947D01*
X144584689Y-103577806D01*
X144605695Y-103614191D01*
X144606474Y-103614845D01*
X144606476Y-103614847D01*
X144637878Y-103641196D01*
X144638630Y-103641886D01*
X144844181Y-103847436D01*
X144847608Y-103855709D01*
X144847469Y-103857505D01*
X144845657Y-103869143D01*
X144863280Y-104003915D01*
X144863616Y-104004678D01*
X144863616Y-104004679D01*
X144872683Y-104025285D01*
X144918021Y-104128322D01*
X145005478Y-104232366D01*
X145006171Y-104232828D01*
X145006173Y-104232829D01*
X145088537Y-104287654D01*
X145118622Y-104307680D01*
X145248356Y-104348212D01*
X145325451Y-104349625D01*
X145383421Y-104350688D01*
X145383423Y-104350688D01*
X145384252Y-104350703D01*
X145515384Y-104314952D01*
X145519922Y-104312166D01*
X145630507Y-104244267D01*
X145630508Y-104244266D01*
X145631212Y-104243834D01*
X145632439Y-104242479D01*
X145654346Y-104218276D01*
X145722423Y-104143065D01*
X145781686Y-104020747D01*
X145785177Y-104000000D01*
X145804162Y-103887152D01*
X145804236Y-103886712D01*
X145804379Y-103875000D01*
X145803227Y-103866952D01*
X145785229Y-103741279D01*
X145785111Y-103740454D01*
X145784217Y-103738487D01*
X145729197Y-103617479D01*
X145729196Y-103617478D01*
X145728854Y-103616725D01*
X145686698Y-103567800D01*
X145640675Y-103514388D01*
X145640674Y-103514387D01*
X145640132Y-103513758D01*
X145639437Y-103513307D01*
X145639434Y-103513305D01*
X145526776Y-103440284D01*
X145526077Y-103439831D01*
X145408537Y-103404679D01*
X145396657Y-103401126D01*
X145396655Y-103401126D01*
X145395857Y-103400887D01*
X145378288Y-103400780D01*
X145308381Y-103400352D01*
X145300180Y-103396925D01*
X145290760Y-103387505D01*
X145287333Y-103379232D01*
X145288332Y-103374501D01*
X145302052Y-103343470D01*
X145302053Y-103343467D01*
X145302406Y-103342668D01*
X145305500Y-103316129D01*
X145305500Y-103194587D01*
X151024644Y-103194587D01*
X151042713Y-103366500D01*
X151042923Y-103367117D01*
X151055248Y-103403322D01*
X151098420Y-103530139D01*
X151188996Y-103677369D01*
X151189457Y-103677840D01*
X151189458Y-103677841D01*
X151210431Y-103699258D01*
X151309940Y-103800873D01*
X151310488Y-103801226D01*
X151310489Y-103801227D01*
X151325137Y-103810667D01*
X151455241Y-103894513D01*
X151617677Y-103953634D01*
X151751186Y-103970500D01*
X152393461Y-103970500D01*
X152393790Y-103970463D01*
X152393792Y-103970463D01*
X152521134Y-103956179D01*
X152521136Y-103956179D01*
X152521783Y-103956106D01*
X152669665Y-103904608D01*
X152684411Y-103899473D01*
X152684412Y-103899472D01*
X152685028Y-103899258D01*
X152831622Y-103807656D01*
X152899295Y-103740454D01*
X152953818Y-103686311D01*
X152953819Y-103686310D01*
X152954279Y-103685853D01*
X152965638Y-103667955D01*
X153023124Y-103577370D01*
X153046902Y-103539902D01*
X153104889Y-103377058D01*
X153105194Y-103374501D01*
X153125279Y-103206063D01*
X153125279Y-103206059D01*
X153125356Y-103205413D01*
X153107287Y-103033500D01*
X153051580Y-102869861D01*
X152961004Y-102722631D01*
X152958619Y-102720195D01*
X152864768Y-102624358D01*
X152840060Y-102599127D01*
X152839409Y-102598707D01*
X152738152Y-102533452D01*
X152694759Y-102505487D01*
X152532323Y-102446366D01*
X152398814Y-102429500D01*
X151756539Y-102429500D01*
X151756210Y-102429537D01*
X151756208Y-102429537D01*
X151628866Y-102443821D01*
X151628864Y-102443821D01*
X151628217Y-102443894D01*
X151589531Y-102457366D01*
X151473900Y-102497633D01*
X151464972Y-102500742D01*
X151318378Y-102592344D01*
X151287429Y-102623078D01*
X151198694Y-102711195D01*
X151195721Y-102714147D01*
X151195374Y-102714694D01*
X151195373Y-102714695D01*
X151171991Y-102751539D01*
X151103098Y-102860098D01*
X151045111Y-103022942D01*
X151045034Y-103023592D01*
X151045033Y-103023594D01*
X151024721Y-103193937D01*
X151024721Y-103193941D01*
X151024644Y-103194587D01*
X145305500Y-103194587D01*
X145305499Y-102883872D01*
X145302606Y-102859550D01*
X145302382Y-102857667D01*
X145302381Y-102857665D01*
X145302278Y-102856796D01*
X145255323Y-102751085D01*
X145238833Y-102734623D01*
X145180378Y-102676270D01*
X145173461Y-102669365D01*
X145067668Y-102622594D01*
X145066798Y-102622493D01*
X145066796Y-102622492D01*
X145041467Y-102619539D01*
X145041460Y-102619539D01*
X145041129Y-102619500D01*
X144855275Y-102619500D01*
X144668872Y-102619501D01*
X144668537Y-102619541D01*
X144668535Y-102619541D01*
X144642667Y-102622618D01*
X144642665Y-102622619D01*
X144641796Y-102622722D01*
X144536085Y-102669677D01*
X144535323Y-102670440D01*
X144535322Y-102670441D01*
X144521596Y-102684191D01*
X144454365Y-102751539D01*
X144407594Y-102857332D01*
X144407493Y-102858202D01*
X144407492Y-102858204D01*
X144407272Y-102860098D01*
X144404500Y-102883871D01*
X144345499Y-102883871D01*
X144342606Y-102859550D01*
X144342382Y-102857667D01*
X144342381Y-102857665D01*
X144342278Y-102856796D01*
X144295323Y-102751085D01*
X144278833Y-102734623D01*
X144218934Y-102674828D01*
X144215500Y-102666548D01*
X144215500Y-102434500D01*
X144215545Y-102433480D01*
X144217424Y-102412006D01*
X144219206Y-102391635D01*
X144216211Y-102380459D01*
X144208332Y-102351054D01*
X144208111Y-102350058D01*
X144200995Y-102309702D01*
X144200817Y-102308692D01*
X144194427Y-102297626D01*
X144193259Y-102294805D01*
X144190217Y-102283451D01*
X144189952Y-102282461D01*
X144165857Y-102248050D01*
X144165310Y-102247192D01*
X144164000Y-102244922D01*
X144144305Y-102210809D01*
X144143526Y-102210155D01*
X144143524Y-102210153D01*
X144112123Y-102183805D01*
X144111371Y-102183115D01*
X143922399Y-101994143D01*
X144695657Y-101994143D01*
X144713280Y-102128915D01*
X144713616Y-102129678D01*
X144713616Y-102129679D01*
X144736673Y-102182079D01*
X144768021Y-102253322D01*
X144768560Y-102253963D01*
X144854146Y-102355781D01*
X144855478Y-102357366D01*
X144856171Y-102357828D01*
X144856173Y-102357829D01*
X144939749Y-102413461D01*
X144968622Y-102432680D01*
X145098356Y-102473212D01*
X145175451Y-102474625D01*
X145233421Y-102475688D01*
X145233423Y-102475688D01*
X145234252Y-102475703D01*
X145365384Y-102439952D01*
X145376826Y-102432927D01*
X145480507Y-102369267D01*
X145480508Y-102369266D01*
X145481212Y-102368834D01*
X145489721Y-102359434D01*
X145559392Y-102282461D01*
X145572423Y-102268065D01*
X145581332Y-102249678D01*
X145591792Y-102228088D01*
X145631686Y-102145747D01*
X145632261Y-102142333D01*
X145654162Y-102012152D01*
X145654236Y-102011712D01*
X145654379Y-102000000D01*
X145653540Y-101994143D01*
X150895657Y-101994143D01*
X150913280Y-102128915D01*
X150913616Y-102129678D01*
X150913616Y-102129679D01*
X150936673Y-102182079D01*
X150968021Y-102253322D01*
X150968560Y-102253963D01*
X151054146Y-102355781D01*
X151055478Y-102357366D01*
X151056171Y-102357828D01*
X151056173Y-102357829D01*
X151139749Y-102413461D01*
X151168622Y-102432680D01*
X151298356Y-102473212D01*
X151375451Y-102474625D01*
X151433421Y-102475688D01*
X151433423Y-102475688D01*
X151434252Y-102475703D01*
X151565384Y-102439952D01*
X151576826Y-102432927D01*
X151680507Y-102369267D01*
X151680508Y-102369266D01*
X151681212Y-102368834D01*
X151689721Y-102359434D01*
X151759392Y-102282461D01*
X151772423Y-102268065D01*
X151781332Y-102249678D01*
X151791792Y-102228088D01*
X151831686Y-102145747D01*
X151832261Y-102142333D01*
X151854162Y-102012152D01*
X151854236Y-102011712D01*
X151854379Y-102000000D01*
X151835111Y-101865454D01*
X151834766Y-101864695D01*
X151779197Y-101742479D01*
X151779196Y-101742478D01*
X151778854Y-101741725D01*
X151776840Y-101739388D01*
X151737855Y-101694143D01*
X153245657Y-101694143D01*
X153263280Y-101828915D01*
X153263616Y-101829678D01*
X153263616Y-101829679D01*
X153300190Y-101912798D01*
X153318021Y-101953322D01*
X153329781Y-101967312D01*
X153390364Y-102039385D01*
X153405478Y-102057366D01*
X153406171Y-102057828D01*
X153406173Y-102057829D01*
X153468864Y-102099559D01*
X153518622Y-102132680D01*
X153648356Y-102173212D01*
X153725451Y-102174625D01*
X153783421Y-102175688D01*
X153783423Y-102175688D01*
X153784252Y-102175703D01*
X153915384Y-102139952D01*
X153926826Y-102132927D01*
X154030507Y-102069267D01*
X154030508Y-102069266D01*
X154031212Y-102068834D01*
X154042173Y-102056725D01*
X154082341Y-102012347D01*
X154122423Y-101968065D01*
X154181686Y-101845747D01*
X154182469Y-101841097D01*
X154204162Y-101712152D01*
X154204236Y-101711712D01*
X154204379Y-101700000D01*
X154198394Y-101658204D01*
X154185229Y-101566279D01*
X154185111Y-101565454D01*
X154183725Y-101562406D01*
X154129197Y-101442479D01*
X154129196Y-101442478D01*
X154128854Y-101441725D01*
X154040132Y-101338758D01*
X154039437Y-101338307D01*
X154039434Y-101338305D01*
X153926776Y-101265284D01*
X153926077Y-101264831D01*
X153860967Y-101245359D01*
X153796657Y-101226126D01*
X153796655Y-101226126D01*
X153795857Y-101225887D01*
X153730180Y-101225485D01*
X153660774Y-101225061D01*
X153660773Y-101225061D01*
X153659941Y-101225056D01*
X153578676Y-101248282D01*
X153530052Y-101262178D01*
X153530051Y-101262179D01*
X153529255Y-101262406D01*
X153525412Y-101264831D01*
X153415011Y-101334489D01*
X153415009Y-101334491D01*
X153414305Y-101334935D01*
X153413757Y-101335556D01*
X153413753Y-101335559D01*
X153366240Y-101389359D01*
X153324332Y-101436810D01*
X153266568Y-101559843D01*
X153245657Y-101694143D01*
X151737855Y-101694143D01*
X151690675Y-101639388D01*
X151690674Y-101639387D01*
X151690132Y-101638758D01*
X151689437Y-101638307D01*
X151689434Y-101638305D01*
X151576776Y-101565284D01*
X151576077Y-101564831D01*
X151510967Y-101545359D01*
X151446657Y-101526126D01*
X151446655Y-101526126D01*
X151445857Y-101525887D01*
X151380180Y-101525485D01*
X151310774Y-101525061D01*
X151310773Y-101525061D01*
X151309941Y-101525056D01*
X151228676Y-101548282D01*
X151180052Y-101562178D01*
X151180051Y-101562179D01*
X151179255Y-101562406D01*
X151175627Y-101564695D01*
X151065011Y-101634489D01*
X151065009Y-101634491D01*
X151064305Y-101634935D01*
X151063757Y-101635556D01*
X151063753Y-101635559D01*
X151030536Y-101673171D01*
X150974332Y-101736810D01*
X150916568Y-101859843D01*
X150895657Y-101994143D01*
X145653540Y-101994143D01*
X145635111Y-101865454D01*
X145634766Y-101864695D01*
X145579197Y-101742479D01*
X145579196Y-101742478D01*
X145578854Y-101741725D01*
X145576840Y-101739388D01*
X145490675Y-101639388D01*
X145490674Y-101639387D01*
X145490132Y-101638758D01*
X145489437Y-101638307D01*
X145489434Y-101638305D01*
X145376776Y-101565284D01*
X145376077Y-101564831D01*
X145310967Y-101545359D01*
X145246657Y-101526126D01*
X145246655Y-101526126D01*
X145245857Y-101525887D01*
X145180180Y-101525485D01*
X145110774Y-101525061D01*
X145110773Y-101525061D01*
X145109941Y-101525056D01*
X145028676Y-101548282D01*
X144980052Y-101562178D01*
X144980051Y-101562179D01*
X144979255Y-101562406D01*
X144975627Y-101564695D01*
X144865011Y-101634489D01*
X144865009Y-101634491D01*
X144864305Y-101634935D01*
X144863757Y-101635556D01*
X144863753Y-101635559D01*
X144830536Y-101673171D01*
X144774332Y-101736810D01*
X144716568Y-101859843D01*
X144695657Y-101994143D01*
X143922399Y-101994143D01*
X143601427Y-101673171D01*
X143598000Y-101664898D01*
X143598000Y-101284699D01*
X143601427Y-101276426D01*
X143609700Y-101272999D01*
X143846790Y-101272999D01*
X143847356Y-101272886D01*
X143847360Y-101272886D01*
X143895392Y-101263333D01*
X143895394Y-101263332D01*
X143896526Y-101263107D01*
X143897917Y-101262178D01*
X143925206Y-101243943D01*
X143952923Y-101225423D01*
X143990607Y-101169026D01*
X144000500Y-101119291D01*
X144000499Y-100735710D01*
X144000386Y-100735140D01*
X143990833Y-100687108D01*
X143990832Y-100687106D01*
X143990607Y-100685974D01*
X143952923Y-100629577D01*
X143937734Y-100619428D01*
X143932759Y-100611983D01*
X143934506Y-100603200D01*
X143941951Y-100598225D01*
X143944234Y-100598000D01*
X144112984Y-100598000D01*
X144119466Y-100599960D01*
X144168622Y-100632680D01*
X144298356Y-100673212D01*
X144375451Y-100674625D01*
X144433421Y-100675688D01*
X144433423Y-100675688D01*
X144434252Y-100675703D01*
X144565384Y-100639952D01*
X144576826Y-100632927D01*
X144680507Y-100569267D01*
X144680508Y-100569266D01*
X144681212Y-100568834D01*
X144693166Y-100555628D01*
X144729224Y-100515791D01*
X144772423Y-100468065D01*
X144831686Y-100345747D01*
X144854236Y-100211712D01*
X144854331Y-100203963D01*
X144854374Y-100200447D01*
X144854374Y-100200441D01*
X144854379Y-100200000D01*
X147999577Y-100200000D01*
X147999677Y-100200760D01*
X148000014Y-100203322D01*
X148019184Y-100348930D01*
X148076669Y-100487711D01*
X148168114Y-100606886D01*
X148168724Y-100607354D01*
X148272657Y-100687104D01*
X148287288Y-100698331D01*
X148426070Y-100755816D01*
X148575000Y-100775423D01*
X148723930Y-100755816D01*
X148862712Y-100698331D01*
X148877344Y-100687104D01*
X148981276Y-100607354D01*
X148981886Y-100606886D01*
X149073331Y-100487711D01*
X149130816Y-100348930D01*
X149149986Y-100203322D01*
X149150323Y-100200760D01*
X149150423Y-100200000D01*
X149130816Y-100051070D01*
X149086525Y-99944143D01*
X149895657Y-99944143D01*
X149913280Y-100078915D01*
X149968021Y-100203322D01*
X150055478Y-100307366D01*
X150056171Y-100307828D01*
X150056173Y-100307829D01*
X150117919Y-100348930D01*
X150168622Y-100382680D01*
X150298356Y-100423212D01*
X150375451Y-100424625D01*
X150433421Y-100425688D01*
X150433423Y-100425688D01*
X150434252Y-100425703D01*
X150565384Y-100389952D01*
X150576826Y-100382927D01*
X150680507Y-100319267D01*
X150680508Y-100319266D01*
X150681212Y-100318834D01*
X150692173Y-100306725D01*
X150704346Y-100293276D01*
X150772423Y-100218065D01*
X150781176Y-100200000D01*
X150784499Y-100193141D01*
X150831686Y-100095747D01*
X150833999Y-100082002D01*
X150854162Y-99962152D01*
X150854236Y-99961712D01*
X150854308Y-99955856D01*
X150854374Y-99950447D01*
X150854374Y-99950441D01*
X150854379Y-99950000D01*
X150854281Y-99949312D01*
X150842621Y-99867896D01*
X150835111Y-99815454D01*
X150833217Y-99811289D01*
X150779197Y-99692479D01*
X150779196Y-99692478D01*
X150778854Y-99691725D01*
X150763518Y-99673927D01*
X150690675Y-99589388D01*
X150690674Y-99589387D01*
X150690132Y-99588758D01*
X150689437Y-99588307D01*
X150689434Y-99588305D01*
X150576776Y-99515284D01*
X150576077Y-99514831D01*
X150509506Y-99494922D01*
X150446657Y-99476126D01*
X150446655Y-99476126D01*
X150445857Y-99475887D01*
X150380180Y-99475485D01*
X150310774Y-99475061D01*
X150310773Y-99475061D01*
X150309941Y-99475056D01*
X150240431Y-99494922D01*
X150180052Y-99512178D01*
X150180051Y-99512179D01*
X150179255Y-99512406D01*
X150175412Y-99514831D01*
X150065011Y-99584489D01*
X150065009Y-99584491D01*
X150064305Y-99584935D01*
X150063757Y-99585556D01*
X150063753Y-99585559D01*
X150034499Y-99618684D01*
X149974332Y-99686810D01*
X149916568Y-99809843D01*
X149895657Y-99944143D01*
X149086525Y-99944143D01*
X149073331Y-99912289D01*
X149039268Y-99867896D01*
X149004525Y-99822618D01*
X148981886Y-99793114D01*
X148942348Y-99762775D01*
X148863326Y-99702140D01*
X148863325Y-99702140D01*
X148862712Y-99701669D01*
X148723930Y-99644184D01*
X148575000Y-99624577D01*
X148426070Y-99644184D01*
X148287289Y-99701669D01*
X148286676Y-99702140D01*
X148286675Y-99702140D01*
X148234127Y-99742461D01*
X148168114Y-99793114D01*
X148145475Y-99822618D01*
X148110733Y-99867896D01*
X148076669Y-99912289D01*
X148019184Y-100051070D01*
X147999577Y-100200000D01*
X144854379Y-100200000D01*
X144835111Y-100065454D01*
X144831815Y-100058204D01*
X144779197Y-99942479D01*
X144779196Y-99942478D01*
X144778854Y-99941725D01*
X144770238Y-99931725D01*
X144691216Y-99840016D01*
X144688412Y-99831512D01*
X144692443Y-99823515D01*
X144693958Y-99822408D01*
X144780507Y-99769267D01*
X144780508Y-99769266D01*
X144781212Y-99768834D01*
X144792173Y-99756725D01*
X144804346Y-99743276D01*
X144872423Y-99668065D01*
X144920351Y-99569143D01*
X145370657Y-99569143D01*
X145388280Y-99703915D01*
X145388616Y-99704678D01*
X145388616Y-99704679D01*
X145415199Y-99765092D01*
X145443021Y-99828322D01*
X145445750Y-99831568D01*
X145523837Y-99924465D01*
X145530478Y-99932366D01*
X145531171Y-99932828D01*
X145531173Y-99932829D01*
X145590846Y-99972550D01*
X145643622Y-100007680D01*
X145773356Y-100048212D01*
X145850451Y-100049625D01*
X145908421Y-100050688D01*
X145908423Y-100050688D01*
X145909252Y-100050703D01*
X146040384Y-100014952D01*
X146051826Y-100007927D01*
X146155507Y-99944267D01*
X146155508Y-99944266D01*
X146156212Y-99943834D01*
X146157174Y-99942772D01*
X146216749Y-99876953D01*
X146247423Y-99843065D01*
X146253021Y-99831512D01*
X146260401Y-99816279D01*
X146306686Y-99720747D01*
X146308860Y-99707829D01*
X146329162Y-99587152D01*
X146329236Y-99586712D01*
X146329379Y-99575000D01*
X146321226Y-99518065D01*
X146315185Y-99475887D01*
X146310111Y-99440454D01*
X146307954Y-99435709D01*
X146254197Y-99317479D01*
X146254196Y-99317478D01*
X146253854Y-99316725D01*
X146233215Y-99292772D01*
X146191314Y-99244143D01*
X150645657Y-99244143D01*
X150663280Y-99378915D01*
X150663616Y-99379678D01*
X150663616Y-99379679D01*
X150687889Y-99434843D01*
X150718021Y-99503322D01*
X150754316Y-99546501D01*
X150789837Y-99588758D01*
X150805478Y-99607366D01*
X150806171Y-99607828D01*
X150806173Y-99607829D01*
X150895535Y-99667312D01*
X150918622Y-99682680D01*
X151048356Y-99723212D01*
X151125451Y-99724625D01*
X151183421Y-99725688D01*
X151183423Y-99725688D01*
X151184252Y-99725703D01*
X151315384Y-99689952D01*
X151319274Y-99687564D01*
X151430507Y-99619267D01*
X151430508Y-99619266D01*
X151431212Y-99618834D01*
X151442173Y-99606725D01*
X151476933Y-99568322D01*
X151522423Y-99518065D01*
X151523771Y-99515284D01*
X151551606Y-99457832D01*
X151581686Y-99395747D01*
X151583492Y-99385016D01*
X151604162Y-99262152D01*
X151604236Y-99261712D01*
X151604379Y-99250000D01*
X151585111Y-99115454D01*
X151584766Y-99114695D01*
X151529197Y-98992479D01*
X151529196Y-98992478D01*
X151528854Y-98991725D01*
X151526840Y-98989388D01*
X151440675Y-98889388D01*
X151440674Y-98889387D01*
X151440132Y-98888758D01*
X151439437Y-98888307D01*
X151439434Y-98888305D01*
X151326776Y-98815284D01*
X151326077Y-98814831D01*
X151226797Y-98785140D01*
X151196657Y-98776126D01*
X151196655Y-98776126D01*
X151195857Y-98775887D01*
X151130180Y-98775485D01*
X151060774Y-98775061D01*
X151060773Y-98775061D01*
X151059941Y-98775056D01*
X150978676Y-98798282D01*
X150930052Y-98812178D01*
X150930051Y-98812179D01*
X150929255Y-98812406D01*
X150925412Y-98814831D01*
X150815011Y-98884489D01*
X150815009Y-98884491D01*
X150814305Y-98884935D01*
X150813757Y-98885556D01*
X150813753Y-98885559D01*
X150766240Y-98939359D01*
X150724332Y-98986810D01*
X150666568Y-99109843D01*
X150645657Y-99244143D01*
X146191314Y-99244143D01*
X146165675Y-99214388D01*
X146165674Y-99214387D01*
X146165132Y-99213758D01*
X146164437Y-99213307D01*
X146164434Y-99213305D01*
X146051776Y-99140284D01*
X146051077Y-99139831D01*
X145985967Y-99120359D01*
X145921657Y-99101126D01*
X145921655Y-99101126D01*
X145920857Y-99100887D01*
X145855180Y-99100485D01*
X145785774Y-99100061D01*
X145785773Y-99100061D01*
X145784941Y-99100056D01*
X145703676Y-99123282D01*
X145655052Y-99137178D01*
X145655051Y-99137179D01*
X145654255Y-99137406D01*
X145650412Y-99139831D01*
X145540011Y-99209489D01*
X145540009Y-99209491D01*
X145539305Y-99209935D01*
X145538757Y-99210556D01*
X145538753Y-99210559D01*
X145508364Y-99244969D01*
X145449332Y-99311810D01*
X145391568Y-99434843D01*
X145370657Y-99569143D01*
X144920351Y-99569143D01*
X144931686Y-99545747D01*
X144938953Y-99502556D01*
X144954162Y-99412152D01*
X144954236Y-99411712D01*
X144954379Y-99400000D01*
X144951360Y-99378915D01*
X144942363Y-99316097D01*
X144935111Y-99265454D01*
X144911400Y-99213305D01*
X144879197Y-99142479D01*
X144879196Y-99142478D01*
X144878854Y-99141725D01*
X144856928Y-99116279D01*
X144790675Y-99039388D01*
X144790674Y-99039387D01*
X144790132Y-99038758D01*
X144789437Y-99038307D01*
X144789434Y-99038305D01*
X144676776Y-98965284D01*
X144676077Y-98964831D01*
X144610967Y-98945359D01*
X144546657Y-98926126D01*
X144546655Y-98926126D01*
X144545857Y-98925887D01*
X144528288Y-98925780D01*
X144458381Y-98925352D01*
X144450180Y-98921925D01*
X144289386Y-98761130D01*
X144288696Y-98760378D01*
X144262347Y-98728976D01*
X144262345Y-98728974D01*
X144261691Y-98728195D01*
X144225306Y-98707189D01*
X144224447Y-98706641D01*
X144190878Y-98683135D01*
X144190876Y-98683134D01*
X144190039Y-98682548D01*
X144177693Y-98679240D01*
X144174873Y-98678072D01*
X144164697Y-98672196D01*
X144164696Y-98672195D01*
X144163808Y-98671683D01*
X144154777Y-98670091D01*
X144122442Y-98664389D01*
X144121446Y-98664168D01*
X144081858Y-98653560D01*
X144081857Y-98653560D01*
X144080865Y-98653294D01*
X144042495Y-98656651D01*
X144039020Y-98656955D01*
X144038000Y-98657000D01*
X143922684Y-98657000D01*
X143916184Y-98655028D01*
X143897484Y-98642533D01*
X143896526Y-98641893D01*
X143895397Y-98641668D01*
X143895396Y-98641668D01*
X143847360Y-98632113D01*
X143847358Y-98632113D01*
X143846791Y-98632000D01*
X143797137Y-98632000D01*
X142807200Y-98632001D01*
X142798927Y-98628574D01*
X142795500Y-98620301D01*
X142795499Y-97581290D01*
X142795499Y-97580710D01*
X142795386Y-97580140D01*
X142785833Y-97532108D01*
X142785832Y-97532106D01*
X142785607Y-97530974D01*
X142783743Y-97528184D01*
X142781997Y-97519401D01*
X142786973Y-97511956D01*
X142790394Y-97510397D01*
X142864582Y-97490171D01*
X142864584Y-97490170D01*
X142865384Y-97489952D01*
X142968409Y-97426695D01*
X142980507Y-97419267D01*
X142980508Y-97419266D01*
X142981212Y-97418834D01*
X143072423Y-97318065D01*
X143131686Y-97195747D01*
X143134390Y-97179678D01*
X143154162Y-97062152D01*
X143154236Y-97061712D01*
X143154379Y-97050000D01*
X143135111Y-96915454D01*
X143134766Y-96914695D01*
X143079197Y-96792479D01*
X143079196Y-96792478D01*
X143078854Y-96791725D01*
X143021737Y-96725437D01*
X142990675Y-96689388D01*
X142990674Y-96689387D01*
X142990132Y-96688758D01*
X142989437Y-96688307D01*
X142989434Y-96688305D01*
X142876776Y-96615284D01*
X142876077Y-96614831D01*
X142810967Y-96595359D01*
X142746657Y-96576126D01*
X142746655Y-96576126D01*
X142745857Y-96575887D01*
X142680180Y-96575485D01*
X142610774Y-96575061D01*
X142610773Y-96575061D01*
X142609941Y-96575056D01*
X142528676Y-96598282D01*
X142480052Y-96612178D01*
X142480051Y-96612179D01*
X142479255Y-96612406D01*
X142475412Y-96614831D01*
X142365011Y-96684489D01*
X142365009Y-96684491D01*
X142364305Y-96684935D01*
X142363754Y-96685559D01*
X142328440Y-96725545D01*
X142319670Y-96729500D01*
X142280600Y-96729500D01*
X142271737Y-96725437D01*
X142240677Y-96689391D01*
X142240132Y-96688758D01*
X142126077Y-96614831D01*
X142060967Y-96595359D01*
X141996657Y-96576126D01*
X141996655Y-96576126D01*
X141995857Y-96575887D01*
X141930180Y-96575485D01*
X141860774Y-96575061D01*
X141860773Y-96575061D01*
X141859941Y-96575056D01*
X141778676Y-96598282D01*
X141730052Y-96612178D01*
X141730051Y-96612179D01*
X141729255Y-96612406D01*
X141725412Y-96614831D01*
X141615011Y-96684489D01*
X141615009Y-96684491D01*
X141614305Y-96684935D01*
X141613757Y-96685556D01*
X141613753Y-96685559D01*
X141566240Y-96739359D01*
X141524332Y-96786810D01*
X141466568Y-96909843D01*
X141445657Y-97044143D01*
X141463280Y-97178915D01*
X141471018Y-97196501D01*
X141478509Y-97213525D01*
X141479500Y-97218237D01*
X141479500Y-97483266D01*
X141476073Y-97491539D01*
X141467800Y-97494966D01*
X141459527Y-97491539D01*
X141458072Y-97489766D01*
X141448563Y-97475535D01*
X141447923Y-97474577D01*
X141391526Y-97436893D01*
X141390397Y-97436668D01*
X141390396Y-97436668D01*
X141342360Y-97427113D01*
X141342358Y-97427113D01*
X141341791Y-97427000D01*
X141341211Y-97427000D01*
X141150001Y-97427001D01*
X140958210Y-97427001D01*
X140957644Y-97427114D01*
X140957640Y-97427114D01*
X140909608Y-97436667D01*
X140909606Y-97436668D01*
X140908474Y-97436893D01*
X140852077Y-97474577D01*
X140851437Y-97475535D01*
X140834728Y-97500541D01*
X140827282Y-97505516D01*
X140818500Y-97503769D01*
X140815272Y-97500541D01*
X140798563Y-97475535D01*
X140797923Y-97474577D01*
X140741526Y-97436893D01*
X140740397Y-97436668D01*
X140740396Y-97436668D01*
X140692360Y-97427113D01*
X140692358Y-97427113D01*
X140691791Y-97427000D01*
X140691211Y-97427000D01*
X140500001Y-97427001D01*
X140308210Y-97427001D01*
X140307644Y-97427114D01*
X140307640Y-97427114D01*
X140259608Y-97436667D01*
X140259606Y-97436668D01*
X140258474Y-97436893D01*
X140202077Y-97474577D01*
X140164393Y-97530974D01*
X140164168Y-97532103D01*
X140164168Y-97532104D01*
X140154613Y-97580140D01*
X140154500Y-97580709D01*
X140154500Y-97581289D01*
X140154501Y-98620300D01*
X140151074Y-98628573D01*
X140142801Y-98632000D01*
X139152864Y-98632001D01*
X139103210Y-98632001D01*
X139102644Y-98632114D01*
X139102640Y-98632114D01*
X139054608Y-98641667D01*
X139054606Y-98641668D01*
X139053474Y-98641893D01*
X139052514Y-98642535D01*
X139052513Y-98642535D01*
X139036277Y-98653384D01*
X138997077Y-98679577D01*
X138959393Y-98735974D01*
X138959168Y-98737103D01*
X138959168Y-98737104D01*
X138954462Y-98760763D01*
X138949500Y-98785709D01*
X138949501Y-99169290D01*
X138949614Y-99169856D01*
X138949614Y-99169860D01*
X138958847Y-99216279D01*
X138959393Y-99219026D01*
X138997077Y-99275423D01*
X138998035Y-99276063D01*
X139023041Y-99292772D01*
X139028016Y-99300218D01*
X139026269Y-99309000D01*
X139023041Y-99312228D01*
X138997077Y-99329577D01*
X138959393Y-99385974D01*
X138959168Y-99387103D01*
X138959168Y-99387104D01*
X138949672Y-99434843D01*
X138949500Y-99435709D01*
X138949501Y-99819290D01*
X138949614Y-99819856D01*
X138949614Y-99819860D01*
X138959123Y-99867667D01*
X138959393Y-99869026D01*
X138960035Y-99869986D01*
X138960035Y-99869987D01*
X138964191Y-99876207D01*
X138997077Y-99925423D01*
X139007468Y-99932366D01*
X139023041Y-99942772D01*
X139028016Y-99950218D01*
X139026269Y-99959000D01*
X139023041Y-99962228D01*
X139000143Y-99977528D01*
X138993643Y-99979500D01*
X138675550Y-99979500D01*
X138667277Y-99976073D01*
X138664857Y-99972550D01*
X138657950Y-99957000D01*
X138655323Y-99951085D01*
X138654455Y-99950218D01*
X138574225Y-99870128D01*
X138573461Y-99869365D01*
X138531111Y-99850642D01*
X138479870Y-99827988D01*
X138473689Y-99821508D01*
X138473900Y-99812556D01*
X138480380Y-99806375D01*
X138481520Y-99806000D01*
X138540384Y-99789952D01*
X138551826Y-99782927D01*
X138655507Y-99719267D01*
X138655508Y-99719266D01*
X138656212Y-99718834D01*
X138665971Y-99708053D01*
X138682155Y-99690172D01*
X138747423Y-99618065D01*
X138806686Y-99495747D01*
X138815989Y-99440454D01*
X138829162Y-99362152D01*
X138829236Y-99361712D01*
X138829379Y-99350000D01*
X138826592Y-99330535D01*
X138818562Y-99274465D01*
X138810111Y-99215454D01*
X138789121Y-99169290D01*
X138754197Y-99092479D01*
X138754196Y-99092478D01*
X138753854Y-99091725D01*
X138743486Y-99079692D01*
X138665675Y-98989388D01*
X138665674Y-98989387D01*
X138665132Y-98988758D01*
X138664437Y-98988307D01*
X138664434Y-98988305D01*
X138551776Y-98915284D01*
X138551077Y-98914831D01*
X138485967Y-98895359D01*
X138421657Y-98876126D01*
X138421655Y-98876126D01*
X138420857Y-98875887D01*
X138355180Y-98875485D01*
X138285774Y-98875061D01*
X138285773Y-98875061D01*
X138284941Y-98875056D01*
X138234794Y-98889388D01*
X138155052Y-98912178D01*
X138155051Y-98912179D01*
X138154255Y-98912406D01*
X138150412Y-98914831D01*
X138040011Y-98984489D01*
X138040009Y-98984491D01*
X138039305Y-98984935D01*
X138004744Y-99024069D01*
X138003440Y-99025545D01*
X137994670Y-99029500D01*
X137839493Y-99029500D01*
X137838473Y-99029455D01*
X137834609Y-99029117D01*
X137796635Y-99025795D01*
X137795643Y-99026061D01*
X137795641Y-99026061D01*
X137756061Y-99036666D01*
X137755065Y-99036887D01*
X137714700Y-99044005D01*
X137714699Y-99044005D01*
X137713692Y-99044183D01*
X137712807Y-99044694D01*
X137702623Y-99050573D01*
X137699802Y-99051741D01*
X137688514Y-99054766D01*
X137687461Y-99055048D01*
X137686624Y-99055634D01*
X137686622Y-99055635D01*
X137653048Y-99079144D01*
X137652187Y-99079692D01*
X137615809Y-99100695D01*
X137615152Y-99101478D01*
X137588800Y-99132883D01*
X137588110Y-99133635D01*
X137078630Y-99643114D01*
X137077878Y-99643804D01*
X137046476Y-99670153D01*
X137046474Y-99670155D01*
X137045695Y-99670809D01*
X137024960Y-99706725D01*
X137024690Y-99707192D01*
X137024141Y-99708053D01*
X137011793Y-99725688D01*
X137000048Y-99742461D01*
X136999783Y-99743451D01*
X136996741Y-99754805D01*
X136995572Y-99757627D01*
X136989782Y-99767655D01*
X136989183Y-99768692D01*
X136989005Y-99769702D01*
X136981889Y-99810058D01*
X136981668Y-99811054D01*
X136971060Y-99850642D01*
X136970794Y-99851635D01*
X136970884Y-99852660D01*
X136972197Y-99867667D01*
X136969505Y-99876207D01*
X136968825Y-99876949D01*
X136894365Y-99951539D01*
X136847594Y-100057332D01*
X136847493Y-100058202D01*
X136847492Y-100058204D01*
X136844685Y-100082287D01*
X136844500Y-100083871D01*
X134276965Y-100083871D01*
X134337869Y-99995401D01*
X134338258Y-99994869D01*
X134755058Y-99457822D01*
X134755474Y-99457316D01*
X134769040Y-99441758D01*
X135109100Y-99051741D01*
X135202232Y-98944927D01*
X135202685Y-98944436D01*
X135508066Y-98632113D01*
X135677958Y-98458359D01*
X135678436Y-98457898D01*
X136180657Y-97999740D01*
X136181163Y-97999305D01*
X136708687Y-97570561D01*
X136709217Y-97570154D01*
X137260370Y-97172186D01*
X137260922Y-97171811D01*
X137462136Y-97043322D01*
X137833889Y-96805932D01*
X137834435Y-96805605D01*
X138179254Y-96612178D01*
X138427333Y-96473018D01*
X138427924Y-96472708D01*
X138944149Y-96220709D01*
X139036085Y-96175830D01*
X139036810Y-96175616D01*
X139037630Y-96175154D01*
X139039469Y-96175094D01*
X139039811Y-96174729D01*
X139040309Y-96174669D01*
X139042210Y-96172247D01*
X139046364Y-96169908D01*
X139047296Y-96168675D01*
X139048303Y-96168957D01*
X139147270Y-95758591D01*
X139216391Y-95342158D01*
X139255306Y-94921825D01*
X139263811Y-94499780D01*
X139262861Y-94499795D01*
X139261633Y-94496654D01*
X139260880Y-94495897D01*
X139260000Y-94491446D01*
X139260000Y-91821700D01*
X139263427Y-91813427D01*
X139271700Y-91810000D01*
X148728300Y-91810000D01*
X148736573Y-91813427D01*
G37*
G04 #@! TD.AperFunction*
M02*
