G04 #@! TF.GenerationSoftware,KiCad,Pcbnew,(6.0.1)*
G04 #@! TF.CreationDate,2023-01-15T15:55:40+01:00*
G04 #@! TF.ProjectId,ESP32-IoT-Board-ChipAnt,45535033-322d-4496-9f54-2d426f617264,rev?*
G04 #@! TF.SameCoordinates,Original*
G04 #@! TF.FileFunction,Paste,Bot*
G04 #@! TF.FilePolarity,Positive*
%FSLAX46Y46*%
G04 Gerber Fmt 4.6, Leading zero omitted, Abs format (unit mm)*
G04 Created by KiCad (PCBNEW (6.0.1)) date 2023-01-15 15:55:40*
%MOMM*%
%LPD*%
G01*
G04 APERTURE LIST*
G04 Aperture macros list*
%AMRoundRect*
0 Rectangle with rounded corners*
0 $1 Rounding radius*
0 $2 $3 $4 $5 $6 $7 $8 $9 X,Y pos of 4 corners*
0 Add a 4 corners polygon primitive as box body*
4,1,4,$2,$3,$4,$5,$6,$7,$8,$9,$2,$3,0*
0 Add four circle primitives for the rounded corners*
1,1,$1+$1,$2,$3*
1,1,$1+$1,$4,$5*
1,1,$1+$1,$6,$7*
1,1,$1+$1,$8,$9*
0 Add four rect primitives between the rounded corners*
20,1,$1+$1,$2,$3,$4,$5,0*
20,1,$1+$1,$4,$5,$6,$7,0*
20,1,$1+$1,$6,$7,$8,$9,0*
20,1,$1+$1,$8,$9,$2,$3,0*%
G04 Aperture macros list end*
%ADD10RoundRect,0.140000X-0.140000X-0.170000X0.140000X-0.170000X0.140000X0.170000X-0.140000X0.170000X0*%
%ADD11RoundRect,0.140000X0.140000X0.170000X-0.140000X0.170000X-0.140000X-0.170000X0.140000X-0.170000X0*%
%ADD12RoundRect,0.135000X-0.135000X-0.185000X0.135000X-0.185000X0.135000X0.185000X-0.135000X0.185000X0*%
%ADD13R,0.400000X0.600000*%
%ADD14R,0.900000X0.900000*%
%ADD15R,0.350000X1.105000*%
%ADD16R,1.105000X0.350000*%
%ADD17RoundRect,0.135000X0.135000X0.185000X-0.135000X0.185000X-0.135000X-0.185000X0.135000X-0.185000X0*%
%ADD18RoundRect,0.140000X-0.170000X0.140000X-0.170000X-0.140000X0.170000X-0.140000X0.170000X0.140000X0*%
G04 APERTURE END LIST*
D10*
X143895000Y-103100000D03*
X144855000Y-103100000D03*
D11*
X138255000Y-100300000D03*
X137295000Y-100300000D03*
D12*
X143665000Y-107100000D03*
X144685000Y-107100000D03*
X137265000Y-109200000D03*
X138285000Y-109200000D03*
D13*
X138450000Y-106930000D03*
X137400000Y-106930000D03*
X136350000Y-106930000D03*
X135300000Y-106930000D03*
X135300000Y-104270000D03*
X136350000Y-104270000D03*
X137400000Y-104270000D03*
X138450000Y-104270000D03*
D10*
X136395000Y-101900000D03*
X137355000Y-101900000D03*
D14*
X140950000Y-100477500D03*
X140950000Y-99427500D03*
X142000000Y-99427500D03*
X142000000Y-100477500D03*
D15*
X140500000Y-98150000D03*
X141150000Y-98150000D03*
X141800000Y-98150000D03*
X142450000Y-98150000D03*
D16*
X143277500Y-98977500D03*
X143277500Y-99627500D03*
X143277500Y-100277500D03*
X143277500Y-100927500D03*
D15*
X142450000Y-101755000D03*
X141800000Y-101755000D03*
X141150000Y-101755000D03*
X140500000Y-101755000D03*
D16*
X139672500Y-100927500D03*
X139672500Y-100277500D03*
X139672500Y-99627500D03*
X139672500Y-98977500D03*
D17*
X144685000Y-108200000D03*
X143665000Y-108200000D03*
D10*
X141995000Y-103100000D03*
X142955000Y-103100000D03*
D18*
X140975000Y-103070000D03*
X140975000Y-104030000D03*
M02*
