G04 #@! TF.GenerationSoftware,KiCad,Pcbnew,(6.0.1)*
G04 #@! TF.CreationDate,2023-01-15T15:55:40+01:00*
G04 #@! TF.ProjectId,ESP32-IoT-Board-ChipAnt,45535033-322d-4496-9f54-2d426f617264,rev?*
G04 #@! TF.SameCoordinates,Original*
G04 #@! TF.FileFunction,Copper,L2,Inr*
G04 #@! TF.FilePolarity,Positive*
%FSLAX46Y46*%
G04 Gerber Fmt 4.6, Leading zero omitted, Abs format (unit mm)*
G04 Created by KiCad (PCBNEW (6.0.1)) date 2023-01-15 15:55:40*
%MOMM*%
%LPD*%
G01*
G04 APERTURE LIST*
G04 Aperture macros list*
%AMRoundRect*
0 Rectangle with rounded corners*
0 $1 Rounding radius*
0 $2 $3 $4 $5 $6 $7 $8 $9 X,Y pos of 4 corners*
0 Add a 4 corners polygon primitive as box body*
4,1,4,$2,$3,$4,$5,$6,$7,$8,$9,$2,$3,0*
0 Add four circle primitives for the rounded corners*
1,1,$1+$1,$2,$3*
1,1,$1+$1,$4,$5*
1,1,$1+$1,$6,$7*
1,1,$1+$1,$8,$9*
0 Add four rect primitives between the rounded corners*
20,1,$1+$1,$2,$3,$4,$5,0*
20,1,$1+$1,$4,$5,$6,$7,0*
20,1,$1+$1,$6,$7,$8,$9,0*
20,1,$1+$1,$8,$9,$2,$3,0*%
G04 Aperture macros list end*
G04 #@! TA.AperFunction,ComponentPad*
%ADD10C,1.560000*%
G04 #@! TD*
G04 #@! TA.AperFunction,ComponentPad*
%ADD11RoundRect,0.250000X0.625000X-0.350000X0.625000X0.350000X-0.625000X0.350000X-0.625000X-0.350000X0*%
G04 #@! TD*
G04 #@! TA.AperFunction,ComponentPad*
%ADD12O,1.750000X1.200000*%
G04 #@! TD*
G04 #@! TA.AperFunction,ViaPad*
%ADD13C,0.600000*%
G04 #@! TD*
G04 #@! TA.AperFunction,ViaPad*
%ADD14C,0.800000*%
G04 #@! TD*
G04 #@! TA.AperFunction,Conductor*
%ADD15C,0.300000*%
G04 #@! TD*
G04 APERTURE END LIST*
D10*
X135290000Y-105600000D03*
D11*
X152075000Y-105200000D03*
D12*
X152075000Y-103200000D03*
D13*
X135775000Y-110050000D03*
X147875000Y-109350000D03*
X151375000Y-102000000D03*
X154675000Y-107200000D03*
X146075000Y-105950000D03*
X143875000Y-104950000D03*
X135975000Y-108750000D03*
X144175000Y-113650000D03*
X143075000Y-113650000D03*
X137400000Y-103150000D03*
X139175000Y-103900000D03*
X136350000Y-103150000D03*
X140975000Y-105125000D03*
X151375000Y-107700000D03*
X151125000Y-99250000D03*
X141925000Y-97050000D03*
X145175000Y-116400000D03*
X149875000Y-110400000D03*
X138275000Y-102100000D03*
X150875000Y-110400000D03*
D14*
X138255000Y-108200000D03*
D13*
X143075000Y-116250000D03*
X145175000Y-118400000D03*
X138450000Y-103275000D03*
X140175000Y-116800000D03*
X150375000Y-99950000D03*
X148875000Y-110400000D03*
X145325000Y-103875000D03*
X153725000Y-101700000D03*
X154675000Y-104500000D03*
X145875000Y-112400000D03*
X144675000Y-112400000D03*
X147875000Y-110400000D03*
X140200000Y-103950000D03*
X145175000Y-115400000D03*
X144375000Y-100200000D03*
X151875000Y-110400000D03*
X151475000Y-106800000D03*
D14*
X141155000Y-111100000D03*
D13*
X138350000Y-99350000D03*
X144475000Y-99400000D03*
X152875000Y-110400000D03*
X145850000Y-99575000D03*
X137375000Y-115750000D03*
X142675000Y-97050000D03*
X149975000Y-107550000D03*
X145175000Y-114400000D03*
D14*
X138255000Y-111100000D03*
D13*
X145175000Y-117400000D03*
D14*
X141155000Y-108200000D03*
D13*
X147375000Y-106000000D03*
X153875000Y-110400000D03*
D14*
X139705000Y-109650000D03*
D13*
X154875000Y-110400000D03*
X145175000Y-113400000D03*
X142650000Y-104000000D03*
X144175000Y-116250000D03*
X140175000Y-117700000D03*
X145925000Y-109250000D03*
X143725000Y-109950000D03*
X152475000Y-109050000D03*
X135775000Y-110900000D03*
X135775000Y-111750000D03*
D14*
X148575000Y-100200000D03*
D13*
X145175000Y-102000000D03*
X141255000Y-106000000D03*
X142205000Y-106000000D03*
X142205000Y-107100000D03*
X143725000Y-109100000D03*
D15*
X147375000Y-100200000D02*
X145575000Y-102000000D01*
X148575000Y-100200000D02*
X147375000Y-100200000D01*
X145575000Y-102000000D02*
X145175000Y-102000000D01*
G04 #@! TA.AperFunction,Conductor*
G36*
X148736573Y-91813427D02*
G01*
X148740000Y-91821700D01*
X148740000Y-94493594D01*
X148739107Y-94498078D01*
X148738386Y-94499814D01*
X148737354Y-94499798D01*
X148742408Y-94847036D01*
X148742420Y-94847193D01*
X148742420Y-94847196D01*
X148748086Y-94922033D01*
X148768623Y-95193319D01*
X148815904Y-95537360D01*
X148815936Y-95537519D01*
X148815938Y-95537532D01*
X148884038Y-95877705D01*
X148884073Y-95877878D01*
X148972878Y-96213606D01*
X148973791Y-96213334D01*
X148975076Y-96215020D01*
X148976875Y-96215939D01*
X148977173Y-96216262D01*
X148977648Y-96216810D01*
X148979846Y-96219518D01*
X148980201Y-96219555D01*
X148980443Y-96219818D01*
X148982420Y-96219901D01*
X148983730Y-96220610D01*
X148984071Y-96220709D01*
X149589289Y-96522924D01*
X149589878Y-96523240D01*
X150179746Y-96861141D01*
X150180315Y-96861489D01*
X150666413Y-97178088D01*
X150749946Y-97232494D01*
X150750495Y-97232874D01*
X151298033Y-97635777D01*
X151298560Y-97636188D01*
X151822234Y-98069685D01*
X151822734Y-98070125D01*
X152320813Y-98532784D01*
X152321271Y-98533235D01*
X152591697Y-98814831D01*
X152792159Y-99023574D01*
X152792607Y-99024069D01*
X152889646Y-99137406D01*
X153214920Y-99517312D01*
X153234721Y-99540439D01*
X153235133Y-99540948D01*
X153427227Y-99793114D01*
X153647098Y-100081744D01*
X153647487Y-100082287D01*
X153855382Y-100390172D01*
X154019094Y-100632623D01*
X154027898Y-100645662D01*
X154028254Y-100646221D01*
X154373369Y-101226126D01*
X154375923Y-101230418D01*
X154376242Y-101230991D01*
X154485557Y-101441097D01*
X154690010Y-101834063D01*
X154690301Y-101834664D01*
X154815105Y-102112152D01*
X154969147Y-102454648D01*
X154969390Y-102455230D01*
X155186949Y-103023594D01*
X155212422Y-103090141D01*
X155212643Y-103090772D01*
X155419045Y-103738487D01*
X155419229Y-103739128D01*
X155492668Y-104025061D01*
X155586443Y-104390172D01*
X155588338Y-104397552D01*
X155588484Y-104398196D01*
X155695018Y-104939515D01*
X155719757Y-105065218D01*
X155719866Y-105065871D01*
X155741601Y-105223249D01*
X155812868Y-105739294D01*
X155812940Y-105739958D01*
X155867367Y-106417560D01*
X155867402Y-106418227D01*
X155883082Y-107097865D01*
X155883078Y-107098533D01*
X155859958Y-107777941D01*
X155859916Y-107778607D01*
X155798072Y-108455574D01*
X155797993Y-108456237D01*
X155697621Y-109128611D01*
X155697503Y-109129269D01*
X155558942Y-109794782D01*
X155558788Y-109795429D01*
X155389591Y-110425484D01*
X155382473Y-110451988D01*
X155382283Y-110452623D01*
X155372587Y-110481937D01*
X155359207Y-110522388D01*
X155353356Y-110529167D01*
X155344425Y-110529822D01*
X155337646Y-110523971D01*
X155336561Y-110516773D01*
X155354162Y-110412152D01*
X155354236Y-110411712D01*
X155354379Y-110400000D01*
X155352878Y-110389515D01*
X155335229Y-110266279D01*
X155335111Y-110265454D01*
X155334766Y-110264695D01*
X155279197Y-110142479D01*
X155279196Y-110142478D01*
X155278854Y-110141725D01*
X155225392Y-110079679D01*
X155190675Y-110039388D01*
X155190674Y-110039387D01*
X155190132Y-110038758D01*
X155189437Y-110038307D01*
X155189434Y-110038305D01*
X155076776Y-109965284D01*
X155076077Y-109964831D01*
X154983003Y-109936996D01*
X154946657Y-109926126D01*
X154946655Y-109926126D01*
X154945857Y-109925887D01*
X154880180Y-109925485D01*
X154810774Y-109925061D01*
X154810773Y-109925061D01*
X154809941Y-109925056D01*
X154740266Y-109944969D01*
X154680052Y-109962178D01*
X154680051Y-109962179D01*
X154679255Y-109962406D01*
X154675412Y-109964831D01*
X154565011Y-110034489D01*
X154565009Y-110034491D01*
X154564305Y-110034935D01*
X154563757Y-110035556D01*
X154563753Y-110035559D01*
X154525463Y-110078915D01*
X154474332Y-110136810D01*
X154416568Y-110259843D01*
X154395657Y-110394143D01*
X154413280Y-110528915D01*
X154413616Y-110529678D01*
X154413616Y-110529679D01*
X154420128Y-110544479D01*
X154468021Y-110653322D01*
X154555478Y-110757366D01*
X154556171Y-110757828D01*
X154556173Y-110757829D01*
X154594877Y-110783592D01*
X154599865Y-110791029D01*
X154598134Y-110799815D01*
X154590697Y-110804803D01*
X154588397Y-110805032D01*
X154163534Y-110805119D01*
X154155262Y-110801694D01*
X154151833Y-110793421D01*
X154155258Y-110785148D01*
X154157411Y-110783448D01*
X154180507Y-110769267D01*
X154180508Y-110769266D01*
X154181212Y-110768834D01*
X154184272Y-110765454D01*
X154204346Y-110743276D01*
X154272423Y-110668065D01*
X154331686Y-110545747D01*
X154331900Y-110544479D01*
X154354162Y-110412152D01*
X154354236Y-110411712D01*
X154354379Y-110400000D01*
X154352878Y-110389515D01*
X154335229Y-110266279D01*
X154335111Y-110265454D01*
X154334766Y-110264695D01*
X154279197Y-110142479D01*
X154279196Y-110142478D01*
X154278854Y-110141725D01*
X154225392Y-110079679D01*
X154190675Y-110039388D01*
X154190674Y-110039387D01*
X154190132Y-110038758D01*
X154189437Y-110038307D01*
X154189434Y-110038305D01*
X154076776Y-109965284D01*
X154076077Y-109964831D01*
X153983003Y-109936996D01*
X153946657Y-109926126D01*
X153946655Y-109926126D01*
X153945857Y-109925887D01*
X153880180Y-109925485D01*
X153810774Y-109925061D01*
X153810773Y-109925061D01*
X153809941Y-109925056D01*
X153740266Y-109944969D01*
X153680052Y-109962178D01*
X153680051Y-109962179D01*
X153679255Y-109962406D01*
X153675412Y-109964831D01*
X153565011Y-110034489D01*
X153565009Y-110034491D01*
X153564305Y-110034935D01*
X153563757Y-110035556D01*
X153563753Y-110035559D01*
X153525463Y-110078915D01*
X153474332Y-110136810D01*
X153416568Y-110259843D01*
X153395657Y-110394143D01*
X153413280Y-110528915D01*
X153413616Y-110529678D01*
X153413616Y-110529679D01*
X153420128Y-110544479D01*
X153468021Y-110653322D01*
X153555478Y-110757366D01*
X153556171Y-110757828D01*
X153556173Y-110757829D01*
X153595185Y-110783797D01*
X153600173Y-110791234D01*
X153598442Y-110800020D01*
X153591005Y-110805008D01*
X153588704Y-110805237D01*
X153552576Y-110805244D01*
X153163200Y-110805324D01*
X153154927Y-110801899D01*
X153151498Y-110793626D01*
X153154923Y-110785353D01*
X153157074Y-110783655D01*
X153181212Y-110768834D01*
X153184272Y-110765454D01*
X153204346Y-110743276D01*
X153272423Y-110668065D01*
X153331686Y-110545747D01*
X153331900Y-110544479D01*
X153354162Y-110412152D01*
X153354236Y-110411712D01*
X153354379Y-110400000D01*
X153352878Y-110389515D01*
X153335229Y-110266279D01*
X153335111Y-110265454D01*
X153334766Y-110264695D01*
X153279197Y-110142479D01*
X153279196Y-110142478D01*
X153278854Y-110141725D01*
X153225392Y-110079679D01*
X153190675Y-110039388D01*
X153190674Y-110039387D01*
X153190132Y-110038758D01*
X153189437Y-110038307D01*
X153189434Y-110038305D01*
X153076776Y-109965284D01*
X153076077Y-109964831D01*
X152983003Y-109936996D01*
X152946657Y-109926126D01*
X152946655Y-109926126D01*
X152945857Y-109925887D01*
X152880180Y-109925485D01*
X152810774Y-109925061D01*
X152810773Y-109925061D01*
X152809941Y-109925056D01*
X152740266Y-109944969D01*
X152680052Y-109962178D01*
X152680051Y-109962179D01*
X152679255Y-109962406D01*
X152675412Y-109964831D01*
X152565011Y-110034489D01*
X152565009Y-110034491D01*
X152564305Y-110034935D01*
X152563757Y-110035556D01*
X152563753Y-110035559D01*
X152525463Y-110078915D01*
X152474332Y-110136810D01*
X152416568Y-110259843D01*
X152395657Y-110394143D01*
X152413280Y-110528915D01*
X152413616Y-110529678D01*
X152413616Y-110529679D01*
X152420128Y-110544479D01*
X152468021Y-110653322D01*
X152555478Y-110757366D01*
X152556171Y-110757828D01*
X152556173Y-110757829D01*
X152595493Y-110784002D01*
X152600481Y-110791439D01*
X152598750Y-110800225D01*
X152591313Y-110805213D01*
X152589013Y-110805442D01*
X152546437Y-110805451D01*
X152162866Y-110805529D01*
X152154593Y-110802104D01*
X152151164Y-110793831D01*
X152154589Y-110785558D01*
X152156739Y-110783860D01*
X152181212Y-110768834D01*
X152184272Y-110765454D01*
X152204346Y-110743276D01*
X152272423Y-110668065D01*
X152331686Y-110545747D01*
X152331900Y-110544479D01*
X152354162Y-110412152D01*
X152354236Y-110411712D01*
X152354379Y-110400000D01*
X152352878Y-110389515D01*
X152335229Y-110266279D01*
X152335111Y-110265454D01*
X152334766Y-110264695D01*
X152279197Y-110142479D01*
X152279196Y-110142478D01*
X152278854Y-110141725D01*
X152225392Y-110079679D01*
X152190675Y-110039388D01*
X152190674Y-110039387D01*
X152190132Y-110038758D01*
X152189437Y-110038307D01*
X152189434Y-110038305D01*
X152076776Y-109965284D01*
X152076077Y-109964831D01*
X151983003Y-109936996D01*
X151946657Y-109926126D01*
X151946655Y-109926126D01*
X151945857Y-109925887D01*
X151880180Y-109925485D01*
X151810774Y-109925061D01*
X151810773Y-109925061D01*
X151809941Y-109925056D01*
X151740266Y-109944969D01*
X151680052Y-109962178D01*
X151680051Y-109962179D01*
X151679255Y-109962406D01*
X151675412Y-109964831D01*
X151565011Y-110034489D01*
X151565009Y-110034491D01*
X151564305Y-110034935D01*
X151563757Y-110035556D01*
X151563753Y-110035559D01*
X151525463Y-110078915D01*
X151474332Y-110136810D01*
X151416568Y-110259843D01*
X151395657Y-110394143D01*
X151413280Y-110528915D01*
X151413616Y-110529678D01*
X151413616Y-110529679D01*
X151420128Y-110544479D01*
X151468021Y-110653322D01*
X151555478Y-110757366D01*
X151556171Y-110757828D01*
X151556173Y-110757829D01*
X151568868Y-110766279D01*
X151595802Y-110784208D01*
X151600790Y-110791644D01*
X151599059Y-110800430D01*
X151591622Y-110805418D01*
X151589321Y-110805647D01*
X151162531Y-110805735D01*
X151154258Y-110802310D01*
X151150829Y-110794037D01*
X151154254Y-110785764D01*
X151156407Y-110784064D01*
X151157077Y-110783653D01*
X151181212Y-110768834D01*
X151184272Y-110765454D01*
X151204346Y-110743276D01*
X151272423Y-110668065D01*
X151331686Y-110545747D01*
X151331900Y-110544479D01*
X151354162Y-110412152D01*
X151354236Y-110411712D01*
X151354379Y-110400000D01*
X151352878Y-110389515D01*
X151335229Y-110266279D01*
X151335111Y-110265454D01*
X151334766Y-110264695D01*
X151279197Y-110142479D01*
X151279196Y-110142478D01*
X151278854Y-110141725D01*
X151225392Y-110079679D01*
X151190675Y-110039388D01*
X151190674Y-110039387D01*
X151190132Y-110038758D01*
X151189437Y-110038307D01*
X151189434Y-110038305D01*
X151076776Y-109965284D01*
X151076077Y-109964831D01*
X150983003Y-109936996D01*
X150946657Y-109926126D01*
X150946655Y-109926126D01*
X150945857Y-109925887D01*
X150880180Y-109925485D01*
X150810774Y-109925061D01*
X150810773Y-109925061D01*
X150809941Y-109925056D01*
X150740266Y-109944969D01*
X150680052Y-109962178D01*
X150680051Y-109962179D01*
X150679255Y-109962406D01*
X150675412Y-109964831D01*
X150565011Y-110034489D01*
X150565009Y-110034491D01*
X150564305Y-110034935D01*
X150563757Y-110035556D01*
X150563753Y-110035559D01*
X150525463Y-110078915D01*
X150474332Y-110136810D01*
X150416568Y-110259843D01*
X150395657Y-110394143D01*
X150413280Y-110528915D01*
X150413616Y-110529678D01*
X150413616Y-110529679D01*
X150420128Y-110544479D01*
X150468021Y-110653322D01*
X150555478Y-110757366D01*
X150556171Y-110757828D01*
X150556173Y-110757829D01*
X150596110Y-110784413D01*
X150601098Y-110791850D01*
X150599367Y-110800636D01*
X150591930Y-110805624D01*
X150589630Y-110805853D01*
X150162196Y-110805941D01*
X150153924Y-110802516D01*
X150150495Y-110794243D01*
X150153920Y-110785970D01*
X150156073Y-110784271D01*
X150180502Y-110769271D01*
X150180507Y-110769267D01*
X150181212Y-110768834D01*
X150184272Y-110765454D01*
X150204346Y-110743276D01*
X150272423Y-110668065D01*
X150331686Y-110545747D01*
X150331900Y-110544479D01*
X150354162Y-110412152D01*
X150354236Y-110411712D01*
X150354379Y-110400000D01*
X150352878Y-110389515D01*
X150335229Y-110266279D01*
X150335111Y-110265454D01*
X150334766Y-110264695D01*
X150279197Y-110142479D01*
X150279196Y-110142478D01*
X150278854Y-110141725D01*
X150225392Y-110079679D01*
X150190675Y-110039388D01*
X150190674Y-110039387D01*
X150190132Y-110038758D01*
X150189437Y-110038307D01*
X150189434Y-110038305D01*
X150076776Y-109965284D01*
X150076077Y-109964831D01*
X149983003Y-109936996D01*
X149946657Y-109926126D01*
X149946655Y-109926126D01*
X149945857Y-109925887D01*
X149880180Y-109925485D01*
X149810774Y-109925061D01*
X149810773Y-109925061D01*
X149809941Y-109925056D01*
X149740266Y-109944969D01*
X149680052Y-109962178D01*
X149680051Y-109962179D01*
X149679255Y-109962406D01*
X149675412Y-109964831D01*
X149565011Y-110034489D01*
X149565009Y-110034491D01*
X149564305Y-110034935D01*
X149563757Y-110035556D01*
X149563753Y-110035559D01*
X149525463Y-110078915D01*
X149474332Y-110136810D01*
X149416568Y-110259843D01*
X149395657Y-110394143D01*
X149413280Y-110528915D01*
X149413616Y-110529678D01*
X149413616Y-110529679D01*
X149420128Y-110544479D01*
X149468021Y-110653322D01*
X149555478Y-110757366D01*
X149556171Y-110757828D01*
X149556173Y-110757829D01*
X149568868Y-110766279D01*
X149595898Y-110784271D01*
X149596419Y-110784618D01*
X149601407Y-110792055D01*
X149599676Y-110800841D01*
X149592239Y-110805829D01*
X149589939Y-110806058D01*
X149161861Y-110806146D01*
X149153589Y-110802721D01*
X149150160Y-110794448D01*
X149153585Y-110786175D01*
X149155738Y-110784475D01*
X149180507Y-110769267D01*
X149180508Y-110769266D01*
X149181212Y-110768834D01*
X149184272Y-110765454D01*
X149204346Y-110743276D01*
X149272423Y-110668065D01*
X149331686Y-110545747D01*
X149331900Y-110544479D01*
X149354162Y-110412152D01*
X149354236Y-110411712D01*
X149354379Y-110400000D01*
X149352878Y-110389515D01*
X149335229Y-110266279D01*
X149335111Y-110265454D01*
X149334766Y-110264695D01*
X149279197Y-110142479D01*
X149279196Y-110142478D01*
X149278854Y-110141725D01*
X149225392Y-110079679D01*
X149190675Y-110039388D01*
X149190674Y-110039387D01*
X149190132Y-110038758D01*
X149189437Y-110038307D01*
X149189434Y-110038305D01*
X149076776Y-109965284D01*
X149076077Y-109964831D01*
X148983003Y-109936996D01*
X148946657Y-109926126D01*
X148946655Y-109926126D01*
X148945857Y-109925887D01*
X148880180Y-109925485D01*
X148810774Y-109925061D01*
X148810773Y-109925061D01*
X148809941Y-109925056D01*
X148740266Y-109944969D01*
X148680052Y-109962178D01*
X148680051Y-109962179D01*
X148679255Y-109962406D01*
X148675412Y-109964831D01*
X148565011Y-110034489D01*
X148565009Y-110034491D01*
X148564305Y-110034935D01*
X148563757Y-110035556D01*
X148563753Y-110035559D01*
X148525463Y-110078915D01*
X148474332Y-110136810D01*
X148416568Y-110259843D01*
X148395657Y-110394143D01*
X148413280Y-110528915D01*
X148413616Y-110529678D01*
X148413616Y-110529679D01*
X148420128Y-110544479D01*
X148468021Y-110653322D01*
X148555478Y-110757366D01*
X148556171Y-110757828D01*
X148556173Y-110757829D01*
X148568868Y-110766279D01*
X148595898Y-110784271D01*
X148596727Y-110784823D01*
X148601715Y-110792260D01*
X148599984Y-110801046D01*
X148592547Y-110806034D01*
X148590246Y-110806263D01*
X148573269Y-110806266D01*
X148161528Y-110806351D01*
X148153255Y-110802926D01*
X148149826Y-110794653D01*
X148153251Y-110786380D01*
X148155404Y-110784680D01*
X148156175Y-110784207D01*
X148181212Y-110768834D01*
X148184272Y-110765454D01*
X148204346Y-110743276D01*
X148272423Y-110668065D01*
X148331686Y-110545747D01*
X148331900Y-110544479D01*
X148354162Y-110412152D01*
X148354236Y-110411712D01*
X148354379Y-110400000D01*
X148352878Y-110389515D01*
X148335229Y-110266279D01*
X148335111Y-110265454D01*
X148334766Y-110264695D01*
X148279197Y-110142479D01*
X148279196Y-110142478D01*
X148278854Y-110141725D01*
X148225392Y-110079679D01*
X148190675Y-110039388D01*
X148190674Y-110039387D01*
X148190132Y-110038758D01*
X148189437Y-110038307D01*
X148189434Y-110038305D01*
X148076776Y-109965284D01*
X148076077Y-109964831D01*
X147983003Y-109936996D01*
X147946657Y-109926126D01*
X147946655Y-109926126D01*
X147945857Y-109925887D01*
X147880180Y-109925485D01*
X147810774Y-109925061D01*
X147810773Y-109925061D01*
X147809941Y-109925056D01*
X147740266Y-109944969D01*
X147680052Y-109962178D01*
X147680051Y-109962179D01*
X147679255Y-109962406D01*
X147675412Y-109964831D01*
X147565011Y-110034489D01*
X147565009Y-110034491D01*
X147564305Y-110034935D01*
X147563757Y-110035556D01*
X147563753Y-110035559D01*
X147525463Y-110078915D01*
X147474332Y-110136810D01*
X147416568Y-110259843D01*
X147395657Y-110394143D01*
X147413280Y-110528915D01*
X147413616Y-110529678D01*
X147413616Y-110529679D01*
X147420128Y-110544479D01*
X147468021Y-110653322D01*
X147555478Y-110757366D01*
X147556171Y-110757828D01*
X147556173Y-110757829D01*
X147573363Y-110769271D01*
X147596727Y-110784823D01*
X147597036Y-110785029D01*
X147602024Y-110792466D01*
X147600293Y-110801252D01*
X147592856Y-110806240D01*
X147590557Y-110806469D01*
X147524971Y-110806482D01*
X147524971Y-113194729D01*
X147521544Y-113203002D01*
X147513219Y-113206429D01*
X146589121Y-113202298D01*
X145611889Y-113197930D01*
X145603632Y-113194466D01*
X145601293Y-113191076D01*
X145578854Y-113141725D01*
X145490132Y-113038758D01*
X145489437Y-113038307D01*
X145489434Y-113038305D01*
X145376776Y-112965284D01*
X145376077Y-112964831D01*
X145310967Y-112945359D01*
X145246657Y-112926126D01*
X145246655Y-112926126D01*
X145245857Y-112925887D01*
X145180180Y-112925485D01*
X145110774Y-112925061D01*
X145110773Y-112925061D01*
X145109941Y-112925056D01*
X145028676Y-112948282D01*
X144980052Y-112962178D01*
X144980051Y-112962179D01*
X144979255Y-112962406D01*
X144975412Y-112964831D01*
X144865011Y-113034489D01*
X144865009Y-113034491D01*
X144864305Y-113034935D01*
X144863757Y-113035556D01*
X144863753Y-113035559D01*
X144816240Y-113089359D01*
X144774332Y-113136810D01*
X144716568Y-113259843D01*
X144695657Y-113394143D01*
X144713280Y-113528915D01*
X144713616Y-113529678D01*
X144713616Y-113529679D01*
X144755154Y-113624079D01*
X144768021Y-113653322D01*
X144855478Y-113757366D01*
X144856171Y-113757828D01*
X144856173Y-113757829D01*
X144957724Y-113825426D01*
X144968622Y-113832680D01*
X145098356Y-113873212D01*
X145175451Y-113874625D01*
X145233421Y-113875688D01*
X145233423Y-113875688D01*
X145234252Y-113875703D01*
X145365384Y-113839952D01*
X145376826Y-113832927D01*
X145480507Y-113769267D01*
X145480508Y-113769266D01*
X145481212Y-113768834D01*
X145491592Y-113757366D01*
X145559314Y-113682548D01*
X145567406Y-113678714D01*
X145575840Y-113681726D01*
X145579688Y-113690400D01*
X145579688Y-114111190D01*
X145576261Y-114119463D01*
X145567988Y-114122890D01*
X145559124Y-114118827D01*
X145490675Y-114039388D01*
X145490674Y-114039387D01*
X145490132Y-114038758D01*
X145489437Y-114038307D01*
X145489434Y-114038305D01*
X145376776Y-113965284D01*
X145376077Y-113964831D01*
X145310967Y-113945359D01*
X145246657Y-113926126D01*
X145246655Y-113926126D01*
X145245857Y-113925887D01*
X145180180Y-113925485D01*
X145110774Y-113925061D01*
X145110773Y-113925061D01*
X145109941Y-113925056D01*
X145028676Y-113948282D01*
X144980052Y-113962178D01*
X144980051Y-113962179D01*
X144979255Y-113962406D01*
X144975412Y-113964831D01*
X144865011Y-114034489D01*
X144865009Y-114034491D01*
X144864305Y-114034935D01*
X144863757Y-114035556D01*
X144863753Y-114035559D01*
X144816240Y-114089359D01*
X144774332Y-114136810D01*
X144716568Y-114259843D01*
X144695657Y-114394143D01*
X144713280Y-114528915D01*
X144713616Y-114529678D01*
X144713616Y-114529679D01*
X144719457Y-114542954D01*
X144768021Y-114653322D01*
X144855478Y-114757366D01*
X144856171Y-114757828D01*
X144856173Y-114757829D01*
X144957724Y-114825426D01*
X144968622Y-114832680D01*
X145098356Y-114873212D01*
X145175451Y-114874625D01*
X145233421Y-114875688D01*
X145233423Y-114875688D01*
X145234252Y-114875703D01*
X145365384Y-114839952D01*
X145376826Y-114832927D01*
X145480507Y-114769267D01*
X145480508Y-114769266D01*
X145481212Y-114768834D01*
X145491592Y-114757366D01*
X145559314Y-114682548D01*
X145567406Y-114678714D01*
X145575840Y-114681726D01*
X145579688Y-114690400D01*
X145579688Y-115111190D01*
X145576261Y-115119463D01*
X145567988Y-115122890D01*
X145559124Y-115118827D01*
X145490675Y-115039388D01*
X145490674Y-115039387D01*
X145490132Y-115038758D01*
X145489437Y-115038307D01*
X145489434Y-115038305D01*
X145376776Y-114965284D01*
X145376077Y-114964831D01*
X145310967Y-114945359D01*
X145246657Y-114926126D01*
X145246655Y-114926126D01*
X145245857Y-114925887D01*
X145180180Y-114925485D01*
X145110774Y-114925061D01*
X145110773Y-114925061D01*
X145109941Y-114925056D01*
X145028676Y-114948282D01*
X144980052Y-114962178D01*
X144980051Y-114962179D01*
X144979255Y-114962406D01*
X144975412Y-114964831D01*
X144865011Y-115034489D01*
X144865009Y-115034491D01*
X144864305Y-115034935D01*
X144863757Y-115035556D01*
X144863753Y-115035559D01*
X144842607Y-115059503D01*
X144774332Y-115136810D01*
X144716568Y-115259843D01*
X144695657Y-115394143D01*
X144713280Y-115528915D01*
X144713616Y-115529678D01*
X144713616Y-115529679D01*
X144755154Y-115624079D01*
X144768021Y-115653322D01*
X144768560Y-115653963D01*
X144848916Y-115749559D01*
X144855478Y-115757366D01*
X144856171Y-115757828D01*
X144856173Y-115757829D01*
X144883302Y-115775887D01*
X144968622Y-115832680D01*
X145098356Y-115873212D01*
X145175451Y-115874625D01*
X145233421Y-115875688D01*
X145233423Y-115875688D01*
X145234252Y-115875703D01*
X145365384Y-115839952D01*
X145376826Y-115832927D01*
X145480507Y-115769267D01*
X145480508Y-115769266D01*
X145481212Y-115768834D01*
X145487260Y-115762152D01*
X145559314Y-115682548D01*
X145567406Y-115678714D01*
X145575840Y-115681726D01*
X145579688Y-115690400D01*
X145579688Y-116111190D01*
X145576261Y-116119463D01*
X145567988Y-116122890D01*
X145559124Y-116118827D01*
X145490675Y-116039388D01*
X145490674Y-116039387D01*
X145490132Y-116038758D01*
X145489437Y-116038307D01*
X145489434Y-116038305D01*
X145376776Y-115965284D01*
X145376077Y-115964831D01*
X145310967Y-115945359D01*
X145246657Y-115926126D01*
X145246655Y-115926126D01*
X145245857Y-115925887D01*
X145180180Y-115925485D01*
X145110774Y-115925061D01*
X145110773Y-115925061D01*
X145109941Y-115925056D01*
X145028676Y-115948282D01*
X144980052Y-115962178D01*
X144980051Y-115962179D01*
X144979255Y-115962406D01*
X144975412Y-115964831D01*
X144865011Y-116034489D01*
X144865009Y-116034491D01*
X144864305Y-116034935D01*
X144863757Y-116035556D01*
X144863753Y-116035559D01*
X144816240Y-116089359D01*
X144774332Y-116136810D01*
X144716568Y-116259843D01*
X144695657Y-116394143D01*
X144713280Y-116528915D01*
X144713616Y-116529678D01*
X144713616Y-116529679D01*
X144719248Y-116542479D01*
X144768021Y-116653322D01*
X144780414Y-116668065D01*
X144826782Y-116723227D01*
X144855478Y-116757366D01*
X144856171Y-116757828D01*
X144856173Y-116757829D01*
X144910728Y-116794143D01*
X144968622Y-116832680D01*
X145098356Y-116873212D01*
X145175451Y-116874625D01*
X145233421Y-116875688D01*
X145233423Y-116875688D01*
X145234252Y-116875703D01*
X145365384Y-116839952D01*
X145376826Y-116832927D01*
X145480507Y-116769267D01*
X145480508Y-116769266D01*
X145481212Y-116768834D01*
X145491592Y-116757366D01*
X145559314Y-116682548D01*
X145567406Y-116678714D01*
X145575840Y-116681726D01*
X145579688Y-116690400D01*
X145579688Y-117111190D01*
X145576261Y-117119463D01*
X145567988Y-117122890D01*
X145559124Y-117118827D01*
X145490675Y-117039388D01*
X145490674Y-117039387D01*
X145490132Y-117038758D01*
X145489437Y-117038307D01*
X145489434Y-117038305D01*
X145376776Y-116965284D01*
X145376077Y-116964831D01*
X145258537Y-116929679D01*
X145246657Y-116926126D01*
X145246655Y-116926126D01*
X145245857Y-116925887D01*
X145180180Y-116925485D01*
X145110774Y-116925061D01*
X145110773Y-116925061D01*
X145109941Y-116925056D01*
X145040431Y-116944922D01*
X144980052Y-116962178D01*
X144980051Y-116962179D01*
X144979255Y-116962406D01*
X144975412Y-116964831D01*
X144865011Y-117034489D01*
X144865009Y-117034491D01*
X144864305Y-117034935D01*
X144863757Y-117035556D01*
X144863753Y-117035559D01*
X144834499Y-117068684D01*
X144774332Y-117136810D01*
X144716568Y-117259843D01*
X144695657Y-117394143D01*
X144713280Y-117528915D01*
X144768021Y-117653322D01*
X144855478Y-117757366D01*
X144856171Y-117757828D01*
X144856173Y-117757829D01*
X144957724Y-117825426D01*
X144968622Y-117832680D01*
X145098356Y-117873212D01*
X145175451Y-117874625D01*
X145233421Y-117875688D01*
X145233423Y-117875688D01*
X145234252Y-117875703D01*
X145365384Y-117839952D01*
X145376826Y-117832927D01*
X145480507Y-117769267D01*
X145480508Y-117769266D01*
X145481212Y-117768834D01*
X145491592Y-117757366D01*
X145559314Y-117682548D01*
X145567406Y-117678714D01*
X145575840Y-117681726D01*
X145579688Y-117690400D01*
X145579688Y-118111190D01*
X145576261Y-118119463D01*
X145567988Y-118122890D01*
X145559124Y-118118827D01*
X145490675Y-118039388D01*
X145490674Y-118039387D01*
X145490132Y-118038758D01*
X145489437Y-118038307D01*
X145489434Y-118038305D01*
X145376776Y-117965284D01*
X145376077Y-117964831D01*
X145310967Y-117945359D01*
X145246657Y-117926126D01*
X145246655Y-117926126D01*
X145245857Y-117925887D01*
X145180180Y-117925485D01*
X145110774Y-117925061D01*
X145110773Y-117925061D01*
X145109941Y-117925056D01*
X145028676Y-117948282D01*
X144980052Y-117962178D01*
X144980051Y-117962179D01*
X144979255Y-117962406D01*
X144975412Y-117964831D01*
X144865011Y-118034489D01*
X144865009Y-118034491D01*
X144864305Y-118034935D01*
X144863757Y-118035556D01*
X144863753Y-118035559D01*
X144834366Y-118068834D01*
X144774332Y-118136810D01*
X144716568Y-118259843D01*
X144695657Y-118394143D01*
X144713280Y-118528915D01*
X144768021Y-118653322D01*
X144855478Y-118757366D01*
X144856171Y-118757828D01*
X144856173Y-118757829D01*
X144957724Y-118825426D01*
X144968622Y-118832680D01*
X145098356Y-118873212D01*
X145100554Y-118873252D01*
X145108762Y-118876829D01*
X145112038Y-118885163D01*
X145108461Y-118893372D01*
X145101621Y-118896580D01*
X145019571Y-118905615D01*
X144927675Y-118915734D01*
X144927032Y-118915786D01*
X144655581Y-118930073D01*
X144248159Y-118951517D01*
X144247491Y-118951533D01*
X143907594Y-118950004D01*
X143567680Y-118948475D01*
X143567046Y-118948455D01*
X142888504Y-118906615D01*
X142887863Y-118906557D01*
X142212814Y-118826072D01*
X142212181Y-118825978D01*
X141542828Y-118707112D01*
X141542174Y-118706976D01*
X140880732Y-118550123D01*
X140880087Y-118549951D01*
X140690054Y-118493259D01*
X140228629Y-118355604D01*
X140228029Y-118355407D01*
X139588709Y-118124204D01*
X139588121Y-118123972D01*
X139124898Y-117925887D01*
X138963053Y-117856678D01*
X138962447Y-117856398D01*
X138635919Y-117694143D01*
X139695657Y-117694143D01*
X139713280Y-117828915D01*
X139713616Y-117829678D01*
X139713616Y-117829679D01*
X139715045Y-117832927D01*
X139768021Y-117953322D01*
X139768560Y-117953963D01*
X139839837Y-118038758D01*
X139855478Y-118057366D01*
X139856171Y-118057828D01*
X139856173Y-118057829D01*
X139955529Y-118123965D01*
X139968622Y-118132680D01*
X140098356Y-118173212D01*
X140175451Y-118174625D01*
X140233421Y-118175688D01*
X140233423Y-118175688D01*
X140234252Y-118175703D01*
X140365384Y-118139952D01*
X140369274Y-118137564D01*
X140480507Y-118069267D01*
X140480508Y-118069266D01*
X140481212Y-118068834D01*
X140492173Y-118056725D01*
X140512299Y-118034489D01*
X140572423Y-117968065D01*
X140573771Y-117965284D01*
X140617172Y-117875703D01*
X140631686Y-117845747D01*
X140632735Y-117839515D01*
X140654162Y-117712152D01*
X140654236Y-117711712D01*
X140654379Y-117700000D01*
X140635111Y-117565454D01*
X140634766Y-117564695D01*
X140579197Y-117442479D01*
X140579196Y-117442478D01*
X140578854Y-117441725D01*
X140539620Y-117396192D01*
X140490675Y-117339388D01*
X140490674Y-117339387D01*
X140490132Y-117338758D01*
X140489437Y-117338307D01*
X140489434Y-117338305D01*
X140376776Y-117265284D01*
X140376077Y-117264831D01*
X140366337Y-117261918D01*
X140359392Y-117256265D01*
X140358480Y-117247357D01*
X140364133Y-117240412D01*
X140364696Y-117240140D01*
X140365384Y-117239952D01*
X140366087Y-117239520D01*
X140366090Y-117239519D01*
X140480507Y-117169267D01*
X140480508Y-117169266D01*
X140481212Y-117168834D01*
X140492173Y-117156725D01*
X140509516Y-117137564D01*
X140572423Y-117068065D01*
X140631686Y-116945747D01*
X140644957Y-116866869D01*
X140654162Y-116812152D01*
X140654236Y-116811712D01*
X140654379Y-116800000D01*
X140648274Y-116757366D01*
X140635229Y-116666279D01*
X140635111Y-116665454D01*
X140634766Y-116664695D01*
X140579197Y-116542479D01*
X140579196Y-116542478D01*
X140578854Y-116541725D01*
X140558467Y-116518065D01*
X140490675Y-116439388D01*
X140490674Y-116439387D01*
X140490132Y-116438758D01*
X140489437Y-116438307D01*
X140489434Y-116438305D01*
X140376776Y-116365284D01*
X140376077Y-116364831D01*
X140310967Y-116345359D01*
X140246657Y-116326126D01*
X140246655Y-116326126D01*
X140245857Y-116325887D01*
X140180180Y-116325485D01*
X140110774Y-116325061D01*
X140110773Y-116325061D01*
X140109941Y-116325056D01*
X140028676Y-116348282D01*
X139980052Y-116362178D01*
X139980051Y-116362179D01*
X139979255Y-116362406D01*
X139975412Y-116364831D01*
X139865011Y-116434489D01*
X139865009Y-116434491D01*
X139864305Y-116434935D01*
X139863757Y-116435556D01*
X139863753Y-116435559D01*
X139830979Y-116472669D01*
X139774332Y-116536810D01*
X139716568Y-116659843D01*
X139695657Y-116794143D01*
X139713280Y-116928915D01*
X139713616Y-116929678D01*
X139713616Y-116929679D01*
X139729283Y-116965284D01*
X139768021Y-117053322D01*
X139768560Y-117053963D01*
X139842331Y-117141725D01*
X139855478Y-117157366D01*
X139856171Y-117157828D01*
X139856173Y-117157829D01*
X139957724Y-117225426D01*
X139968622Y-117232680D01*
X139969411Y-117232926D01*
X139969414Y-117232928D01*
X139986049Y-117238125D01*
X139992924Y-117243864D01*
X139993728Y-117252782D01*
X139987989Y-117259657D01*
X139985775Y-117260543D01*
X139979255Y-117262406D01*
X139975412Y-117264831D01*
X139865011Y-117334489D01*
X139865009Y-117334491D01*
X139864305Y-117334935D01*
X139863757Y-117335556D01*
X139863753Y-117335559D01*
X139816240Y-117389359D01*
X139774332Y-117436810D01*
X139716568Y-117559843D01*
X139695657Y-117694143D01*
X138635919Y-117694143D01*
X138353671Y-117553891D01*
X138353081Y-117553577D01*
X137896795Y-117293380D01*
X137762527Y-117216813D01*
X137761958Y-117216466D01*
X137688512Y-117168834D01*
X137191613Y-116846578D01*
X137191067Y-116846202D01*
X137181942Y-116839515D01*
X136642727Y-116444357D01*
X136642207Y-116443953D01*
X136636671Y-116439388D01*
X136399871Y-116244143D01*
X142595657Y-116244143D01*
X142613280Y-116378915D01*
X142613616Y-116379678D01*
X142613616Y-116379679D01*
X142639612Y-116438758D01*
X142668021Y-116503322D01*
X142755478Y-116607366D01*
X142756171Y-116607828D01*
X142756173Y-116607829D01*
X142833178Y-116659087D01*
X142868622Y-116682680D01*
X142998356Y-116723212D01*
X143075451Y-116724625D01*
X143133421Y-116725688D01*
X143133423Y-116725688D01*
X143134252Y-116725703D01*
X143265384Y-116689952D01*
X143276826Y-116682927D01*
X143380507Y-116619267D01*
X143380508Y-116619266D01*
X143381212Y-116618834D01*
X143383385Y-116616434D01*
X143404346Y-116593276D01*
X143472423Y-116518065D01*
X143476411Y-116509835D01*
X143500875Y-116459340D01*
X143531686Y-116395747D01*
X143554236Y-116261712D01*
X143554379Y-116250000D01*
X143553540Y-116244143D01*
X143695657Y-116244143D01*
X143713280Y-116378915D01*
X143713616Y-116379678D01*
X143713616Y-116379679D01*
X143739612Y-116438758D01*
X143768021Y-116503322D01*
X143855478Y-116607366D01*
X143856171Y-116607828D01*
X143856173Y-116607829D01*
X143933178Y-116659087D01*
X143968622Y-116682680D01*
X144098356Y-116723212D01*
X144175451Y-116724625D01*
X144233421Y-116725688D01*
X144233423Y-116725688D01*
X144234252Y-116725703D01*
X144365384Y-116689952D01*
X144376826Y-116682927D01*
X144480507Y-116619267D01*
X144480508Y-116619266D01*
X144481212Y-116618834D01*
X144483385Y-116616434D01*
X144504346Y-116593276D01*
X144572423Y-116518065D01*
X144576411Y-116509835D01*
X144600875Y-116459340D01*
X144631686Y-116395747D01*
X144654236Y-116261712D01*
X144654379Y-116250000D01*
X144650900Y-116225703D01*
X144635229Y-116116279D01*
X144635111Y-116115454D01*
X144633172Y-116111190D01*
X144579197Y-115992479D01*
X144579196Y-115992478D01*
X144578854Y-115991725D01*
X144574082Y-115986187D01*
X144490675Y-115889388D01*
X144490674Y-115889387D01*
X144490132Y-115888758D01*
X144489437Y-115888307D01*
X144489434Y-115888305D01*
X144376776Y-115815284D01*
X144376077Y-115814831D01*
X144310967Y-115795359D01*
X144246657Y-115776126D01*
X144246655Y-115776126D01*
X144245857Y-115775887D01*
X144180180Y-115775485D01*
X144110774Y-115775061D01*
X144110773Y-115775061D01*
X144109941Y-115775056D01*
X144028676Y-115798282D01*
X143980052Y-115812178D01*
X143980051Y-115812179D01*
X143979255Y-115812406D01*
X143975412Y-115814831D01*
X143865011Y-115884489D01*
X143865009Y-115884491D01*
X143864305Y-115884935D01*
X143863757Y-115885556D01*
X143863753Y-115885559D01*
X143854090Y-115896501D01*
X143774332Y-115986810D01*
X143716568Y-116109843D01*
X143695657Y-116244143D01*
X143553540Y-116244143D01*
X143550900Y-116225703D01*
X143535229Y-116116279D01*
X143535111Y-116115454D01*
X143533172Y-116111190D01*
X143479197Y-115992479D01*
X143479196Y-115992478D01*
X143478854Y-115991725D01*
X143474082Y-115986187D01*
X143390675Y-115889388D01*
X143390674Y-115889387D01*
X143390132Y-115888758D01*
X143389437Y-115888307D01*
X143389434Y-115888305D01*
X143276776Y-115815284D01*
X143276077Y-115814831D01*
X143210967Y-115795359D01*
X143146657Y-115776126D01*
X143146655Y-115776126D01*
X143145857Y-115775887D01*
X143080180Y-115775485D01*
X143010774Y-115775061D01*
X143010773Y-115775061D01*
X143009941Y-115775056D01*
X142928676Y-115798282D01*
X142880052Y-115812178D01*
X142880051Y-115812179D01*
X142879255Y-115812406D01*
X142875412Y-115814831D01*
X142765011Y-115884489D01*
X142765009Y-115884491D01*
X142764305Y-115884935D01*
X142763757Y-115885556D01*
X142763753Y-115885559D01*
X142754090Y-115896501D01*
X142674332Y-115986810D01*
X142616568Y-116109843D01*
X142595657Y-116244143D01*
X136399871Y-116244143D01*
X136117707Y-116011495D01*
X136117204Y-116011056D01*
X135828730Y-115744143D01*
X136895657Y-115744143D01*
X136913280Y-115878915D01*
X136913616Y-115879678D01*
X136913616Y-115879679D01*
X136949917Y-115962178D01*
X136968021Y-116003322D01*
X136994219Y-116034489D01*
X137049596Y-116100368D01*
X137055478Y-116107366D01*
X137056171Y-116107828D01*
X137056173Y-116107829D01*
X137138250Y-116162463D01*
X137168622Y-116182680D01*
X137298356Y-116223212D01*
X137375451Y-116224625D01*
X137433421Y-116225688D01*
X137433423Y-116225688D01*
X137434252Y-116225703D01*
X137565384Y-116189952D01*
X137576826Y-116182927D01*
X137680507Y-116119267D01*
X137680508Y-116119266D01*
X137681212Y-116118834D01*
X137684272Y-116115454D01*
X137753122Y-116039388D01*
X137772423Y-116018065D01*
X137831686Y-115895747D01*
X137841147Y-115839515D01*
X137854162Y-115762152D01*
X137854236Y-115761712D01*
X137854379Y-115750000D01*
X137850543Y-115723210D01*
X137835229Y-115616279D01*
X137835111Y-115615454D01*
X137834766Y-115614695D01*
X137779197Y-115492479D01*
X137779196Y-115492478D01*
X137778854Y-115491725D01*
X137690132Y-115388758D01*
X137689437Y-115388307D01*
X137689434Y-115388305D01*
X137576776Y-115315284D01*
X137576077Y-115314831D01*
X137510967Y-115295359D01*
X137446657Y-115276126D01*
X137446655Y-115276126D01*
X137445857Y-115275887D01*
X137380180Y-115275485D01*
X137310774Y-115275061D01*
X137310773Y-115275061D01*
X137309941Y-115275056D01*
X137228676Y-115298282D01*
X137180052Y-115312178D01*
X137180051Y-115312179D01*
X137179255Y-115312406D01*
X137175412Y-115314831D01*
X137065011Y-115384489D01*
X137065009Y-115384491D01*
X137064305Y-115384935D01*
X137063757Y-115385556D01*
X137063753Y-115385559D01*
X137055443Y-115394969D01*
X136974332Y-115486810D01*
X136916568Y-115609843D01*
X136895657Y-115744143D01*
X135828730Y-115744143D01*
X135618224Y-115549370D01*
X135617747Y-115548903D01*
X135226959Y-115143559D01*
X135145916Y-115059498D01*
X135145471Y-115059009D01*
X135124778Y-115034935D01*
X134796750Y-114653322D01*
X134702326Y-114543473D01*
X134701906Y-114542954D01*
X134485994Y-114260667D01*
X134288912Y-114003000D01*
X134288526Y-114002464D01*
X134261364Y-113962406D01*
X133907004Y-113439813D01*
X133906645Y-113439250D01*
X133622907Y-112964592D01*
X133557839Y-112855740D01*
X133557515Y-112855161D01*
X133545522Y-112832220D01*
X133316510Y-112394143D01*
X144195657Y-112394143D01*
X144213280Y-112528915D01*
X144268021Y-112653322D01*
X144355478Y-112757366D01*
X144356171Y-112757828D01*
X144356173Y-112757829D01*
X144457724Y-112825426D01*
X144468622Y-112832680D01*
X144598356Y-112873212D01*
X144675451Y-112874625D01*
X144733421Y-112875688D01*
X144733423Y-112875688D01*
X144734252Y-112875703D01*
X144865384Y-112839952D01*
X144876826Y-112832927D01*
X144980507Y-112769267D01*
X144980508Y-112769266D01*
X144981212Y-112768834D01*
X144992173Y-112756725D01*
X145004346Y-112743276D01*
X145072423Y-112668065D01*
X145131686Y-112545747D01*
X145154236Y-112411712D01*
X145154379Y-112400000D01*
X145153540Y-112394143D01*
X145395657Y-112394143D01*
X145413280Y-112528915D01*
X145468021Y-112653322D01*
X145555478Y-112757366D01*
X145556171Y-112757828D01*
X145556173Y-112757829D01*
X145657724Y-112825426D01*
X145668622Y-112832680D01*
X145798356Y-112873212D01*
X145875451Y-112874625D01*
X145933421Y-112875688D01*
X145933423Y-112875688D01*
X145934252Y-112875703D01*
X146065384Y-112839952D01*
X146076826Y-112832927D01*
X146180507Y-112769267D01*
X146180508Y-112769266D01*
X146181212Y-112768834D01*
X146192173Y-112756725D01*
X146204346Y-112743276D01*
X146272423Y-112668065D01*
X146331686Y-112545747D01*
X146354236Y-112411712D01*
X146354379Y-112400000D01*
X146335111Y-112265454D01*
X146334136Y-112263309D01*
X146279197Y-112142479D01*
X146279196Y-112142478D01*
X146278854Y-112141725D01*
X146249647Y-112107829D01*
X146190675Y-112039388D01*
X146190674Y-112039387D01*
X146190132Y-112038758D01*
X146189437Y-112038307D01*
X146189434Y-112038305D01*
X146076776Y-111965284D01*
X146076077Y-111964831D01*
X146010967Y-111945359D01*
X145946657Y-111926126D01*
X145946655Y-111926126D01*
X145945857Y-111925887D01*
X145880180Y-111925485D01*
X145810774Y-111925061D01*
X145810773Y-111925061D01*
X145809941Y-111925056D01*
X145728676Y-111948282D01*
X145680052Y-111962178D01*
X145680051Y-111962179D01*
X145679255Y-111962406D01*
X145675412Y-111964831D01*
X145565011Y-112034489D01*
X145565009Y-112034491D01*
X145564305Y-112034935D01*
X145563757Y-112035556D01*
X145563753Y-112035559D01*
X145516240Y-112089359D01*
X145474332Y-112136810D01*
X145416568Y-112259843D01*
X145395657Y-112394143D01*
X145153540Y-112394143D01*
X145135111Y-112265454D01*
X145134136Y-112263309D01*
X145079197Y-112142479D01*
X145079196Y-112142478D01*
X145078854Y-112141725D01*
X145049647Y-112107829D01*
X144990675Y-112039388D01*
X144990674Y-112039387D01*
X144990132Y-112038758D01*
X144989437Y-112038307D01*
X144989434Y-112038305D01*
X144876776Y-111965284D01*
X144876077Y-111964831D01*
X144810967Y-111945359D01*
X144746657Y-111926126D01*
X144746655Y-111926126D01*
X144745857Y-111925887D01*
X144680180Y-111925485D01*
X144610774Y-111925061D01*
X144610773Y-111925061D01*
X144609941Y-111925056D01*
X144528676Y-111948282D01*
X144480052Y-111962178D01*
X144480051Y-111962179D01*
X144479255Y-111962406D01*
X144475412Y-111964831D01*
X144365011Y-112034489D01*
X144365009Y-112034491D01*
X144364305Y-112034935D01*
X144363757Y-112035556D01*
X144363753Y-112035559D01*
X144316240Y-112089359D01*
X144274332Y-112136810D01*
X144216568Y-112259843D01*
X144195657Y-112394143D01*
X133316510Y-112394143D01*
X133242573Y-112252708D01*
X133242283Y-112252113D01*
X133210892Y-112182680D01*
X133012624Y-111744143D01*
X135295657Y-111744143D01*
X135313280Y-111878915D01*
X135313616Y-111879678D01*
X135313616Y-111879679D01*
X135349917Y-111962178D01*
X135368021Y-112003322D01*
X135455478Y-112107366D01*
X135456171Y-112107828D01*
X135456173Y-112107829D01*
X135500844Y-112137564D01*
X135568622Y-112182680D01*
X135698356Y-112223212D01*
X135775451Y-112224625D01*
X135833421Y-112225688D01*
X135833423Y-112225688D01*
X135834252Y-112225703D01*
X135965384Y-112189952D01*
X135976826Y-112182927D01*
X136080507Y-112119267D01*
X136080508Y-112119266D01*
X136081212Y-112118834D01*
X136092173Y-112106725D01*
X136153122Y-112039388D01*
X136172423Y-112018065D01*
X136231686Y-111895747D01*
X136254236Y-111761712D01*
X136254379Y-111750000D01*
X136235111Y-111615454D01*
X136234766Y-111614695D01*
X136179197Y-111492479D01*
X136179196Y-111492478D01*
X136178854Y-111491725D01*
X136090132Y-111388758D01*
X136089437Y-111388307D01*
X136089434Y-111388305D01*
X136006339Y-111334446D01*
X136001261Y-111327071D01*
X136002885Y-111318264D01*
X136006581Y-111314657D01*
X136080507Y-111269267D01*
X136080508Y-111269266D01*
X136081212Y-111268834D01*
X136092173Y-111256725D01*
X136104346Y-111243276D01*
X136172423Y-111168065D01*
X136205400Y-111100000D01*
X137679577Y-111100000D01*
X137699184Y-111248930D01*
X137756669Y-111387711D01*
X137848114Y-111506886D01*
X137967288Y-111598331D01*
X138106070Y-111655816D01*
X138255000Y-111675423D01*
X138403930Y-111655816D01*
X138542712Y-111598331D01*
X138661886Y-111506886D01*
X138753331Y-111387711D01*
X138810816Y-111248930D01*
X138830423Y-111100000D01*
X140579577Y-111100000D01*
X140599184Y-111248930D01*
X140656669Y-111387711D01*
X140748114Y-111506886D01*
X140867288Y-111598331D01*
X141006070Y-111655816D01*
X141155000Y-111675423D01*
X141303930Y-111655816D01*
X141442712Y-111598331D01*
X141561886Y-111506886D01*
X141653331Y-111387711D01*
X141710816Y-111248930D01*
X141730423Y-111100000D01*
X141710816Y-110951070D01*
X141653331Y-110812289D01*
X141648690Y-110806240D01*
X141562354Y-110693724D01*
X141561886Y-110693114D01*
X141494096Y-110641097D01*
X141443326Y-110602140D01*
X141443325Y-110602140D01*
X141442712Y-110601669D01*
X141303930Y-110544184D01*
X141155000Y-110524577D01*
X141006070Y-110544184D01*
X140867289Y-110601669D01*
X140748114Y-110693114D01*
X140747646Y-110693724D01*
X140661311Y-110806240D01*
X140656669Y-110812289D01*
X140599184Y-110951070D01*
X140579577Y-111100000D01*
X138830423Y-111100000D01*
X138810816Y-110951070D01*
X138753331Y-110812289D01*
X138748690Y-110806240D01*
X138662354Y-110693724D01*
X138661886Y-110693114D01*
X138594096Y-110641097D01*
X138543326Y-110602140D01*
X138543325Y-110602140D01*
X138542712Y-110601669D01*
X138403930Y-110544184D01*
X138255000Y-110524577D01*
X138106070Y-110544184D01*
X137967289Y-110601669D01*
X137848114Y-110693114D01*
X137847646Y-110693724D01*
X137761311Y-110806240D01*
X137756669Y-110812289D01*
X137699184Y-110951070D01*
X137679577Y-111100000D01*
X136205400Y-111100000D01*
X136231686Y-111045747D01*
X136233993Y-111032038D01*
X136254162Y-110912152D01*
X136254236Y-110911712D01*
X136254379Y-110900000D01*
X136235111Y-110765454D01*
X136234766Y-110764695D01*
X136179197Y-110642479D01*
X136179196Y-110642478D01*
X136178854Y-110641725D01*
X136174082Y-110636187D01*
X136090675Y-110539388D01*
X136090674Y-110539387D01*
X136090132Y-110538758D01*
X136089437Y-110538307D01*
X136089434Y-110538305D01*
X136006339Y-110484446D01*
X136001261Y-110477071D01*
X136002885Y-110468264D01*
X136006581Y-110464657D01*
X136080507Y-110419267D01*
X136080508Y-110419266D01*
X136081212Y-110418834D01*
X136087659Y-110411712D01*
X136107155Y-110390172D01*
X136172423Y-110318065D01*
X136231686Y-110195747D01*
X136239614Y-110148627D01*
X136254162Y-110062152D01*
X136254236Y-110061712D01*
X136254379Y-110050000D01*
X136235111Y-109915454D01*
X136234766Y-109914695D01*
X136179197Y-109792479D01*
X136179196Y-109792478D01*
X136178854Y-109791725D01*
X136121777Y-109725484D01*
X136090675Y-109689388D01*
X136090674Y-109689387D01*
X136090132Y-109688758D01*
X136089437Y-109688307D01*
X136089434Y-109688305D01*
X136030336Y-109650000D01*
X139129577Y-109650000D01*
X139149184Y-109798930D01*
X139206669Y-109937711D01*
X139207140Y-109938324D01*
X139207140Y-109938325D01*
X139224742Y-109961265D01*
X139298114Y-110056886D01*
X139298724Y-110057354D01*
X139401462Y-110136187D01*
X139417288Y-110148331D01*
X139556070Y-110205816D01*
X139705000Y-110225423D01*
X139853930Y-110205816D01*
X139992712Y-110148331D01*
X140008539Y-110136187D01*
X140111276Y-110057354D01*
X140111886Y-110056886D01*
X140185258Y-109961265D01*
X140198396Y-109944143D01*
X143245657Y-109944143D01*
X143263280Y-110078915D01*
X143263616Y-110079678D01*
X143263616Y-110079679D01*
X143288755Y-110136810D01*
X143318021Y-110203322D01*
X143329781Y-110217312D01*
X143402618Y-110303963D01*
X143405478Y-110307366D01*
X143406171Y-110307828D01*
X143406173Y-110307829D01*
X143468128Y-110349069D01*
X143518622Y-110382680D01*
X143648356Y-110423212D01*
X143725451Y-110424625D01*
X143783421Y-110425688D01*
X143783423Y-110425688D01*
X143784252Y-110425703D01*
X143915384Y-110389952D01*
X143926826Y-110382927D01*
X144030507Y-110319267D01*
X144030508Y-110319266D01*
X144031212Y-110318834D01*
X144042173Y-110306725D01*
X144083862Y-110260667D01*
X144122423Y-110218065D01*
X144181686Y-110095747D01*
X144189383Y-110050000D01*
X144204162Y-109962152D01*
X144204236Y-109961712D01*
X144204379Y-109950000D01*
X144185111Y-109815454D01*
X144184766Y-109814695D01*
X144129197Y-109692479D01*
X144129196Y-109692478D01*
X144128854Y-109691725D01*
X144126840Y-109689388D01*
X144040675Y-109589388D01*
X144040674Y-109589387D01*
X144040132Y-109588758D01*
X144039437Y-109588307D01*
X144039434Y-109588305D01*
X143956339Y-109534446D01*
X143951261Y-109527071D01*
X143952885Y-109518264D01*
X143956581Y-109514657D01*
X144030507Y-109469267D01*
X144030508Y-109469266D01*
X144031212Y-109468834D01*
X144042173Y-109456725D01*
X144054346Y-109443276D01*
X144122423Y-109368065D01*
X144125222Y-109362289D01*
X144154162Y-109302556D01*
X144181686Y-109245747D01*
X144181956Y-109244143D01*
X145445657Y-109244143D01*
X145463280Y-109378915D01*
X145463616Y-109379678D01*
X145463616Y-109379679D01*
X145497518Y-109456725D01*
X145518021Y-109503322D01*
X145529781Y-109517312D01*
X145589837Y-109588758D01*
X145605478Y-109607366D01*
X145606171Y-109607828D01*
X145606173Y-109607829D01*
X145707724Y-109675426D01*
X145718622Y-109682680D01*
X145848356Y-109723212D01*
X145925451Y-109724625D01*
X145983421Y-109725688D01*
X145983423Y-109725688D01*
X145984252Y-109725703D01*
X146115384Y-109689952D01*
X146118067Y-109688305D01*
X146230507Y-109619267D01*
X146230508Y-109619266D01*
X146231212Y-109618834D01*
X146234836Y-109614831D01*
X146270833Y-109575061D01*
X146322423Y-109518065D01*
X146381686Y-109395747D01*
X146388953Y-109352556D01*
X146404162Y-109262152D01*
X146404236Y-109261712D01*
X146404379Y-109250000D01*
X146401360Y-109228915D01*
X146390255Y-109151373D01*
X146385111Y-109115454D01*
X146383206Y-109111265D01*
X146352687Y-109044143D01*
X151995657Y-109044143D01*
X152013280Y-109178915D01*
X152013616Y-109179678D01*
X152013616Y-109179679D01*
X152041620Y-109243322D01*
X152068021Y-109303322D01*
X152068560Y-109303963D01*
X152121810Y-109367312D01*
X152155478Y-109407366D01*
X152156171Y-109407828D01*
X152156173Y-109407829D01*
X152229630Y-109456725D01*
X152268622Y-109482680D01*
X152398356Y-109523212D01*
X152475451Y-109524625D01*
X152533421Y-109525688D01*
X152533423Y-109525688D01*
X152534252Y-109525703D01*
X152665384Y-109489952D01*
X152676826Y-109482927D01*
X152780507Y-109419267D01*
X152780508Y-109419266D01*
X152781212Y-109418834D01*
X152792173Y-109406725D01*
X152826605Y-109368684D01*
X152872423Y-109318065D01*
X152931686Y-109195747D01*
X152939023Y-109152140D01*
X152954162Y-109062152D01*
X152954236Y-109061712D01*
X152954379Y-109050000D01*
X152945241Y-108986187D01*
X152944509Y-108981078D01*
X152935111Y-108915454D01*
X152934766Y-108914695D01*
X152879197Y-108792479D01*
X152879196Y-108792478D01*
X152878854Y-108791725D01*
X152864721Y-108775323D01*
X152790675Y-108689388D01*
X152790674Y-108689387D01*
X152790132Y-108688758D01*
X152789437Y-108688307D01*
X152789434Y-108688305D01*
X152676776Y-108615284D01*
X152676077Y-108614831D01*
X152610967Y-108595359D01*
X152546657Y-108576126D01*
X152546655Y-108576126D01*
X152545857Y-108575887D01*
X152480180Y-108575485D01*
X152410774Y-108575061D01*
X152410773Y-108575061D01*
X152409941Y-108575056D01*
X152328676Y-108598282D01*
X152280052Y-108612178D01*
X152280051Y-108612179D01*
X152279255Y-108612406D01*
X152275412Y-108614831D01*
X152165011Y-108684489D01*
X152165009Y-108684491D01*
X152164305Y-108684935D01*
X152163757Y-108685556D01*
X152163753Y-108685559D01*
X152120540Y-108734489D01*
X152074332Y-108786810D01*
X152016568Y-108909843D01*
X151995657Y-109044143D01*
X146352687Y-109044143D01*
X146329197Y-108992479D01*
X146329196Y-108992478D01*
X146328854Y-108991725D01*
X146306928Y-108966279D01*
X146240675Y-108889388D01*
X146240674Y-108889387D01*
X146240132Y-108888758D01*
X146239437Y-108888307D01*
X146239434Y-108888305D01*
X146126776Y-108815284D01*
X146126077Y-108814831D01*
X146046716Y-108791097D01*
X145996657Y-108776126D01*
X145996655Y-108776126D01*
X145995857Y-108775887D01*
X145930180Y-108775485D01*
X145860774Y-108775061D01*
X145860773Y-108775061D01*
X145859941Y-108775056D01*
X145801617Y-108791725D01*
X145730052Y-108812178D01*
X145730051Y-108812179D01*
X145729255Y-108812406D01*
X145725412Y-108814831D01*
X145615011Y-108884489D01*
X145615009Y-108884491D01*
X145614305Y-108884935D01*
X145613757Y-108885556D01*
X145613753Y-108885559D01*
X145586623Y-108916279D01*
X145524332Y-108986810D01*
X145466568Y-109109843D01*
X145445657Y-109244143D01*
X144181956Y-109244143D01*
X144182027Y-109243724D01*
X144204162Y-109112152D01*
X144204236Y-109111712D01*
X144204379Y-109100000D01*
X144197156Y-109049559D01*
X144185229Y-108966279D01*
X144185111Y-108965454D01*
X144184766Y-108964695D01*
X144129197Y-108842479D01*
X144129196Y-108842478D01*
X144128854Y-108841725D01*
X144081536Y-108786810D01*
X144040675Y-108739388D01*
X144040674Y-108739387D01*
X144040132Y-108738758D01*
X144039437Y-108738307D01*
X144039434Y-108738305D01*
X143926776Y-108665284D01*
X143926077Y-108664831D01*
X143860967Y-108645359D01*
X143796657Y-108626126D01*
X143796655Y-108626126D01*
X143795857Y-108625887D01*
X143730180Y-108625485D01*
X143660774Y-108625061D01*
X143660773Y-108625061D01*
X143659941Y-108625056D01*
X143578676Y-108648282D01*
X143530052Y-108662178D01*
X143530051Y-108662179D01*
X143529255Y-108662406D01*
X143525412Y-108664831D01*
X143415011Y-108734489D01*
X143415009Y-108734491D01*
X143414305Y-108734935D01*
X143413757Y-108735556D01*
X143413753Y-108735559D01*
X143367825Y-108787564D01*
X143324332Y-108836810D01*
X143266568Y-108959843D01*
X143245657Y-109094143D01*
X143263280Y-109228915D01*
X143263616Y-109229678D01*
X143263616Y-109229679D01*
X143270323Y-109244922D01*
X143318021Y-109353322D01*
X143405478Y-109457366D01*
X143406171Y-109457828D01*
X143406173Y-109457829D01*
X143493133Y-109515714D01*
X143498121Y-109523151D01*
X143496390Y-109531937D01*
X143492893Y-109535349D01*
X143415011Y-109584489D01*
X143415009Y-109584491D01*
X143414305Y-109584935D01*
X143413757Y-109585556D01*
X143413753Y-109585559D01*
X143384366Y-109618834D01*
X143324332Y-109686810D01*
X143266568Y-109809843D01*
X143245657Y-109944143D01*
X140198396Y-109944143D01*
X140202860Y-109938325D01*
X140202860Y-109938324D01*
X140203331Y-109937711D01*
X140260816Y-109798930D01*
X140280423Y-109650000D01*
X140260816Y-109501070D01*
X140203331Y-109362289D01*
X140196451Y-109353322D01*
X140112354Y-109243724D01*
X140111886Y-109243114D01*
X140072348Y-109212775D01*
X139993326Y-109152140D01*
X139993325Y-109152140D01*
X139992712Y-109151669D01*
X139853930Y-109094184D01*
X139705000Y-109074577D01*
X139556070Y-109094184D01*
X139417289Y-109151669D01*
X139298114Y-109243114D01*
X139297646Y-109243724D01*
X139213550Y-109353322D01*
X139206669Y-109362289D01*
X139149184Y-109501070D01*
X139129577Y-109650000D01*
X136030336Y-109650000D01*
X135976776Y-109615284D01*
X135976077Y-109614831D01*
X135910967Y-109595359D01*
X135846657Y-109576126D01*
X135846655Y-109576126D01*
X135845857Y-109575887D01*
X135780180Y-109575485D01*
X135710774Y-109575061D01*
X135710773Y-109575061D01*
X135709941Y-109575056D01*
X135659794Y-109589388D01*
X135580052Y-109612178D01*
X135580051Y-109612179D01*
X135579255Y-109612406D01*
X135569067Y-109618834D01*
X135465011Y-109684489D01*
X135465009Y-109684491D01*
X135464305Y-109684935D01*
X135463757Y-109685556D01*
X135463753Y-109685559D01*
X135428493Y-109725484D01*
X135374332Y-109786810D01*
X135316568Y-109909843D01*
X135295657Y-110044143D01*
X135313280Y-110178915D01*
X135313616Y-110179678D01*
X135313616Y-110179679D01*
X135355154Y-110274079D01*
X135368021Y-110303322D01*
X135379781Y-110317312D01*
X135448916Y-110399559D01*
X135455478Y-110407366D01*
X135456171Y-110407828D01*
X135456173Y-110407829D01*
X135543133Y-110465714D01*
X135548121Y-110473151D01*
X135546390Y-110481937D01*
X135542893Y-110485349D01*
X135465011Y-110534489D01*
X135465009Y-110534491D01*
X135464305Y-110534935D01*
X135463757Y-110535556D01*
X135463753Y-110535559D01*
X135454090Y-110546501D01*
X135374332Y-110636810D01*
X135316568Y-110759843D01*
X135295657Y-110894143D01*
X135313280Y-111028915D01*
X135368021Y-111153322D01*
X135455478Y-111257366D01*
X135456171Y-111257828D01*
X135456173Y-111257829D01*
X135543133Y-111315714D01*
X135548121Y-111323151D01*
X135546390Y-111331937D01*
X135542893Y-111335349D01*
X135465011Y-111384489D01*
X135465009Y-111384491D01*
X135464305Y-111384935D01*
X135463757Y-111385556D01*
X135463753Y-111385559D01*
X135416240Y-111439359D01*
X135374332Y-111486810D01*
X135316568Y-111609843D01*
X135295657Y-111744143D01*
X133012624Y-111744143D01*
X132962230Y-111632680D01*
X132961974Y-111632069D01*
X132953417Y-111609843D01*
X132717709Y-110997645D01*
X132717491Y-110997026D01*
X132702520Y-110950358D01*
X132611714Y-110667312D01*
X132509823Y-110349710D01*
X132509638Y-110349069D01*
X132404794Y-109944143D01*
X132339242Y-109690967D01*
X132339096Y-109690330D01*
X132338784Y-109688758D01*
X132251633Y-109250447D01*
X132206526Y-109023584D01*
X132206414Y-109022925D01*
X132112098Y-108349694D01*
X132112024Y-108349031D01*
X132099760Y-108200000D01*
X137679577Y-108200000D01*
X137699184Y-108348930D01*
X137756669Y-108487711D01*
X137848114Y-108606886D01*
X137967288Y-108698331D01*
X138106070Y-108755816D01*
X138232282Y-108772432D01*
X138253952Y-108775285D01*
X138255000Y-108775423D01*
X138256049Y-108775285D01*
X138277718Y-108772432D01*
X138403930Y-108755816D01*
X138542712Y-108698331D01*
X138661886Y-108606886D01*
X138753331Y-108487711D01*
X138810816Y-108348930D01*
X138830423Y-108200000D01*
X140579577Y-108200000D01*
X140599184Y-108348930D01*
X140656669Y-108487711D01*
X140748114Y-108606886D01*
X140867288Y-108698331D01*
X141006070Y-108755816D01*
X141132282Y-108772432D01*
X141153952Y-108775285D01*
X141155000Y-108775423D01*
X141156049Y-108775285D01*
X141177718Y-108772432D01*
X141303930Y-108755816D01*
X141442712Y-108698331D01*
X141561886Y-108606886D01*
X141653331Y-108487711D01*
X141710816Y-108348930D01*
X141730423Y-108200000D01*
X141710816Y-108051070D01*
X141653331Y-107912289D01*
X141649554Y-107907366D01*
X141562354Y-107793724D01*
X141561886Y-107793114D01*
X141442712Y-107701669D01*
X141303930Y-107644184D01*
X141155000Y-107624577D01*
X141006070Y-107644184D01*
X140867289Y-107701669D01*
X140748114Y-107793114D01*
X140747646Y-107793724D01*
X140660447Y-107907366D01*
X140656669Y-107912289D01*
X140599184Y-108051070D01*
X140579577Y-108200000D01*
X138830423Y-108200000D01*
X138810816Y-108051070D01*
X138753331Y-107912289D01*
X138749554Y-107907366D01*
X138662354Y-107793724D01*
X138661886Y-107793114D01*
X138542712Y-107701669D01*
X138403930Y-107644184D01*
X138255000Y-107624577D01*
X138106070Y-107644184D01*
X137967289Y-107701669D01*
X137848114Y-107793114D01*
X137847646Y-107793724D01*
X137760447Y-107907366D01*
X137756669Y-107912289D01*
X137699184Y-108051070D01*
X137679577Y-108200000D01*
X132099760Y-108200000D01*
X132087446Y-108050358D01*
X132056269Y-107671489D01*
X132056235Y-107670833D01*
X132053516Y-107562152D01*
X132046767Y-107292479D01*
X132041804Y-107094143D01*
X141725657Y-107094143D01*
X141743280Y-107228915D01*
X141743616Y-107229678D01*
X141743616Y-107229679D01*
X141768755Y-107286810D01*
X141798021Y-107353322D01*
X141885478Y-107457366D01*
X141886171Y-107457828D01*
X141886173Y-107457829D01*
X141987724Y-107525426D01*
X141998622Y-107532680D01*
X142128356Y-107573212D01*
X142205451Y-107574625D01*
X142263421Y-107575688D01*
X142263423Y-107575688D01*
X142264252Y-107575703D01*
X142380012Y-107544143D01*
X149495657Y-107544143D01*
X149513280Y-107678915D01*
X149568021Y-107803322D01*
X149655478Y-107907366D01*
X149656171Y-107907828D01*
X149656173Y-107907829D01*
X149757724Y-107975426D01*
X149768622Y-107982680D01*
X149898356Y-108023212D01*
X149975451Y-108024625D01*
X150033421Y-108025688D01*
X150033423Y-108025688D01*
X150034252Y-108025703D01*
X150165384Y-107989952D01*
X150176826Y-107982927D01*
X150280507Y-107919267D01*
X150280508Y-107919266D01*
X150281212Y-107918834D01*
X150292173Y-107906725D01*
X150304346Y-107893276D01*
X150372423Y-107818065D01*
X150431686Y-107695747D01*
X150454236Y-107561712D01*
X150454379Y-107550000D01*
X150452878Y-107539515D01*
X150435229Y-107416279D01*
X150435111Y-107415454D01*
X150434766Y-107414695D01*
X150379197Y-107292479D01*
X150379196Y-107292478D01*
X150378854Y-107291725D01*
X150333867Y-107239515D01*
X150290675Y-107189388D01*
X150290674Y-107189387D01*
X150290132Y-107188758D01*
X150289437Y-107188307D01*
X150289434Y-107188305D01*
X150176776Y-107115284D01*
X150176077Y-107114831D01*
X150104156Y-107093322D01*
X150046657Y-107076126D01*
X150046655Y-107076126D01*
X150045857Y-107075887D01*
X149980180Y-107075485D01*
X149910774Y-107075061D01*
X149910773Y-107075061D01*
X149909941Y-107075056D01*
X149840266Y-107094969D01*
X149780052Y-107112178D01*
X149780051Y-107112179D01*
X149779255Y-107112406D01*
X149775412Y-107114831D01*
X149665011Y-107184489D01*
X149665009Y-107184491D01*
X149664305Y-107184935D01*
X149663757Y-107185556D01*
X149663753Y-107185559D01*
X149625463Y-107228915D01*
X149574332Y-107286810D01*
X149516568Y-107409843D01*
X149495657Y-107544143D01*
X142380012Y-107544143D01*
X142395384Y-107539952D01*
X142406826Y-107532927D01*
X142510507Y-107469267D01*
X142510508Y-107469266D01*
X142511212Y-107468834D01*
X142522173Y-107456725D01*
X142563862Y-107410667D01*
X142602423Y-107368065D01*
X142661686Y-107245747D01*
X142662735Y-107239515D01*
X142684162Y-107112152D01*
X142684236Y-107111712D01*
X142684379Y-107100000D01*
X142665111Y-106965454D01*
X142664766Y-106964695D01*
X142609197Y-106842479D01*
X142609196Y-106842478D01*
X142608854Y-106841725D01*
X142573287Y-106800447D01*
X142567855Y-106794143D01*
X150995657Y-106794143D01*
X151013280Y-106928915D01*
X151068021Y-107053322D01*
X151155478Y-107157366D01*
X151156171Y-107157828D01*
X151156173Y-107157829D01*
X151257724Y-107225426D01*
X151268622Y-107232680D01*
X151398356Y-107273212D01*
X151475451Y-107274625D01*
X151533421Y-107275688D01*
X151533423Y-107275688D01*
X151534252Y-107275703D01*
X151665384Y-107239952D01*
X151676826Y-107232927D01*
X151780507Y-107169267D01*
X151780508Y-107169266D01*
X151781212Y-107168834D01*
X151792173Y-107156725D01*
X151804346Y-107143276D01*
X151872423Y-107068065D01*
X151931686Y-106945747D01*
X151954236Y-106811712D01*
X151954379Y-106800000D01*
X151935111Y-106665454D01*
X151933725Y-106662406D01*
X151879197Y-106542479D01*
X151879196Y-106542478D01*
X151878854Y-106541725D01*
X151821308Y-106474939D01*
X151790675Y-106439388D01*
X151790674Y-106439387D01*
X151790132Y-106438758D01*
X151789437Y-106438307D01*
X151789434Y-106438305D01*
X151676776Y-106365284D01*
X151676077Y-106364831D01*
X151610967Y-106345359D01*
X151546657Y-106326126D01*
X151546655Y-106326126D01*
X151545857Y-106325887D01*
X151480180Y-106325485D01*
X151410774Y-106325061D01*
X151410773Y-106325061D01*
X151409941Y-106325056D01*
X151328676Y-106348282D01*
X151280052Y-106362178D01*
X151280051Y-106362179D01*
X151279255Y-106362406D01*
X151269067Y-106368834D01*
X151165011Y-106434489D01*
X151165009Y-106434491D01*
X151164305Y-106434935D01*
X151163757Y-106435556D01*
X151163753Y-106435559D01*
X151128493Y-106475484D01*
X151074332Y-106536810D01*
X151016568Y-106659843D01*
X150995657Y-106794143D01*
X142567855Y-106794143D01*
X142520675Y-106739388D01*
X142520674Y-106739387D01*
X142520132Y-106738758D01*
X142519437Y-106738307D01*
X142519434Y-106738305D01*
X142406776Y-106665284D01*
X142406077Y-106664831D01*
X142340967Y-106645359D01*
X142276657Y-106626126D01*
X142276655Y-106626126D01*
X142275857Y-106625887D01*
X142210180Y-106625485D01*
X142140774Y-106625061D01*
X142140773Y-106625061D01*
X142139941Y-106625056D01*
X142058676Y-106648282D01*
X142010052Y-106662178D01*
X142010051Y-106662179D01*
X142009255Y-106662406D01*
X142005627Y-106664695D01*
X141895011Y-106734489D01*
X141895009Y-106734491D01*
X141894305Y-106734935D01*
X141893757Y-106735556D01*
X141893753Y-106735559D01*
X141846240Y-106789359D01*
X141804332Y-106836810D01*
X141746568Y-106959843D01*
X141725657Y-107094143D01*
X132041804Y-107094143D01*
X132039230Y-106991262D01*
X132039232Y-106990594D01*
X132061025Y-106311143D01*
X132061065Y-106310476D01*
X132089341Y-105994143D01*
X132121592Y-105633347D01*
X132121670Y-105632691D01*
X132128449Y-105586665D01*
X134334994Y-105586665D01*
X134335042Y-105587237D01*
X134347867Y-105739958D01*
X134350592Y-105772414D01*
X134350749Y-105772961D01*
X134350749Y-105772962D01*
X134358572Y-105800245D01*
X134401971Y-105951595D01*
X134487176Y-106117385D01*
X134602959Y-106263468D01*
X134603396Y-106263840D01*
X134603397Y-106263841D01*
X134608360Y-106268065D01*
X134744912Y-106384279D01*
X134907627Y-106475217D01*
X134908166Y-106475392D01*
X134908168Y-106475393D01*
X134953746Y-106490202D01*
X135084907Y-106532819D01*
X135269998Y-106554890D01*
X135270558Y-106554847D01*
X135270560Y-106554847D01*
X135455281Y-106540633D01*
X135455282Y-106540633D01*
X135455851Y-106540589D01*
X135635387Y-106490462D01*
X135665039Y-106475484D01*
X135778388Y-106418227D01*
X135801768Y-106406417D01*
X135948655Y-106291656D01*
X136070454Y-106150550D01*
X136149579Y-106011265D01*
X136159306Y-105994143D01*
X140775657Y-105994143D01*
X140793280Y-106128915D01*
X140848021Y-106253322D01*
X140935478Y-106357366D01*
X140936171Y-106357828D01*
X140936173Y-106357829D01*
X141026909Y-106418227D01*
X141048622Y-106432680D01*
X141178356Y-106473212D01*
X141255451Y-106474625D01*
X141313421Y-106475688D01*
X141313423Y-106475688D01*
X141314252Y-106475703D01*
X141445384Y-106439952D01*
X141448067Y-106438305D01*
X141560507Y-106369267D01*
X141560508Y-106369266D01*
X141561212Y-106368834D01*
X141564836Y-106364831D01*
X141600833Y-106325061D01*
X141652423Y-106268065D01*
X141711686Y-106145747D01*
X141716458Y-106117385D01*
X141717713Y-106109923D01*
X141722465Y-106102333D01*
X141731192Y-106100326D01*
X141738782Y-106105078D01*
X141740852Y-106110347D01*
X141743280Y-106128915D01*
X141798021Y-106253322D01*
X141885478Y-106357366D01*
X141886171Y-106357828D01*
X141886173Y-106357829D01*
X141976909Y-106418227D01*
X141998622Y-106432680D01*
X142128356Y-106473212D01*
X142205451Y-106474625D01*
X142263421Y-106475688D01*
X142263423Y-106475688D01*
X142264252Y-106475703D01*
X142395384Y-106439952D01*
X142398067Y-106438305D01*
X142510507Y-106369267D01*
X142510508Y-106369266D01*
X142511212Y-106368834D01*
X142514836Y-106364831D01*
X142550833Y-106325061D01*
X142602423Y-106268065D01*
X142661686Y-106145747D01*
X142680702Y-106032721D01*
X142684162Y-106012152D01*
X142684236Y-106011712D01*
X142684379Y-106000000D01*
X142683541Y-105994143D01*
X146895657Y-105994143D01*
X146913280Y-106128915D01*
X146968021Y-106253322D01*
X147055478Y-106357366D01*
X147056171Y-106357828D01*
X147056173Y-106357829D01*
X147146909Y-106418227D01*
X147168622Y-106432680D01*
X147298356Y-106473212D01*
X147375451Y-106474625D01*
X147433421Y-106475688D01*
X147433423Y-106475688D01*
X147434252Y-106475703D01*
X147565384Y-106439952D01*
X147568067Y-106438305D01*
X147680507Y-106369267D01*
X147680508Y-106369266D01*
X147681212Y-106368834D01*
X147684836Y-106364831D01*
X147720833Y-106325061D01*
X147772423Y-106268065D01*
X147831686Y-106145747D01*
X147850702Y-106032721D01*
X147854162Y-106012152D01*
X147854236Y-106011712D01*
X147854379Y-106000000D01*
X147852729Y-105988474D01*
X147840083Y-105900174D01*
X147835111Y-105865454D01*
X147834766Y-105864695D01*
X147779197Y-105742479D01*
X147779196Y-105742478D01*
X147778854Y-105741725D01*
X147778313Y-105741097D01*
X147690675Y-105639388D01*
X147690674Y-105639387D01*
X147690132Y-105638758D01*
X147689437Y-105638307D01*
X147689434Y-105638305D01*
X147576776Y-105565284D01*
X147576077Y-105564831D01*
X147510967Y-105545359D01*
X147446657Y-105526126D01*
X147446655Y-105526126D01*
X147445857Y-105525887D01*
X147380180Y-105525485D01*
X147310774Y-105525061D01*
X147310773Y-105525061D01*
X147309941Y-105525056D01*
X147228676Y-105548282D01*
X147180052Y-105562178D01*
X147180051Y-105562179D01*
X147179255Y-105562406D01*
X147175412Y-105564831D01*
X147065011Y-105634489D01*
X147065009Y-105634491D01*
X147064305Y-105634935D01*
X147063757Y-105635556D01*
X147063753Y-105635559D01*
X147023929Y-105680652D01*
X146974332Y-105736810D01*
X146916568Y-105859843D01*
X146895657Y-105994143D01*
X142683541Y-105994143D01*
X142682729Y-105988474D01*
X142670083Y-105900174D01*
X142665111Y-105865454D01*
X142664766Y-105864695D01*
X142609197Y-105742479D01*
X142609196Y-105742478D01*
X142608854Y-105741725D01*
X142608313Y-105741097D01*
X142520675Y-105639388D01*
X142520674Y-105639387D01*
X142520132Y-105638758D01*
X142519437Y-105638307D01*
X142519434Y-105638305D01*
X142406776Y-105565284D01*
X142406077Y-105564831D01*
X142340967Y-105545359D01*
X142276657Y-105526126D01*
X142276655Y-105526126D01*
X142275857Y-105525887D01*
X142210180Y-105525485D01*
X142140774Y-105525061D01*
X142140773Y-105525061D01*
X142139941Y-105525056D01*
X142058676Y-105548282D01*
X142010052Y-105562178D01*
X142010051Y-105562179D01*
X142009255Y-105562406D01*
X142005412Y-105564831D01*
X141895011Y-105634489D01*
X141895009Y-105634491D01*
X141894305Y-105634935D01*
X141893757Y-105635556D01*
X141893753Y-105635559D01*
X141853929Y-105680652D01*
X141804332Y-105736810D01*
X141746568Y-105859843D01*
X141745566Y-105866279D01*
X141741808Y-105890413D01*
X141737149Y-105898061D01*
X141728447Y-105900174D01*
X141720799Y-105895515D01*
X141718665Y-105890272D01*
X141715229Y-105866279D01*
X141715111Y-105865454D01*
X141714766Y-105864695D01*
X141659197Y-105742479D01*
X141659196Y-105742478D01*
X141658854Y-105741725D01*
X141658313Y-105741097D01*
X141570675Y-105639388D01*
X141570674Y-105639387D01*
X141570132Y-105638758D01*
X141569437Y-105638307D01*
X141569434Y-105638305D01*
X141456776Y-105565284D01*
X141456077Y-105564831D01*
X141390967Y-105545359D01*
X141326657Y-105526126D01*
X141326655Y-105526126D01*
X141325857Y-105525887D01*
X141260180Y-105525485D01*
X141190774Y-105525061D01*
X141190773Y-105525061D01*
X141189941Y-105525056D01*
X141108676Y-105548282D01*
X141060052Y-105562178D01*
X141060051Y-105562179D01*
X141059255Y-105562406D01*
X141055412Y-105564831D01*
X140945011Y-105634489D01*
X140945009Y-105634491D01*
X140944305Y-105634935D01*
X140943757Y-105635556D01*
X140943753Y-105635559D01*
X140903929Y-105680652D01*
X140854332Y-105736810D01*
X140796568Y-105859843D01*
X140775657Y-105994143D01*
X136159306Y-105994143D01*
X136162243Y-105988973D01*
X136162245Y-105988969D01*
X136162526Y-105988474D01*
X136168506Y-105970500D01*
X136221185Y-105812140D01*
X136221186Y-105812137D01*
X136221364Y-105811601D01*
X136243739Y-105634489D01*
X136244686Y-105626996D01*
X136244727Y-105626668D01*
X136245099Y-105600000D01*
X136226909Y-105414487D01*
X136173033Y-105236040D01*
X136172761Y-105235528D01*
X136085792Y-105071963D01*
X136085790Y-105071960D01*
X136085522Y-105071456D01*
X136080701Y-105065544D01*
X135968069Y-104927445D01*
X135968068Y-104927444D01*
X135967710Y-104927005D01*
X135834621Y-104816903D01*
X151029500Y-104816903D01*
X151029501Y-105583096D01*
X151045095Y-105681562D01*
X151105567Y-105800245D01*
X151199755Y-105894433D01*
X151318438Y-105954905D01*
X151416903Y-105970500D01*
X152074285Y-105970500D01*
X152733096Y-105970499D01*
X152831562Y-105954905D01*
X152950245Y-105894433D01*
X153044433Y-105800245D01*
X153104905Y-105681562D01*
X153120500Y-105583097D01*
X153120499Y-104816904D01*
X153119119Y-104808187D01*
X153105049Y-104719348D01*
X153104905Y-104718438D01*
X153044433Y-104599755D01*
X152950245Y-104505567D01*
X152927824Y-104494143D01*
X154195657Y-104494143D01*
X154213280Y-104628915D01*
X154213616Y-104629678D01*
X154213616Y-104629679D01*
X154253072Y-104719348D01*
X154268021Y-104753322D01*
X154355478Y-104857366D01*
X154356171Y-104857828D01*
X154356173Y-104857829D01*
X154445979Y-104917608D01*
X154468622Y-104932680D01*
X154598356Y-104973212D01*
X154675451Y-104974625D01*
X154733421Y-104975688D01*
X154733423Y-104975688D01*
X154734252Y-104975703D01*
X154865384Y-104939952D01*
X154876826Y-104932927D01*
X154980507Y-104869267D01*
X154980508Y-104869266D01*
X154981212Y-104868834D01*
X154992173Y-104856725D01*
X155035779Y-104808549D01*
X155072423Y-104768065D01*
X155131686Y-104645747D01*
X155154236Y-104511712D01*
X155154379Y-104500000D01*
X155150900Y-104475703D01*
X155135229Y-104366279D01*
X155135111Y-104365454D01*
X155134766Y-104364695D01*
X155079197Y-104242479D01*
X155079196Y-104242478D01*
X155078854Y-104241725D01*
X155070790Y-104232366D01*
X154990675Y-104139388D01*
X154990674Y-104139387D01*
X154990132Y-104138758D01*
X154989437Y-104138307D01*
X154989434Y-104138305D01*
X154876776Y-104065284D01*
X154876077Y-104064831D01*
X154810967Y-104045359D01*
X154746657Y-104026126D01*
X154746655Y-104026126D01*
X154745857Y-104025887D01*
X154680180Y-104025485D01*
X154610774Y-104025061D01*
X154610773Y-104025061D01*
X154609941Y-104025056D01*
X154528676Y-104048282D01*
X154480052Y-104062178D01*
X154480051Y-104062179D01*
X154479255Y-104062406D01*
X154475412Y-104064831D01*
X154365011Y-104134489D01*
X154365009Y-104134491D01*
X154364305Y-104134935D01*
X154363757Y-104135556D01*
X154363753Y-104135559D01*
X154354090Y-104146501D01*
X154274332Y-104236810D01*
X154216568Y-104359843D01*
X154195657Y-104494143D01*
X152927824Y-104494143D01*
X152831562Y-104445095D01*
X152733097Y-104429500D01*
X152075715Y-104429500D01*
X151416904Y-104429501D01*
X151318438Y-104445095D01*
X151199755Y-104505567D01*
X151105567Y-104599755D01*
X151045095Y-104718438D01*
X151029500Y-104816903D01*
X135834621Y-104816903D01*
X135824085Y-104808187D01*
X135660116Y-104719529D01*
X135482049Y-104664409D01*
X135481488Y-104664350D01*
X135481483Y-104664349D01*
X135297239Y-104644984D01*
X135296668Y-104644924D01*
X135111032Y-104661818D01*
X134932214Y-104714448D01*
X134931716Y-104714709D01*
X134931712Y-104714710D01*
X134767525Y-104800544D01*
X134767521Y-104800547D01*
X134767023Y-104800807D01*
X134766581Y-104801162D01*
X134766577Y-104801165D01*
X134681876Y-104869267D01*
X134621752Y-104917608D01*
X134621392Y-104918037D01*
X134621387Y-104918042D01*
X134502300Y-105059966D01*
X134501935Y-105060401D01*
X134501662Y-105060897D01*
X134501661Y-105060899D01*
X134495579Y-105071963D01*
X134412135Y-105223746D01*
X134411964Y-105224286D01*
X134411962Y-105224290D01*
X134408235Y-105236040D01*
X134355772Y-105401424D01*
X134355709Y-105401989D01*
X134355708Y-105401992D01*
X134337741Y-105562178D01*
X134334994Y-105586665D01*
X132128449Y-105586665D01*
X132128533Y-105586094D01*
X132220726Y-104960140D01*
X132220840Y-104959497D01*
X132221665Y-104955499D01*
X132358105Y-104293704D01*
X132358258Y-104293054D01*
X132451226Y-103944143D01*
X139720657Y-103944143D01*
X139738280Y-104078915D01*
X139738616Y-104079678D01*
X139738616Y-104079679D01*
X139764612Y-104138758D01*
X139793021Y-104203322D01*
X139827438Y-104244267D01*
X139863909Y-104287654D01*
X139880478Y-104307366D01*
X139881171Y-104307828D01*
X139881173Y-104307829D01*
X139945583Y-104350703D01*
X139993622Y-104382680D01*
X140123356Y-104423212D01*
X140200451Y-104424625D01*
X140258421Y-104425688D01*
X140258423Y-104425688D01*
X140259252Y-104425703D01*
X140390384Y-104389952D01*
X140401826Y-104382927D01*
X140505507Y-104319267D01*
X140505508Y-104319266D01*
X140506212Y-104318834D01*
X140510122Y-104314515D01*
X140551605Y-104268684D01*
X140597423Y-104218065D01*
X140656686Y-104095747D01*
X140672795Y-104000000D01*
X140673780Y-103994143D01*
X142170657Y-103994143D01*
X142188280Y-104128915D01*
X142188616Y-104129678D01*
X142188616Y-104129679D01*
X142195323Y-104144922D01*
X142243021Y-104253322D01*
X142243560Y-104253963D01*
X142324865Y-104350688D01*
X142330478Y-104357366D01*
X142331171Y-104357828D01*
X142331173Y-104357829D01*
X142367816Y-104382220D01*
X142443622Y-104432680D01*
X142573356Y-104473212D01*
X142650451Y-104474625D01*
X142708421Y-104475688D01*
X142708423Y-104475688D01*
X142709252Y-104475703D01*
X142840384Y-104439952D01*
X142851826Y-104432927D01*
X142955507Y-104369267D01*
X142955508Y-104369266D01*
X142956212Y-104368834D01*
X142959272Y-104365454D01*
X142979346Y-104343276D01*
X143047423Y-104268065D01*
X143106686Y-104145747D01*
X143109747Y-104127556D01*
X143129162Y-104012152D01*
X143129236Y-104011712D01*
X143129331Y-104003915D01*
X143129374Y-104000447D01*
X143129374Y-104000441D01*
X143129379Y-104000000D01*
X143122156Y-103949559D01*
X143114902Y-103898911D01*
X143110639Y-103869143D01*
X144845657Y-103869143D01*
X144863280Y-104003915D01*
X144863616Y-104004678D01*
X144863616Y-104004679D01*
X144872683Y-104025285D01*
X144918021Y-104128322D01*
X145005478Y-104232366D01*
X145006171Y-104232828D01*
X145006173Y-104232829D01*
X145060038Y-104268684D01*
X145118622Y-104307680D01*
X145248356Y-104348212D01*
X145325451Y-104349625D01*
X145383421Y-104350688D01*
X145383423Y-104350688D01*
X145384252Y-104350703D01*
X145515384Y-104314952D01*
X145526826Y-104307927D01*
X145630507Y-104244267D01*
X145630508Y-104244266D01*
X145631212Y-104243834D01*
X145632439Y-104242479D01*
X145668575Y-104202556D01*
X145722423Y-104143065D01*
X145781686Y-104020747D01*
X145785177Y-104000000D01*
X145804162Y-103887152D01*
X145804236Y-103886712D01*
X145804379Y-103875000D01*
X145802327Y-103860667D01*
X145786579Y-103750703D01*
X145785111Y-103740454D01*
X145783171Y-103736187D01*
X145729197Y-103617479D01*
X145729196Y-103617478D01*
X145728854Y-103616725D01*
X145683933Y-103564592D01*
X145640675Y-103514388D01*
X145640674Y-103514387D01*
X145640132Y-103513758D01*
X145639437Y-103513307D01*
X145639434Y-103513305D01*
X145526776Y-103440284D01*
X145526077Y-103439831D01*
X145408537Y-103404679D01*
X145396657Y-103401126D01*
X145396655Y-103401126D01*
X145395857Y-103400887D01*
X145330180Y-103400485D01*
X145260774Y-103400061D01*
X145260773Y-103400061D01*
X145259941Y-103400056D01*
X145190431Y-103419922D01*
X145130052Y-103437178D01*
X145130051Y-103437179D01*
X145129255Y-103437406D01*
X145125412Y-103439831D01*
X145015011Y-103509489D01*
X145015009Y-103509491D01*
X145014305Y-103509935D01*
X145013757Y-103510556D01*
X145013753Y-103510559D01*
X144967964Y-103562406D01*
X144924332Y-103611810D01*
X144866568Y-103734843D01*
X144845657Y-103869143D01*
X143110639Y-103869143D01*
X143110111Y-103865454D01*
X143109766Y-103864695D01*
X143054197Y-103742479D01*
X143054196Y-103742478D01*
X143053854Y-103741725D01*
X143045412Y-103731928D01*
X142965675Y-103639388D01*
X142965674Y-103639387D01*
X142965132Y-103638758D01*
X142964437Y-103638307D01*
X142964434Y-103638305D01*
X142851776Y-103565284D01*
X142851077Y-103564831D01*
X142775779Y-103542312D01*
X142721657Y-103526126D01*
X142721655Y-103526126D01*
X142720857Y-103525887D01*
X142655180Y-103525485D01*
X142585774Y-103525061D01*
X142585773Y-103525061D01*
X142584941Y-103525056D01*
X142503676Y-103548282D01*
X142455052Y-103562178D01*
X142455051Y-103562179D01*
X142454255Y-103562406D01*
X142450412Y-103564831D01*
X142340011Y-103634489D01*
X142340009Y-103634491D01*
X142339305Y-103634935D01*
X142338757Y-103635556D01*
X142338753Y-103635559D01*
X142292825Y-103687564D01*
X142249332Y-103736810D01*
X142191568Y-103859843D01*
X142170657Y-103994143D01*
X140673780Y-103994143D01*
X140679162Y-103962152D01*
X140679236Y-103961712D01*
X140679335Y-103953634D01*
X140679374Y-103950447D01*
X140679374Y-103950441D01*
X140679379Y-103950000D01*
X140660111Y-103815454D01*
X140659766Y-103814695D01*
X140604197Y-103692479D01*
X140604196Y-103692478D01*
X140603854Y-103691725D01*
X140562962Y-103644267D01*
X140515675Y-103589388D01*
X140515674Y-103589387D01*
X140515132Y-103588758D01*
X140514437Y-103588307D01*
X140514434Y-103588305D01*
X140401776Y-103515284D01*
X140401077Y-103514831D01*
X140335967Y-103495359D01*
X140271657Y-103476126D01*
X140271655Y-103476126D01*
X140270857Y-103475887D01*
X140205180Y-103475485D01*
X140135774Y-103475061D01*
X140135773Y-103475061D01*
X140134941Y-103475056D01*
X140053676Y-103498282D01*
X140005052Y-103512178D01*
X140005051Y-103512179D01*
X140004255Y-103512406D01*
X140000412Y-103514831D01*
X139890011Y-103584489D01*
X139890009Y-103584491D01*
X139889305Y-103584935D01*
X139888757Y-103585556D01*
X139888753Y-103585559D01*
X139861229Y-103616725D01*
X139799332Y-103686810D01*
X139741568Y-103809843D01*
X139720657Y-103944143D01*
X132451226Y-103944143D01*
X132533290Y-103636155D01*
X132533481Y-103635514D01*
X132653872Y-103269143D01*
X137970657Y-103269143D01*
X137988280Y-103403915D01*
X137988616Y-103404678D01*
X137988616Y-103404679D01*
X138004283Y-103440284D01*
X138043021Y-103528322D01*
X138045015Y-103530694D01*
X138117331Y-103616725D01*
X138130478Y-103632366D01*
X138131171Y-103632828D01*
X138131173Y-103632829D01*
X138197243Y-103676808D01*
X138243622Y-103707680D01*
X138373356Y-103748212D01*
X138450451Y-103749625D01*
X138508421Y-103750688D01*
X138508423Y-103750688D01*
X138509252Y-103750703D01*
X138640384Y-103714952D01*
X138651826Y-103707927D01*
X138755507Y-103644267D01*
X138755508Y-103644266D01*
X138756212Y-103643834D01*
X138767173Y-103631725D01*
X138784516Y-103612564D01*
X138847423Y-103543065D01*
X138848956Y-103539902D01*
X138863474Y-103509935D01*
X138906686Y-103420747D01*
X138915813Y-103366500D01*
X138929162Y-103287152D01*
X138929236Y-103286712D01*
X138929379Y-103275000D01*
X138917863Y-103194587D01*
X151024644Y-103194587D01*
X151042713Y-103366500D01*
X151042923Y-103367117D01*
X151055450Y-103403915D01*
X151098420Y-103530139D01*
X151188996Y-103677369D01*
X151189457Y-103677840D01*
X151189458Y-103677841D01*
X151198241Y-103686810D01*
X151309940Y-103800873D01*
X151310488Y-103801226D01*
X151310489Y-103801227D01*
X151332565Y-103815454D01*
X151455241Y-103894513D01*
X151617677Y-103953634D01*
X151751186Y-103970500D01*
X152393461Y-103970500D01*
X152393790Y-103970463D01*
X152393792Y-103970463D01*
X152521134Y-103956179D01*
X152521136Y-103956179D01*
X152521783Y-103956106D01*
X152685028Y-103899258D01*
X152831622Y-103807656D01*
X152899295Y-103740454D01*
X152953818Y-103686311D01*
X152953819Y-103686310D01*
X152954279Y-103685853D01*
X152983767Y-103639388D01*
X153030794Y-103565284D01*
X153046902Y-103539902D01*
X153104889Y-103377058D01*
X153104967Y-103376406D01*
X153125279Y-103206063D01*
X153125279Y-103206059D01*
X153125356Y-103205413D01*
X153107287Y-103033500D01*
X153051580Y-102869861D01*
X152961004Y-102722631D01*
X152953233Y-102714695D01*
X152840518Y-102599595D01*
X152840060Y-102599127D01*
X152829000Y-102591999D01*
X152747560Y-102539515D01*
X152694759Y-102505487D01*
X152532323Y-102446366D01*
X152398814Y-102429500D01*
X151756539Y-102429500D01*
X151756210Y-102429537D01*
X151756208Y-102429537D01*
X151628866Y-102443821D01*
X151628864Y-102443821D01*
X151628217Y-102443894D01*
X151464972Y-102500742D01*
X151318378Y-102592344D01*
X151195721Y-102714147D01*
X151103098Y-102860098D01*
X151045111Y-103022942D01*
X151045034Y-103023592D01*
X151045033Y-103023594D01*
X151024721Y-103193937D01*
X151024721Y-103193941D01*
X151024644Y-103194587D01*
X138917863Y-103194587D01*
X138910111Y-103140454D01*
X138909766Y-103139695D01*
X138854197Y-103017479D01*
X138854196Y-103017478D01*
X138853854Y-103016725D01*
X138765132Y-102913758D01*
X138764437Y-102913307D01*
X138764434Y-102913305D01*
X138651776Y-102840284D01*
X138651077Y-102839831D01*
X138585967Y-102820359D01*
X138521657Y-102801126D01*
X138521655Y-102801126D01*
X138520857Y-102800887D01*
X138455180Y-102800485D01*
X138385774Y-102800061D01*
X138385773Y-102800061D01*
X138384941Y-102800056D01*
X138303676Y-102823282D01*
X138255052Y-102837178D01*
X138255051Y-102837179D01*
X138254255Y-102837406D01*
X138250412Y-102839831D01*
X138140011Y-102909489D01*
X138140009Y-102909491D01*
X138139305Y-102909935D01*
X138138757Y-102910556D01*
X138138753Y-102910559D01*
X138091240Y-102964359D01*
X138049332Y-103011810D01*
X137991568Y-103134843D01*
X137970657Y-103269143D01*
X132653872Y-103269143D01*
X132745698Y-102989700D01*
X132745924Y-102989072D01*
X132994649Y-102356395D01*
X132994911Y-102355781D01*
X133115428Y-102094143D01*
X137795657Y-102094143D01*
X137813280Y-102228915D01*
X137813616Y-102229678D01*
X137813616Y-102229679D01*
X137831494Y-102270310D01*
X137868021Y-102353322D01*
X137879781Y-102367312D01*
X137953445Y-102454947D01*
X137955478Y-102457366D01*
X137956171Y-102457828D01*
X137956173Y-102457829D01*
X138027770Y-102505487D01*
X138068622Y-102532680D01*
X138198356Y-102573212D01*
X138275451Y-102574625D01*
X138333421Y-102575688D01*
X138333423Y-102575688D01*
X138334252Y-102575703D01*
X138465384Y-102539952D01*
X138476826Y-102532927D01*
X138580507Y-102469267D01*
X138580508Y-102469266D01*
X138581212Y-102468834D01*
X138592173Y-102456725D01*
X138607155Y-102440172D01*
X138672423Y-102368065D01*
X138731686Y-102245747D01*
X138736567Y-102216738D01*
X138754162Y-102112152D01*
X138754236Y-102111712D01*
X138754379Y-102100000D01*
X138748274Y-102057366D01*
X138739220Y-101994143D01*
X144695657Y-101994143D01*
X144713280Y-102128915D01*
X144713616Y-102129678D01*
X144713616Y-102129679D01*
X144715045Y-102132927D01*
X144768021Y-102253322D01*
X144782762Y-102270859D01*
X144854146Y-102355781D01*
X144855478Y-102357366D01*
X144856171Y-102357828D01*
X144856173Y-102357829D01*
X144872481Y-102368684D01*
X144968622Y-102432680D01*
X145098356Y-102473212D01*
X145175451Y-102474625D01*
X145233421Y-102475688D01*
X145233423Y-102475688D01*
X145234252Y-102475703D01*
X145365384Y-102439952D01*
X145376826Y-102432927D01*
X145480502Y-102369270D01*
X145481212Y-102368834D01*
X145521477Y-102324349D01*
X145530151Y-102320500D01*
X145560500Y-102320500D01*
X145561521Y-102320545D01*
X145603365Y-102324206D01*
X145604358Y-102323940D01*
X145643946Y-102313332D01*
X145644942Y-102313111D01*
X145685298Y-102305995D01*
X145686308Y-102305817D01*
X145687196Y-102305305D01*
X145687197Y-102305304D01*
X145697373Y-102299428D01*
X145700193Y-102298260D01*
X145712539Y-102294952D01*
X145713376Y-102294366D01*
X145713378Y-102294365D01*
X145746947Y-102270859D01*
X145747808Y-102270310D01*
X145783308Y-102249815D01*
X145783309Y-102249814D01*
X145784191Y-102249305D01*
X145784845Y-102248526D01*
X145784847Y-102248524D01*
X145811195Y-102217123D01*
X145811885Y-102216371D01*
X146334113Y-101694143D01*
X153245657Y-101694143D01*
X153263280Y-101828915D01*
X153263616Y-101829678D01*
X153263616Y-101829679D01*
X153269248Y-101842479D01*
X153318021Y-101953322D01*
X153405478Y-102057366D01*
X153406171Y-102057828D01*
X153406173Y-102057829D01*
X153460728Y-102094143D01*
X153518622Y-102132680D01*
X153648356Y-102173212D01*
X153725451Y-102174625D01*
X153783421Y-102175688D01*
X153783423Y-102175688D01*
X153784252Y-102175703D01*
X153915384Y-102139952D01*
X153926826Y-102132927D01*
X154030507Y-102069267D01*
X154030508Y-102069266D01*
X154031212Y-102068834D01*
X154042173Y-102056725D01*
X154054346Y-102043276D01*
X154122423Y-101968065D01*
X154181686Y-101845747D01*
X154182469Y-101841097D01*
X154204162Y-101712152D01*
X154204236Y-101711712D01*
X154204379Y-101700000D01*
X154185111Y-101565454D01*
X154183725Y-101562406D01*
X154129197Y-101442479D01*
X154129196Y-101442478D01*
X154128854Y-101441725D01*
X154040132Y-101338758D01*
X154039437Y-101338307D01*
X154039434Y-101338305D01*
X153926776Y-101265284D01*
X153926077Y-101264831D01*
X153860967Y-101245359D01*
X153796657Y-101226126D01*
X153796655Y-101226126D01*
X153795857Y-101225887D01*
X153730180Y-101225485D01*
X153660774Y-101225061D01*
X153660773Y-101225061D01*
X153659941Y-101225056D01*
X153578676Y-101248282D01*
X153530052Y-101262178D01*
X153530051Y-101262179D01*
X153529255Y-101262406D01*
X153525412Y-101264831D01*
X153415011Y-101334489D01*
X153415009Y-101334491D01*
X153414305Y-101334935D01*
X153413757Y-101335556D01*
X153413753Y-101335559D01*
X153366240Y-101389359D01*
X153324332Y-101436810D01*
X153266568Y-101559843D01*
X153245657Y-101694143D01*
X146334113Y-101694143D01*
X147504328Y-100523927D01*
X147512601Y-100520500D01*
X148096060Y-100520500D01*
X148104333Y-100523927D01*
X148105340Y-100525076D01*
X148168114Y-100606886D01*
X148287288Y-100698331D01*
X148426070Y-100755816D01*
X148575000Y-100775423D01*
X148723930Y-100755816D01*
X148862712Y-100698331D01*
X148981886Y-100606886D01*
X149045542Y-100523927D01*
X149072860Y-100488325D01*
X149072860Y-100488324D01*
X149073331Y-100487711D01*
X149130816Y-100348930D01*
X149149986Y-100203322D01*
X149150323Y-100200760D01*
X149150423Y-100200000D01*
X149130816Y-100051070D01*
X149086525Y-99944143D01*
X149895657Y-99944143D01*
X149913280Y-100078915D01*
X149968021Y-100203322D01*
X150055478Y-100307366D01*
X150056171Y-100307828D01*
X150056173Y-100307829D01*
X150117919Y-100348930D01*
X150168622Y-100382680D01*
X150298356Y-100423212D01*
X150375451Y-100424625D01*
X150433421Y-100425688D01*
X150433423Y-100425688D01*
X150434252Y-100425703D01*
X150565384Y-100389952D01*
X150576826Y-100382927D01*
X150680507Y-100319267D01*
X150680508Y-100319266D01*
X150681212Y-100318834D01*
X150692173Y-100306725D01*
X150704346Y-100293276D01*
X150772423Y-100218065D01*
X150781176Y-100200000D01*
X150784499Y-100193141D01*
X150831686Y-100095747D01*
X150833999Y-100082002D01*
X150854162Y-99962152D01*
X150854236Y-99961712D01*
X150854379Y-99950000D01*
X150835111Y-99815454D01*
X150834766Y-99814695D01*
X150779197Y-99692479D01*
X150779196Y-99692478D01*
X150778854Y-99691725D01*
X150758467Y-99668065D01*
X150690675Y-99589388D01*
X150690674Y-99589387D01*
X150690132Y-99588758D01*
X150689437Y-99588307D01*
X150689434Y-99588305D01*
X150576776Y-99515284D01*
X150576077Y-99514831D01*
X150458537Y-99479679D01*
X150446657Y-99476126D01*
X150446655Y-99476126D01*
X150445857Y-99475887D01*
X150380180Y-99475485D01*
X150310774Y-99475061D01*
X150310773Y-99475061D01*
X150309941Y-99475056D01*
X150240431Y-99494922D01*
X150180052Y-99512178D01*
X150180051Y-99512179D01*
X150179255Y-99512406D01*
X150175412Y-99514831D01*
X150065011Y-99584489D01*
X150065009Y-99584491D01*
X150064305Y-99584935D01*
X150063757Y-99585556D01*
X150063753Y-99585559D01*
X150034499Y-99618684D01*
X149974332Y-99686810D01*
X149916568Y-99809843D01*
X149895657Y-99944143D01*
X149086525Y-99944143D01*
X149073331Y-99912289D01*
X149048172Y-99879500D01*
X148982354Y-99793724D01*
X148981886Y-99793114D01*
X148942348Y-99762775D01*
X148863326Y-99702140D01*
X148863325Y-99702140D01*
X148862712Y-99701669D01*
X148723930Y-99644184D01*
X148575000Y-99624577D01*
X148426070Y-99644184D01*
X148287289Y-99701669D01*
X148286676Y-99702140D01*
X148286675Y-99702140D01*
X148263501Y-99719922D01*
X148168114Y-99793114D01*
X148135546Y-99835559D01*
X148105342Y-99874922D01*
X148097587Y-99879400D01*
X148096060Y-99879500D01*
X147389493Y-99879500D01*
X147388473Y-99879455D01*
X147384609Y-99879117D01*
X147346635Y-99875795D01*
X147345643Y-99876061D01*
X147345641Y-99876061D01*
X147306061Y-99886666D01*
X147305065Y-99886887D01*
X147264700Y-99894005D01*
X147264699Y-99894005D01*
X147263692Y-99894183D01*
X147262807Y-99894694D01*
X147252623Y-99900573D01*
X147249802Y-99901741D01*
X147238514Y-99904766D01*
X147237461Y-99905048D01*
X147236624Y-99905634D01*
X147236622Y-99905635D01*
X147203048Y-99929144D01*
X147202187Y-99929692D01*
X147189858Y-99936810D01*
X147165809Y-99950695D01*
X147165152Y-99951478D01*
X147138800Y-99982883D01*
X147138110Y-99983635D01*
X145492490Y-101629254D01*
X145484217Y-101632681D01*
X145477853Y-101630799D01*
X145376776Y-101565284D01*
X145376077Y-101564831D01*
X145310967Y-101545359D01*
X145246657Y-101526126D01*
X145246655Y-101526126D01*
X145245857Y-101525887D01*
X145180180Y-101525485D01*
X145110774Y-101525061D01*
X145110773Y-101525061D01*
X145109941Y-101525056D01*
X145028676Y-101548282D01*
X144980052Y-101562178D01*
X144980051Y-101562179D01*
X144979255Y-101562406D01*
X144975627Y-101564695D01*
X144865011Y-101634489D01*
X144865009Y-101634491D01*
X144864305Y-101634935D01*
X144863757Y-101635556D01*
X144863753Y-101635559D01*
X144816240Y-101689359D01*
X144774332Y-101736810D01*
X144716568Y-101859843D01*
X144695657Y-101994143D01*
X138739220Y-101994143D01*
X138739102Y-101993322D01*
X138735111Y-101965454D01*
X138734766Y-101964695D01*
X138679197Y-101842479D01*
X138679196Y-101842478D01*
X138678854Y-101841725D01*
X138672770Y-101834664D01*
X138590675Y-101739388D01*
X138590674Y-101739387D01*
X138590132Y-101738758D01*
X138589437Y-101738307D01*
X138589434Y-101738305D01*
X138476776Y-101665284D01*
X138476077Y-101664831D01*
X138378198Y-101635559D01*
X138346657Y-101626126D01*
X138346655Y-101626126D01*
X138345857Y-101625887D01*
X138280180Y-101625485D01*
X138210774Y-101625061D01*
X138210773Y-101625061D01*
X138209941Y-101625056D01*
X138128676Y-101648282D01*
X138080052Y-101662178D01*
X138080051Y-101662179D01*
X138079255Y-101662406D01*
X138075412Y-101664831D01*
X137965011Y-101734489D01*
X137965009Y-101734491D01*
X137964305Y-101734935D01*
X137963757Y-101735556D01*
X137963753Y-101735559D01*
X137916240Y-101789359D01*
X137874332Y-101836810D01*
X137816568Y-101959843D01*
X137795657Y-102094143D01*
X133115428Y-102094143D01*
X133278837Y-101739388D01*
X133279328Y-101738324D01*
X133279623Y-101737729D01*
X133299449Y-101700447D01*
X133552247Y-101225056D01*
X133598791Y-101137530D01*
X133599121Y-101136949D01*
X133880773Y-100673227D01*
X133952033Y-100555902D01*
X133952394Y-100555346D01*
X134201052Y-100194143D01*
X143895657Y-100194143D01*
X143913280Y-100328915D01*
X143913616Y-100329678D01*
X143913616Y-100329679D01*
X143922087Y-100348930D01*
X143968021Y-100453322D01*
X144055478Y-100557366D01*
X144056171Y-100557828D01*
X144056173Y-100557829D01*
X144128955Y-100606276D01*
X144168622Y-100632680D01*
X144298356Y-100673212D01*
X144375451Y-100674625D01*
X144433421Y-100675688D01*
X144433423Y-100675688D01*
X144434252Y-100675703D01*
X144565384Y-100639952D01*
X144576826Y-100632927D01*
X144680507Y-100569267D01*
X144680508Y-100569266D01*
X144681212Y-100568834D01*
X144692173Y-100556725D01*
X144720818Y-100525078D01*
X144772423Y-100468065D01*
X144831686Y-100345747D01*
X144854236Y-100211712D01*
X144854331Y-100203963D01*
X144854374Y-100200447D01*
X144854374Y-100200441D01*
X144854379Y-100200000D01*
X144835111Y-100065454D01*
X144834766Y-100064695D01*
X144779197Y-99942479D01*
X144779196Y-99942478D01*
X144778854Y-99941725D01*
X144770238Y-99931725D01*
X144691216Y-99840016D01*
X144688412Y-99831512D01*
X144692443Y-99823515D01*
X144693958Y-99822408D01*
X144780507Y-99769267D01*
X144780508Y-99769266D01*
X144781212Y-99768834D01*
X144792173Y-99756725D01*
X144820252Y-99725703D01*
X144872423Y-99668065D01*
X144920351Y-99569143D01*
X145370657Y-99569143D01*
X145388280Y-99703915D01*
X145388616Y-99704678D01*
X145388616Y-99704679D01*
X145415199Y-99765092D01*
X145443021Y-99828322D01*
X145445750Y-99831568D01*
X145527770Y-99929144D01*
X145530478Y-99932366D01*
X145531171Y-99932828D01*
X145531173Y-99932829D01*
X145606948Y-99983268D01*
X145643622Y-100007680D01*
X145773356Y-100048212D01*
X145850451Y-100049625D01*
X145908421Y-100050688D01*
X145908423Y-100050688D01*
X145909252Y-100050703D01*
X146040384Y-100014952D01*
X146051826Y-100007927D01*
X146155507Y-99944267D01*
X146155508Y-99944266D01*
X146156212Y-99943834D01*
X146157439Y-99942479D01*
X146194312Y-99901741D01*
X146247423Y-99843065D01*
X146253021Y-99831512D01*
X146260401Y-99816279D01*
X146306686Y-99720747D01*
X146308860Y-99707829D01*
X146329162Y-99587152D01*
X146329236Y-99586712D01*
X146329379Y-99575000D01*
X146321226Y-99518065D01*
X146315185Y-99475887D01*
X146310111Y-99440454D01*
X146309766Y-99439695D01*
X146254197Y-99317479D01*
X146254196Y-99317478D01*
X146253854Y-99316725D01*
X146206067Y-99261265D01*
X146191314Y-99244143D01*
X150645657Y-99244143D01*
X150663280Y-99378915D01*
X150663616Y-99379678D01*
X150663616Y-99379679D01*
X150687889Y-99434843D01*
X150718021Y-99503322D01*
X150754316Y-99546501D01*
X150802618Y-99603963D01*
X150805478Y-99607366D01*
X150806171Y-99607828D01*
X150806173Y-99607829D01*
X150895535Y-99667312D01*
X150918622Y-99682680D01*
X151048356Y-99723212D01*
X151125451Y-99724625D01*
X151183421Y-99725688D01*
X151183423Y-99725688D01*
X151184252Y-99725703D01*
X151315384Y-99689952D01*
X151319274Y-99687564D01*
X151430507Y-99619267D01*
X151430508Y-99619266D01*
X151431212Y-99618834D01*
X151442173Y-99606725D01*
X151496684Y-99546501D01*
X151522423Y-99518065D01*
X151523771Y-99515284D01*
X151551606Y-99457832D01*
X151581686Y-99395747D01*
X151589383Y-99350000D01*
X151604162Y-99262152D01*
X151604236Y-99261712D01*
X151604379Y-99250000D01*
X151585111Y-99115454D01*
X151584766Y-99114695D01*
X151529197Y-98992479D01*
X151529196Y-98992478D01*
X151528854Y-98991725D01*
X151526840Y-98989388D01*
X151440675Y-98889388D01*
X151440674Y-98889387D01*
X151440132Y-98888758D01*
X151439437Y-98888307D01*
X151439434Y-98888305D01*
X151326776Y-98815284D01*
X151326077Y-98814831D01*
X151260967Y-98795359D01*
X151196657Y-98776126D01*
X151196655Y-98776126D01*
X151195857Y-98775887D01*
X151130180Y-98775485D01*
X151060774Y-98775061D01*
X151060773Y-98775061D01*
X151059941Y-98775056D01*
X150978676Y-98798282D01*
X150930052Y-98812178D01*
X150930051Y-98812179D01*
X150929255Y-98812406D01*
X150925412Y-98814831D01*
X150815011Y-98884489D01*
X150815009Y-98884491D01*
X150814305Y-98884935D01*
X150813757Y-98885556D01*
X150813753Y-98885559D01*
X150766240Y-98939359D01*
X150724332Y-98986810D01*
X150666568Y-99109843D01*
X150645657Y-99244143D01*
X146191314Y-99244143D01*
X146165675Y-99214388D01*
X146165674Y-99214387D01*
X146165132Y-99213758D01*
X146164437Y-99213307D01*
X146164434Y-99213305D01*
X146051776Y-99140284D01*
X146051077Y-99139831D01*
X145985967Y-99120359D01*
X145921657Y-99101126D01*
X145921655Y-99101126D01*
X145920857Y-99100887D01*
X145855180Y-99100485D01*
X145785774Y-99100061D01*
X145785773Y-99100061D01*
X145784941Y-99100056D01*
X145703676Y-99123282D01*
X145655052Y-99137178D01*
X145655051Y-99137179D01*
X145654255Y-99137406D01*
X145650412Y-99139831D01*
X145540011Y-99209489D01*
X145540009Y-99209491D01*
X145539305Y-99209935D01*
X145538757Y-99210556D01*
X145538753Y-99210559D01*
X145508364Y-99244969D01*
X145449332Y-99311810D01*
X145391568Y-99434843D01*
X145370657Y-99569143D01*
X144920351Y-99569143D01*
X144931686Y-99545747D01*
X144938953Y-99502556D01*
X144954162Y-99412152D01*
X144954236Y-99411712D01*
X144954379Y-99400000D01*
X144951360Y-99378915D01*
X144942363Y-99316097D01*
X144935111Y-99265454D01*
X144933206Y-99261265D01*
X144879197Y-99142479D01*
X144879196Y-99142478D01*
X144878854Y-99141725D01*
X144856928Y-99116279D01*
X144790675Y-99039388D01*
X144790674Y-99039387D01*
X144790132Y-99038758D01*
X144789437Y-99038307D01*
X144789434Y-99038305D01*
X144676776Y-98965284D01*
X144676077Y-98964831D01*
X144610967Y-98945359D01*
X144546657Y-98926126D01*
X144546655Y-98926126D01*
X144545857Y-98925887D01*
X144480180Y-98925485D01*
X144410774Y-98925061D01*
X144410773Y-98925061D01*
X144409941Y-98925056D01*
X144342131Y-98944436D01*
X144280052Y-98962178D01*
X144280051Y-98962179D01*
X144279255Y-98962406D01*
X144275412Y-98964831D01*
X144165011Y-99034489D01*
X144165009Y-99034491D01*
X144164305Y-99034935D01*
X144163757Y-99035556D01*
X144163753Y-99035559D01*
X144117825Y-99087564D01*
X144074332Y-99136810D01*
X144016568Y-99259843D01*
X143995657Y-99394143D01*
X144013280Y-99528915D01*
X144013616Y-99529678D01*
X144013616Y-99529679D01*
X144039612Y-99588758D01*
X144068021Y-99653322D01*
X144108412Y-99701373D01*
X144126782Y-99723227D01*
X144155478Y-99757366D01*
X144156173Y-99757828D01*
X144156795Y-99758385D01*
X144156570Y-99758637D01*
X144160898Y-99765092D01*
X144159164Y-99773878D01*
X144155669Y-99777288D01*
X144065011Y-99834489D01*
X144065009Y-99834491D01*
X144064305Y-99834935D01*
X144063757Y-99835556D01*
X144063753Y-99835559D01*
X144016240Y-99889359D01*
X143974332Y-99936810D01*
X143916568Y-100059843D01*
X143895657Y-100194143D01*
X134201052Y-100194143D01*
X134337869Y-99995401D01*
X134338258Y-99994869D01*
X134346977Y-99983635D01*
X134755058Y-99457822D01*
X134755474Y-99457316D01*
X134769040Y-99441758D01*
X134854151Y-99344143D01*
X137870657Y-99344143D01*
X137888280Y-99478915D01*
X137888616Y-99479678D01*
X137888616Y-99479679D01*
X137915466Y-99540700D01*
X137943021Y-99603322D01*
X137960972Y-99624677D01*
X138017331Y-99691725D01*
X138030478Y-99707366D01*
X138031171Y-99707828D01*
X138031173Y-99707829D01*
X138104630Y-99756725D01*
X138143622Y-99782680D01*
X138273356Y-99823212D01*
X138350451Y-99824625D01*
X138408421Y-99825688D01*
X138408423Y-99825688D01*
X138409252Y-99825703D01*
X138540384Y-99789952D01*
X138551826Y-99782927D01*
X138655507Y-99719267D01*
X138655508Y-99719266D01*
X138656212Y-99718834D01*
X138667173Y-99706725D01*
X138682155Y-99690172D01*
X138747423Y-99618065D01*
X138806686Y-99495747D01*
X138815989Y-99440454D01*
X138829162Y-99362152D01*
X138829236Y-99361712D01*
X138829379Y-99350000D01*
X138810111Y-99215454D01*
X138809134Y-99213305D01*
X138754197Y-99092479D01*
X138754196Y-99092478D01*
X138753854Y-99091725D01*
X138708215Y-99038758D01*
X138665675Y-98989388D01*
X138665674Y-98989387D01*
X138665132Y-98988758D01*
X138664437Y-98988307D01*
X138664434Y-98988305D01*
X138551776Y-98915284D01*
X138551077Y-98914831D01*
X138485967Y-98895359D01*
X138421657Y-98876126D01*
X138421655Y-98876126D01*
X138420857Y-98875887D01*
X138355180Y-98875485D01*
X138285774Y-98875061D01*
X138285773Y-98875061D01*
X138284941Y-98875056D01*
X138234794Y-98889388D01*
X138155052Y-98912178D01*
X138155051Y-98912179D01*
X138154255Y-98912406D01*
X138150412Y-98914831D01*
X138040011Y-98984489D01*
X138040009Y-98984491D01*
X138039305Y-98984935D01*
X138038757Y-98985556D01*
X138038753Y-98985559D01*
X138032642Y-98992479D01*
X137949332Y-99086810D01*
X137891568Y-99209843D01*
X137870657Y-99344143D01*
X134854151Y-99344143D01*
X135166804Y-98985559D01*
X135202232Y-98944927D01*
X135202685Y-98944436D01*
X135466605Y-98674516D01*
X135677958Y-98458359D01*
X135678436Y-98457898D01*
X136180657Y-97999740D01*
X136181163Y-97999305D01*
X136708687Y-97570561D01*
X136709217Y-97570154D01*
X137260370Y-97172186D01*
X137260922Y-97171811D01*
X137460850Y-97044143D01*
X141445657Y-97044143D01*
X141463280Y-97178915D01*
X141518021Y-97303322D01*
X141605478Y-97407366D01*
X141606171Y-97407828D01*
X141606173Y-97407829D01*
X141707724Y-97475426D01*
X141718622Y-97482680D01*
X141848356Y-97523212D01*
X141925451Y-97524625D01*
X141983421Y-97525688D01*
X141983423Y-97525688D01*
X141984252Y-97525703D01*
X142115384Y-97489952D01*
X142126826Y-97482927D01*
X142230507Y-97419267D01*
X142230508Y-97419266D01*
X142231212Y-97418834D01*
X142231768Y-97418220D01*
X142231772Y-97418217D01*
X142291641Y-97352073D01*
X142299733Y-97348238D01*
X142308166Y-97351250D01*
X142309271Y-97352396D01*
X142355478Y-97407366D01*
X142356171Y-97407828D01*
X142356173Y-97407829D01*
X142457724Y-97475426D01*
X142468622Y-97482680D01*
X142598356Y-97523212D01*
X142675451Y-97524625D01*
X142733421Y-97525688D01*
X142733423Y-97525688D01*
X142734252Y-97525703D01*
X142865384Y-97489952D01*
X142876826Y-97482927D01*
X142980507Y-97419267D01*
X142980508Y-97419266D01*
X142981212Y-97418834D01*
X142981771Y-97418217D01*
X143041348Y-97352396D01*
X143072423Y-97318065D01*
X143131686Y-97195747D01*
X143154236Y-97061712D01*
X143154379Y-97050000D01*
X143135111Y-96915454D01*
X143134766Y-96914695D01*
X143079197Y-96792479D01*
X143079196Y-96792478D01*
X143078854Y-96791725D01*
X143041031Y-96747829D01*
X142990675Y-96689388D01*
X142990674Y-96689387D01*
X142990132Y-96688758D01*
X142989437Y-96688307D01*
X142989434Y-96688305D01*
X142876776Y-96615284D01*
X142876077Y-96614831D01*
X142810967Y-96595359D01*
X142746657Y-96576126D01*
X142746655Y-96576126D01*
X142745857Y-96575887D01*
X142680180Y-96575485D01*
X142610774Y-96575061D01*
X142610773Y-96575061D01*
X142609941Y-96575056D01*
X142528676Y-96598282D01*
X142480052Y-96612178D01*
X142480051Y-96612179D01*
X142479255Y-96612406D01*
X142475412Y-96614831D01*
X142365011Y-96684489D01*
X142365009Y-96684491D01*
X142364305Y-96684935D01*
X142363754Y-96685559D01*
X142308664Y-96747937D01*
X142300619Y-96751870D01*
X142292149Y-96748962D01*
X142291031Y-96747829D01*
X142240677Y-96689391D01*
X142240132Y-96688758D01*
X142126077Y-96614831D01*
X142060967Y-96595359D01*
X141996657Y-96576126D01*
X141996655Y-96576126D01*
X141995857Y-96575887D01*
X141930180Y-96575485D01*
X141860774Y-96575061D01*
X141860773Y-96575061D01*
X141859941Y-96575056D01*
X141778676Y-96598282D01*
X141730052Y-96612178D01*
X141730051Y-96612179D01*
X141729255Y-96612406D01*
X141725412Y-96614831D01*
X141615011Y-96684489D01*
X141615009Y-96684491D01*
X141614305Y-96684935D01*
X141613757Y-96685556D01*
X141613753Y-96685559D01*
X141566240Y-96739359D01*
X141524332Y-96786810D01*
X141466568Y-96909843D01*
X141445657Y-97044143D01*
X137460850Y-97044143D01*
X137462136Y-97043322D01*
X137833889Y-96805932D01*
X137834435Y-96805605D01*
X138179254Y-96612178D01*
X138427333Y-96473018D01*
X138427924Y-96472708D01*
X138944149Y-96220709D01*
X139036085Y-96175830D01*
X139036810Y-96175616D01*
X139037630Y-96175154D01*
X139039469Y-96175094D01*
X139039811Y-96174729D01*
X139040309Y-96174669D01*
X139042210Y-96172247D01*
X139046364Y-96169908D01*
X139047296Y-96168675D01*
X139048303Y-96168957D01*
X139147270Y-95758591D01*
X139216391Y-95342158D01*
X139255306Y-94921825D01*
X139263811Y-94499780D01*
X139262861Y-94499795D01*
X139261633Y-94496654D01*
X139260880Y-94495897D01*
X139260000Y-94491446D01*
X139260000Y-91821700D01*
X139263427Y-91813427D01*
X139271700Y-91810000D01*
X148728300Y-91810000D01*
X148736573Y-91813427D01*
G37*
G04 #@! TD.AperFunction*
M02*
