G04 #@! TF.GenerationSoftware,KiCad,Pcbnew,(6.0.1)*
G04 #@! TF.CreationDate,2023-01-15T15:55:40+01:00*
G04 #@! TF.ProjectId,ESP32-IoT-Board-ChipAnt,45535033-322d-4496-9f54-2d426f617264,rev?*
G04 #@! TF.SameCoordinates,Original*
G04 #@! TF.FileFunction,Legend,Bot*
G04 #@! TF.FilePolarity,Positive*
%FSLAX46Y46*%
G04 Gerber Fmt 4.6, Leading zero omitted, Abs format (unit mm)*
G04 Created by KiCad (PCBNEW (6.0.1)) date 2023-01-15 15:55:40*
%MOMM*%
%LPD*%
G01*
G04 APERTURE LIST*
G04 Aperture macros list*
%AMRoundRect*
0 Rectangle with rounded corners*
0 $1 Rounding radius*
0 $2 $3 $4 $5 $6 $7 $8 $9 X,Y pos of 4 corners*
0 Add a 4 corners polygon primitive as box body*
4,1,4,$2,$3,$4,$5,$6,$7,$8,$9,$2,$3,0*
0 Add four circle primitives for the rounded corners*
1,1,$1+$1,$2,$3*
1,1,$1+$1,$4,$5*
1,1,$1+$1,$6,$7*
1,1,$1+$1,$8,$9*
0 Add four rect primitives between the rounded corners*
20,1,$1+$1,$2,$3,$4,$5,0*
20,1,$1+$1,$4,$5,$6,$7,0*
20,1,$1+$1,$6,$7,$8,$9,0*
20,1,$1+$1,$8,$9,$2,$3,0*%
G04 Aperture macros list end*
%ADD10C,0.062500*%
%ADD11C,0.120000*%
%ADD12C,0.200000*%
%ADD13RoundRect,0.140000X-0.140000X-0.170000X0.140000X-0.170000X0.140000X0.170000X-0.140000X0.170000X0*%
%ADD14RoundRect,0.140000X0.140000X0.170000X-0.140000X0.170000X-0.140000X-0.170000X0.140000X-0.170000X0*%
%ADD15RoundRect,0.135000X-0.135000X-0.185000X0.135000X-0.185000X0.135000X0.185000X-0.135000X0.185000X0*%
%ADD16R,0.400000X0.600000*%
%ADD17C,1.560000*%
%ADD18R,0.350000X1.105000*%
%ADD19R,1.105000X0.350000*%
%ADD20R,2.100000X2.100000*%
%ADD21RoundRect,0.135000X0.135000X0.185000X-0.135000X0.185000X-0.135000X-0.185000X0.135000X-0.185000X0*%
%ADD22RoundRect,0.250000X0.625000X-0.350000X0.625000X0.350000X-0.625000X0.350000X-0.625000X-0.350000X0*%
%ADD23O,1.750000X1.200000*%
%ADD24RoundRect,0.140000X-0.170000X0.140000X-0.170000X-0.140000X0.170000X-0.140000X0.170000X0.140000X0*%
G04 APERTURE END LIST*
D10*
X136345238Y-105184523D02*
X136345238Y-105791666D01*
X136333333Y-105913095D01*
X136309523Y-105994047D01*
X136273809Y-106034523D01*
X136250000Y-106034523D01*
X136583333Y-106034523D02*
X136464285Y-106034523D01*
X136464285Y-105184523D01*
X136809523Y-105953571D02*
X136797619Y-105994047D01*
X136761904Y-106034523D01*
X136738095Y-106034523D01*
X136702380Y-105994047D01*
X136678571Y-105913095D01*
X136666666Y-105832142D01*
X136654761Y-105670238D01*
X136654761Y-105548809D01*
X136666666Y-105386904D01*
X136678571Y-105305952D01*
X136702380Y-105225000D01*
X136738095Y-105184523D01*
X136761904Y-105184523D01*
X136797619Y-105225000D01*
X136809523Y-105265476D01*
X136988095Y-105184523D02*
X136988095Y-105791666D01*
X136976190Y-105913095D01*
X136952380Y-105994047D01*
X136916666Y-106034523D01*
X136892857Y-106034523D01*
X137226190Y-106034523D02*
X137107142Y-106034523D01*
X137107142Y-105184523D01*
X137452380Y-105953571D02*
X137440476Y-105994047D01*
X137404761Y-106034523D01*
X137380952Y-106034523D01*
X137345238Y-105994047D01*
X137321428Y-105913095D01*
X137309523Y-105832142D01*
X137297619Y-105670238D01*
X137297619Y-105548809D01*
X137309523Y-105386904D01*
X137321428Y-105305952D01*
X137345238Y-105225000D01*
X137380952Y-105184523D01*
X137404761Y-105184523D01*
X137440476Y-105225000D01*
X137452380Y-105265476D01*
X137630952Y-105184523D02*
X137630952Y-105791666D01*
X137619047Y-105913095D01*
X137595238Y-105994047D01*
X137559523Y-106034523D01*
X137535714Y-106034523D01*
X137869047Y-106034523D02*
X137750000Y-106034523D01*
X137750000Y-105184523D01*
X138095238Y-105953571D02*
X138083333Y-105994047D01*
X138047619Y-106034523D01*
X138023809Y-106034523D01*
X137988095Y-105994047D01*
X137964285Y-105913095D01*
X137952380Y-105832142D01*
X137940476Y-105670238D01*
X137940476Y-105548809D01*
X137952380Y-105386904D01*
X137964285Y-105305952D01*
X137988095Y-105225000D01*
X138023809Y-105184523D01*
X138047619Y-105184523D01*
X138083333Y-105225000D01*
X138095238Y-105265476D01*
X138273809Y-105184523D02*
X138273809Y-105791666D01*
X138261904Y-105913095D01*
X138238095Y-105994047D01*
X138202380Y-106034523D01*
X138178571Y-106034523D01*
X138511904Y-106034523D02*
X138392857Y-106034523D01*
X138392857Y-105184523D01*
X138738095Y-105953571D02*
X138726190Y-105994047D01*
X138690476Y-106034523D01*
X138666666Y-106034523D01*
X138630952Y-105994047D01*
X138607142Y-105913095D01*
X138595238Y-105832142D01*
X138583333Y-105670238D01*
X138583333Y-105548809D01*
X138595238Y-105386904D01*
X138607142Y-105305952D01*
X138630952Y-105225000D01*
X138666666Y-105184523D01*
X138690476Y-105184523D01*
X138726190Y-105225000D01*
X138738095Y-105265476D01*
D11*
X144267164Y-103460000D02*
X144482836Y-103460000D01*
X144267164Y-102740000D02*
X144482836Y-102740000D01*
X137882836Y-100660000D02*
X137667164Y-100660000D01*
X137882836Y-99940000D02*
X137667164Y-99940000D01*
X144021359Y-106720000D02*
X144328641Y-106720000D01*
X144021359Y-107480000D02*
X144328641Y-107480000D01*
X137621359Y-108820000D02*
X137928641Y-108820000D01*
X137621359Y-109580000D02*
X137928641Y-109580000D01*
D12*
X138450000Y-108100000D02*
X138450000Y-108100000D01*
X138450000Y-108000000D02*
X138450000Y-108000000D01*
X138450000Y-108100000D02*
X138450000Y-108100000D01*
X139235000Y-103720000D02*
X139075000Y-103720000D01*
X139075000Y-107480000D02*
X139235000Y-107480000D01*
X139235000Y-107480000D02*
X139235000Y-103720000D01*
X138450000Y-108000000D02*
G75*
G03*
X138450000Y-108100000I0J-50000D01*
G01*
X138450000Y-108000000D02*
G75*
G03*
X138450000Y-108100000I0J-50000D01*
G01*
X138450000Y-108100000D02*
G75*
G03*
X138450000Y-108000000I0J50000D01*
G01*
D11*
X136767164Y-101540000D02*
X136982836Y-101540000D01*
X136767164Y-102260000D02*
X136982836Y-102260000D01*
X143595000Y-97832500D02*
X142975000Y-97832500D01*
X143595000Y-101452500D02*
X143595000Y-102072500D01*
X139355000Y-98452500D02*
X139355000Y-97832500D01*
X139355000Y-102072500D02*
X139975000Y-102072500D01*
X143595000Y-98452500D02*
X143595000Y-97832500D01*
X139355000Y-101452500D02*
X139355000Y-102072500D01*
X143595000Y-102072500D02*
X142975000Y-102072500D01*
X144328641Y-108580000D02*
X144021359Y-108580000D01*
X144328641Y-107820000D02*
X144021359Y-107820000D01*
X151935000Y-107260000D02*
X151935000Y-106340000D01*
X153535000Y-101140000D02*
X153535000Y-102060000D01*
X151935000Y-102060000D02*
X151935000Y-102340000D01*
X153535000Y-107260000D02*
X145715000Y-107260000D01*
X147975000Y-106000000D02*
X145715000Y-106000000D01*
X145715000Y-107260000D02*
X145715000Y-101140000D01*
X147975000Y-105500000D02*
X149575000Y-105500000D01*
X149575000Y-106500000D02*
X147975000Y-106500000D01*
X149575000Y-105500000D02*
X149575000Y-106500000D01*
X147975000Y-106500000D02*
X147975000Y-105500000D01*
X147975000Y-105500000D02*
X145715000Y-105500000D01*
X149575000Y-102900000D02*
X149575000Y-101900000D01*
X150075000Y-103700000D02*
X145715000Y-103700000D01*
X145715000Y-104700000D02*
X150075000Y-104700000D01*
X151935000Y-106060000D02*
X153150000Y-106060000D01*
X151935000Y-101140000D02*
X151935000Y-102060000D01*
X153535000Y-106340000D02*
X153535000Y-107260000D01*
X151935000Y-106060000D02*
X151935000Y-106340000D01*
X147975000Y-101900000D02*
X147975000Y-102900000D01*
X149575000Y-101900000D02*
X147975000Y-101900000D01*
X150075000Y-104700000D02*
X150075000Y-103700000D01*
X153535000Y-102060000D02*
X151935000Y-102060000D01*
X151935000Y-106340000D02*
X153535000Y-106340000D01*
X147975000Y-102900000D02*
X149575000Y-102900000D01*
X145715000Y-101140000D02*
X153535000Y-101140000D01*
X142367164Y-102740000D02*
X142582836Y-102740000D01*
X142367164Y-103460000D02*
X142582836Y-103460000D01*
X141335000Y-103442164D02*
X141335000Y-103657836D01*
X140615000Y-103442164D02*
X140615000Y-103657836D01*
%LPC*%
D13*
X143895000Y-103100000D03*
X144855000Y-103100000D03*
D14*
X138255000Y-100300000D03*
X137295000Y-100300000D03*
D15*
X143665000Y-107100000D03*
X144685000Y-107100000D03*
X137265000Y-109200000D03*
X138285000Y-109200000D03*
D16*
X138450000Y-106930000D03*
X137400000Y-106930000D03*
X136350000Y-106930000D03*
X135300000Y-106930000D03*
D17*
X135290000Y-105600000D03*
D16*
X135300000Y-104270000D03*
X136350000Y-104270000D03*
X137400000Y-104270000D03*
X138450000Y-104270000D03*
D13*
X136395000Y-101900000D03*
X137355000Y-101900000D03*
D18*
X140500000Y-98150000D03*
X141150000Y-98150000D03*
X141800000Y-98150000D03*
X142450000Y-98150000D03*
D19*
X143277500Y-98977500D03*
X143277500Y-99627500D03*
X143277500Y-100277500D03*
X143277500Y-100927500D03*
D18*
X142450000Y-101755000D03*
X141800000Y-101755000D03*
X141150000Y-101755000D03*
X140500000Y-101755000D03*
D19*
X139672500Y-100927500D03*
X139672500Y-100277500D03*
X139672500Y-99627500D03*
X139672500Y-98977500D03*
D20*
X141475000Y-99952500D03*
D21*
X144685000Y-108200000D03*
X143665000Y-108200000D03*
D22*
X152075000Y-105200000D03*
D23*
X152075000Y-103200000D03*
D13*
X141995000Y-103100000D03*
X142955000Y-103100000D03*
D24*
X140975000Y-103070000D03*
X140975000Y-104030000D03*
M02*
