G04 #@! TF.GenerationSoftware,KiCad,Pcbnew,(6.0.1)*
G04 #@! TF.CreationDate,2023-01-15T15:55:40+01:00*
G04 #@! TF.ProjectId,ESP32-IoT-Board-ChipAnt,45535033-322d-4496-9f54-2d426f617264,rev?*
G04 #@! TF.SameCoordinates,Original*
G04 #@! TF.FileFunction,Legend,Top*
G04 #@! TF.FilePolarity,Positive*
%FSLAX46Y46*%
G04 Gerber Fmt 4.6, Leading zero omitted, Abs format (unit mm)*
G04 Created by KiCad (PCBNEW (6.0.1)) date 2023-01-15 15:55:40*
%MOMM*%
%LPD*%
G01*
G04 APERTURE LIST*
G04 Aperture macros list*
%AMRoundRect*
0 Rectangle with rounded corners*
0 $1 Rounding radius*
0 $2 $3 $4 $5 $6 $7 $8 $9 X,Y pos of 4 corners*
0 Add a 4 corners polygon primitive as box body*
4,1,4,$2,$3,$4,$5,$6,$7,$8,$9,$2,$3,0*
0 Add four circle primitives for the rounded corners*
1,1,$1+$1,$2,$3*
1,1,$1+$1,$4,$5*
1,1,$1+$1,$6,$7*
1,1,$1+$1,$8,$9*
0 Add four rect primitives between the rounded corners*
20,1,$1+$1,$2,$3,$4,$5,0*
20,1,$1+$1,$4,$5,$6,$7,0*
20,1,$1+$1,$6,$7,$8,$9,0*
20,1,$1+$1,$8,$9,$2,$3,0*%
%AMRotRect*
0 Rectangle, with rotation*
0 The origin of the aperture is its center*
0 $1 length*
0 $2 width*
0 $3 Rotation angle, in degrees counterclockwise*
0 Add horizontal line*
21,1,$1,$2,0,0,$3*%
G04 Aperture macros list end*
%ADD10C,0.120000*%
%ADD11C,0.200000*%
%ADD12C,0.250000*%
%ADD13C,0.100000*%
%ADD14RoundRect,0.135000X-0.135000X-0.185000X0.135000X-0.185000X0.135000X0.185000X-0.135000X0.185000X0*%
%ADD15RoundRect,0.135000X-0.185000X0.135000X-0.185000X-0.135000X0.185000X-0.135000X0.185000X0.135000X0*%
%ADD16RoundRect,0.140000X-0.170000X0.140000X-0.170000X-0.140000X0.170000X-0.140000X0.170000X0.140000X0*%
%ADD17RoundRect,0.140000X0.170000X-0.140000X0.170000X0.140000X-0.170000X0.140000X-0.170000X-0.140000X0*%
%ADD18RoundRect,0.150000X0.512500X0.150000X-0.512500X0.150000X-0.512500X-0.150000X0.512500X-0.150000X0*%
%ADD19RoundRect,0.140000X-0.140000X-0.170000X0.140000X-0.170000X0.140000X0.170000X-0.140000X0.170000X0*%
%ADD20RoundRect,0.218750X0.218750X0.256250X-0.218750X0.256250X-0.218750X-0.256250X0.218750X-0.256250X0*%
%ADD21RoundRect,0.135000X0.185000X-0.135000X0.185000X0.135000X-0.185000X0.135000X-0.185000X-0.135000X0*%
%ADD22RotRect,1.100000X1.800000X220.000000*%
%ADD23RoundRect,0.075000X0.265165X-0.159099X-0.159099X0.265165X-0.265165X0.159099X0.159099X-0.265165X0*%
%ADD24RotRect,1.300000X2.000000X135.000000*%
%ADD25RoundRect,0.218750X0.256250X-0.218750X0.256250X0.218750X-0.256250X0.218750X-0.256250X-0.218750X0*%
%ADD26R,0.800000X0.300000*%
%ADD27R,0.300000X0.800000*%
%ADD28R,3.750000X3.750000*%
%ADD29RoundRect,0.147500X0.147500X0.172500X-0.147500X0.172500X-0.147500X-0.172500X0.147500X-0.172500X0*%
%ADD30R,0.450000X1.380000*%
%ADD31R,1.650000X1.300000*%
%ADD32R,1.800000X1.900000*%
%ADD33R,1.425000X1.550000*%
%ADD34R,1.000000X1.900000*%
%ADD35RoundRect,0.135000X0.035355X-0.226274X0.226274X-0.035355X-0.035355X0.226274X-0.226274X0.035355X0*%
%ADD36R,0.600000X0.450000*%
%ADD37RoundRect,0.150000X0.150000X-0.587500X0.150000X0.587500X-0.150000X0.587500X-0.150000X-0.587500X0*%
%ADD38RoundRect,0.135000X0.135000X0.185000X-0.135000X0.185000X-0.135000X-0.185000X0.135000X-0.185000X0*%
%ADD39RoundRect,0.140000X0.140000X0.170000X-0.140000X0.170000X-0.140000X-0.170000X0.140000X-0.170000X0*%
%ADD40R,0.750000X0.850000*%
%ADD41RoundRect,0.150000X-0.587500X-0.150000X0.587500X-0.150000X0.587500X0.150000X-0.587500X0.150000X0*%
%ADD42RoundRect,0.140000X0.021213X-0.219203X0.219203X-0.021213X-0.021213X0.219203X-0.219203X0.021213X0*%
%ADD43C,1.560000*%
%ADD44RoundRect,0.250000X0.625000X-0.350000X0.625000X0.350000X-0.625000X0.350000X-0.625000X-0.350000X0*%
%ADD45O,1.750000X1.200000*%
G04 APERTURE END LIST*
D10*
X144221359Y-106180000D02*
X144528641Y-106180000D01*
X144221359Y-105420000D02*
X144528641Y-105420000D01*
X136650000Y-105131359D02*
X136650000Y-105438641D01*
X137410000Y-105131359D02*
X137410000Y-105438641D01*
X142715000Y-114842164D02*
X142715000Y-115057836D01*
X143435000Y-114842164D02*
X143435000Y-115057836D01*
X136315000Y-107557836D02*
X136315000Y-107342164D01*
X135595000Y-107557836D02*
X135595000Y-107342164D01*
X154315000Y-105907836D02*
X154315000Y-105692164D01*
X155035000Y-105907836D02*
X155035000Y-105692164D01*
X138362500Y-101410000D02*
X137562500Y-101410000D01*
X138362500Y-98290000D02*
X137562500Y-98290000D01*
X138362500Y-98290000D02*
X139162500Y-98290000D01*
X138362500Y-101410000D02*
X140162500Y-101410000D01*
X150635000Y-105092164D02*
X150635000Y-105307836D01*
X149915000Y-105092164D02*
X149915000Y-105307836D01*
X145267164Y-108760000D02*
X145482836Y-108760000D01*
X145267164Y-108040000D02*
X145482836Y-108040000D01*
X146087779Y-110560000D02*
X145762221Y-110560000D01*
X146087779Y-109540000D02*
X145762221Y-109540000D01*
X139535000Y-105443641D02*
X139535000Y-105136359D01*
X138775000Y-105443641D02*
X138775000Y-105136359D01*
X137725000Y-105443641D02*
X137725000Y-105136359D01*
X138485000Y-105443641D02*
X138485000Y-105136359D01*
X143365000Y-111792164D02*
X143365000Y-112007836D01*
X144085000Y-111792164D02*
X144085000Y-112007836D01*
D11*
X152566058Y-114150684D02*
X150959089Y-112235573D01*
X150959089Y-112235573D02*
X147971516Y-114742445D01*
X149578485Y-116657556D02*
X152566058Y-114150684D01*
D10*
X149763335Y-100611665D02*
X148879451Y-99727782D01*
X152570549Y-99572218D02*
X150802782Y-97804451D01*
X140565000Y-105397836D02*
X140565000Y-105182164D01*
X139845000Y-105397836D02*
X139845000Y-105182164D01*
X138585000Y-115142164D02*
X138585000Y-115357836D01*
X137865000Y-115142164D02*
X137865000Y-115357836D01*
X146485000Y-111792164D02*
X146485000Y-112007836D01*
X147205000Y-111792164D02*
X147205000Y-112007836D01*
X149660000Y-103735000D02*
X149660000Y-101450000D01*
X148190000Y-101450000D02*
X148190000Y-103735000D01*
X148190000Y-103735000D02*
X149660000Y-103735000D01*
X144221359Y-107280000D02*
X144528641Y-107280000D01*
X144221359Y-106520000D02*
X144528641Y-106520000D01*
D12*
X142730000Y-112150000D02*
G75*
G03*
X142730000Y-112150000I-125000J0D01*
G01*
D10*
X147810000Y-94340000D02*
X147810000Y-96110000D01*
X140190000Y-92060000D02*
X140190000Y-91800000D01*
X140190000Y-96110000D02*
X140570000Y-96110000D01*
X147810000Y-91800000D02*
X147810000Y-92060000D01*
X140190000Y-96110000D02*
X140190000Y-94340000D01*
X147810000Y-96110000D02*
X147430000Y-96110000D01*
X150335000Y-108957836D02*
X150335000Y-108742164D01*
X149615000Y-108957836D02*
X149615000Y-108742164D01*
X147208859Y-108780000D02*
X147516141Y-108780000D01*
X147208859Y-108020000D02*
X147516141Y-108020000D01*
X148622659Y-97614940D02*
X148839940Y-97397659D01*
X149160060Y-98152341D02*
X149377341Y-97935060D01*
X143815000Y-114842164D02*
X143815000Y-115057836D01*
X144535000Y-114842164D02*
X144535000Y-115057836D01*
X147725000Y-97250000D02*
X145175000Y-97250000D01*
X147725000Y-98950000D02*
X147725000Y-97250000D01*
X147725000Y-98950000D02*
X145175000Y-98950000D01*
X150815000Y-108100000D02*
X150815000Y-109775000D01*
X150815000Y-108100000D02*
X150815000Y-107450000D01*
X153935000Y-108100000D02*
X153935000Y-108750000D01*
X153935000Y-108100000D02*
X153935000Y-107450000D01*
X143278641Y-101620000D02*
X142971359Y-101620000D01*
X143278641Y-102380000D02*
X142971359Y-102380000D01*
X149235000Y-108957836D02*
X149235000Y-108742164D01*
X148515000Y-108957836D02*
X148515000Y-108742164D01*
X143232836Y-103460000D02*
X143017164Y-103460000D01*
X143232836Y-102740000D02*
X143017164Y-102740000D01*
D13*
X142025000Y-115900000D02*
X142025000Y-115900000D01*
X142025000Y-115800000D02*
X142025000Y-115800000D01*
X142025000Y-115800000D02*
G75*
G03*
X142025000Y-115900000I0J-50000D01*
G01*
X142025000Y-115900000D02*
G75*
G03*
X142025000Y-115800000I0J50000D01*
G01*
D10*
X141732836Y-117340000D02*
X141517164Y-117340000D01*
X141732836Y-118060000D02*
X141517164Y-118060000D01*
X146125000Y-100340000D02*
X146775000Y-100340000D01*
X146125000Y-103460000D02*
X146775000Y-103460000D01*
X146125000Y-103460000D02*
X145475000Y-103460000D01*
X146125000Y-100340000D02*
X144450000Y-100340000D01*
X155035000Y-108492164D02*
X155035000Y-108707836D01*
X154315000Y-108492164D02*
X154315000Y-108707836D01*
X147547500Y-107535000D02*
X146747500Y-107535000D01*
X147547500Y-104415000D02*
X146747500Y-104415000D01*
X147547500Y-107535000D02*
X149347500Y-107535000D01*
X147547500Y-104415000D02*
X148347500Y-104415000D01*
X152963896Y-101620221D02*
X153116399Y-101467718D01*
X152454779Y-101111104D02*
X152607282Y-100958601D01*
X147232836Y-99960000D02*
X147017164Y-99960000D01*
X147232836Y-99240000D02*
X147017164Y-99240000D01*
X149845000Y-102646359D02*
X149845000Y-102953641D01*
X150605000Y-102646359D02*
X150605000Y-102953641D01*
%LPC*%
D14*
X143865000Y-105800000D03*
X144885000Y-105800000D03*
D15*
X137030000Y-104775000D03*
X137030000Y-105795000D03*
D16*
X143075000Y-114470000D03*
X143075000Y-115430000D03*
D17*
X135955000Y-107930000D03*
X135955000Y-106970000D03*
X154675000Y-106280000D03*
X154675000Y-105320000D03*
D18*
X139500000Y-100800000D03*
X139500000Y-99850000D03*
X139500000Y-98900000D03*
X137225000Y-98900000D03*
X137225000Y-99850000D03*
X137225000Y-100800000D03*
D16*
X150275000Y-104720000D03*
X150275000Y-105680000D03*
D19*
X144895000Y-108400000D03*
X145855000Y-108400000D03*
D20*
X146712500Y-110050000D03*
X145137500Y-110050000D03*
D21*
X139155000Y-105800000D03*
X139155000Y-104780000D03*
X138105000Y-105800000D03*
X138105000Y-104780000D03*
D16*
X143725000Y-111420000D03*
X143725000Y-112380000D03*
D22*
X151073134Y-113771638D03*
X148775000Y-115700000D03*
D23*
X151149264Y-100993503D03*
X151608883Y-100533883D03*
X152068503Y-100074264D03*
X150300736Y-98306497D03*
X149841117Y-98766117D03*
X149381497Y-99225736D03*
D24*
X150725000Y-99650000D03*
D17*
X140205000Y-105770000D03*
X140205000Y-104810000D03*
D16*
X138225000Y-114770000D03*
X138225000Y-115730000D03*
X146845000Y-111420000D03*
X146845000Y-112380000D03*
D25*
X148925000Y-103037500D03*
X148925000Y-101462500D03*
D14*
X143865000Y-106900000D03*
X144885000Y-106900000D03*
D26*
X142205000Y-111400000D03*
X142205000Y-110900000D03*
X142205000Y-110400000D03*
X142205000Y-109900000D03*
X142205000Y-109400000D03*
X142205000Y-108900000D03*
X142205000Y-108400000D03*
X142205000Y-107900000D03*
D27*
X141455000Y-107150000D03*
X140955000Y-107150000D03*
X140455000Y-107150000D03*
X139955000Y-107150000D03*
X139455000Y-107150000D03*
X138955000Y-107150000D03*
X138455000Y-107150000D03*
X137955000Y-107150000D03*
D26*
X137205000Y-107900000D03*
X137205000Y-108400000D03*
X137205000Y-108900000D03*
X137205000Y-109400000D03*
X137205000Y-109900000D03*
X137205000Y-110400000D03*
X137205000Y-110900000D03*
X137205000Y-111400000D03*
D27*
X137955000Y-112150000D03*
X138455000Y-112150000D03*
X138955000Y-112150000D03*
X139455000Y-112150000D03*
X139955000Y-112150000D03*
X140455000Y-112150000D03*
X140955000Y-112150000D03*
X141455000Y-112150000D03*
D28*
X139705000Y-109650000D03*
D29*
X145780000Y-111450000D03*
X144810000Y-111450000D03*
D30*
X145300000Y-95860000D03*
X144650000Y-95860000D03*
X144000000Y-95860000D03*
X143350000Y-95860000D03*
X142700000Y-95860000D03*
D31*
X147375000Y-93200000D03*
D32*
X145150000Y-93200000D03*
D33*
X146487500Y-95775000D03*
D34*
X142450000Y-93200000D03*
D31*
X140625000Y-93200000D03*
D33*
X141512500Y-95775000D03*
D17*
X149975000Y-109330000D03*
X149975000Y-108370000D03*
D14*
X146852500Y-108400000D03*
X147872500Y-108400000D03*
D35*
X148639376Y-98135624D03*
X149360624Y-97414376D03*
D16*
X144175000Y-114470000D03*
X144175000Y-115430000D03*
D36*
X145175000Y-98100000D03*
X147275000Y-98100000D03*
D37*
X151425000Y-109037500D03*
X153325000Y-109037500D03*
X152375000Y-107162500D03*
D38*
X143635000Y-102000000D03*
X142615000Y-102000000D03*
D17*
X148875000Y-109330000D03*
X148875000Y-108370000D03*
D39*
X143605000Y-103100000D03*
X142645000Y-103100000D03*
D40*
X141150000Y-115775000D03*
X141150000Y-114425000D03*
X140100000Y-114425000D03*
X140100000Y-115775000D03*
D39*
X142105000Y-117700000D03*
X141145000Y-117700000D03*
D41*
X145187500Y-100950000D03*
X145187500Y-102850000D03*
X147062500Y-101900000D03*
D16*
X154675000Y-108120000D03*
X154675000Y-109080000D03*
D18*
X148685000Y-106925000D03*
X148685000Y-105975000D03*
X148685000Y-105025000D03*
X146410000Y-105025000D03*
X146410000Y-106925000D03*
D42*
X152446178Y-101628822D03*
X153125000Y-100950000D03*
D39*
X147605000Y-99600000D03*
X146645000Y-99600000D03*
D15*
X150225000Y-102290000D03*
X150225000Y-103310000D03*
D43*
X135290000Y-105600000D03*
D44*
X152075000Y-105200000D03*
D45*
X152075000Y-103200000D03*
M02*
